<svg width="77" height="75" viewBox="0 0 77 75" fill="none" xmlns="http://www.w3.org/2000/svg">
<path d="M13.0529 58.4527C13.0161 58.4425 12.9719 58.4302 12.935 58.42C13.2098 58.2582 14.0054 58.764 13.0529 58.4527ZM11.1978 57.9072C11.1703 57.7489 11.126 57.5939 11.0449 57.4287C9.40733 54.2079 7.68597 51.0036 6.62254 47.5136C6.58809 47.4089 6.54425 47.3095 6.49836 47.2175C6.6946 46.5662 6.88143 45.9201 7.07563 45.2761C7.42528 44.128 7.78433 42.9746 8.13398 41.8266C9.75757 45.5272 12.0587 48.9001 13.129 52.8519C13.3022 53.4866 13.7352 53.8127 14.2261 53.901C14.1078 54.3282 13.9895 54.7553 13.8713 55.1825C13.5567 56.261 13.2275 57.3354 12.8909 58.4078C12.3299 58.2287 11.7649 58.0643 11.1958 57.9146M3.80847 56.0433C4.24264 54.7045 4.66208 53.3617 5.06883 52.0074C5.78274 53.6958 6.57923 55.3437 7.41131 56.9776C6.20602 56.6914 4.9954 56.3958 3.80847 56.0433M12.9306 35.7013C12.9306 35.7013 12.9544 35.7872 12.9663 35.8302C13.9868 38.3012 15.0093 40.765 16.0224 43.234C16.1937 43.6462 16.4622 43.8792 16.7675 43.9795C16.3602 45.6508 15.9602 47.3242 15.5382 48.9914C15.4566 49.286 15.3844 49.5752 15.3102 49.8718C13.6871 45.7114 11.0131 42.053 9.84177 37.6926C9.78229 37.4779 9.69585 37.3033 9.58651 37.1541C9.79011 36.5047 9.98431 35.8607 10.2026 35.2155C10.2128 35.1787 10.2251 35.1345 10.2541 35.087C10.9913 35.2595 11.9421 35.491 12.9326 35.694M18.7626 35.9446C18.4421 37.188 18.1289 38.4334 17.8252 39.6734C17.3604 38.5456 16.8956 37.4178 16.4235 36.288C17.7179 36.4244 18.6811 36.3819 18.7626 35.9446M21.6495 36.7441C21.6862 36.6115 21.6988 36.4802 21.702 36.3542C21.8707 34.5137 20.6141 33.9834 18.879 33.606C16.9798 33.1911 15.0677 32.8518 13.1657 32.4758C12.0238 32.2468 10.0695 31.3726 8.95397 31.7931C7.33094 32.4141 6.93506 35.6189 6.4891 37.0575C4.44491 43.5802 2.65644 50.1817 0.469044 56.6489C0.192362 57.4762 0.770984 58.2787 1.50053 58.5362C3.47229 59.2329 5.5245 59.7537 7.5391 60.2957C9.3033 60.7684 11.8706 61.8917 13.7442 61.6255C14.6187 61.5029 14.9416 61.1959 15.3856 60.4228C16.6307 58.2461 17.0568 55.018 17.6955 52.6257C19.0907 47.3585 20.2797 42.0342 21.6454 36.7588" fill="white"/>
<path d="M24.7917 61.8149C23.7661 61.1661 24.894 58.7825 25.2346 57.5526C25.2693 57.4275 25.306 57.2949 25.3407 57.1697C26.1479 58.9791 26.974 60.7779 27.8189 62.566C26.6914 62.4282 25.4944 62.2553 24.7917 61.8149ZM43.8773 30.8633C43.6166 31.7188 43.4475 32.6156 43.2619 33.2858C42.7732 32.302 42.2676 31.3215 41.7997 30.3197C42.492 30.5114 43.1809 30.6863 43.8773 30.8633M30.5693 39.2622C31.1583 37.0782 31.7398 34.8922 32.3214 32.7062C34.1677 38.2367 36.4283 43.5886 39.1072 48.7471C38.4783 51.1896 37.8475 53.6395 37.2166 56.0894C34.6508 50.6371 32.4375 45.0288 30.5693 39.2622M38.0715 29.2079C39.1184 31.9559 40.6993 34.4078 41.7368 37.1611C41.8151 37.3651 41.9203 37.5291 42.0411 37.6656C41.4387 39.8696 40.849 42.0851 40.2686 44.2953C37.8672 39.3088 35.8519 34.1596 34.238 28.8203C34.1096 28.3962 33.8607 28.1212 33.5665 27.9524C33.5889 27.8714 33.6134 27.7831 33.6358 27.7021C35.1056 28.2359 36.5814 28.7477 38.0695 29.2153M31.3333 62.9604C29.7092 59.5768 28.1488 56.1632 26.6616 52.7145C26.8151 52.2178 26.9705 51.7137 27.1239 51.217C27.8298 48.9544 28.4968 46.6889 29.1437 44.41C31.1214 49.9531 33.4159 55.3541 36.0348 60.6149C35.7374 61.7457 35.4254 62.8725 35.1207 64.0013C33.8857 63.7941 32.6616 63.5185 31.4395 63.2356C31.4104 63.1403 31.3792 63.0524 31.3354 62.953M45.4366 36.5998C45.816 35.23 46.1973 33.8528 46.6061 32.4912C46.7257 32.0882 46.9838 31.557 47.0276 31.141C47.0341 31.0318 47.0585 30.9434 47.0789 30.8698C46.9444 30.9832 46.72 31.1351 46.3528 31.2871C47.6102 30.7552 47.9882 28.7031 46.3905 28.3162C41.8386 27.2301 37.3976 25.8575 33.0195 24.2011C32.373 23.9586 31.8594 24.1811 31.5448 24.6015C31.3792 24.7697 31.2456 24.9944 31.1661 25.2816C29.662 30.9707 28.1633 36.6691 26.613 42.3533C25.1328 47.7555 23.2234 53.0469 21.8664 58.4912C21.3135 60.7169 20.4277 63.5719 23.055 64.5929C24.6651 65.2212 26.6446 65.3174 28.3335 65.6899C30.9424 66.2617 33.5331 66.8999 36.1791 67.252C36.8222 67.3349 37.4741 66.6988 37.6373 66.1096C39.3178 60.0412 40.8162 53.9145 42.423 47.8257C43.4055 44.0776 44.4026 40.3336 45.4293 36.5978" fill="white"/>
<path d="M46.1056 67.6859C46.166 67.4965 46.1899 67.2097 46.1667 66.8068C46.2727 66.4238 46.3861 66.0429 46.4996 65.662C46.5567 65.4558 46.6211 65.2516 46.6803 65.0381C47.2522 66.1797 47.8712 67.2947 48.5392 68.3757C47.7332 68.1366 46.9132 67.862 46.1056 67.6859M45.3213 67.5401C45.3213 67.5401 45.2551 67.5217 45.2236 67.5209C44.3272 67.4075 45.1981 67.3553 45.3213 67.5401ZM58.6358 61.609C58.717 61.9169 58.8595 62.1467 59.0405 62.3237C58.5799 63.9009 58.1341 65.4822 57.7029 67.0677C55.4843 61.9653 53.1267 56.9354 50.6152 51.974C51.1456 50.2019 51.6633 48.4185 52.1863 46.6444C54.4666 51.5815 57.298 56.2748 58.6431 61.611M61.1939 25.2558C62.9982 29.8787 64.8 34.4533 65.5835 39.412C65.6456 39.8178 65.8242 40.0892 66.0587 40.2731C65.3471 42.4707 64.6281 44.6662 63.9111 46.8544C61.898 41.468 58.7837 36.5933 56.6512 31.2373C56.6319 31.1923 56.6086 31.162 56.5893 31.1171C57.5193 27.7588 58.4272 24.3945 59.3297 21.0207C59.9757 22.611 60.7532 24.1268 61.1959 25.2484M62.1175 51.155C62.1664 51.3508 62.2495 51.5087 62.3441 51.6538C61.7206 53.5903 61.1045 55.5289 60.5031 57.4716C58.5957 52.3047 55.6227 47.6357 53.6597 42.4693C53.6146 42.3458 53.5507 42.233 53.4901 42.1369C54.1077 39.9926 54.7085 37.8515 55.3114 35.7031C57.7043 40.8062 60.6921 45.622 62.1175 51.155M68.0967 17.6522C69.4841 17.9968 70.8674 18.3561 72.2445 18.7374C71.7708 20.763 71.2603 22.7784 70.7203 24.7856C69.8475 22.411 68.9768 20.0289 68.0967 17.6522ZM64.5966 16.8336C66.0802 20.8681 67.5637 24.9027 69.0473 28.9372C69.1268 29.1654 69.2501 29.3502 69.3909 29.5002C68.8536 31.3258 68.307 33.1567 67.7402 34.9742C67.0492 32.2296 66.1059 29.5658 65.0787 26.9184C64.3442 25.0181 63.5667 23.1297 62.8678 21.2155C62.5726 20.4201 62.2869 19.6194 62.02 18.8081C61.8477 18.2847 61.2986 16.4595 61.2594 16.5438C61.3276 16.412 61.3717 16.2815 61.4063 16.1563C62.4745 16.3649 63.546 16.5902 64.606 16.8283M52.2285 68.4538C50.6178 66.0809 49.2443 63.5676 48.1079 60.9137C48.0747 60.8332 48.0354 60.7747 47.9907 60.7068C48.0641 60.4417 48.1523 60.1807 48.231 59.9249C48.6125 58.6905 48.9813 57.4447 49.3554 56.2082C51.6117 60.7739 53.7477 65.4014 55.7468 70.0941C54.6573 69.8479 53.5698 69.5944 52.4844 69.3334C52.5063 69.054 52.4304 68.7555 52.2285 68.4538M75.4824 18.0403C75.67 17.22 75.2664 16.3867 74.451 16.1529C69.6857 14.7778 64.8604 13.6477 59.9826 12.7648C59.1963 12.6263 58.3584 12.989 58.1272 13.8527C53.6926 30.7827 48.6924 47.4927 43.7865 64.2922C43.2973 65.9726 41.6462 68.8139 43.4246 70.1231C44.4183 70.8582 46.2093 71.0053 47.3663 71.294C50.7396 72.1409 54.1312 72.9215 57.5237 73.6707C57.7246 73.7184 57.9156 73.7158 58.098 73.687C58.6604 73.6604 59.1972 73.3254 59.3791 72.5828C63.8612 54.1356 71.3338 36.572 75.4918 18.035" fill="white"/>
</svg>
