<svg width="93" height="88" viewBox="0 0 93 88" fill="none" xmlns="http://www.w3.org/2000/svg">
<path d="M18.1898 30.9625C16.9538 32.5741 16.4104 34.7285 14.9293 36.1112C15.3513 35.4956 15.9134 34.9986 16.5663 34.6599C15.0561 36.3948 11.9113 41.223 13.6798 43.2541C16.5091 40.6768 17.9114 36.1549 19.4089 32.7498C18.5577 34.8798 18.3627 37.1393 19.1933 39.3163C21.8663 36.1464 23.3651 31.8553 24.7877 28.0192C25.0277 29.2102 23.6934 33.6856 23.5399 34.5641C23.1711 36.6429 23.1205 39.1474 21.9926 41.0496C24.3728 37.5511 25.2825 32.9668 26.4236 28.9474C26.6265 30.8136 24.117 36.5473 23.7974 37.3809C21.9281 42.3111 20.3222 47.6342 17.9139 52.3488C18.7057 50.5182 19.535 48.6736 20.3782 46.8666C21.8586 43.7026 23.4546 40.5915 25.1605 37.5463C25.2152 35.627 25.9065 34.5592 27.2285 34.3559C25.8117 41.0489 25.0589 48.0072 24.1853 54.669C23.9158 49.9257 27.0301 43.0925 28.5686 39.224C31.4747 31.9454 35.6784 19.4902 42.2477 14.3172C41.6382 18.2457 38.5797 23.1912 36.8568 26.4775C34.0078 31.8145 30.9263 37.014 27.603 42.0794C26.5449 43.7102 23.9802 48.2909 22.2592 50.0614C24.1534 43.8204 27.5916 38.3176 30.8942 32.7372C32.749 29.6047 35.6212 23.0961 38.8533 20.4544C38.0001 22.0624 38.1042 24.9256 37.739 26.5549C36.8094 29.909 35.5688 33.144 34.0172 36.2598C33.3049 37.7301 31.4128 40.4178 30.9992 42.2039C35.6599 34.049 41.3003 25.8606 47.5857 18.8621C46.9908 19.7873 46.6016 20.8068 46.4018 21.9052C44.7848 26.9977 42.867 30.8792 39.5716 35.1873C36.5852 39.0926 33.4599 43.6576 29.9794 47.181C30.31 45.3725 37.9996 34.8329 37.009 36.2146C44.4784 25.7141 53.3846 16.6105 61.6689 6.80992C55.1036 12.6536 50.7943 21.9261 45.0121 28.5562C39.729 34.6061 33.6117 40.5073 26.5555 44.4851C28.207 41.2361 32.6026 37.7351 35.2914 35.5835C38.1773 33.2732 42.3599 30.2036 46.0161 29.0472C43.2946 34.4116 39.1218 38.9712 35.3561 43.5928C32.0408 47.503 28.8363 51.5106 25.7522 55.6122C24.889 57.0213 23.7518 58.0948 22.3381 58.855C28.5035 52.0504 37.4443 46.3692 45.175 41.4793C44.4237 43.4762 41.4401 45.9828 40.3181 47.04C35.747 51.3316 30.477 54.432 25.6425 58.3308C38.7787 47.5482 55.0165 40.0294 70.4378 33.1555C72.6228 36.0773 39.4576 52.4167 34.5968 54.0635C37.8872 52.2963 41.2321 50.7329 44.6785 49.2705C48.555 47.6161 53.4674 46.7396 57.2054 44.8274C54.6496 46.3322 52.3431 47.819 49.6147 49.0892C43.7313 51.8309 36.77 52.9357 31.3475 56.5729C44.0608 53.2341 57.1111 49.1085 69.3246 44.1952C65.0385 45.8097 60.7479 47.3833 56.4549 48.979L71.8741 43.2475C64.4035 46.0244 56.912 48.7451 49.4868 51.6439C56.0089 48.6114 62.8895 45.0509 68.5402 40.5927C68.5061 40.2427 68.3218 40.0338 67.9848 39.9884C69.7109 38.4613 71.4283 36.308 71.3896 33.8792C70.1343 33.7164 69.0189 34.5044 67.7395 34.5639C67.5956 31.2782 71.7811 30.0531 72.2386 27.2372C70.5781 28.7399 69.0844 30.8635 68.2474 32.9456C69.0683 29.5572 72.2261 24.276 70.5727 20.8899C70.5153 22.9169 69.0003 25.5285 67.3304 26.6613C67.6645 24.03 69.4844 20.8037 68.2488 18.2545C65.1987 19.4629 63.0909 22.6895 60.4928 24.6261C60.8663 22.9617 61.3416 21.3128 61.5174 19.6045C60.3317 19.6291 59.711 20.5426 59.6461 22.3484C56.4871 26.8512 53.2895 31.3364 50.0685 35.7876C48.2 38.4238 43.305 43.796 42.6299 47.3755C43.1974 46.2044 43.5217 44.953 43.6028 43.6213C44.5291 39.799 46.5049 36.5041 47.624 32.7702C48.1014 31.1845 48.1075 28.6752 49.0772 27.2372C49.5169 26.583 50.4143 26.2708 50.8783 25.6822C51.9943 24.2645 51.8398 23.4471 53.3641 22.4965C55.9976 20.8561 59.1206 17.8923 62.0623 16.9375C62.8055 18.1335 60.6719 22.1805 60.389 22.8831C58.0844 28.5939 54.8966 34.1103 53.5496 40.1586C55.7823 33.8237 58.3501 27.759 60.9755 21.6195C61.7226 19.8696 62.0495 18.1371 63.4793 16.6455C64.6214 17.9386 63.3268 22.4632 63.2264 23.5993C62.966 27.8355 62.7724 32.0789 62.6642 36.3225C62.5976 37.8942 62.7752 41.2421 62.0292 43.0236C62.3182 41.0172 63.3325 38.7519 63.9207 36.8903C64.6377 34.6287 65.3926 28.9392 67.6581 27.4569C69.3284 33.0985 67.6529 39.4396 68.686 45.2327C68.3714 43.5253 68.8446 42.1865 69.5735 40.646C70.2637 39.1733 71.1993 36.5531 72.1807 35.5482C79.6083 39.5724 62.5648 48.0521 60.7424 48.8896C55.9666 51.0809 50.9901 52.6747 46.2575 54.9246C44.9436 55.5517 43.6734 56.0665 42.2921 56.5693C39.7015 57.5216 27.8711 63.5514 26.6148 60.8605" stroke="#F4923B" stroke-width="7" stroke-linecap="round" stroke-linejoin="round"/>
<path d="M64.8092 11.5843C69.6619 22.1133 74.1243 32.798 78.5187 43.5294C59.7986 51 41.1905 58.5997 22.2519 65.5114C18.5158 54.5994 14.9157 43.5941 10.8293 32.8017C28.5779 24.956 46.2695 17.3876 64.8057 11.5749M20.8751 68.9251C21.1568 69.023 21.4892 69.0275 21.8454 68.8951C41.7856 61.6644 61.3382 53.6496 81.0262 45.7978C81.7691 45.5003 82.2328 44.6239 81.9214 43.8435C77.1668 32.2005 72.3476 20.6135 67.0539 9.21364C66.6921 8.4413 65.9418 8.05875 65.0995 8.31849C45.5796 14.3262 27.023 22.3228 8.3837 30.5849C7.64187 30.914 7.18542 31.7237 7.48855 32.5392C11.9598 44.2235 15.8263 56.1752 19.8945 68.0093C20.0838 68.5471 20.4575 68.8349 20.8785 68.9345" fill="black"/>
<path d="M3.60597 30.131C24.5228 20.2755 46.0107 11.6694 67.9548 4.37656C69.807 3.76275 68.7513 0.922614 66.8991 1.53642C44.955 8.82924 23.473 17.4225 2.54677 27.2815C0.796939 28.1133 1.83391 30.9604 3.60597 30.131Z" fill="black"/>
<path d="M86.0014 47.2448C74.5041 50.985 63.5006 56.0247 52.2542 60.4399C41.2234 64.7749 30.1926 69.11 18.86 72.5757C16.9939 73.152 18.059 75.9886 19.9157 75.4158C29.8016 72.3918 39.4529 68.7083 49.0823 64.9369C48.6563 68.5838 48.2244 72.2436 47.7983 75.8906C47.5669 77.8223 50.5593 78.3529 50.7873 76.4119C51.2911 72.1705 51.782 67.9234 52.2858 63.682C52.6326 63.5531 52.9759 63.4148 53.3193 63.2765C54.3246 62.8815 55.3359 62.4736 56.3377 62.0692C58.9657 65.1784 61.5902 68.2782 64.2182 71.3874C65.471 72.8633 67.9456 71.1113 66.673 69.6107C64.213 66.6951 61.7436 63.783 59.2836 60.8675C68.4764 57.0983 77.603 53.1511 87.063 50.072C88.9187 49.4676 87.8629 46.6275 86.0073 47.2319" fill="black"/>
<path d="M31.8292 53.1611C34.3296 48.551 36.6372 43.8526 38.7998 39.08C41.1736 41.0462 43.5509 43.0216 45.9246 44.9878C46.7548 45.6713 47.7626 45.2541 48.2635 44.4491C51.3172 39.548 54.219 34.554 56.9923 29.5011C57.0132 29.5574 57.0376 29.623 57.0585 29.6792C57.5722 30.9178 58.0731 32.1505 58.5869 33.3892C59.3319 35.1926 62.1755 34.1462 61.427 32.3334C60.8366 30.8886 60.2368 29.4473 59.6499 28.0118C59.1501 26.8107 58.7879 25.3771 58.0184 24.3402C57.7199 23.9391 57.1684 23.632 56.6555 23.7159C55.3276 23.9322 54.3604 24.8891 53.2418 25.5823C51.9005 26.4223 50.4508 27.0572 49.0047 27.7014C47.2281 28.4898 48.2744 31.3334 50.0604 30.5415C51.2945 29.9868 52.5191 29.4356 53.7124 28.7999C53.818 28.7394 53.9235 28.6788 54.029 28.6183C51.6217 32.991 49.1268 37.3003 46.5128 41.5473L39.1929 35.488C38.4503 34.8679 37.2475 35.1336 36.854 36.0267C34.466 41.4271 31.8688 46.7239 29.0624 51.9172C28.134 53.6385 30.8949 54.8953 31.8139 53.1775" fill="black"/>
</svg>
