<svg width="100" height="100" viewBox="0 0 100 100" fill="none" xmlns="http://www.w3.org/2000/svg">
  <path d="M92 100H8C3.6 100 0 96.4 0 92V8C0 3.6 3.6 0 8 0H92C96.4 0 100 3.6 100 8V92C100 96.4 96.4 100 92 100Z" fill="#421983"/>
  <path d="M48.4 41.5999L30.4 59.5999C30.1 59.8999 30.1 60.3499 30.4 60.6499L66.4 96.6499C66.7 96.9499 67.15 96.9499 67.45 96.6499L85.45 78.6499C87.15 76.9499 89.8 76.6999 91.8 77.9499C92.15 78.1999 92.65 77.8999 92.65 77.4499V35.1499C92.65 34.7499 92.3 34.3999 91.9 34.3999H49.55C49.1 34.3999 48.85 34.8999 49.05 35.2499C50.35 37.1999 50.1 39.8499 48.4 41.5999Z" fill="#6B30C7"/>
  <path d="M15.9 49.45H18.65L25.15 66.4H22.5L20.45 60.9H14.05L12 66.4H9.40002L15.9 49.45ZM19.6 58.65L17.25 52.3L14.9 58.65H19.6Z" fill="white"/>
  <path d="M31.7 54.95C33.25 54.95 34.55 55.6 35.45 56.65L35.55 55.15H37.7V66.25C37.7 69.4 35.55 71.6 32.05 71.6C28.9 71.6 27 69.95 26.65 67.8L29.05 67.35C29.3 68.7 30.35 69.45 32.1 69.45C34.1 69.45 35.4 68.35 35.4 66.45V64.8C34.5 65.85 33.2 66.45 31.7 66.45C28.55 66.45 26.25 64.05 26.25 60.75C26.25 57.35 28.55 54.95 31.7 54.95ZM32.05 64.25C34.05 64.25 35.4 62.8 35.4 60.7C35.4 58.55 34.05 57.1 32.05 57.1C30.05 57.1 28.7 58.55 28.7 60.7C28.65 62.8 30.05 64.25 32.05 64.25Z" fill="white"/>
  <path d="M40.35 60.75C40.35 57.4 42.75 54.95 46.05 54.95C49.3 54.95 51.55 57.15 51.55 60.35C51.55 60.7 51.5 61.05 51.45 61.45H42.75C43 63.55 44.3 64.55 46.2 64.55C47.85 64.55 48.8 63.8 49.25 62.6L51.5 63C50.9 65.25 48.95 66.6 46.25 66.6C42.6 66.6 40.35 64.15 40.35 60.75ZM42.85 59.55H49.05C48.8 57.9 47.7 56.95 46.05 56.95C44.6 56.9 43.25 57.8 42.85 59.55Z" fill="white"/>
  <path d="M54.3 55.15H56.45L56.55 56.55C57.4 55.55 58.6 54.95 60.05 54.95C62.45 54.95 64.45 56.55 64.45 59.65V66.4H62.1V59.95C62.1 58.05 61 57.1 59.5 57.1C58.1 57.1 56.65 57.9 56.65 60.1V66.4H54.3V55.15Z" fill="white"/>
  <path d="M72.5501 54.95C75.3001 54.95 77.2501 56.55 77.7501 58.95L75.4001 59.35C75.0501 58 74.0001 57.15 72.5501 57.15C70.6001 57.15 69.2501 58.55 69.2501 60.8C69.2501 63 70.6001 64.5 72.5501 64.5C74.2001 64.5 75.2501 63.55 75.5501 62.15L77.9001 62.55C77.5001 64.9 75.4001 66.6 72.6001 66.6C69.3001 66.6 66.8501 64.15 66.8501 60.75C66.8001 57.4 69.2501 54.95 72.5501 54.95Z" fill="white"/>
  <path d="M81.1001 55.1499L84.6001 63.3499L87.6501 55.1499H90.1001L83.7501 71.3499H81.3501L83.3001 66.2999L78.4501 55.1499H81.1001Z" fill="white"/>
  <path d="M11 72.05H17.35C20.8 72.05 23.05 74.25 23.05 77.3C23.05 80.3 20.8 82.55 17.35 82.55H13.5V89H11V72.05ZM13.5 74.35V80.3H17.35C19.3 80.3 20.5 79.1 20.5 77.3C20.5 75.45 19.3 74.3 17.35 74.3H13.5V74.35Z" fill="white"/>
  <path d="M32.1501 87.15C31.2501 88.45 29.9001 89.2 28.2001 89.2C26.1001 89.2 24.6 88 24.6 85.95C24.6 83.7 26.5 82.8 29 82.2L32.05 81.5C31.8 80.1 30.85 79.5 29.55 79.5C28.1 79.5 27.15 80.1 26.8 81.45L24.55 81.05C25.1 78.9 26.9 77.5 29.55 77.5C32.45 77.5 34.35 79.05 34.35 82.05V89H32.25L32.1501 87.15ZM28.6 87.25C30.35 87.25 32.1 86.05 32.1 83.65V83.4L29.1 84.15C27.8 84.45 27 84.9 27 85.85C27 86.7 27.65 87.25 28.6 87.25Z" fill="white"/>
  <path d="M37.65 77.7499H39.85L39.95 79.2999C40.6 78.2499 41.7 77.5999 43.2 77.5999C43.6 77.5999 43.9 77.6499 44.3 77.7499L44 79.9999C43.6 79.8999 43.25 79.8499 42.85 79.8499C41.3 79.8499 40 80.9999 40 83.1499V88.9999H37.65V77.7499Z" fill="white"/>
  <path d="M48.85 75.45H49.4V77.8H53.45V79.85H49.4V85.3C49.4 86.55 50 87.1 51.15 87.1C51.65 87.1 52.2 86.95 52.8 86.7L53.35 88.6C52.55 89 51.65 89.2 50.7 89.2C48.45 89.2 47.1 87.95 47.1 85.75V79.8H45.05V79.2L48.85 75.45Z" fill="white"/>
  <path d="M55.55 77.75H57.7L57.8001 79.15C58.6501 78.15 59.8501 77.55 61.3001 77.55C63.7001 77.55 65.7001 79.15 65.7001 82.2501V89.0001H63.3501V82.5501C63.3501 80.6501 62.2501 79.7 60.7501 79.7C59.3501 79.7 57.9001 80.5 57.9001 82.7V89.0001H55.55V77.75Z" fill="white"/>
  <path d="M68.1 83.35C68.1 80 70.5 77.55 73.8 77.55C77.05 77.55 79.3 79.75 79.3 82.95C79.3 83.3 79.25 83.65 79.2 84.05H70.5C70.75 86.15 72.05 87.15 73.95 87.15C75.6 87.15 76.55 86.4 77 85.2L79.25 85.6C78.65 87.85 76.7 89.2 74 89.2C70.35 89.2 68.1 86.75 68.1 83.35ZM70.6 82.15H76.8C76.55 80.5 75.45 79.55 73.8 79.55C72.3 79.55 71 80.4 70.6 82.15Z" fill="white"/>
  <path d="M82 77.7499H84.2L84.3 79.2999C84.95 78.2499 86.05 77.5999 87.55 77.5999C87.95 77.5999 88.25 77.6499 88.65 77.7499L88.35 80.0499C87.95 79.9499 87.6 79.8999 87.2 79.8999C85.65 79.8999 84.35 81.0499 84.35 83.1999V88.9999H82V77.7499Z" fill="white"/>
  <path d="M64.55 15.1001C64.55 13.8001 63.75 12.8501 62.25 12.8501H57.35V19.5501H58.95V17.2501H60.85L62.75 19.5501H64.55V19.4001L62.75 17.2001C63.85 17.0001 64.55 16.2001 64.55 15.1001ZM62.05 15.9501H58.95V14.3001H62.05C62.65 14.3001 63 14.6001 63 15.1501C63 15.6501 62.65 15.9501 62.05 15.9501Z" fill="white"/>
  <path d="M89 12.9001H87.5V15.4001H83.4V12.9001H81.75V19.6001H83.4V16.9501H87.5V19.6001H89V12.9001Z" fill="white"/>
  <path d="M52.95 12.9001L51.15 18.5001H51.05L49.25 12.9001H46.4V19.6001H47.9V14.1001H48L49.8 19.6001H52.3L54.1 14.1001H54.2V19.6001H55.8V12.9001H52.95Z" fill="white"/>
  <path d="M35.35 15.6C34.8 15.55 33.7 15.45 33.15 15.4C32.6 15.35 32.25 15.2 32.25 14.8C32.25 14.45 32.6 14.15 34 14.15C35.25 14.15 36.35 14.4 37.35 14.9V13.4C36.35 12.95 35.25 12.7 33.9 12.7C32 12.7 30.65 13.5 30.65 14.85C30.65 16 31.4 16.6 33 16.8C33.55 16.85 34.5 16.95 35.2 17C35.95 17.05 36.15 17.3 36.15 17.6C36.15 18.05 35.65 18.35 34.35 18.35C33.05 18.35 31.7 17.9 30.75 17.3V18.85C31.5 19.35 32.85 19.8 34.3 19.8C36.4 19.8 37.7 19 37.7 17.55C37.7 16.45 37 15.8 35.35 15.6Z" fill="white"/>
  <path d="M38.75 12.9001V19.6001H45V18.2001H40.3V16.8501H44.95V15.5001H40.3V14.2501H45V12.9001H38.75Z" fill="white"/>
  <path d="M78.4 15.6C77.85 15.55 76.75 15.45 76.2 15.4C75.65 15.35 75.3 15.2 75.3 14.8C75.3 14.45 75.65 14.15 77.05 14.15C78.3 14.15 79.4 14.4 80.4 14.9V13.4C79.4 12.95 78.3 12.7 76.95 12.7C75.05 12.7 73.7 13.5 73.7 14.85C73.7 16 74.45 16.6 76.05 16.8C76.6 16.85 77.55 16.95 78.25 17C79 17.05 79.2 17.3 79.2 17.6C79.2 18.05 78.7 18.35 77.4 18.35C76.1 18.35 74.75 17.9 73.8 17.3V18.85C74.55 19.35 75.9 19.8 77.35 19.8C79.45 19.8 80.75 19 80.75 17.55C80.8 16.45 80.05 15.8 78.4 15.6Z" fill="white"/>
  <path d="M71.05 12.9001V16.3501C71.05 17.6501 70.25 18.3501 69.05 18.3501C67.85 18.3501 67.05 17.6501 67.05 16.3001V12.9001H65.45V16.1501C65.45 18.6001 66.95 19.8001 69.05 19.8001C71.05 19.8001 72.6 18.6501 72.6 16.2501V12.9001C72.6 12.9001 71.05 12.9001 71.05 12.9001Z" fill="white"/>
  <path d="M25.15 16.2C25.15 16.55 25 16.6 24.55 16.6C24.1 16.6 24.05 16.5 24 16.2C23.9 15.35 23.35 14.65 22.4 14.55C22.05 14.5 22 14.4 22 14C22 13.65 22.05 13.5 22.35 13.5C24 13.5 25.15 14.85 25.15 16.2ZM27.55 16.2C27.55 13.65 25.85 11 21.9 11H14.05C13.9 11 13.8 11.1 13.8 11.25C13.8 11.35 13.85 11.4 13.9 11.45C14.2 11.7 14.6 11.9 15.15 12.2C15.7 12.45 16.1 12.65 16.55 12.8C16.75 12.85 16.8 12.95 16.8 13.05C16.8 13.2 16.7 13.25 16.5 13.25H10.25C10.05 13.25 10 13.35 10 13.5C10 13.6 10.05 13.7 10.1 13.75C10.6 14.3 11.4 14.9 12.6 15.65C13.65 16.3 14.9 17 15.9 17.45C16.05 17.55 16.15 17.65 16.1 17.7C16.1 17.8 16 17.9 15.8 17.9H13C12.85 17.9 12.75 18 12.75 18.1C12.75 18.15 12.8 18.25 12.9 18.35C13.55 18.95 14.6 19.6 15.95 20.15C17.8 20.95 19.7 21.4 21.8 21.4C25.8 21.55 27.55 18.55 27.55 16.2ZM22.35 19.95C20.3 19.95 18.6 18.3 18.6 16.2C18.6 14.15 20.3 12.5 22.35 12.5C24.45 12.5 26.1 14.15 26.1 16.2C26.05 18.25 24.4 19.95 22.35 19.95Z" fill="#FF642D"/>
  <path d="M14.6 34.25C16.7 34.25 18.3 35.45 18.7 37.35L17.3 37.75C17 36.4 16.1 35.55 14.6 35.55C12.6 35.55 11.5 37.15 11.5 39.05C11.5 40.95 12.6 42.55 14.6 42.55C16.15 42.55 17.15 41.65 17.4 40.35L18.8 40.75C18.3 42.7 16.75 43.85 14.55 43.85C11.7 43.85 10 41.75 10 39.05C10 36.4 11.85 34.25 14.6 34.25Z" fill="white"/>
  <path d="M19.65 40.65C19.65 38.8 20.95 37.45 22.8 37.45C24.6 37.45 25.85 38.65 25.85 40.4C25.85 40.6 25.85 40.8 25.8 41H21C21.1 42.15 21.85 42.7 22.9 42.7C23.8 42.7 24.35 42.3 24.55 41.65L25.8 41.85C25.45 43.1 24.4 43.85 22.9 43.85C20.9 43.85 19.65 42.5 19.65 40.65ZM21.05 39.95H24.5C24.4 39.05 23.75 38.5 22.85 38.5C22 38.5 21.25 39 21.05 39.95Z" fill="white"/>
  <path d="M27.35 37.5499H28.55L28.6 38.4C28.95 37.85 29.55 37.45 30.4 37.45C30.6 37.45 30.75 37.4999 31 37.5499L30.8 38.8C30.6 38.75 30.4 38.7 30.15 38.7C29.3 38.7 28.55 39.35 28.55 40.5V43.75H27.25V37.5499H27.35Z" fill="white"/>
  <path d="M33.5499 36.25H33.8499V37.55H36.0999V38.65H33.8499V41.65C33.8499 42.35 34.1999 42.65 34.7999 42.65C35.0999 42.65 35.3999 42.55 35.6999 42.45L35.9999 43.5C35.5499 43.7 35.0499 43.85 34.5499 43.85C33.2999 43.85 32.5499 43.15 32.5499 41.95V38.65H31.45V38.3L33.5499 36.25Z" fill="white"/>
  <path d="M37.9 34.7C38.4 34.7 38.75 35.05 38.75 35.4999C38.75 35.9999 38.4 36.2999 37.9 36.2999C37.45 36.2999 37.1 35.9499 37.1 35.4999C37.05 35.05 37.4 34.7 37.9 34.7ZM37.25 37.5499H38.55V43.7499H37.25V37.5499Z" fill="white"/>
  <path d="M42.35 38.65V43.75H41.05V38.65H39.6V38.3L40.3 37.5H41.1V36.5C41.1 35.15 42.05 34.25 43.3 34.25C43.65 34.25 43.95 34.3 44.3 34.4L44.05 35.5C43.8 35.45 43.65 35.35 43.4 35.35C42.75 35.35 42.35 35.7 42.35 36.4V37.45H44.5V38.55H42.35V38.65ZM46.05 34.7C46.55 34.7 46.9 35.05 46.9 35.5C46.9 36 46.55 36.3 46.05 36.3C45.6 36.3 45.25 35.95 45.25 35.5C45.2 35.05 45.55 34.7 46.05 34.7ZM45.4 37.55H46.7V43.75H45.4V37.55Z" fill="white"/>
  <path d="M48.15 40.65C48.15 38.8 49.45 37.45 51.3 37.45C53.1 37.45 54.35 38.65 54.35 40.4C54.35 40.6 54.35 40.8 54.3 41H49.5C49.6 42.15 50.35 42.7 51.4 42.7C52.3 42.7 52.85 42.3 53.05 41.65L54.3 41.85C53.95 43.1 52.9 43.85 51.4 43.85C49.4 43.85 48.15 42.5 48.15 40.65ZM49.55 39.95H53C52.9 39.05 52.25 38.5 51.35 38.5C50.5 38.5 49.75 39 49.55 39.95Z" fill="white"/>
  <path d="M60.55 43.7501L60.5 42.9001C60 43.5001 59.25 43.8501 58.4 43.8501C56.65 43.8501 55.35 42.5001 55.35 40.6501C55.35 38.8001 56.65 37.4501 58.4 37.4501C59.25 37.4501 59.95 37.8001 60.45 38.3501V34.4001H61.75V43.7501H60.55ZM56.7 40.6501C56.7 41.8501 57.45 42.7001 58.55 42.7001C59.65 42.7001 60.4 41.9001 60.4 40.6501C60.4 39.4001 59.65 38.6501 58.55 38.6501C57.45 38.6001 56.7 39.4501 56.7 40.6501Z" fill="white"/>
</svg>
