<svg xmlns="http://www.w3.org/2000/svg" xmlns:xlink="http://www.w3.org/1999/xlink" width="1920" zoomAndPan="magnify" viewBox="0 0 1440 809.999993" height="1080" preserveAspectRatio="xMidYMid meet" version="1.0"><path fill="#ec5a31" d="M 602.316406 638.078125 C 561.324219 632.222656 521.910156 622.351562 485.253906 608.042969 C 505.445312 582.917969 528.855469 547.730469 540.816406 513.171875 C 551.292969 482.90625 552.980469 453.125 536.203125 430.949219 C 523.246094 413.828125 505.277344 411.496094 487.144531 416.90625 C 463.332031 424.015625 439.230469 444.535156 426.007812 462.222656 C 435.949219 440.5625 441.953125 409.941406 438.695312 384.773438 C 436.03125 364.253906 427.21875 347.371094 409.464844 341.789062 C 377.648438 331.773438 343.285156 344.6875 322.703125 364.730469 C 313.65625 358.515625 303.054688 354.960938 292.089844 354.664062 C 289.304688 354.589844 286.484375 354.722656 283.667969 355.078125 C 306.25 250.753906 463.695312 202.390625 574.148438 364.019531 C 639.886719 268.617188 793.996094 213.851562 930.171875 215.289062 C 929.746094 220.675781 931.203125 226.46875 934.394531 232.351562 C 940.214844 243.078125 951.820312 254.121094 968.113281 263.496094 C 964.980469 265.457031 962.164062 267.628906 959.757812 270.011719 C 951.953125 277.734375 948.457031 287.628906 952.777344 299.4375 C 958.515625 315.113281 974.429688 326.496094 993.519531 333.671875 C 1022.0625 344.402344 1057.6875 345.726562 1076.710938 338.121094 C 1077.023438 337.996094 1079.644531 336.949219 1082.683594 335.625 C 1080.3125 337.703125 1078.097656 339.867188 1076.84375 341.441406 C 1066.910156 353.957031 1064.542969 374.074219 1069.824219 388.949219 C 1075.460938 404.835938 1088.019531 412.617188 1102.582031 415.816406 C 1114.609375 418.460938 1128.011719 417.972656 1139.972656 416.367188 C 1138.664062 422.832031 1136.972656 429.351562 1134.867188 435.898438 C 1118.359375 487.21875 1082.308594 532.601562 1032.578125 565.582031 C 1025.222656 555.640625 1015.238281 547.574219 1003.824219 541.285156 C 975.035156 525.417969 937.148438 520.828125 909.589844 525.722656 C 883.09375 530.433594 858.398438 537.851562 835.957031 555.710938 C 835.515625 552.046875 833.230469 536.890625 823.476562 524.667969 C 786.050781 477.761719 710.894531 478.371094 676.957031 527.308594 C 669.957031 537.40625 660.984375 553.832031 658.089844 569.601562 C 645.605469 565.8125 631.15625 569.21875 620.019531 579.542969 C 607.808594 590.851562 599.554688 610.496094 602.316406 638.078125 Z M 1031.816406 566.085938 C 1008.667969 581.335938 982.574219 593.90625 954.128906 603.152344 C 842.054688 639.574219 716.679688 654.234375 603.242188 638.207031 C 600.453125 610.875 608.550781 591.40625 620.632812 580.207031 C 631.554688 570.09375 645.710938 566.75 657.933594 570.507812 C 657.257812 574.503906 656.980469 578.449219 657.238281 582.230469 C 658.328125 598.246094 662.460938 608.300781 667.167969 613.753906 C 670.386719 617.492188 673.890625 619.09375 676.921875 619.027344 C 682.015625 618.914062 685.898438 614.097656 684.945312 606.375 C 682.972656 590.363281 675.855469 579.476562 666.582031 573.523438 C 664.171875 571.980469 661.613281 570.761719 658.957031 569.882812 C 661.789062 554.207031 670.742188 537.867188 677.703125 527.828125 C 711.300781 479.375 785.714844 478.796875 822.765625 525.234375 C 832.675781 537.660156 834.757812 553.160156 835.089844 556.125 C 835.117188 556.429688 835.136719 556.605469 835.144531 556.636719 C 835.167969 556.820312 835.265625 556.894531 835.277344 556.90625 C 835.382812 557.015625 835.503906 557.039062 835.609375 557.035156 C 835.699219 557.03125 835.792969 557.003906 835.878906 556.933594 C 858.371094 538.800781 883.148438 531.347656 909.746094 526.621094 C 937.136719 521.753906 974.777344 526.316406 1003.382812 542.082031 C 1014.667969 548.300781 1024.539062 556.261719 1031.816406 566.085938 Z M 658.800781 570.785156 C 661.335938 571.644531 663.785156 572.808594 666.089844 574.292969 C 675.175781 580.121094 682.109375 590.804688 684.042969 606.488281 C 684.910156 613.523438 681.542969 618.015625 676.902344 618.117188 C 674.085938 618.179688 670.851562 616.636719 667.851562 613.164062 C 663.230469 607.800781 659.21875 597.90625 658.148438 582.167969 C 657.894531 578.496094 658.15625 574.664062 658.800781 570.785156 Z M 931.085938 215.300781 C 963.121094 215.699219 994.144531 219.210938 1022.78125 226.042969 C 1098.660156 244.144531 1157.925781 324.640625 1140.160156 415.421875 C 1128.222656 417.050781 1114.808594 417.574219 1102.773438 414.925781 C 1088.511719 411.792969 1076.199219 404.199219 1070.679688 388.644531 C 1065.503906 374.039062 1067.800781 354.292969 1077.554688 342.007812 C 1079.191406 339.945312 1082.515625 336.859375 1085.628906 334.3125 C 1087.847656 333.292969 1089.972656 332.238281 1091.308594 331.394531 C 1092.046875 330.929688 1092.550781 330.503906 1092.761719 330.183594 C 1092.929688 329.917969 1092.953125 329.671875 1092.886719 329.472656 C 1092.804688 329.21875 1092.621094 329.054688 1092.320312 329.011719 C 1092.03125 328.96875 1091.5 329.113281 1090.8125 329.484375 C 1089.472656 330.199219 1087.367188 331.726562 1085.160156 333.53125 C 1081.117188 335.378906 1076.777344 337.117188 1076.375 337.277344 C 1057.5 344.820312 1022.15625 343.46875 993.835938 332.820312 C 975.019531 325.75 959.285156 314.578125 953.636719 299.128906 C 949.449219 287.699219 952.84375 278.128906 960.394531 270.65625 C 962.863281 268.214844 965.773438 265.996094 969.011719 264.011719 C 976.847656 268.445312 985.738281 272.5 995.582031 275.953125 C 1011.113281 281.40625 1029.128906 282.617188 1040.1875 279.363281 C 1047.800781 277.121094 1052.144531 272.761719 1050.480469 266.332031 C 1048.90625 260.210938 1043.328125 255.941406 1035.515625 253.46875 C 1023.980469 249.824219 1007.558594 250.0625 992.246094 253.765625 C 983.820312 255.804688 975.734375 258.898438 968.992188 262.957031 C 952.648438 253.632812 941.007812 242.625 935.195312 231.917969 C 932.082031 226.183594 930.648438 220.539062 931.085938 215.300781 Z M 1089.316406 331.496094 C 1090.050781 330.984375 1090.707031 330.570312 1091.238281 330.285156 C 1091.339844 330.230469 1091.445312 330.179688 1091.539062 330.132812 C 1091.339844 330.285156 1091.101562 330.449219 1090.824219 330.628906 C 1090.394531 330.898438 1089.886719 331.1875 1089.316406 331.496094 Z M 969.894531 263.472656 C 976.472656 259.585938 984.308594 256.625 992.457031 254.652344 C 1007.59375 250.988281 1023.835938 250.730469 1035.238281 254.339844 C 1042.707031 256.699219 1048.097656 260.707031 1049.605469 266.558594 C 1051.136719 272.507812 1046.972656 276.417969 1039.929688 278.488281 C 1029.011719 281.707031 1011.226562 280.480469 995.886719 275.097656 C 986.28125 271.726562 977.582031 267.785156 969.894531 263.472656 Z M 484.371094 607.695312 C 481.269531 606.480469 478.191406 605.230469 475.140625 603.953125 C 402.886719 573.691406 342.136719 525.53125 302.421875 456.101562 C 282.113281 420.601562 277.226562 386.027344 283.460938 356.019531 C 286.339844 355.640625 289.21875 355.492188 292.066406 355.570312 C 302.792969 355.863281 313.171875 359.324219 322.046875 365.378906 C 320.234375 367.179688 318.535156 369.039062 316.957031 370.941406 C 303.9375 386.652344 299.300781 405.367188 309.429688 420.804688 C 316.191406 431.109375 331.523438 433.558594 340.882812 426.78125 C 347.109375 422.269531 350.746094 413.671875 347.371094 400.554688 C 343.476562 385.410156 334.71875 373.25 323.460938 365.261719 C 343.839844 345.492188 377.769531 332.765625 409.1875 342.652344 C 426.613281 348.136719 435.1875 364.757812 437.792969 384.890625 C 441.300781 411.988281 434.003906 445.457031 422.632812 467.042969 C 422.164062 467.769531 421.710938 468.484375 421.28125 469.195312 C 420.453125 470.558594 418.339844 474.128906 418.09375 474.648438 C 417.976562 474.886719 418.042969 475.050781 418.0625 475.085938 C 418.136719 475.257812 418.261719 475.34375 418.429688 475.359375 C 418.496094 475.367188 418.632812 475.378906 418.792969 475.242188 C 418.820312 475.21875 418.925781 475.09375 419.09375 474.835938 C 420.585938 472.59375 422.023438 470.140625 423.410156 467.515625 C 435.460938 449.058594 461.59375 425.480469 487.402344 417.78125 C 505.171875 412.476562 522.792969 414.726562 535.476562 431.5 C 552.085938 453.445312 550.328125 482.921875 539.953125 512.871094 C 527.992188 547.433594 504.542969 582.628906 484.371094 607.695312 Z M 322.804688 365.90625 C 333.953125 373.777344 342.636719 385.796875 346.488281 400.785156 C 349.734375 413.402344 346.34375 421.703125 340.347656 426.042969 C 331.371094 432.542969 316.667969 430.1875 310.1875 420.304688 C 300.277344 405.199219 304.914062 386.898438 317.65625 371.519531 C 319.253906 369.597656 320.96875 367.726562 322.804688 365.90625 " fill-opacity="1" fill-rule="evenodd"/><path fill="#ffd28e" d="M 364.324219 199.578125 L 719.375 199.578125 L 719.375 415.546875 L 364.324219 415.546875 L 364.324219 199.578125 " fill-opacity="1" fill-rule="evenodd"/><path fill="#000000" d="M 365.433594 414.441406 L 718.269531 414.441406 L 718.269531 200.6875 L 365.433594 200.6875 Z M 720.476562 416.65625 L 363.21875 416.65625 L 363.21875 198.476562 L 720.476562 198.476562 L 720.476562 416.65625 " fill-opacity="1" fill-rule="nonzero"/><path fill="#ffffff" d="M 370.824219 206.914062 L 712.878906 206.914062 L 712.878906 408.222656 L 370.824219 408.222656 L 370.824219 206.914062 " fill-opacity="1" fill-rule="evenodd"/><path fill="#000000" d="M 371.929688 407.113281 L 711.773438 407.113281 L 711.773438 208.019531 L 371.929688 208.019531 Z M 713.980469 409.328125 L 369.71875 409.328125 L 369.71875 205.804688 L 713.980469 205.804688 L 713.980469 409.328125 " fill-opacity="1" fill-rule="nonzero"/><path fill="#ffffff" d="M 367.25 415.9375 L 478.421875 464.121094 L 803.707031 464.429688 L 800.582031 451.234375 L 719.21875 415.035156 L 367.25 415.9375 " fill-opacity="1" fill-rule="evenodd"/><path fill="#000000" d="M 478.214844 463.257812 L 827.648438 463.257812 L 719.148438 416.660156 L 366.933594 417.878906 Z M 838.417969 465.46875 L 477.761719 465.46875 L 477.554688 465.378906 L 365.289062 417.167969 L 363.898438 415.820312 L 365.234375 414.445312 L 719.597656 414.445312 L 719.808594 414.53125 L 838.417969 465.46875 " fill-opacity="1" fill-rule="nonzero"/><path fill="#ffd28e" d="M 477.988281 464.363281 L 828.515625 464.363281 L 828.515625 483.039062 L 477.988281 483.039062 L 477.988281 464.363281 " fill-opacity="1" fill-rule="evenodd"/><path fill="#000000" d="M 479.09375 481.933594 L 827.40625 481.933594 L 827.40625 465.46875 L 479.09375 465.46875 Z M 829.625 484.144531 L 476.878906 484.144531 L 476.878906 463.257812 L 829.625 463.257812 L 829.625 484.144531 " fill-opacity="1" fill-rule="nonzero"/><path fill="#ffd28e" d="M 477.988281 464.363281 L 364.324219 415.550781 L 364.324219 434.226562 L 477.988281 483.039062 L 477.988281 464.363281 " fill-opacity="1" fill-rule="nonzero"/><path fill="#000000" d="M 365.433594 433.496094 L 476.878906 481.359375 L 476.878906 465.089844 L 365.433594 417.230469 Z M 479.09375 484.71875 L 363.21875 434.957031 L 363.21875 413.867188 L 479.09375 463.632812 L 479.09375 484.71875 " fill-opacity="1" fill-rule="nonzero"/><path fill="#000000" d="M 605.882812 451.355469 L 669.164062 451.355469 L 648.8125 442.34375 L 585.523438 442.34375 Z M 679.640625 453.574219 L 605.417969 453.574219 L 575.050781 440.128906 L 649.273438 440.128906 L 679.640625 453.574219 " fill-opacity="1" fill-rule="nonzero"/><path fill="#000000" d="M 436.574219 427.941406 L 456.464844 427.941406 L 456.464844 430.15625 L 436.574219 430.15625 L 436.574219 427.941406 " fill-opacity="1" fill-rule="evenodd"/><path fill="#ec5a31" d="M 432.324219 346.71875 L 463.636719 346.71875 L 463.636719 369.15625 L 432.324219 369.15625 L 432.324219 346.71875 " fill-opacity="1" fill-rule="evenodd"/><path fill="#3e6f90" d="M 494.949219 306.21875 L 526.257812 306.21875 L 526.257812 369.15625 L 494.949219 369.15625 L 494.949219 306.21875 " fill-opacity="1" fill-rule="evenodd"/><path fill="#ec5a31" d="M 557.570312 324.285156 L 588.878906 324.285156 L 588.878906 369.15625 L 557.570312 369.15625 L 557.570312 324.285156 " fill-opacity="1" fill-rule="evenodd"/><path fill="#3e6f90" d="M 620.191406 261.046875 L 651.503906 261.046875 L 651.503906 369.15625 L 620.191406 369.15625 L 620.191406 261.046875 " fill-opacity="1" fill-rule="evenodd"/><path fill="#000000" d="M 420.097656 368.046875 L 663.605469 368.046875 L 663.605469 370.261719 L 420.097656 370.261719 L 420.097656 368.046875 " fill-opacity="1" fill-rule="evenodd"/><path fill="#000000" d="M 448.582031 325.6875 L 447.375 323.828125 L 510.425781 283.054688 L 510.90625 283.191406 L 572.902344 301.078125 L 635.0625 238.304688 L 636.632812 239.867188 L 573.546875 303.566406 L 510.78125 285.460938 L 448.582031 325.6875 " fill-opacity="1" fill-rule="nonzero"/><path fill="#000000" d="M 450.902344 324.757812 C 450.902344 326.371094 449.589844 327.683594 447.980469 327.683594 C 446.363281 327.683594 445.050781 326.371094 445.050781 324.757812 C 445.050781 323.144531 446.363281 321.835938 447.980469 321.835938 C 449.589844 321.835938 450.902344 323.144531 450.902344 324.757812 " fill-opacity="1" fill-rule="nonzero"/><path fill="#000000" d="M 513.527344 284.382812 C 513.527344 285.996094 512.214844 287.304688 510.601562 287.304688 C 508.988281 287.304688 507.679688 285.996094 507.679688 284.382812 C 507.679688 282.765625 508.988281 281.457031 510.601562 281.457031 C 512.214844 281.457031 513.527344 282.765625 513.527344 284.382812 " fill-opacity="1" fill-rule="nonzero"/><path fill="#000000" d="M 576.148438 302.183594 C 576.148438 303.796875 574.839844 305.105469 573.226562 305.105469 C 571.609375 305.105469 570.300781 303.796875 570.300781 302.183594 C 570.300781 300.570312 571.609375 299.261719 573.226562 299.261719 C 574.839844 299.261719 576.148438 300.570312 576.148438 302.183594 " fill-opacity="1" fill-rule="nonzero"/><path fill="#000000" d="M 638.769531 239.085938 C 638.769531 240.699219 637.464844 242.007812 635.847656 242.007812 C 634.230469 242.007812 632.925781 240.699219 632.925781 239.085938 C 632.925781 237.472656 634.230469 236.164062 635.847656 236.164062 C 637.464844 236.164062 638.769531 237.472656 638.769531 239.085938 " fill-opacity="1" fill-rule="nonzero"/><path fill="#ce6669" d="M 1042.050781 360.542969 C 1042.082031 360.558594 1042.113281 360.574219 1042.148438 360.589844 C 1042.113281 360.574219 1042.082031 360.558594 1042.050781 360.542969 " fill-opacity="1" fill-rule="nonzero"/><path fill="#000000" d="M 1041.667969 361.585938 L 1041.589844 361.546875 L 1042.515625 359.539062 C 1042.546875 359.550781 1042.570312 359.566406 1042.601562 359.578125 L 1042.625 359.589844 L 1041.667969 361.585938 " fill-opacity="1" fill-rule="nonzero"/><path fill="#3e6f90" d="M 1042.832031 360.9375 C 1044.046875 361.601562 1045.214844 362.46875 1046.277344 363.542969 L 1066.261719 383.738281 C 1071.933594 389.464844 1072.949219 397.640625 1068.546875 402.003906 L 1045.460938 424.863281 L 1051.21875 430.683594 L 1034.425781 447.308594 L 1028.664062 441.484375 L 1006.136719 463.789062 C 1001.730469 468.148438 993.566406 467.042969 987.894531 461.316406 L 1009.683594 483.328125 C 1014.25 487.953125 1020.84375 488.84375 1024.402344 485.324219 L 1089.890625 420.492188 C 1093.449219 416.972656 1092.617188 410.375 1088.042969 405.75 L 1046.277344 363.542969 C 1045.214844 362.46875 1044.046875 361.601562 1042.832031 360.9375 " fill-opacity="1" fill-rule="nonzero"/><path fill="#000000" d="M 994.988281 466.910156 L 1010.464844 482.550781 C 1014.605469 486.730469 1020.507812 487.621094 1023.621094 484.542969 L 1089.113281 419.703125 C 1090.582031 418.25 1091.222656 416.109375 1090.917969 413.671875 C 1090.601562 411.128906 1089.300781 408.589844 1087.257812 406.527344 L 1071.78125 390.890625 C 1073.058594 395.347656 1072.300781 399.847656 1069.324219 402.789062 L 1047.027344 424.871094 L 1052.78125 430.691406 L 1034.417969 448.875 L 1028.65625 443.050781 L 1006.914062 464.578125 C 1003.9375 467.519531 999.4375 468.230469 994.988281 466.910156 M 1018.820312 488.570312 C 1015.46875 488.570312 1011.796875 487.035156 1008.894531 484.109375 L 987.113281 462.09375 L 988.683594 460.539062 C 993.917969 465.824219 1001.390625 466.925781 1005.355469 463.003906 L 1028.667969 439.917969 L 1034.429688 445.742188 L 1049.652344 430.675781 L 1043.894531 424.851562 L 1067.765625 401.21875 C 1071.734375 397.292969 1070.703125 389.800781 1065.472656 384.515625 L 1045.492188 364.320312 C 1044.535156 363.351562 1043.460938 362.542969 1042.300781 361.910156 L 1043.359375 359.96875 C 1044.707031 360.703125 1045.953125 361.644531 1047.0625 362.765625 L 1067.046875 382.957031 C 1067.046875 382.960938 1067.046875 382.960938 1067.054688 382.964844 L 1088.832031 404.972656 C 1091.214844 407.378906 1092.738281 410.371094 1093.117188 413.394531 C 1093.507812 416.527344 1092.632812 419.332031 1090.664062 421.277344 L 1025.179688 486.113281 C 1023.503906 487.769531 1021.246094 488.570312 1018.820312 488.570312 " fill-opacity="1" fill-rule="nonzero"/><path fill="#3e6f90" d="M 1011.128906 381.773438 C 1006.355469 376.949219 999.476562 376.015625 995.769531 379.6875 L 984.011719 391.328125 C 980.304688 394.996094 981.164062 401.886719 985.941406 406.707031 L 1011.128906 381.773438 " fill-opacity="1" fill-rule="nonzero"/><path fill="#000000" d="M 1001.585938 378.550781 C 999.582031 378.550781 997.824219 379.214844 996.546875 380.476562 L 984.792969 392.113281 C 983.246094 393.644531 982.574219 395.890625 982.890625 398.449219 C 983.1875 400.785156 984.269531 403.117188 985.976562 405.113281 L 1009.53125 381.789062 C 1007.558594 380.0625 1005.234375 378.957031 1002.898438 378.640625 C 1002.453125 378.582031 1002.011719 378.550781 1001.585938 378.550781 M 985.933594 408.273438 L 985.15625 407.484375 C 982.675781 404.980469 981.09375 401.871094 980.695312 398.722656 C 980.292969 395.46875 981.1875 392.5625 983.234375 390.539062 L 994.992188 378.902344 C 997.035156 376.878906 999.949219 376.007812 1003.199219 376.445312 C 1006.339844 376.871094 1009.433594 378.488281 1011.917969 380.992188 L 1012.691406 381.777344 L 985.933594 408.273438 " fill-opacity="1" fill-rule="nonzero"/><path fill="#3e6f90" d="M 1006.136719 463.789062 L 1028.664062 441.484375 L 1022.902344 435.664062 L 1039.699219 419.039062 L 1045.457031 424.859375 L 1068.546875 402.003906 C 1072.957031 397.644531 1071.933594 389.464844 1066.261719 383.734375 L 1046.277344 363.539062 C 1045.214844 362.46875 1044.046875 361.601562 1042.832031 360.9375 C 1042.601562 360.816406 1042.378906 360.699219 1042.148438 360.589844 C 1042.113281 360.574219 1042.082031 360.554688 1042.050781 360.542969 C 1038.234375 358.765625 1034.113281 359.015625 1031.558594 361.546875 L 1011.128906 381.773438 L 985.941406 406.707031 L 966.066406 426.378906 C 962.515625 429.898438 963.339844 436.5 967.914062 441.121094 L 987.894531 461.316406 C 993.566406 467.042969 1001.730469 468.152344 1006.136719 463.789062 " fill-opacity="1" fill-rule="nonzero"/><path fill="#000000" d="M 1037.164062 360.511719 C 1035.269531 360.511719 1033.554688 361.128906 1032.335938 362.332031 L 966.84375 427.164062 C 965.378906 428.621094 964.734375 430.765625 965.035156 433.199219 C 965.355469 435.742188 966.65625 438.28125 968.699219 440.34375 L 988.683594 460.539062 C 993.910156 465.820312 1001.390625 466.929688 1005.355469 463.003906 L 1027.097656 441.476562 L 1021.335938 435.65625 L 1039.707031 417.472656 L 1045.46875 423.296875 L 1067.773438 401.21875 C 1071.734375 397.292969 1070.703125 389.800781 1065.476562 384.515625 L 1045.492188 364.320312 C 1044.535156 363.351562 1043.460938 362.542969 1042.300781 361.910156 C 1042.078125 361.789062 1041.875 361.683594 1041.675781 361.589844 L 1041.589844 361.546875 C 1040.097656 360.851562 1038.578125 360.511719 1037.164062 360.511719 M 999.222656 467.546875 C 995.136719 467.546875 990.652344 465.675781 987.113281 462.09375 L 967.125 441.898438 C 964.742188 439.492188 963.226562 436.5 962.84375 433.472656 C 962.453125 430.339844 963.320312 427.542969 965.289062 425.59375 L 1030.777344 360.757812 C 1033.570312 357.996094 1038.175781 357.515625 1042.515625 359.539062 C 1042.546875 359.550781 1042.570312 359.566406 1042.601562 359.578125 L 1042.625 359.589844 C 1042.859375 359.703125 1043.101562 359.828125 1043.359375 359.964844 C 1044.707031 360.703125 1045.953125 361.640625 1047.0625 362.761719 L 1067.046875 382.957031 C 1073.136719 389.109375 1074.160156 398.007812 1069.324219 402.789062 L 1045.449219 426.425781 L 1039.6875 420.605469 L 1024.46875 435.671875 L 1030.226562 441.496094 L 1006.914062 464.578125 C 1004.894531 466.578125 1002.164062 467.546875 999.222656 467.546875 " fill-opacity="1" fill-rule="nonzero"/><path fill="#3e6f90" d="M 1022.902344 435.664062 L 1028.664062 441.484375 L 1034.425781 447.308594 L 1051.21875 430.683594 L 1045.457031 424.859375 L 1039.699219 419.039062 L 1022.902344 435.664062 " fill-opacity="1" fill-rule="nonzero"/><path fill="#000000" d="M 1024.46875 435.671875 L 1034.4375 445.742188 L 1049.652344 430.675781 L 1039.6875 420.605469 Z M 1034.417969 448.871094 L 1021.335938 435.65625 L 1039.707031 417.472656 L 1052.78125 430.691406 L 1034.417969 448.871094 " fill-opacity="1" fill-rule="nonzero"/><path fill="#ffffff" d="M 1002.140625 401.949219 C 1004.457031 399.460938 1005.003906 398.644531 1004.832031 397.828125 C 1004.359375 395.640625 999.074219 395.210938 998.574219 395.175781 C 994.132812 396.429688 991.6875 398.394531 990.261719 400.074219 C 989.59375 400.855469 989.039062 401.726562 988.050781 401.816406 C 986.105469 402.003906 984.230469 399.035156 982.933594 396.464844 C 984.230469 399.035156 986.105469 402.003906 988.050781 401.816406 C 989.039062 401.726562 989.59375 400.855469 990.261719 400.074219 C 991.6875 398.394531 994.132812 396.429688 998.574219 395.175781 C 999.453125 395.039062 1001.152344 394.652344 1002.710938 393.324219 C 1005.804688 390.6875 1005.648438 386.648438 1005.617188 386.109375 C 893.832031 287.496094 861.058594 264.371094 857.636719 267.886719 C 856.203125 269.359375 859.429688 276.007812 865.082031 287.667969 C 871.582031 301.078125 878.308594 310.316406 880.152344 312.828125 C 880.152344 312.828125 928.835938 379.070312 975.375 411.710938 C 977.707031 413.351562 981.289062 415.582031 985.371094 414.96875 C 987.949219 414.578125 990.816406 412.226562 996.546875 407.519531 C 998.230469 406.136719 999.53125 404.742188 1002.140625 401.949219 " fill-opacity="1" fill-rule="nonzero"/><path fill="#000000" d="M 858.429688 268.675781 C 858.351562 268.90625 858.242188 269.957031 859.90625 273.976562 C 861.242188 277.210938 863.378906 281.609375 866.082031 287.1875 C 870.390625 296.078125 875.570312 304.71875 881.050781 312.175781 C 881.167969 312.335938 893.402344 328.945312 911.160156 349.316406 C 927.53125 368.101562 952.0625 394.011719 976.007812 410.804688 C 978.59375 412.617188 981.707031 414.398438 985.210938 413.871094 C 987.480469 413.53125 990.277344 411.238281 995.84375 406.664062 C 997.476562 405.328125 998.761719 403.945312 1001.328125 401.195312 C 1002.144531 400.320312 1003.84375 398.503906 1003.746094 398.058594 C 1003.589844 397.308594 1001.296875 396.511719 998.691406 396.292969 C 995.371094 397.261719 992.820312 398.773438 991.105469 400.792969 C 991.015625 400.898438 990.929688 401.003906 990.839844 401.109375 C 990.222656 401.863281 989.460938 402.796875 988.15625 402.917969 C 986.0625 403.121094 984.089844 401.226562 981.941406 396.960938 L 983.921875 395.96875 C 986.210938 400.507812 987.582031 400.746094 987.949219 400.714844 C 988.308594 400.683594 988.632812 400.3125 989.125 399.710938 C 989.21875 399.59375 989.320312 399.472656 989.417969 399.355469 C 991.460938 396.960938 994.433594 395.191406 998.273438 394.105469 L 998.46875 394.054688 L 998.53125 394.058594 C 999.472656 393.902344 1000.796875 393.496094 1001.996094 392.480469 C 1004.230469 390.582031 1004.511719 387.796875 1004.523438 386.621094 C 954.304688 342.324219 916.410156 310.09375 891.878906 290.800781 C 881.15625 282.375 872.792969 276.261719 867.023438 272.640625 C 860.363281 268.464844 858.726562 268.585938 858.429688 268.675781 M 983.96875 416.179688 C 980.328125 416.179688 977.167969 414.320312 974.734375 412.617188 C 950.605469 395.695312 925.929688 369.636719 909.476562 350.757812 C 891.667969 330.320312 879.386719 313.648438 879.257812 313.484375 C 873.710938 305.921875 868.460938 297.164062 864.089844 288.148438 C 857.082031 273.710938 854.957031 269.050781 856.839844 267.113281 C 858.257812 265.667969 861.21875 266.519531 867.058594 270.0625 C 872.667969 273.464844 880.945312 279.441406 891.675781 287.828125 C 916.261719 307.054688 954.84375 339.839844 1006.355469 385.277344 L 1006.695312 385.585938 L 1006.726562 386.046875 C 1006.769531 386.894531 1006.835938 391.265625 1003.425781 394.167969 C 1003.15625 394.398438 1002.886719 394.605469 1002.609375 394.789062 C 1004.179688 395.304688 1005.605469 396.164062 1005.914062 397.597656 C 1006.21875 399.027344 1005.292969 400.191406 1002.945312 402.707031 C 1000.308594 405.527344 998.992188 406.945312 997.246094 408.375 C 991.371094 413.207031 988.414062 415.628906 985.542969 416.0625 C 985.007812 416.140625 984.488281 416.179688 983.96875 416.179688 " fill-opacity="1" fill-rule="nonzero"/><path fill="#000000" d="M 875.785156 203.65625 C 877.546875 205.996094 878.285156 210.457031 879.765625 219.375 C 880.410156 223.257812 880.066406 223.601562 880.667969 225.527344 C 882.511719 231.433594 885.851562 231.984375 888.578125 237.402344 C 889.296875 238.808594 892.289062 244.75 890.445312 250.429688 C 888.535156 256.296875 882.96875 257.289062 883.460938 260.207031 C 884.035156 263.546875 891.40625 262.644531 897.1875 267.652344 C 902.066406 271.875 904.773438 279.394531 903.710938 284.644531 C 901.152344 297.230469 875.085938 305.503906 853.914062 301.167969 C 835.246094 297.34375 813.964844 282.5625 813.894531 266.722656 C 813.832031 253.078125 829.570312 252.304688 840.183594 226.460938 C 845.734375 212.953125 844.929688 204.660156 852.753906 200.398438 C 860.253906 196.300781 871.664062 198.15625 875.785156 203.65625 " fill-opacity="1" fill-rule="nonzero"/><path fill="#000000" d="M 862.164062 199.300781 C 859.019531 199.300781 855.859375 199.964844 853.277344 201.371094 C 848.445312 204.007812 847.15625 208.40625 845.203125 215.066406 C 844.199219 218.492188 843.058594 222.371094 841.210938 226.882812 C 835.652344 240.414062 828.816406 247.074219 823.324219 252.425781 C 818.300781 257.332031 814.96875 260.574219 815 266.71875 C 815.03125 273.664062 819.515625 281.074219 827.625 287.585938 C 835.019531 293.523438 844.933594 298.195312 854.136719 300.078125 C 868.015625 302.921875 885.328125 300.199219 895.304688 293.597656 C 899.425781 290.875 901.957031 287.699219 902.625 284.421875 C 903.636719 279.449219 900.875 272.304688 896.464844 268.488281 C 893.738281 266.128906 890.566406 265.144531 888.015625 264.351562 C 885.203125 263.480469 882.769531 262.726562 882.375 260.390625 C 882.035156 258.398438 883.503906 257.148438 885.058594 255.816406 C 886.660156 254.449219 888.476562 252.902344 889.394531 250.089844 C 890.167969 247.695312 890.488281 243.636719 887.589844 237.898438 C 886.460938 235.644531 885.199219 234.265625 883.972656 232.9375 C 882.375 231.191406 880.71875 229.390625 879.613281 225.859375 C 879.253906 224.703125 879.195312 224.019531 879.117188 223.074219 C 879.050781 222.285156 878.964844 221.296875 878.675781 219.558594 C 877.226562 210.828125 876.496094 206.441406 874.902344 204.316406 C 872.480469 201.09375 867.347656 199.300781 862.164062 199.300781 M 865.851562 303.445312 C 861.675781 303.445312 857.574219 303.046875 853.691406 302.25 C 844.019531 300.265625 834.007812 295.550781 826.238281 289.3125 C 817.59375 282.378906 812.820312 274.355469 812.785156 266.726562 C 812.753906 259.644531 816.742188 255.761719 821.785156 250.839844 C 827.125 245.628906 833.777344 239.144531 839.167969 226.039062 C 840.972656 221.640625 842.089844 217.816406 843.078125 214.445312 C 845.105469 207.515625 846.578125 202.503906 852.222656 199.421875 C 860.019531 195.171875 872.132812 196.941406 876.671875 202.992188 C 878.589844 205.546875 879.351562 210.109375 880.855469 219.195312 C 881.160156 221.023438 881.253906 222.101562 881.320312 222.886719 C 881.398438 223.78125 881.441406 224.269531 881.730469 225.199219 C 882.679688 228.257812 884.035156 229.734375 885.605469 231.441406 C 886.863281 232.8125 888.296875 234.371094 889.574219 236.902344 C 892.804688 243.3125 892.402344 247.984375 891.492188 250.773438 C 890.390625 254.179688 888.140625 256.101562 886.496094 257.503906 C 885.171875 258.628906 884.429688 259.304688 884.554688 260.019531 C 884.714844 260.964844 886.226562 261.476562 888.671875 262.238281 C 891.421875 263.089844 894.839844 264.152344 897.917969 266.816406 C 902.941406 271.171875 905.960938 279.09375 904.792969 284.863281 C 904.003906 288.730469 901.152344 292.390625 896.523438 295.445312 C 891.53125 298.75 884.589844 301.261719 876.972656 302.523438 C 873.265625 303.136719 869.527344 303.445312 865.851562 303.445312 " fill-opacity="1" fill-rule="nonzero"/><path fill="#ffffff" d="M 837.890625 265.050781 L 834.929688 265.050781 C 824.210938 265.050781 815.523438 256.359375 815.523438 245.640625 L 815.523438 211.664062 C 815.523438 200.945312 824.210938 192.25 834.929688 192.25 L 837.890625 192.25 C 848.605469 192.25 857.296875 200.945312 857.296875 211.664062 C 857.296875 220.875 854.34375 231.320312 857.296875 232.746094 C 858.992188 233.5625 861.066406 230.300781 863.800781 231.230469 C 866.503906 232.152344 867.863281 236.476562 867.40625 239.84375 C 867.070312 242.382812 865.496094 245.835938 862.988281 246.355469 C 860.898438 246.792969 859.515625 244.902344 858.335938 245.660156 C 857.152344 246.421875 858.003906 248.667969 857.519531 251.59375 C 856.996094 254.761719 855.222656 256.878906 853.800781 258.578125 C 848.417969 264.992188 839.070312 265.058594 837.890625 265.050781 " fill-opacity="1" fill-rule="nonzero"/><path fill="#000000" d="M 834.929688 193.355469 C 824.835938 193.355469 816.632812 201.570312 816.632812 211.660156 L 816.632812 245.636719 C 816.632812 255.734375 824.835938 263.941406 834.929688 263.941406 L 837.894531 263.941406 C 839.550781 263.953125 848.046875 263.714844 852.953125 257.867188 C 854.359375 256.183594 855.957031 254.28125 856.433594 251.414062 C 856.605469 250.339844 856.585938 249.347656 856.570312 248.46875 C 856.53125 246.953125 856.507812 245.519531 857.738281 244.730469 C 858.808594 244.039062 859.875 244.492188 860.722656 244.859375 C 861.402344 245.152344 862.042969 245.421875 862.765625 245.277344 C 864.539062 244.902344 865.992188 242.089844 866.3125 239.695312 C 866.703125 236.789062 865.558594 233 863.445312 232.28125 C 862.433594 231.933594 861.464844 232.480469 860.433594 233.0625 C 859.347656 233.675781 858.109375 234.371094 856.816406 233.746094 C 854.234375 232.5 854.738281 227.933594 855.445312 221.621094 C 855.792969 218.5 856.191406 214.964844 856.191406 211.660156 C 856.191406 201.570312 847.980469 193.355469 837.890625 193.355469 Z M 837.992188 266.15625 C 837.957031 266.15625 837.917969 266.15625 837.882812 266.15625 L 834.929688 266.15625 C 823.613281 266.15625 814.417969 256.953125 814.417969 245.636719 L 814.417969 211.660156 C 814.417969 200.347656 823.613281 191.140625 834.929688 191.140625 L 837.890625 191.140625 C 849.199219 191.140625 858.398438 200.347656 858.398438 211.660156 C 858.398438 215.085938 858.003906 218.6875 857.648438 221.863281 C 857.347656 224.558594 857.066406 227.097656 857.09375 228.972656 C 857.128906 231.261719 857.628906 231.679688 857.78125 231.75 C 858.035156 231.875 858.761719 231.464844 859.351562 231.132812 C 860.554688 230.449219 862.210938 229.519531 864.160156 230.183594 C 867.398438 231.289062 869.023438 236.148438 868.507812 239.992188 C 868.152344 242.617188 866.453125 246.769531 863.214844 247.441406 C 861.8125 247.734375 860.675781 247.246094 859.851562 246.894531 C 859.5625 246.769531 859.074219 246.558594 858.941406 246.589844 C 858.75 246.710938 858.765625 247.742188 858.777344 248.425781 C 858.796875 249.347656 858.820312 250.5 858.613281 251.773438 C 858.046875 255.238281 856.078125 257.582031 854.648438 259.285156 C 849.207031 265.773438 840.058594 266.15625 837.992188 266.15625 " fill-opacity="1" fill-rule="nonzero"/><path fill="#ffffff" d="M 807.917969 213.898438 C 796.980469 211.269531 789.242188 204.835938 788.53125 197.601562 C 788.488281 197.167969 787.996094 191.261719 791.558594 188.527344 C 794.328125 186.402344 797.710938 187.59375 805.746094 188.527344 C 811.515625 189.195312 816.238281 189.328125 819.304688 189.339844 C 817.578125 191.9375 817.578125 191.9375 814.128906 197.140625 C 817.578125 191.9375 817.578125 191.9375 819.304688 189.339844 C 822.097656 186.535156 830.136719 179.214844 842.746094 177.359375 C 845.777344 176.914062 853.625 175.851562 862.523438 179.453125 C 864.335938 180.183594 878.597656 186.203125 882.761719 200.398438 C 883.367188 202.4375 885.027344 208.375 883.234375 215.523438 C 882.582031 218.109375 881.652344 220.160156 880.902344 221.574219 C 856.574219 219.015625 832.246094 216.460938 807.917969 213.898438 " fill-opacity="1" fill-rule="nonzero"/><path fill="#000000" d="M 808.109375 212.808594 L 880.265625 220.390625 C 881.078125 218.746094 881.71875 217.019531 882.15625 215.253906 C 883.324219 210.605469 883.171875 205.710938 881.707031 200.710938 C 877.804688 187.414062 864.699219 181.527344 862.109375 180.476562 C 853.308594 176.921875 845.480469 178.074219 842.90625 178.449219 C 831.566406 180.121094 823.820312 186.398438 820.164062 190.046875 L 815.046875 197.753906 L 813.207031 196.523438 L 817.257812 190.425781 C 813.398438 190.339844 809.496094 190.074219 805.621094 189.625 C 803.828125 189.417969 802.269531 189.195312 800.894531 189.003906 C 796 188.320312 793.949219 188.089844 792.230469 189.40625 C 789.117188 191.792969 789.609375 197.265625 789.636719 197.496094 C 790.28125 204.136719 797.703125 210.285156 808.109375 212.808594 M 881.527344 222.753906 L 807.660156 214.976562 C 796.125 212.203125 788.179688 205.425781 787.425781 197.710938 C 787.363281 197.007812 786.875 190.726562 790.882812 187.648438 C 793.40625 185.71875 796.175781 186.101562 801.199219 186.8125 C 802.570312 187.007812 804.109375 187.222656 805.882812 187.425781 C 810.195312 187.925781 814.5625 188.195312 818.847656 188.234375 C 822.796875 184.363281 830.871094 177.984375 842.585938 176.261719 C 845.304688 175.859375 853.578125 174.644531 862.9375 178.425781 C 865.691406 179.539062 879.640625 185.8125 883.828125 200.082031 C 885.40625 205.472656 885.570312 210.761719 884.304688 215.792969 C 883.757812 217.972656 882.945312 220.089844 881.878906 222.089844 L 881.527344 222.753906 " fill-opacity="1" fill-rule="nonzero"/><path fill="#ffffff" d="M 912.734375 306.21875 C 873.910156 274.222656 859.820312 265.648438 857.636719 267.886719 C 856.203125 269.359375 859.429688 276.007812 865.082031 287.667969 C 871.582031 301.078125 878.308594 310.316406 880.15625 312.832031 C 880.15625 312.832031 885.128906 319.59375 893.414062 329.871094 L 912.734375 306.21875 " fill-opacity="1" fill-rule="nonzero"/><path fill="#000000" d="M 858.429688 268.675781 C 858.351562 268.90625 858.242188 269.953125 859.90625 273.976562 C 861.242188 277.210938 863.378906 281.609375 866.082031 287.1875 C 870.390625 296.078125 875.570312 304.71875 881.050781 312.171875 C 881.097656 312.238281 885.757812 318.566406 893.417969 328.113281 L 911.179688 306.371094 C 894.019531 292.25 880.765625 281.957031 871.765625 275.773438 C 861.085938 268.433594 858.789062 268.566406 858.429688 268.675781 M 893.40625 331.625 L 892.554688 330.566406 C 884.347656 320.390625 879.3125 313.554688 879.265625 313.484375 C 873.710938 305.921875 868.460938 297.164062 864.089844 288.148438 C 857.082031 273.710938 854.957031 269.050781 856.839844 267.113281 C 858.105469 265.820312 860.820312 265.675781 872.066406 273.296875 C 881.285156 279.542969 895.203125 290.332031 913.4375 305.363281 L 914.285156 306.0625 L 893.40625 331.625 " fill-opacity="1" fill-rule="nonzero"/><path fill="#ffffff" d="M 914.050781 383.085938 L 795.851562 383.085938 L 804.6875 305.863281 C 807.355469 282.554688 825.722656 265.050781 847.503906 265.050781 C 866.257812 265.050781 882.859375 278.109375 888.578125 297.367188 L 914.050781 383.085938 " fill-opacity="1" fill-rule="nonzero"/><path fill="#000000" d="M 797.09375 381.976562 L 912.5625 381.976562 L 887.519531 297.679688 C 881.914062 278.828125 865.835938 266.15625 847.503906 266.15625 C 826.320312 266.15625 808.390625 283.277344 805.789062 305.984375 Z M 915.53125 384.191406 L 794.609375 384.191406 L 803.59375 305.734375 C 806.316406 281.90625 825.191406 263.945312 847.5 263.945312 C 856.957031 263.945312 865.980469 267.117188 873.613281 273.117188 C 881.222656 279.109375 886.769531 287.382812 889.640625 297.050781 L 915.53125 384.191406 " fill-opacity="1" fill-rule="nonzero"/><path fill="#ffffff" d="M 818.546875 282.433594 C 825.570312 278.910156 836.070312 279.558594 840.53125 285.222656 C 843.300781 288.734375 844.175781 294.710938 838.269531 309.308594 C 833.066406 322.171875 822.238281 342.628906 797.976562 364.507812 C 797.976562 364.507812 772.261719 372.828125 669.515625 305.820312 C 668.960938 305.457031 667.15625 304.242188 666.492188 302.097656 C 665.796875 299.824219 666.503906 296.886719 668.003906 296.277344 C 669.625 295.621094 672.230469 298.257812 672.421875 298.023438 C 672.667969 297.726562 667.714844 294.617188 668.125 291.507812 C 668.320312 290.050781 669.65625 288.839844 670.914062 288.367188 C 673.75 287.300781 677.101562 289.617188 677.199219 289.414062 C 677.308594 289.183594 673.097656 287.941406 672.542969 285.339844 C 672.117188 283.332031 673.910156 280.703125 676.03125 280.101562 C 678.238281 279.480469 680.273438 281.191406 680.453125 280.917969 C 680.90625 280.238281 665.675781 272.730469 662.074219 259.972656 C 661.839844 259.152344 660.707031 255.148438 662.074219 254.273438 C 663.488281 253.359375 666.777344 256.371094 673.242188 261.71875 C 677.070312 264.886719 681.085938 267.816406 684.875 271.027344 C 684.875 271.027344 693.800781 279.957031 705.082031 286.777344 C 723.480469 297.890625 801.882812 330.421875 801.882812 330.421875 C 801.871094 330.414062 789.546875 325.253906 789.546875 325.253906 C 796.929688 314.972656 802.21875 306.09375 805.808594 299.628906 C 811.203125 289.898438 812.929688 285.246094 818.546875 282.433594 " fill-opacity="1" fill-rule="nonzero"/><path fill="#000000" d="M 668.601562 297.273438 C 668.535156 297.273438 668.472656 297.285156 668.417969 297.304688 C 667.667969 297.609375 666.949219 299.824219 667.550781 301.769531 C 667.804688 302.597656 668.457031 303.808594 670.125 304.890625 C 722.589844 339.113281 754.449219 353.210938 771.9375 359.011719 C 789.132812 364.722656 796.199219 363.753906 797.445312 363.5 C 815.976562 346.738281 829.363281 328.367188 837.238281 308.894531 C 843.414062 293.628906 841.777344 288.59375 839.664062 285.910156 C 835.394531 280.492188 825.375 280.25 819.046875 283.421875 C 814.632812 285.632812 812.785156 289.058594 809.109375 295.882812 C 808.414062 297.164062 807.636719 298.609375 806.777344 300.164062 C 802.164062 308.480469 796.945312 316.75 791.257812 324.765625 C 800.816406 328.777344 802.109375 329.316406 802.292969 329.394531 C 802.296875 329.394531 802.296875 329.394531 802.304688 329.398438 L 803.324219 329.816406 L 802.476562 331.890625 L 801.445312 331.4375 C 800.636719 331.101562 795.5625 328.992188 788.082031 325.839844 L 787.835938 325.730469 L 787.84375 325.730469 C 764.492188 315.875 718.230469 296.007812 704.511719 287.722656 C 693.597656 281.125 684.742188 272.453125 684.125 271.84375 C 682.09375 270.121094 679.941406 268.445312 677.871094 266.824219 C 676.109375 265.445312 674.289062 264.023438 672.539062 262.570312 C 671.78125 261.941406 671.054688 261.347656 670.386719 260.785156 C 667.042969 258 663.582031 255.117188 662.664062 255.214844 C 662.609375 255.324219 662.175781 256.277344 663.140625 259.671875 C 665.777344 269.011719 675.121094 275.582031 679.113281 278.382812 C 679.78125 278.855469 680.308594 279.226562 680.675781 279.519531 C 682.015625 280.570312 681.53125 281.292969 681.375 281.53125 C 680.792969 282.410156 679.835938 281.960938 679.316406 281.722656 C 678.570312 281.375 677.449219 280.855469 676.335938 281.171875 C 674.742188 281.621094 673.320312 283.683594 673.625 285.109375 C 673.925781 286.507812 676.03125 287.535156 677.042969 288.03125 C 677.621094 288.3125 678.695312 288.839844 678.195312 289.886719 C 678.027344 290.246094 677.503906 290.757812 676.621094 290.417969 C 676.484375 290.367188 676.332031 290.292969 676.125 290.199219 C 675.113281 289.734375 673.011719 288.757812 671.304688 289.402344 C 670.394531 289.746094 669.351562 290.648438 669.222656 291.652344 C 669 293.316406 671.292969 295.375 672.386719 296.359375 C 672.664062 296.605469 672.882812 296.804688 673.050781 296.972656 C 673.890625 297.839844 673.441406 298.535156 673.285156 298.726562 C 672.574219 299.589844 671.664062 298.957031 671.003906 298.496094 C 670.546875 298.179688 669.25 297.273438 668.601562 297.273438 M 794.53125 365.941406 C 790.683594 365.941406 783.605469 365.160156 771.933594 361.347656 C 760.6875 357.671875 747.398438 351.917969 732.425781 344.246094 C 713.753906 334.671875 692.378906 322.054688 668.914062 306.75 C 666.691406 305.300781 665.796875 303.597656 665.433594 302.421875 C 664.621094 299.78125 665.367188 296.15625 667.589844 295.25 C 667.777344 295.175781 667.96875 295.125 668.167969 295.097656 C 667.390625 293.988281 666.847656 292.714844 667.023438 291.363281 C 667.28125 289.398438 669.023438 287.894531 670.527344 287.328125 C 671.03125 287.136719 671.558594 287.03125 672.066406 286.996094 C 671.785156 286.566406 671.574219 286.097656 671.460938 285.570312 C 670.917969 283.039062 673.03125 279.800781 675.734375 279.039062 C 675.847656 279.003906 675.96875 278.976562 676.089844 278.949219 C 671.382812 275.539062 663.515625 269.144531 661.011719 260.273438 C 659.9375 256.496094 660.09375 254.230469 661.472656 253.339844 C 663.410156 252.097656 665.867188 254.144531 671.804688 259.085938 C 672.472656 259.644531 673.1875 260.238281 673.945312 260.867188 C 675.679688 262.300781 677.484375 263.710938 679.234375 265.078125 C 681.230469 266.640625 683.296875 268.253906 685.277344 269.921875 L 685.46875 269.921875 L 685.734375 270.320312 C 686.625 271.195312 695.167969 279.492188 705.65625 285.828125 C 719.351562 294.101562 766.011719 314.117188 789.160156 323.886719 C 794.917969 315.816406 800.191406 307.476562 804.839844 299.09375 C 805.691406 297.550781 806.46875 296.105469 807.15625 294.832031 C 810.9375 287.824219 813.011719 283.964844 818.054688 281.441406 C 821.707031 279.613281 826.28125 278.824219 830.617188 279.28125 C 835.296875 279.777344 839.125 281.644531 841.40625 284.539062 C 845.144531 289.285156 844.511719 296.820312 839.292969 309.726562 C 831.261719 329.585938 817.605469 348.292969 798.722656 365.332031 L 798.546875 365.492188 L 798.316406 365.5625 C 798.210938 365.597656 797.078125 365.941406 794.53125 365.941406 " fill-opacity="1" fill-rule="nonzero"/><path fill="#3e6f90" d="M 914.050781 383.085938 L 795.851562 383.085938 L 778.0625 538.542969 L 877.683594 538.542969 C 874.839844 505.652344 872 472.757812 869.152344 439.871094 C 872 472.757812 874.839844 505.652344 877.683594 538.542969 L 960.25 538.542969 L 914.050781 383.085938 " fill-opacity="1" fill-rule="nonzero"/><path fill="#000000" d="M 878.699219 537.4375 L 958.765625 537.4375 L 913.226562 384.191406 L 796.835938 384.191406 L 779.300781 537.4375 L 876.480469 537.4375 L 868.050781 439.964844 L 870.257812 439.773438 Z M 961.730469 539.652344 L 776.820312 539.652344 L 794.863281 381.976562 L 914.875 381.976562 L 915.109375 382.765625 L 961.730469 539.652344 " fill-opacity="1" fill-rule="nonzero"/><path fill="#ffffff" d="M 838.269531 309.308594 C 844.175781 294.707031 843.300781 288.734375 840.539062 285.222656 C 836.070312 279.558594 825.566406 278.910156 818.546875 282.433594 C 812.929688 285.246094 811.203125 289.898438 805.808594 299.625 C 803.339844 304.078125 800.066406 309.667969 795.855469 316.070312 L 825.5 333.1875 C 831.753906 323.871094 835.699219 315.664062 838.269531 309.308594 " fill-opacity="1" fill-rule="nonzero"/><path fill="#000000" d="M 797.425781 315.699219 L 825.148438 331.710938 C 830.042969 324.304688 834.109375 316.632812 837.238281 308.894531 C 843.414062 293.628906 841.777344 288.59375 839.664062 285.910156 C 835.394531 280.492188 825.375 280.25 819.046875 283.421875 C 814.632812 285.632812 812.785156 289.058594 809.109375 295.886719 C 808.414062 297.164062 807.636719 298.609375 806.777344 300.164062 C 803.886719 305.378906 800.746094 310.597656 797.425781 315.699219 M 825.839844 334.664062 L 794.292969 316.445312 L 794.933594 315.464844 C 798.457031 310.097656 801.792969 304.589844 804.839844 299.09375 C 805.691406 297.550781 806.46875 296.105469 807.15625 294.832031 C 810.9375 287.824219 813.011719 283.964844 818.054688 281.441406 C 821.707031 279.613281 826.28125 278.824219 830.617188 279.28125 C 835.296875 279.777344 839.125 281.644531 841.40625 284.539062 C 845.144531 289.285156 844.511719 296.820312 839.292969 309.726562 C 835.980469 317.90625 831.652344 326.007812 826.414062 333.804688 L 825.839844 334.664062 " fill-opacity="1" fill-rule="nonzero"/><path fill="#000000" d="M 835.714844 247.558594 C 834.699219 247.558594 833.492188 247.359375 832.300781 246.703125 C 830.835938 245.902344 828.683594 244 829.167969 242.316406 C 829.429688 241.398438 830.351562 241.15625 831.238281 240.917969 C 831.988281 240.71875 832.835938 240.492188 833.542969 239.882812 C 834.886719 238.730469 835.371094 236.523438 834.996094 233.328125 C 834.964844 233.054688 835.15625 232.808594 835.433594 232.773438 C 835.703125 232.742188 835.953125 232.9375 835.980469 233.210938 C 836.402344 236.753906 835.800781 239.253906 834.191406 240.636719 C 833.3125 241.394531 832.300781 241.664062 831.496094 241.878906 C 830.683594 242.089844 830.226562 242.230469 830.125 242.589844 C 829.867188 243.476562 831.316406 245.03125 832.777344 245.832031 C 834.289062 246.660156 835.824219 246.636719 836.847656 246.46875 C 837.117188 246.429688 837.375 246.613281 837.417969 246.882812 C 837.460938 247.152344 837.28125 247.410156 837.007812 247.449219 C 836.632812 247.511719 836.191406 247.558594 835.714844 247.558594 " fill-opacity="1" fill-rule="nonzero"/><path fill="#000000" d="M 840.382812 257.511719 C 838.851562 257.511719 837.605469 257.09375 836.871094 256.769531 C 836.621094 256.65625 836.503906 256.363281 836.621094 256.113281 C 836.726562 255.863281 837.019531 255.75 837.277344 255.859375 C 838.226562 256.28125 840.160156 256.886719 842.417969 256.230469 C 845.570312 255.308594 846.949219 252.546875 847.191406 252 C 847.304688 251.75 847.59375 251.636719 847.847656 251.75 C 848.101562 251.863281 848.207031 252.15625 848.101562 252.40625 C 847.714844 253.269531 846.1875 256.164062 842.699219 257.183594 C 841.878906 257.421875 841.097656 257.511719 840.382812 257.511719 " fill-opacity="1" fill-rule="nonzero"/><path fill="#000000" d="M 828.4375 230.339844 C 828.4375 232.179688 827.527344 233.671875 826.402344 233.671875 C 825.277344 233.671875 824.363281 232.179688 824.363281 230.339844 C 824.363281 228.503906 825.277344 227.011719 826.402344 227.011719 C 827.527344 227.011719 828.4375 228.503906 828.4375 230.339844 " fill-opacity="1" fill-rule="nonzero"/><path fill="#000000" d="M 846.847656 231.167969 C 846.847656 233.007812 845.933594 234.496094 844.804688 234.496094 C 843.679688 234.496094 842.769531 233.007812 842.769531 231.167969 C 842.769531 229.332031 843.679688 227.835938 844.804688 227.835938 C 845.933594 227.835938 846.847656 229.332031 846.847656 231.167969 " fill-opacity="1" fill-rule="nonzero"/><path fill="#000000" d="M 822.695312 225.273438 C 822.539062 225.273438 822.386719 225.199219 822.289062 225.0625 C 822.128906 224.839844 822.183594 224.53125 822.40625 224.371094 C 823.332031 223.707031 824.355469 223.210938 825.453125 222.886719 C 826.523438 222.574219 827.632812 222.433594 828.742188 222.476562 C 829.019531 222.484375 829.234375 222.714844 829.222656 222.992188 C 829.214844 223.265625 828.984375 223.480469 828.707031 223.46875 C 827.703125 223.429688 826.699219 223.554688 825.734375 223.84375 C 824.75 224.132812 823.820312 224.582031 822.980469 225.179688 C 822.894531 225.242188 822.792969 225.273438 822.695312 225.273438 " fill-opacity="1" fill-rule="nonzero"/><path fill="#000000" d="M 849.199219 226.371094 C 849.097656 226.371094 848.996094 226.339844 848.910156 226.28125 C 848.078125 225.683594 847.148438 225.230469 846.160156 224.941406 C 845.199219 224.652344 844.191406 224.53125 843.1875 224.566406 C 842.910156 224.578125 842.683594 224.363281 842.671875 224.09375 C 842.660156 223.816406 842.875 223.585938 843.148438 223.574219 C 844.265625 223.535156 845.371094 223.671875 846.445312 223.984375 C 847.535156 224.308594 848.554688 224.808594 849.488281 225.46875 C 849.714844 225.628906 849.765625 225.9375 849.605469 226.160156 C 849.507812 226.296875 849.359375 226.371094 849.199219 226.371094 " fill-opacity="1" fill-rule="nonzero"/></svg>