<svg width="192" height="188" viewBox="0 0 192 188" fill="none" xmlns="http://www.w3.org/2000/svg">
<g clip-path="url(#clip0_3130_4799)">
<path d="M124.065 31.3146C113.561 27.8198 107.05 28.0715 107.136 27.6978C106.708 27.6222 106.418 27.7159 106.014 27.683C104.544 26.5692 101.893 25.653 98.6006 25.3862C98.6006 25.3862 97.0106 25.2521 94.0146 25.0049C92.5307 24.8952 90.6831 24.7583 88.5206 24.5828C86.3241 24.8429 83.8124 25.1682 80.9863 25.5075C69.9619 25.8012 52.514 32.0711 40.5195 48.5055C35.2653 57.0178 30.5307 66.9278 28.6615 78.1553C27.1364 89.3724 26.9013 102.065 32.0589 113.515C35.3322 121.999 40.4475 130.025 47.0938 136.587L31.76 160.271C31.6564 160.436 32.2092 161.058 33.0053 161.648C33.8099 162.275 34.5687 162.653 34.694 162.506L52.2225 140.928C53.0832 141.621 53.852 142.388 54.7527 143.034C59.5625 147.336 65.7044 149.479 71.3678 152.455C77.573 153.917 83.5883 156.659 90.074 156.608C101.722 158.029 113.556 155.954 124.253 151.407L131.785 179.481C131.836 179.673 132.654 179.65 133.628 179.433C134.622 179.198 135.388 178.846 135.367 178.636L130.498 148.374C140.597 142.841 149.315 135.022 155.089 125.354C167.522 103.715 167.057 78.3254 158.537 60.7482C149.865 42.8577 134.498 34.2942 124.065 31.3146ZM151.138 122.804C139.238 142.374 114.372 154.363 90.6456 151.221C84.6103 151.277 79.066 148.58 73.3279 147.249C68.1351 144.398 62.4394 142.443 58.0652 138.386C48.4471 131.62 41.4405 121.709 37.504 111.263C28.9002 90.0397 35.8979 66.9656 45.6578 52.315C56.4771 37.9265 71.4631 32.5529 81.7097 32.3804C84.2803 32.05 86.5677 31.7832 88.5517 31.5381C90.5791 31.7281 92.3024 31.8814 93.6969 31.9967C96.4894 32.2634 97.9793 32.4011 97.9793 32.4011L98.161 32.4119C101.405 32.6857 104.269 32.1258 105.879 31.1674C106.179 31.2203 106.353 31.3647 106.66 31.4187C106.544 31.8029 112.891 31.6202 122.84 35.0171C132.79 37.9286 146.889 46.0839 154.778 62.6156C162.612 78.7797 162.728 103.178 151.138 122.804Z" fill="black"/>
<mask id="mask0_3130_4799" style="mask-type:luminance" maskUnits="userSpaceOnUse" x="20" y="1" width="51" height="50">
<path d="M28.165 1.89551L70.8271 9.41799L63.5549 50.6609L20.8927 43.1385L28.165 1.89551Z" fill="white"/>
</mask>
<g mask="url(#mask0_3130_4799)">
<path d="M60.4648 17.3391C65.4072 16.7723 68.7002 16.4074 68.7002 16.4074L68.7178 16.3935C69.3658 16.265 69.8288 14.5946 69.7494 12.6568C69.6745 10.7254 69.0249 9.22663 68.2807 9.36091C68.2807 9.36091 64.6161 10.0167 59.1262 10.9725C53.7563 12.469 46.7672 15.2263 40.588 19.4339C34.5687 23.8145 29.2183 29.0443 26.0586 33.6708C22.7079 38.0577 21.15 41.7343 21.15 41.7343C20.9725 42.1147 21.571 42.7442 22.4996 43.091C23.434 43.483 24.3357 43.5284 24.4935 43.2595C24.4964 43.2429 25.9129 40.2826 29.3126 36.299C32.468 32.1744 37.7267 27.6369 43.3939 23.9764C49.2196 20.4902 55.6086 18.4279 60.4648 17.3391Z" fill="black"/>
</g>
<path d="M182.155 61.1945C180.767 55.7661 177.54 49.0239 173.367 42.8404C169.004 36.7795 163.379 31.7924 158.846 28.5511C154.008 25.7785 150.795 23.9043 150.795 23.9043L150.769 23.8999C150.104 23.5554 148.982 24.7575 148.258 26.5706C147.543 28.3627 147.419 30.0758 147.996 30.3834C147.996 30.3834 150.964 31.8581 155.416 34.0755C159.608 36.7541 164.9 40.8776 169.188 46.1471C173.266 51.5244 176.65 57.5859 178.206 62.5412C180.031 67.4519 180.356 70.715 180.353 70.7301C180.409 71.0423 181.245 71.2764 182.248 71.2488C183.254 71.2417 184.045 70.8784 184.015 70.4416C184.01 70.4505 183.807 66.4636 182.155 61.1945Z" fill="black"/>
<path d="M100.142 35.8358C71.274 30.6723 46.9302 49.8133 40.1112 77.6464C33.2923 105.479 48.9571 133.908 77.0635 142.05C109.775 151.534 155.517 137.082 156.85 97.3151C157.868 66.8666 125.952 25.4115 92.6506 41.1604C66.1406 53.6949 56.7166 91.7601 51.9003 118.042L73.0842 121.778C75.0551 109.877 81.0253 99.4514 87.1522 89.2728C89.8001 84.8882 92.5186 80.5162 95.7987 76.5727C95.963 76.3637 99.9773 72.3848 99.995 72.3879C100.344 73.7127 89.4135 69.2223 92.0617 68.243C92.3546 68.1299 90.9651 75.3909 90.4245 77.2178C88.9716 82.0511 86.9425 86.746 84.8967 91.3283C82.9686 95.6567 80.8878 99.9216 78.6721 104.126C77.6828 106.02 76.626 107.884 75.5869 109.752C75.2385 110.386 74.6864 111.039 74.4231 111.707C73.835 113.287 75.5514 110.057 74.3514 111.804L93.1391 120.664C95.9913 110.475 104.367 102.304 111.146 94.6204C117.925 86.9367 123.54 77.29 131.096 70.256L112.308 61.3961C109.851 80.6982 106.216 100.488 91.8334 114.648L108.225 128.633C116.468 118.425 127.304 111.273 137.645 103.412L121.395 98.3314C122.147 101.393 118.396 107.286 117.222 109.917C123.834 110.204 130.427 110.487 137.036 110.792C134.398 103.352 137.277 93.1133 138.011 85.4437C139.329 71.671 118.146 67.8261 116.827 81.7084C115.696 93.5919 112.757 106.749 116.85 118.327C119.911 126.977 132.853 127.703 136.663 119.203C140.875 109.767 144.174 101.176 141.592 90.8352C139.916 84.1321 130.431 81.8737 125.342 85.7546C113.55 94.7147 101.25 103.054 91.8417 114.705C82.9474 125.714 98.4781 138.283 108.233 128.689C125.174 111.996 130.586 88.0156 133.5 65.1878C134.956 53.8375 122.355 49.2176 114.713 56.3279C110.138 60.5925 107.06 65.8713 103.23 70.7615C99.4013 75.6518 94.9428 80.3945 90.7813 85.2078C82.4614 94.8167 75.4396 104.6 71.9666 116.967C69.1206 127.12 84.7731 134.457 90.7543 125.827C97.9116 115.482 103.475 103.648 107.946 91.9142C111.988 81.2763 118.497 64.0801 108.098 54.9236C83.1119 32.9062 54.4954 102.499 51.9117 118.081C49.636 131.813 70.5841 135.543 73.0956 121.816C76.3092 104.313 81.0915 85.037 91.5624 70.3518C95.4294 64.9374 100.698 59.1109 107.876 59.5894C119.211 60.3431 128.609 72.4903 132.536 82.1167C152.68 131.492 56.0529 139.81 60.0542 88.5223C61.5682 69.2004 76.5462 53.6257 96.3614 57.1746C109.983 59.6131 113.758 38.3099 100.118 35.8682L100.142 35.8358Z" fill="#F5943C"/>
<path d="M106.403 54.3074C105.349 54.1214 104.435 54.2032 104.371 54.473L95.6615 94.6546L64.8099 90.8588C64.5877 90.8352 64.2562 91.674 64.0685 92.7384C63.8771 93.8235 63.8991 94.7403 64.115 94.7996L97.1224 102.41L97.1385 102.413C97.5537 102.469 98.1641 100.863 98.5311 98.8364C98.5364 98.8374 98.5471 98.8393 98.5672 98.8428C100.566 99.1952 102.233 99.0406 102.309 98.4917L108.211 55.15C108.255 54.8767 107.449 54.4918 106.403 54.3074Z" fill="black"/>
</g>
<defs>
<clipPath id="clip0_3130_4799">
<rect width="166" height="160" fill="white" transform="translate(28.1528 0.802734) rotate(10)"/>
</clipPath>
</defs>
</svg>
