<svg xmlns="http://www.w3.org/2000/svg" xmlns:xlink="http://www.w3.org/1999/xlink" width="1920" zoomAndPan="magnify" viewBox="0 0 1440 809.999993" height="1080" preserveAspectRatio="xMidYMid meet" version="1.0"><path fill="#ec5a31" d="M 1138.542969 528.046875 C 1146.59375 589.21875 1131.734375 656.171875 1107.535156 684.519531 C 1081.367188 715.179688 1046.773438 731.53125 1009.484375 738.515625 C 1005.953125 731.796875 1001.089844 724.960938 995.074219 718.324219 C 974.613281 695.773438 940.8125 675.535156 901.082031 670.179688 C 870.023438 665.988281 850.429688 672.886719 843.621094 675.417969 C 843.394531 675.503906 843.183594 675.582031 842.980469 675.65625 C 847.144531 671.703125 848.867188 667.882812 848.730469 664.277344 C 848.523438 658.757812 843.910156 653.671875 836.660156 649.320312 C 822.328125 640.71875 797.683594 634.871094 778.023438 633.488281 C 776.9375 632.085938 775.628906 630.769531 774.097656 629.5625 C 761.261719 619.425781 741.535156 614.503906 720.253906 613.195312 C 688.433594 611.238281 653.148438 617.335938 632.367188 625.9375 C 612.644531 634.097656 596.765625 646.941406 581.046875 660.996094 C 581.109375 659.917969 581.152344 657.960938 580.898438 655.410156 C 580.050781 647.003906 574.511719 641.40625 567.148438 637.789062 C 559.902344 634.230469 550.890625 632.601562 542.972656 632.058594 C 499.644531 629.078125 474.496094 655.566406 462.496094 690.050781 C 461.652344 689.707031 460.808594 689.351562 459.960938 688.996094 C 354.636719 644.246094 348.023438 436.132812 428.644531 401.539062 C 423.210938 409.707031 418.636719 418.152344 415.410156 427.042969 C 411.789062 437.007812 407.988281 459.09375 411.8125 477.277344 C 413.230469 484.007812 415.6875 490.199219 419.570312 495.070312 C 417.609375 499.035156 416.199219 503.242188 415.382812 507.46875 C 413.027344 519.671875 415.628906 532.027344 424.210938 539.269531 C 437.449219 550.445312 452.152344 549.152344 465.617188 542.304688 C 485.636719 532.136719 502.898438 509.65625 508.382812 498.191406 C 517.898438 478.308594 523.242188 455.386719 524.117188 433.75 C 533.257812 438.539062 543.992188 442.207031 556.839844 443.226562 C 613.796875 447.746094 684.980469 435.574219 738.933594 423.125 C 820.59375 404.285156 946.507812 358.605469 1043.613281 399.394531 C 1023.722656 421.5 1014.773438 453.96875 1034.476562 481.539062 C 1042.597656 492.894531 1054.910156 499.328125 1065.855469 500.019531 C 1072.800781 500.457031 1079.199219 498.589844 1083.667969 494.238281 C 1084.585938 499.980469 1087.449219 506.125 1091.671875 511.699219 C 1102.046875 525.375 1120.609375 535.59375 1138.542969 528.046875 Z M 1044.710938 399.859375 C 1063.136719 407.738281 1080.507812 418.757812 1096.320312 433.699219 C 1120.363281 456.40625 1133.433594 490.566406 1138.390625 526.867188 C 1120.875 534.402344 1102.710938 524.375 1092.578125 511.015625 C 1088.433594 505.546875 1085.621094 499.519531 1084.765625 493.898438 C 1084.722656 493.664062 1084.695312 493.425781 1084.667969 493.195312 C 1087.140625 490.386719 1088.867188 486.84375 1089.777344 483.929688 C 1090.414062 481.878906 1090.648438 480.125 1090.496094 479.121094 C 1090.363281 478.277344 1089.929688 477.855469 1089.433594 477.792969 C 1089.023438 477.742188 1088.414062 477.964844 1087.695312 478.71875 C 1084.652344 481.933594 1083.308594 486.074219 1083.355469 490.625 C 1083.363281 491.347656 1083.402344 492.074219 1083.480469 492.8125 C 1079.214844 497.390625 1072.847656 499.328125 1065.925781 498.890625 C 1055.269531 498.214844 1043.300781 491.9375 1035.394531 480.878906 C 1015.945312 453.660156 1024.953125 421.601562 1044.710938 399.859375 Z M 1084.523438 491.597656 C 1084.261719 486.964844 1085.460938 482.730469 1088.519531 479.496094 C 1088.753906 479.25 1088.953125 479.078125 1089.136719 478.980469 C 1089.171875 478.957031 1089.226562 478.9375 1089.257812 478.929688 C 1089.285156 478.996094 1089.347656 479.15625 1089.375 479.296875 C 1089.421875 479.597656 1089.421875 479.980469 1089.378906 480.425781 C 1089.144531 483.101562 1087.472656 487.855469 1084.523438 491.597656 Z M 430.527344 400.765625 C 444.214844 395.4375 460.339844 395.023438 478.835938 401.09375 C 489.457031 404.578125 501.949219 421.761719 523.007812 433.160156 C 522.207031 454.804688 516.890625 477.789062 507.363281 497.703125 C 501.941406 509.03125 484.886719 531.246094 465.109375 541.296875 C 452.042969 547.933594 437.78125 549.242188 424.941406 538.402344 C 416.65625 531.414062 414.21875 519.464844 416.492188 507.683594 C 417.261719 503.71875 418.5625 499.765625 420.363281 496.023438 C 423.433594 499.558594 427.324219 502.3125 432.199219 503.945312 C 442.875 507.519531 456.089844 504.21875 464.507812 497.914062 C 470.214844 493.644531 473.703125 487.992188 472.863281 482.191406 C 472.320312 478.417969 469.960938 475.964844 467.078125 474.386719 C 462.878906 472.09375 457.5625 471.679688 455.421875 471.652344 C 439.050781 471.457031 426.777344 481.351562 420.136719 493.960938 C 416.542969 489.289062 414.257812 483.40625 412.921875 477.042969 C 409.140625 459.089844 412.894531 437.273438 416.472656 427.429688 C 419.855469 418.113281 424.730469 409.296875 430.527344 400.765625 Z M 420.914062 494.921875 C 427.308594 482.453125 439.3125 472.59375 455.410156 472.785156 C 457.449219 472.808594 462.527344 473.1875 466.53125 475.382812 C 469.117188 476.792969 471.257812 478.972656 471.742188 482.351562 C 472.527344 487.777344 469.164062 493.011719 463.828125 497.011719 C 455.679688 503.113281 442.890625 506.332031 432.558594 502.867188 C 427.722656 501.25 423.898438 498.480469 420.914062 494.921875 Z M 463.542969 690.480469 C 475.378906 656.425781 500.132812 630.246094 542.894531 633.1875 C 550.671875 633.71875 559.53125 635.3125 566.648438 638.808594 C 573.648438 642.246094 578.964844 647.53125 579.769531 655.523438 C 580.175781 659.542969 579.773438 661.558594 579.84375 662.089844 C 579.882812 662.367188 580.015625 662.519531 580.128906 662.601562 C 580.273438 662.707031 580.453125 662.761719 580.683594 662.699219 C 580.800781 662.667969 580.992188 662.566406 581.242188 662.339844 C 597.042969 648.179688 612.964844 635.195312 632.800781 626.984375 C 653.460938 618.429688 688.546875 612.378906 720.1875 614.324219 C 741.210938 615.617188 760.710938 620.433594 773.398438 630.453125 C 774.558594 631.367188 775.582031 632.347656 776.472656 633.386719 C 772.417969 633.148438 768.601562 633.105469 765.160156 633.277344 C 750.628906 634 735.636719 637.140625 722.734375 644.167969 C 714.460938 648.679688 706.746094 654.765625 701.96875 663.03125 C 697.160156 671.355469 696.957031 677.558594 699.695312 681.8125 C 702.425781 686.058594 708.15625 688.421875 715.433594 688.984375 C 728.253906 689.984375 745.917969 685.457031 759.886719 676.492188 C 769.234375 670.492188 776.925781 662.503906 780.441406 652.871094 C 782.867188 646.226562 782.328125 639.90625 778.875 634.683594 C 798.207031 636.160156 822.089844 641.898438 836.074219 650.289062 C 842.929688 654.398438 847.40625 659.109375 847.597656 664.320312 C 847.722656 667.761719 845.957031 671.386719 841.84375 675.167969 C 841.175781 675.785156 840.792969 676.179688 840.679688 676.382812 C 840.5625 676.589844 840.5625 676.757812 840.585938 676.875 C 840.625 677.070312 840.730469 677.21875 840.925781 677.316406 C 841.003906 677.355469 841.125 677.390625 841.285156 677.382812 C 841.410156 677.378906 841.605469 677.339844 841.867188 677.257812 C 845.40625 676.160156 865.753906 666.554688 900.933594 671.300781 C 940.367188 676.617188 973.925781 696.703125 994.234375 719.089844 C 1000.09375 725.546875 1004.851562 732.191406 1008.320312 738.726562 C 936.789062 751.730469 855.578125 730.535156 804.957031 709.816406 C 714.980469 672.980469 581.636719 738.207031 463.542969 690.480469 Z M 777.414062 634.578125 C 781.109375 639.652344 781.785156 645.898438 779.378906 652.484375 C 775.941406 661.890625 768.40625 669.675781 759.273438 675.539062 C 745.523438 684.363281 728.140625 688.835938 715.523438 687.855469 C 708.664062 687.324219 703.222656 685.199219 700.648438 681.203125 C 698.078125 677.207031 698.4375 671.410156 702.949219 663.597656 C 707.621094 655.515625 715.183594 649.574219 723.277344 645.164062 C 736.027344 638.214844 750.851562 635.121094 765.214844 634.410156 C 768.902344 634.222656 773.027344 634.289062 777.414062 634.578125 " fill-opacity="1" fill-rule="evenodd"/><path fill="#ffffff" d="M 541.019531 576.398438 L 1091.175781 576.398438 L 1091.175781 594.707031 L 541.019531 594.707031 L 541.019531 576.398438 " fill-opacity="1" fill-rule="evenodd"/><path fill="#000000" d="M 541.976562 593.753906 L 1090.214844 593.753906 L 1090.214844 577.351562 L 541.976562 577.351562 Z M 1091.175781 595.65625 L 541.019531 595.65625 C 540.496094 595.65625 540.070312 595.230469 540.070312 594.707031 L 540.070312 576.398438 C 540.070312 575.871094 540.496094 575.445312 541.019531 575.445312 L 1091.175781 575.445312 C 1091.695312 575.445312 1092.121094 575.871094 1092.121094 576.398438 L 1092.121094 594.707031 C 1092.121094 595.230469 1091.695312 595.65625 1091.175781 595.65625 " fill-opacity="1" fill-rule="nonzero"/><path fill="#ffffff" d="M 1091.167969 577.058594 L 541.019531 577.058594 L 434.917969 513.753906 L 985.070312 513.753906 L 1091.167969 577.058594 " fill-opacity="1" fill-rule="nonzero"/><path fill="#000000" d="M 541.285156 576.105469 L 1087.714844 576.105469 L 984.804688 514.707031 L 438.375 514.707031 Z M 1091.175781 578.011719 L 541.019531 578.011719 C 540.851562 578.011719 540.683594 577.964844 540.535156 577.875 L 434.429688 514.574219 C 434.0625 514.351562 433.890625 513.914062 434.003906 513.503906 C 434.117188 513.089844 434.492188 512.804688 434.921875 512.804688 L 985.070312 512.804688 C 985.234375 512.804688 985.40625 512.851562 985.554688 512.9375 L 1091.660156 576.242188 C 1092.027344 576.460938 1092.203125 576.898438 1092.085938 577.3125 C 1091.976562 577.726562 1091.601562 578.011719 1091.175781 578.011719 " fill-opacity="1" fill-rule="nonzero"/><path fill="#ffffff" d="M 434.917969 532.0625 L 541.019531 594.703125 L 541.019531 576.394531 L 434.917969 513.753906 L 434.917969 532.0625 " fill-opacity="1" fill-rule="nonzero"/><path fill="#000000" d="M 435.871094 531.519531 L 540.070312 593.039062 L 540.070312 576.941406 L 435.871094 515.421875 Z M 541.019531 595.65625 C 540.855469 595.65625 540.6875 595.613281 540.539062 595.523438 L 434.433594 532.882812 C 434.144531 532.710938 433.96875 532.402344 433.96875 532.0625 L 433.96875 513.753906 C 433.96875 513.414062 434.148438 513.097656 434.449219 512.929688 C 434.746094 512.757812 435.109375 512.761719 435.402344 512.9375 L 541.507812 575.578125 C 541.796875 575.746094 541.976562 576.058594 541.976562 576.398438 L 541.976562 594.707031 C 541.976562 595.046875 541.792969 595.359375 541.492188 595.53125 C 541.347656 595.613281 541.1875 595.65625 541.019531 595.65625 " fill-opacity="1" fill-rule="nonzero"/><path fill="#ffffff" d="M 966.992188 532.734375 L 716.742188 532.734375 L 716.742188 553.457031 L 966.992188 553.457031 L 966.992188 532.734375 " fill-opacity="1" fill-rule="evenodd"/><path fill="#000000" d="M 717.695312 552.503906 L 966.039062 552.503906 L 966.039062 533.683594 L 717.695312 533.683594 Z M 966.992188 554.410156 L 716.742188 554.410156 C 716.214844 554.410156 715.789062 553.984375 715.789062 553.457031 L 715.789062 532.734375 C 715.789062 532.207031 716.214844 531.78125 716.742188 531.78125 L 966.992188 531.78125 C 967.519531 531.78125 967.949219 532.207031 967.949219 532.734375 L 967.949219 553.457031 C 967.949219 553.984375 967.519531 554.410156 966.992188 554.410156 " fill-opacity="1" fill-rule="nonzero"/><path fill="#ffffff" d="M 670.511719 529.035156 L 716.742188 553.457031 L 716.742188 532.734375 L 655.714844 500.496094 L 655.714844 504.484375 C 655.714844 514.777344 661.410156 524.226562 670.511719 529.035156 " fill-opacity="1" fill-rule="nonzero"/><path fill="#000000" d="M 656.664062 502.074219 L 656.664062 504.484375 C 656.664062 514.453125 662.140625 523.539062 670.957031 528.195312 L 715.789062 551.875 L 715.789062 533.308594 Z M 716.742188 554.410156 C 716.589844 554.410156 716.4375 554.371094 716.296875 554.296875 L 670.066406 529.878906 C 660.625 524.890625 654.761719 515.160156 654.761719 504.484375 L 654.761719 500.496094 C 654.761719 500.160156 654.9375 499.851562 655.222656 499.679688 C 655.507812 499.507812 655.863281 499.496094 656.160156 499.652344 L 717.183594 531.890625 C 717.496094 532.054688 717.691406 532.378906 717.691406 532.734375 L 717.691406 553.457031 C 717.691406 553.792969 717.519531 554.097656 717.230469 554.273438 C 717.082031 554.363281 716.914062 554.410156 716.742188 554.410156 " fill-opacity="1" fill-rule="nonzero"/><path fill="#ffffff" d="M 716.742188 532.734375 L 966.992188 532.734375 L 905.96875 500.496094 L 655.714844 500.496094 L 716.742188 532.734375 " fill-opacity="1" fill-rule="nonzero"/><path fill="#000000" d="M 716.976562 531.78125 L 963.15625 531.78125 L 905.730469 501.445312 L 659.554688 501.445312 Z M 966.992188 533.683594 L 716.742188 533.683594 C 716.585938 533.683594 716.433594 533.648438 716.296875 533.574219 L 655.269531 501.335938 C 654.882812 501.132812 654.683594 500.6875 654.789062 500.265625 C 654.894531 499.839844 655.273438 499.542969 655.710938 499.542969 L 905.96875 499.542969 C 906.121094 499.542969 906.273438 499.582031 906.410156 499.652344 L 967.4375 531.890625 C 967.824219 532.09375 968.023438 532.535156 967.917969 532.960938 C 967.8125 533.386719 967.433594 533.683594 966.992188 533.683594 " fill-opacity="1" fill-rule="nonzero"/><path fill="#ffffff" d="M 617.332031 342.371094 L 865.664062 342.371094 L 904.050781 500.496094 L 655.710938 500.496094 L 617.332031 342.371094 " fill-opacity="1" fill-rule="nonzero"/><path fill="#000000" d="M 660.632812 495.605469 L 907.003906 495.605469 L 869.085938 339.386719 L 622.710938 339.386719 Z M 908.21875 497.507812 L 659.882812 497.507812 C 659.445312 497.507812 659.058594 497.210938 658.957031 496.78125 L 620.574219 338.660156 C 620.503906 338.375 620.570312 338.074219 620.753906 337.847656 C 620.933594 337.617188 621.207031 337.484375 621.5 337.484375 L 869.835938 337.484375 C 870.273438 337.484375 870.65625 337.785156 870.765625 338.210938 L 909.140625 496.332031 C 909.214844 496.617188 909.148438 496.917969 908.964844 497.144531 C 908.789062 497.375 908.507812 497.507812 908.21875 497.507812 " fill-opacity="1" fill-rule="nonzero"/><path fill="#ffffff" d="M 635.371094 359.257812 L 856.09375 359.257812 L 886.902344 490.132812 L 666.1875 490.132812 L 635.371094 359.257812 " fill-opacity="1" fill-rule="nonzero"/><path fill="#000000" d="M 666.941406 489.179688 L 885.707031 489.179688 L 855.335938 360.210938 L 636.574219 360.210938 Z M 886.90625 491.085938 L 666.1875 491.085938 C 665.742188 491.085938 665.359375 490.777344 665.261719 490.351562 L 634.445312 359.476562 C 634.378906 359.195312 634.445312 358.894531 634.625 358.667969 C 634.804688 358.441406 635.082031 358.308594 635.371094 358.308594 L 856.085938 358.308594 C 856.53125 358.308594 856.914062 358.609375 857.015625 359.042969 L 887.832031 489.914062 C 887.898438 490.199219 887.832031 490.496094 887.65625 490.722656 C 887.46875 490.953125 887.199219 491.085938 886.90625 491.085938 " fill-opacity="1" fill-rule="nonzero"/><path fill="#000000" d="M 808.816406 421.605469 L 808.921875 421.503906 L 787.050781 398.859375 L 783.800781 402 L 802.632812 421.496094 L 783.132812 440.328125 L 786.273438 443.578125 L 808.917969 421.710938 L 808.816406 421.605469 " fill-opacity="1" fill-rule="nonzero"/><path fill="#000000" d="M 720.710938 421.605469 L 720.605469 421.503906 L 742.480469 398.859375 L 745.730469 402 L 726.894531 421.496094 L 746.394531 440.328125 L 743.253906 443.578125 L 720.613281 421.710938 L 720.710938 421.605469 " fill-opacity="1" fill-rule="nonzero"/><path fill="#000000" d="M 771.949219 395.789062 L 776.628906 397.511719 L 758.941406 445.503906 L 754.265625 443.78125 L 771.949219 395.789062 " fill-opacity="1" fill-rule="evenodd"/><path fill="#000000" d="M 561.355469 113.324219 C 560.828125 113.324219 560.402344 112.894531 560.402344 112.371094 L 560.402344 107.605469 C 560.402344 107.085938 560.828125 106.652344 561.355469 106.652344 C 561.878906 106.652344 562.304688 107.085938 562.304688 107.605469 L 562.304688 112.371094 C 562.304688 112.894531 561.878906 113.324219 561.355469 113.324219 " fill-opacity="1" fill-rule="nonzero"/><path fill="#000000" d="M 561.355469 132.910156 C 560.828125 132.910156 560.402344 132.480469 560.402344 131.953125 L 560.402344 122.164062 C 560.402344 121.636719 560.828125 121.210938 561.355469 121.210938 C 561.878906 121.210938 562.304688 121.636719 562.304688 122.164062 L 562.304688 131.953125 C 562.304688 132.480469 561.878906 132.910156 561.355469 132.910156 M 561.355469 152.492188 C 560.828125 152.492188 560.402344 152.066406 560.402344 151.542969 L 560.402344 141.75 C 560.402344 141.222656 560.828125 140.796875 561.355469 140.796875 C 561.878906 140.796875 562.304688 141.222656 562.304688 141.75 L 562.304688 151.542969 C 562.304688 152.066406 561.878906 152.492188 561.355469 152.492188 M 561.355469 172.082031 C 560.828125 172.082031 560.402344 171.65625 560.402344 171.128906 L 560.402344 161.335938 C 560.402344 160.8125 560.828125 160.378906 561.355469 160.378906 C 561.878906 160.378906 562.304688 160.8125 562.304688 161.335938 L 562.304688 171.128906 C 562.304688 171.65625 561.878906 172.082031 561.355469 172.082031 M 561.355469 191.667969 C 560.828125 191.667969 560.402344 191.242188 560.402344 190.714844 L 560.402344 180.921875 C 560.402344 180.394531 560.828125 179.972656 561.355469 179.972656 C 561.878906 179.972656 562.304688 180.394531 562.304688 180.921875 L 562.304688 190.714844 C 562.304688 191.242188 561.878906 191.667969 561.355469 191.667969 M 561.355469 211.253906 C 560.828125 211.253906 560.402344 210.828125 560.402344 210.304688 L 560.402344 200.507812 C 560.402344 199.980469 560.828125 199.554688 561.355469 199.554688 C 561.878906 199.554688 562.304688 199.980469 562.304688 200.507812 L 562.304688 210.304688 C 562.304688 210.828125 561.878906 211.253906 561.355469 211.253906 M 561.355469 230.839844 C 560.828125 230.839844 560.402344 230.414062 560.402344 229.886719 L 560.402344 220.09375 C 560.402344 219.566406 560.828125 219.140625 561.355469 219.140625 C 561.878906 219.140625 562.304688 219.566406 562.304688 220.09375 L 562.304688 229.886719 C 562.304688 230.414062 561.878906 230.839844 561.355469 230.839844 M 561.355469 250.425781 C 560.828125 250.425781 560.402344 250 560.402344 249.472656 L 560.402344 239.679688 C 560.402344 239.15625 560.828125 238.730469 561.355469 238.730469 C 561.878906 238.730469 562.304688 239.15625 562.304688 239.679688 L 562.304688 249.472656 C 562.304688 250 561.878906 250.425781 561.355469 250.425781 M 561.355469 270.011719 C 560.828125 270.011719 560.402344 269.585938 560.402344 269.058594 L 560.402344 259.265625 C 560.402344 258.742188 560.828125 258.3125 561.355469 258.3125 C 561.878906 258.3125 562.304688 258.742188 562.304688 259.265625 L 562.304688 269.058594 C 562.304688 269.585938 561.878906 270.011719 561.355469 270.011719 M 561.355469 289.601562 C 560.828125 289.601562 560.402344 289.175781 560.402344 288.648438 L 560.402344 278.855469 C 560.402344 278.328125 560.828125 277.902344 561.355469 277.902344 C 561.878906 277.902344 562.304688 278.328125 562.304688 278.855469 L 562.304688 288.648438 C 562.304688 289.175781 561.878906 289.601562 561.355469 289.601562 M 561.355469 309.183594 C 560.828125 309.183594 560.402344 308.757812 560.402344 308.230469 L 560.402344 298.4375 C 560.402344 297.914062 560.828125 297.488281 561.355469 297.488281 C 561.878906 297.488281 562.304688 297.914062 562.304688 298.4375 L 562.304688 308.230469 C 562.304688 308.757812 561.878906 309.183594 561.355469 309.183594 M 561.355469 328.769531 C 560.828125 328.769531 560.402344 328.34375 560.402344 327.816406 L 560.402344 318.027344 C 560.402344 317.5 560.828125 317.074219 561.355469 317.074219 C 561.878906 317.074219 562.304688 317.5 562.304688 318.027344 L 562.304688 327.816406 C 562.304688 328.34375 561.878906 328.769531 561.355469 328.769531 " fill-opacity="1" fill-rule="nonzero"/><path fill="#000000" d="M 561.355469 343.324219 C 560.828125 343.324219 560.402344 342.898438 560.402344 342.371094 L 560.402344 337.609375 C 560.402344 337.085938 560.828125 336.660156 561.355469 336.660156 C 561.878906 336.660156 562.304688 337.085938 562.304688 337.609375 L 562.304688 342.371094 C 562.304688 342.898438 561.878906 343.324219 561.355469 343.324219 " fill-opacity="1" fill-rule="nonzero"/><path fill="#000000" d="M 757.566406 90.589844 L 523.082031 90.441406 C 522.558594 90.441406 522.128906 90.015625 522.132812 89.492188 C 522.132812 88.964844 522.558594 88.539062 523.082031 88.539062 L 757.566406 88.683594 C 758.09375 88.683594 758.519531 89.109375 758.519531 89.636719 C 758.519531 90.164062 758.09375 90.589844 757.566406 90.589844 " fill-opacity="1" fill-rule="nonzero"/><path fill="#000000" d="M 757.566406 274.230469 C 757.042969 274.230469 756.617188 273.804688 756.617188 273.28125 L 756.617188 89.636719 C 756.617188 89.109375 757.042969 88.683594 757.566406 88.683594 C 758.09375 88.683594 758.519531 89.109375 758.519531 89.636719 L 758.519531 273.28125 C 758.519531 273.804688 758.09375 274.230469 757.566406 274.230469 " fill-opacity="1" fill-rule="nonzero"/><path fill="#000000" d="M 956.097656 147.617188 L 757.566406 147.617188 C 757.042969 147.617188 756.617188 147.191406 756.617188 146.664062 C 756.617188 146.136719 757.042969 145.710938 757.566406 145.710938 L 956.097656 145.710938 C 956.625 145.710938 957.050781 146.136719 957.050781 146.664062 C 957.050781 147.191406 956.625 147.617188 956.097656 147.617188 " fill-opacity="1" fill-rule="nonzero"/><path fill="#000000" d="M 956.097656 271.648438 C 955.574219 271.648438 955.148438 271.222656 955.148438 270.699219 L 955.148438 146.664062 C 955.148438 146.136719 955.574219 145.710938 956.097656 145.710938 C 956.625 145.710938 957.050781 146.136719 957.050781 146.664062 L 957.050781 270.699219 C 957.050781 271.222656 956.625 271.648438 956.097656 271.648438 " fill-opacity="1" fill-rule="nonzero"/><path fill="#37959d" d="M 682.347656 71.730469 L 832.566406 71.730469 L 832.566406 107.539062 L 682.347656 107.539062 L 682.347656 71.730469 " fill-opacity="1" fill-rule="evenodd"/><path fill="#000000" d="M 683.300781 106.582031 L 831.613281 106.582031 L 831.613281 72.683594 L 683.300781 72.683594 Z M 832.566406 108.492188 L 682.347656 108.492188 C 681.820312 108.492188 681.394531 108.0625 681.394531 107.539062 L 681.394531 71.730469 C 681.394531 71.203125 681.820312 70.777344 682.347656 70.777344 L 832.566406 70.777344 C 833.09375 70.777344 833.519531 71.203125 833.519531 71.730469 L 833.519531 107.539062 C 833.519531 108.0625 833.09375 108.492188 832.566406 108.492188 " fill-opacity="1" fill-rule="nonzero"/><path fill="#37959d" d="M 880.878906 128.761719 L 1031.101562 128.761719 L 1031.101562 164.566406 L 880.878906 164.566406 L 880.878906 128.761719 " fill-opacity="1" fill-rule="evenodd"/><path fill="#000000" d="M 881.832031 163.613281 L 1030.148438 163.613281 L 1030.148438 129.714844 L 881.832031 129.714844 Z M 1031.101562 165.515625 L 880.878906 165.515625 C 880.351562 165.515625 879.925781 165.089844 879.925781 164.566406 L 879.925781 128.761719 C 879.925781 128.234375 880.351562 127.808594 880.878906 127.808594 L 1031.101562 127.808594 C 1031.621094 127.808594 1032.046875 128.234375 1032.046875 128.761719 L 1032.046875 164.566406 C 1032.046875 165.089844 1031.621094 165.515625 1031.101562 165.515625 " fill-opacity="1" fill-rule="nonzero"/><path fill="#37959d" d="M 682.347656 188.535156 L 832.566406 188.535156 L 832.566406 224.339844 L 682.347656 224.339844 L 682.347656 188.535156 " fill-opacity="1" fill-rule="evenodd"/><path fill="#000000" d="M 683.300781 223.386719 L 831.613281 223.386719 L 831.613281 189.488281 L 683.300781 189.488281 Z M 832.566406 225.289062 L 682.347656 225.289062 C 681.820312 225.289062 681.394531 224.863281 681.394531 224.339844 L 681.394531 188.535156 C 681.394531 188.007812 681.820312 187.582031 682.347656 187.582031 L 832.566406 187.582031 C 833.09375 187.582031 833.519531 188.007812 833.519531 188.535156 L 833.519531 224.339844 C 833.519531 224.863281 833.09375 225.289062 832.566406 225.289062 " fill-opacity="1" fill-rule="nonzero"/><path fill="#ec5a31" d="M 814.664062 291.183594 L 700.253906 291.183594 C 690.363281 291.183594 682.347656 283.167969 682.347656 273.28125 C 682.347656 263.390625 690.363281 255.378906 700.253906 255.378906 L 814.664062 255.378906 C 824.554688 255.378906 832.566406 263.390625 832.566406 273.28125 C 832.566406 283.167969 824.554688 291.183594 814.664062 291.183594 " fill-opacity="1" fill-rule="nonzero"/><path fill="#000000" d="M 700.253906 256.328125 C 690.902344 256.328125 683.300781 263.933594 683.300781 273.28125 C 683.300781 282.628906 690.902344 290.230469 700.253906 290.230469 L 814.664062 290.230469 C 824.011719 290.230469 831.613281 282.628906 831.613281 273.28125 C 831.613281 263.933594 824.011719 256.328125 814.664062 256.328125 Z M 814.664062 292.136719 L 700.253906 292.136719 C 689.855469 292.136719 681.394531 283.675781 681.394531 273.28125 C 681.394531 262.886719 689.855469 254.429688 700.253906 254.429688 L 814.664062 254.429688 C 825.058594 254.429688 833.519531 262.886719 833.519531 273.28125 C 833.519531 283.675781 825.058594 292.136719 814.664062 292.136719 " fill-opacity="1" fill-rule="nonzero"/><path fill="#ec5a31" d="M 618.449219 107.605469 L 504.039062 107.605469 C 494.148438 107.605469 486.136719 99.597656 486.136719 89.703125 C 486.136719 79.820312 494.148438 71.804688 504.039062 71.804688 L 618.449219 71.804688 C 628.339844 71.804688 636.355469 79.820312 636.355469 89.703125 C 636.355469 99.597656 628.339844 107.605469 618.449219 107.605469 " fill-opacity="1" fill-rule="nonzero"/><path fill="#000000" d="M 504.039062 72.757812 C 494.691406 72.757812 487.085938 80.359375 487.085938 89.703125 C 487.085938 99.058594 494.691406 106.652344 504.039062 106.652344 L 618.449219 106.652344 C 627.796875 106.652344 635.402344 99.058594 635.402344 89.703125 C 635.402344 80.359375 627.796875 72.757812 618.449219 72.757812 Z M 618.449219 108.558594 L 504.039062 108.558594 C 493.640625 108.558594 485.183594 100.105469 485.183594 89.703125 C 485.183594 79.3125 493.640625 70.855469 504.039062 70.855469 L 618.449219 70.855469 C 628.847656 70.855469 637.308594 79.3125 637.308594 89.703125 C 637.308594 100.105469 628.847656 108.558594 618.449219 108.558594 " fill-opacity="1" fill-rule="nonzero"/><path fill="#ec5a31" d="M 1013.066406 291.910156 L 898.652344 291.910156 C 888.769531 291.910156 880.75 283.894531 880.75 274.003906 C 880.75 264.121094 888.769531 256.105469 898.652344 256.105469 L 1013.066406 256.105469 C 1022.957031 256.105469 1030.972656 264.121094 1030.972656 274.003906 C 1030.972656 283.894531 1022.957031 291.910156 1013.066406 291.910156 " fill-opacity="1" fill-rule="nonzero"/><path fill="#000000" d="M 898.652344 257.054688 C 889.308594 257.054688 881.703125 264.660156 881.703125 274.007812 C 881.703125 283.355469 889.308594 290.957031 898.652344 290.957031 L 1013.066406 290.957031 C 1022.410156 290.957031 1030.015625 283.355469 1030.015625 274.007812 C 1030.015625 264.660156 1022.410156 257.054688 1013.066406 257.054688 Z M 1013.066406 292.863281 L 898.652344 292.863281 C 888.257812 292.863281 879.796875 284.402344 879.796875 274.007812 C 879.796875 263.613281 888.257812 255.152344 898.652344 255.152344 L 1013.066406 255.152344 C 1023.464844 255.152344 1031.925781 263.613281 1031.925781 274.007812 C 1031.925781 284.402344 1023.464844 292.863281 1013.066406 292.863281 " fill-opacity="1" fill-rule="nonzero"/><path fill="#002345" d="M 782.257812 146.59375 L 757.457031 162.828125 L 732.65625 146.59375 L 757.457031 130.359375 L 782.257812 146.59375 " fill-opacity="1" fill-rule="nonzero"/><path fill="#000000" d="M 734.394531 146.59375 L 757.457031 161.683594 L 780.519531 146.59375 L 757.457031 131.496094 Z M 757.457031 163.773438 C 757.277344 163.773438 757.097656 163.71875 756.9375 163.621094 L 732.136719 147.386719 C 731.867188 147.210938 731.703125 146.914062 731.703125 146.59375 C 731.703125 146.269531 731.867188 145.972656 732.136719 145.792969 L 756.9375 129.5625 C 757.253906 129.355469 757.664062 129.355469 757.980469 129.5625 L 782.777344 145.792969 C 783.050781 145.972656 783.210938 146.269531 783.210938 146.59375 C 783.210938 146.914062 783.050781 147.210938 782.777344 147.386719 L 757.980469 163.621094 C 757.824219 163.71875 757.640625 163.773438 757.457031 163.773438 " fill-opacity="1" fill-rule="nonzero"/><path fill="#ffffff" d="M 1065.96875 544.566406 C 1069.78125 552.460938 1064.304688 562.847656 1058.515625 568.292969 C 1049.160156 577.09375 1033.394531 578.265625 1025.960938 571.878906 C 1022.671875 569.058594 1023.710938 567.078125 1018.507812 556.152344 C 1012.195312 542.90625 1008.476562 541.226562 1009.679688 537.945312 C 1012.351562 530.648438 1033.386719 531.75 1046.375 534.636719 C 1055.554688 536.671875 1062.941406 538.316406 1065.96875 544.566406 " fill-opacity="1" fill-rule="nonzero"/><path fill="#000000" d="M 1026.574219 533.378906 C 1025.757812 533.378906 1024.964844 533.394531 1024.195312 533.421875 C 1016.449219 533.71875 1011.609375 535.441406 1010.574219 538.273438 C 1010.09375 539.589844 1010.636719 540.542969 1012.625 543.652344 C 1014.171875 546.09375 1016.527344 549.78125 1019.371094 555.746094 C 1021.644531 560.515625 1022.71875 563.5625 1023.507812 565.785156 C 1024.496094 568.570312 1024.90625 569.722656 1026.574219 571.15625 C 1029.988281 574.085938 1035.398438 575.425781 1041.425781 574.835938 C 1047.636719 574.222656 1053.625 571.585938 1057.867188 567.601562 C 1063.921875 561.898438 1068.519531 552.035156 1065.109375 544.980469 C 1062.28125 539.144531 1055.175781 537.5625 1046.167969 535.5625 C 1039.945312 534.179688 1032.660156 533.378906 1026.574219 533.378906 M 1038.683594 576.875 C 1033.316406 576.875 1028.5625 575.371094 1025.339844 572.601562 C 1023.285156 570.835938 1022.757812 569.359375 1021.714844 566.421875 C 1020.9375 564.238281 1019.878906 561.246094 1017.652344 556.5625 C 1014.859375 550.707031 1012.542969 547.078125 1011.011719 544.675781 C 1008.980469 541.484375 1007.953125 539.878906 1008.785156 537.617188 C 1010.140625 533.910156 1015.300781 531.859375 1024.125 531.519531 C 1030.761719 531.261719 1039.371094 532.101562 1046.582031 533.707031 C 1056.089844 535.816406 1063.597656 537.488281 1066.820312 544.152344 C 1068.667969 547.972656 1068.636719 552.652344 1066.730469 557.683594 C 1065.167969 561.820312 1062.40625 565.9375 1059.167969 568.984375 C 1054.632812 573.257812 1048.234375 576.078125 1041.605469 576.730469 C 1040.617188 576.828125 1039.636719 576.875 1038.683594 576.875 " fill-opacity="1" fill-rule="nonzero"/><path fill="#37959d" d="M 1040.03125 566.363281 C 1049.871094 557.625 1059.710938 548.886719 1069.550781 540.152344 C 1063.15625 530.8125 1060.542969 522.71875 1059.347656 516.976562 C 1057.949219 510.28125 1058.226562 505.539062 1054.929688 497.941406 C 1054.105469 496.039062 1052.269531 492.082031 1047.484375 485.800781 C 1045.457031 483.148438 1029.292969 461.929688 1023.890625 463.90625 C 1018.964844 465.707031 1019.867188 487.914062 1040.03125 566.363281 " fill-opacity="1" fill-rule="nonzero"/><path fill="#000000" d="M 1024.652344 464.734375 C 1024.457031 464.734375 1024.3125 464.765625 1024.21875 464.800781 C 1023.171875 465.183594 1021.003906 468.042969 1023.496094 486.261719 C 1025.777344 502.957031 1031.523438 529.316406 1040.566406 564.613281 L 1068.296875 539.996094 C 1063.355469 532.617188 1060.03125 524.941406 1058.410156 517.171875 C 1057.976562 515.097656 1057.703125 513.214844 1057.445312 511.390625 C 1056.851562 507.324219 1056.296875 503.480469 1054.054688 498.316406 C 1053.476562 496.992188 1051.730469 492.945312 1046.722656 486.375 C 1043.105469 481.628906 1039.480469 477.265625 1036.253906 473.761719 C 1028.9375 465.828125 1025.816406 464.734375 1024.652344 464.734375 M 1040.03125 567.3125 C 1039.9375 567.3125 1039.839844 567.300781 1039.753906 567.273438 C 1039.433594 567.175781 1039.191406 566.921875 1039.109375 566.597656 C 1029.820312 530.46875 1023.933594 503.527344 1021.605469 486.519531 C 1020.59375 479.085938 1020.238281 473.378906 1020.554688 469.566406 C 1020.863281 465.785156 1021.847656 463.640625 1023.5625 463.011719 C 1025.285156 462.378906 1028.617188 462.675781 1037.652344 472.472656 C 1040.925781 476.015625 1044.578125 480.425781 1048.234375 485.226562 C 1053.382812 491.976562 1055.207031 496.179688 1055.804688 497.5625 C 1058.144531 502.957031 1058.71875 506.921875 1059.328125 511.117188 C 1059.585938 512.914062 1059.855469 514.769531 1060.273438 516.78125 C 1061.890625 524.550781 1065.28125 532.230469 1070.339844 539.613281 C 1070.613281 540.007812 1070.542969 540.546875 1070.183594 540.863281 L 1040.660156 567.074219 C 1040.488281 567.230469 1040.257812 567.3125 1040.03125 567.3125 " fill-opacity="1" fill-rule="nonzero"/><path fill="#ffffff" d="M 892.089844 582.144531 C 885.203125 590.136719 863.632812 585.078125 848.925781 575.734375 C 833.757812 566.097656 823.324219 550.261719 811.5625 532.414062 C 803.59375 520.328125 799.554688 512.070312 791.144531 510.894531 C 785.875 510.15625 781.5625 512.570312 768.519531 511.996094 C 759.441406 511.597656 758.71875 510.304688 758.582031 509.789062 C 758.296875 508.699219 759.546875 506.988281 773.207031 498.753906 C 780.597656 494.296875 784.296875 492.070312 785.625 491.578125 C 795.46875 487.949219 804.863281 490.753906 815.421875 494.0625 C 827.671875 497.902344 836.863281 503.167969 843.292969 507.308594 C 857.664062 516.550781 880.359375 531.148438 890.125 557.65625 C 893.039062 565.5625 897.03125 576.410156 892.089844 582.144531 " fill-opacity="1" fill-rule="nonzero"/><path fill="#000000" d="M 789.046875 509.800781 C 789.785156 509.800781 790.519531 509.84375 791.277344 509.953125 C 798.929688 511.019531 803.015625 517.378906 809.195312 527.011719 C 810.199219 528.570312 811.234375 530.183594 812.355469 531.890625 C 824.203125 549.875 834.441406 565.402344 849.4375 574.929688 C 863.964844 584.160156 884.980469 588.9375 891.367188 581.523438 C 895.945312 576.210938 892.058594 565.679688 889.230469 557.984375 C 879.578125 531.777344 857.429688 517.53125 842.78125 508.109375 C 836.953125 504.359375 827.753906 498.925781 815.136719 494.972656 C 805.140625 491.839844 795.695312 488.878906 785.953125 492.472656 C 784.710938 492.933594 780.800781 495.289062 773.699219 499.570312 C 767.878906 503.078125 763.96875 505.609375 761.757812 507.304688 C 759.542969 509.003906 759.503906 509.515625 759.503906 509.535156 C 759.503906 509.539062 759.503906 509.539062 759.503906 509.539062 C 759.585938 509.648438 760.613281 510.695312 768.558594 511.046875 C 775.777344 511.363281 780.210938 510.765625 783.78125 510.289062 C 785.730469 510.027344 787.394531 509.800781 789.046875 509.800781 M 880.507812 587.066406 C 878.289062 587.066406 875.875 586.839844 873.273438 586.378906 C 865.136719 584.9375 855.84375 581.257812 848.417969 576.539062 C 833.078125 566.789062 822.738281 551.105469 810.765625 532.941406 C 809.636719 531.222656 808.597656 529.605469 807.59375 528.039062 C 801.699219 518.855469 797.800781 512.785156 791.011719 511.835938 C 788.820312 511.53125 786.8125 511.800781 784.035156 512.171875 C 780.585938 512.636719 775.859375 513.273438 768.476562 512.949219 C 759.546875 512.554688 758 511.3125 757.664062 510.03125 C 757.320312 508.730469 758.332031 507.605469 760.070312 506.207031 C 762.269531 504.4375 766.289062 501.8125 772.71875 497.9375 C 780.382812 493.316406 783.882812 491.210938 785.296875 490.6875 C 795.648438 486.871094 805.390625 489.921875 815.707031 493.15625 C 828.539062 497.175781 837.894531 502.699219 843.808594 506.503906 C 851.171875 511.242188 860.328125 517.136719 869.085938 525.3125 C 879.488281 535.027344 886.660156 545.5 891.019531 557.324219 C 894.015625 565.460938 898.121094 576.605469 892.8125 582.765625 C 890.367188 585.601562 886.101562 587.066406 880.507812 587.066406 " fill-opacity="1" fill-rule="nonzero"/><path fill="#002345" d="M 888.257812 650.730469 L 1046.382812 650.730469 C 1046.667969 609.144531 1049.050781 604.597656 1049.128906 557.246094 C 1049.230469 497.648438 1045.6875 483.332031 1034.78125 471.992188 C 1021.257812 457.921875 1003.257812 453.886719 1001.121094 453.507812 C 993.546875 452.15625 981.382812 453.355469 957.058594 455.742188 C 950.066406 456.433594 946.679688 456.894531 943.15625 457.507812 C 940.921875 457.902344 930.867188 459.707031 915.140625 465.007812 C 906.578125 467.894531 902.296875 469.339844 900.683594 470.335938 C 887.550781 478.484375 893.984375 502.792969 895.441406 552.003906 C 895.917969 568.175781 896.105469 605.605469 889.09375 646.082031 C 888.816406 647.6875 888.535156 649.234375 888.257812 650.730469 " fill-opacity="1" fill-rule="nonzero"/><path fill="#000000" d="M 889.402344 649.777344 L 1045.433594 649.777344 C 1045.582031 630.757812 1046.183594 619.328125 1046.765625 608.265625 C 1047.441406 595.496094 1048.132812 582.292969 1048.175781 557.242188 C 1048.226562 526.910156 1047.324219 508.800781 1045.144531 496.691406 C 1042.84375 483.886719 1039.0625 477.816406 1034.097656 472.652344 C 1019.984375 457.976562 1001.140625 454.476562 1000.953125 454.445312 C 993.511719 453.117188 981.355469 454.3125 957.144531 456.691406 C 949.90625 457.40625 946.597656 457.875 943.320312 458.449219 C 939.746094 459.074219 929.859375 461.050781 915.441406 465.910156 C 907.226562 468.683594 902.703125 470.203125 901.1875 471.144531 C 891.984375 476.851562 892.933594 491.53125 894.660156 518.175781 C 895.292969 527.957031 896.011719 539.039062 896.394531 551.972656 C 896.933594 570.324219 896.835938 606.976562 890.027344 646.246094 C 889.828125 647.421875 889.613281 648.605469 889.402344 649.777344 M 1046.382812 651.679688 L 888.257812 651.679688 C 887.976562 651.679688 887.707031 651.554688 887.523438 651.335938 C 887.347656 651.117188 887.269531 650.832031 887.324219 650.554688 C 887.605469 649.027344 887.890625 647.46875 888.15625 645.921875 C 894.925781 606.816406 895.035156 570.3125 894.488281 552.027344 C 894.109375 539.128906 893.394531 528.0625 892.757812 518.296875 C 890.988281 490.921875 890.011719 475.835938 900.179688 469.527344 C 901.886719 468.472656 905.945312 467.105469 914.839844 464.105469 C 928.851562 459.382812 938.496094 457.359375 942.992188 456.570312 C 946.3125 455.992188 949.664062 455.515625 956.960938 454.796875 C 981.34375 452.402344 993.582031 451.199219 1001.285156 452.570312 C 1001.480469 452.605469 1020.929688 456.214844 1035.46875 471.332031 C 1040.675781 476.75 1044.632812 483.074219 1047.019531 496.355469 C 1049.21875 508.582031 1050.128906 526.792969 1050.082031 557.246094 C 1050.042969 582.34375 1049.34375 595.570312 1048.667969 608.363281 C 1048.074219 619.585938 1047.464844 631.191406 1047.335938 650.738281 C 1047.328125 651.257812 1046.902344 651.679688 1046.382812 651.679688 " fill-opacity="1" fill-rule="nonzero"/><path fill="#37959d" d="M 893.234375 582.628906 C 899.738281 576.832031 930.917969 547.890625 928.828125 506.203125 C 928.523438 500.09375 927.816406 473.339844 914.207031 468.40625 C 906.597656 465.648438 898.234375 470.882812 897.054688 471.625 C 885.71875 478.730469 881.578125 494.800781 878.964844 504.933594 C 877.703125 509.808594 876.996094 514.234375 873.453125 519.488281 C 869.953125 524.675781 866.890625 525.929688 863.523438 529.636719 C 859.980469 533.539062 856.109375 540.148438 855.367188 551.914062 C 867.984375 562.152344 880.613281 572.390625 893.234375 582.628906 " fill-opacity="1" fill-rule="nonzero"/><path fill="#000000" d="M 856.347656 551.484375 L 893.203125 581.375 C 904.742188 570.9375 929.757812 543.804688 927.875 506.25 C 927.863281 506.011719 927.851562 505.742188 927.839844 505.441406 C 927.660156 501.664062 927.296875 493.800781 925.351562 486.15625 C 922.988281 476.875 919.132812 471.203125 913.878906 469.300781 C 907.222656 466.886719 899.703125 471.085938 897.558594 472.433594 C 886.546875 479.335938 882.539062 494.878906 879.882812 505.171875 C 879.707031 505.859375 879.539062 506.539062 879.375 507.214844 C 878.351562 511.410156 877.378906 515.371094 874.238281 520.023438 C 872.003906 523.335938 869.914062 525.117188 867.902344 526.835938 C 866.652344 527.898438 865.46875 528.90625 864.230469 530.273438 C 859.644531 535.320312 857 542.457031 856.34375 551.484375 M 893.234375 583.578125 C 893.019531 583.578125 892.8125 583.507812 892.636719 583.367188 L 854.757812 552.652344 C 854.523438 552.460938 854.394531 552.160156 854.410156 551.851562 C 855.03125 542.152344 857.855469 534.460938 862.816406 528.996094 C 864.140625 527.539062 865.425781 526.445312 866.664062 525.386719 C 868.671875 523.671875 870.566406 522.058594 872.660156 518.957031 C 875.609375 514.589844 876.539062 510.785156 877.527344 506.761719 C 877.695312 506.089844 877.863281 505.390625 878.042969 504.695312 C 879.386719 499.484375 881.058594 493 883.871094 486.75 C 887.238281 479.265625 891.386719 474.054688 896.542969 470.820312 C 899.535156 468.949219 907.265625 464.875 914.53125 467.507812 C 920.40625 469.640625 924.671875 475.757812 927.199219 485.691406 C 929.191406 493.519531 929.5625 501.511719 929.742188 505.355469 C 929.753906 505.652344 929.765625 505.917969 929.777344 506.15625 C 930.671875 523.988281 925.71875 541.558594 915.058594 558.382812 C 907.75 569.914062 899.5 578.320312 893.867188 583.335938 C 893.683594 583.496094 893.457031 583.578125 893.234375 583.578125 " fill-opacity="1" fill-rule="nonzero"/><path fill="#ffffff" d="M 1013.769531 401.484375 C 1005.652344 417.234375 992.136719 423.570312 980.90625 428.835938 C 971.460938 433.261719 958.335938 439.414062 947.371094 433.90625 C 940.75 430.582031 936.414062 423.753906 935.023438 421.558594 C 929.4375 412.757812 930.71875 406.808594 924.214844 402.367188 C 921.589844 400.574219 918.085938 399.292969 918.035156 396.851562 C 918.007812 395.378906 919.257812 394.851562 920.464844 392.882812 C 922.402344 389.703125 922.070312 386.265625 921.566406 381.632812 C 921.003906 376.546875 919.949219 373.980469 919.140625 370.601562 C 917.46875 363.664062 917.597656 356.5625 918.476562 352.519531 C 920.714844 342.183594 931.132812 336.351562 938.109375 332.449219 C 944.714844 328.75 963.933594 317.992188 985.757812 326.050781 C 1001.785156 331.96875 1010.023438 344.644531 1013.109375 350.3125 C 1021.765625 366.21875 1021.871094 385.777344 1013.769531 401.484375 " fill-opacity="1" fill-rule="nonzero"/><path fill="#000000" d="M 969.453125 324.097656 C 954.972656 324.097656 943.238281 330.667969 938.578125 333.277344 C 931.796875 337.070312 921.554688 342.800781 919.40625 352.71875 C 918.558594 356.636719 918.433594 363.613281 920.0625 370.382812 C 920.289062 371.3125 920.527344 372.164062 920.78125 373.070312 C 921.429688 375.390625 922.101562 377.789062 922.507812 381.53125 C 923 386 923.425781 389.855469 921.277344 393.378906 C 920.773438 394.195312 920.265625 394.785156 919.863281 395.257812 C 919.234375 395.988281 918.972656 396.308594 918.984375 396.832031 C 919.015625 398.148438 920.796875 399.195312 922.6875 400.304688 C 923.375 400.710938 924.085938 401.128906 924.75 401.582031 C 928.828125 404.367188 930.058594 407.773438 931.488281 411.714844 C 932.464844 414.433594 933.578125 417.511719 935.824219 421.046875 C 937.207031 423.226562 941.414062 429.851562 947.804688 433.054688 C 950.742188 434.535156 953.863281 435.132812 957.035156 435.132812 C 965.222656 435.132812 973.757812 431.132812 980.496094 427.972656 C 991.394531 422.867188 1004.953125 416.511719 1012.925781 401.050781 C 1020.941406 385.503906 1020.695312 366.234375 1012.273438 350.769531 C 1008.738281 344.265625 1000.539062 332.523438 985.425781 326.945312 C 979.894531 324.898438 974.503906 324.097656 969.453125 324.097656 M 957.046875 437.050781 C 953.609375 437.050781 950.195312 436.390625 946.945312 434.757812 C 940.085938 431.316406 935.671875 424.355469 934.21875 422.066406 C 931.863281 418.351562 930.710938 415.171875 929.695312 412.363281 C 928.273438 408.429688 927.246094 405.59375 923.675781 403.152344 C 923.066406 402.734375 922.378906 402.335938 921.722656 401.945312 C 919.464844 400.621094 917.132812 399.25 917.082031 396.871094 C 917.054688 395.597656 917.71875 394.828125 918.417969 394.015625 C 918.800781 393.574219 919.234375 393.070312 919.648438 392.386719 C 921.371094 389.5625 921.140625 386.5 920.621094 381.738281 C 920.222656 378.152344 919.578125 375.828125 918.945312 373.582031 C 918.699219 372.703125 918.445312 371.789062 918.214844 370.828125 C 916.515625 363.765625 916.652344 356.445312 917.546875 352.316406 C 919.875 341.5625 930.570312 335.574219 937.640625 331.617188 C 941.09375 329.683594 947.507812 326.09375 955.988281 323.921875 C 966.460938 321.230469 976.589844 321.648438 986.089844 325.15625 C 1001.785156 330.949219 1010.277344 343.121094 1013.949219 349.859375 C 1022.660156 365.871094 1022.921875 385.824219 1014.617188 401.921875 C 1006.34375 417.960938 992.460938 424.46875 981.308594 429.699219 C 974.378906 432.945312 965.625 437.050781 957.046875 437.050781 " fill-opacity="1" fill-rule="nonzero"/><path fill="#ffffff" d="M 977.386719 471.445312 C 988.140625 470.792969 996.328125 461.558594 995.679688 450.808594 L 993.367188 412.535156 C 992.953125 405.652344 987.035156 400.410156 980.148438 400.824219 L 966.15625 401.667969 C 959.269531 402.085938 954.03125 408 954.445312 414.886719 L 956.753906 453.160156 C 957.40625 463.90625 966.644531 472.09375 977.386719 471.445312 " fill-opacity="1" fill-rule="nonzero"/><path fill="#000000" d="M 980.910156 401.753906 C 980.675781 401.753906 980.445312 401.761719 980.207031 401.777344 L 966.214844 402.617188 C 963.140625 402.804688 960.320312 404.175781 958.277344 406.484375 C 956.234375 408.789062 955.207031 411.753906 955.398438 414.828125 L 957.707031 453.101562 C 958.300781 462.929688 966.484375 470.527344 976.203125 470.527344 C 976.578125 470.527344 976.957031 470.515625 977.335938 470.492188 C 982.28125 470.195312 986.8125 467.992188 990.089844 464.285156 C 993.378906 460.574219 995.027344 455.8125 994.722656 450.867188 L 992.421875 412.59375 C 992.046875 406.480469 986.953125 401.753906 980.910156 401.753906 M 976.203125 472.433594 C 965.484375 472.433594 956.457031 464.054688 955.808594 453.21875 L 953.492188 414.941406 C 953.277344 411.359375 954.46875 407.90625 956.847656 405.21875 C 959.230469 402.535156 962.515625 400.9375 966.101562 400.71875 L 980.09375 399.875 C 987.488281 399.425781 993.871094 405.082031 994.316406 412.480469 L 996.632812 450.753906 C 996.957031 456.203125 995.144531 461.457031 991.519531 465.546875 C 987.902344 469.632812 982.902344 472.066406 977.449219 472.394531 C 977.035156 472.421875 976.613281 472.433594 976.203125 472.433594 " fill-opacity="1" fill-rule="nonzero"/><path fill="#002345" d="M 905.683594 359.355469 C 907.613281 365.082031 915.761719 370.527344 918.761719 368.941406 C 920.128906 368.21875 919.945312 366.207031 920.851562 366.085938 C 923.515625 365.726562 925.359375 382.90625 931.519531 383.792969 C 935.046875 384.300781 939.816406 379.429688 940.515625 378.113281 C 940.519531 378.097656 940.566406 378.011719 940.632812 377.886719 C 940.894531 377.414062 941.492188 376.355469 942.378906 375.085938 C 942.710938 374.621094 943.089844 374.121094 943.558594 373.5625 C 945.632812 371.105469 949.515625 369.015625 952.890625 369.644531 C 958.03125 370.609375 961.152344 377.726562 960.632812 383.4375 C 960.148438 388.734375 956.394531 394.269531 951.925781 395.050781 C 948.851562 395.589844 947.011719 393.59375 945.449219 394.65625 C 942.550781 396.632812 945.601562 405.757812 945.878906 406.59375 C 950.121094 419.269531 962.488281 430.230469 977.113281 434.207031 C 982.203125 435.589844 986.949219 437.003906 992.804688 435.582031 C 997.953125 434.332031 1002.851562 431.207031 1010.714844 420.949219 C 1020.273438 408.503906 1028.585938 397.679688 1031.105469 380.53125 C 1032.535156 370.832031 1034.519531 357.492188 1026.859375 348.15625 C 1022.246094 342.527344 1018.261719 343.441406 1010.746094 334.847656 C 1004.011719 327.148438 1004.566406 323.398438 999.175781 320.589844 C 998.769531 320.375 998.199219 320.125 996.007812 319.449219 C 992.6875 318.433594 985.734375 316.339844 976.933594 315.460938 C 972.75 315.046875 960.046875 313.78125 948.699219 316.34375 C 923.902344 321.945312 901.425781 346.710938 905.683594 359.355469 " fill-opacity="1" fill-rule="nonzero"/><path fill="#000000" d="M 946.519531 395.292969 C 946.304688 395.292969 946.140625 395.339844 945.988281 395.445312 C 944.398438 396.523438 945.289062 401.824219 946.785156 406.292969 C 950.964844 418.777344 962.96875 429.375 977.371094 433.289062 L 977.945312 433.449219 C 982.695312 434.742188 987.183594 435.964844 992.582031 434.65625 C 997.320312 433.507812 1002.085938 430.640625 1009.960938 420.371094 C 1019.46875 407.992188 1027.671875 397.296875 1030.164062 380.390625 L 1030.179688 380.320312 C 1031.582031 370.796875 1033.5 357.75 1026.125 348.757812 C 1024.125 346.316406 1022.242188 345.167969 1020.054688 343.828125 C 1017.320312 342.160156 1014.214844 340.261719 1010.027344 335.476562 C 1007.066406 332.09375 1005.492188 329.460938 1004.226562 327.34375 C 1002.625 324.675781 1001.570312 322.910156 998.738281 321.4375 C 998.382812 321.25 997.863281 321.015625 995.726562 320.363281 C 992.734375 319.445312 985.722656 317.292969 976.835938 316.410156 C 972.699219 315.996094 960.105469 314.742188 948.90625 317.273438 C 931.222656 321.269531 915.574219 334.738281 909.253906 345.984375 C 906.363281 351.132812 905.441406 355.648438 906.582031 359.054688 C 907.855469 362.832031 912.039062 366.457031 915.335938 367.773438 C 916.640625 368.292969 917.722656 368.410156 918.308594 368.101562 C 918.722656 367.882812 918.921875 367.375 919.132812 366.835938 C 919.386719 366.179688 919.742188 365.277344 920.726562 365.140625 C 922.585938 364.890625 923.480469 367.496094 924.957031 371.800781 C 926.484375 376.277344 928.578125 382.410156 931.652344 382.851562 C 934.585938 383.277344 939.070312 378.804688 939.671875 377.667969 C 939.683594 377.644531 939.734375 377.554688 939.796875 377.433594 C 940.160156 376.773438 940.761719 375.738281 941.605469 374.539062 C 941.96875 374.011719 942.375 373.492188 942.832031 372.949219 C 945.0625 370.308594 949.292969 368.003906 953.070312 368.710938 C 958.785156 369.78125 962.144531 377.375 961.582031 383.523438 C 961.097656 388.804688 957.328125 395.070312 952.09375 395.988281 C 950.363281 396.292969 949 395.898438 947.90625 395.585938 C 947.265625 395.402344 946.839844 395.292969 946.519531 395.292969 M 987.871094 437.128906 C 984.210938 437.128906 980.894531 436.222656 977.441406 435.285156 L 976.867188 435.128906 C 969.550781 433.140625 962.675781 429.421875 956.972656 424.378906 C 951.261719 419.324219 947.113281 413.277344 944.980469 406.894531 C 943.910156 403.695312 941.757812 396.023438 944.914062 393.871094 C 946.078125 393.078125 947.273438 393.421875 948.433594 393.753906 C 949.425781 394.042969 950.464844 394.339844 951.769531 394.113281 C 955.582031 393.445312 959.214844 388.515625 959.683594 383.351562 C 960.171875 378.027344 957.292969 371.4375 952.722656 370.582031 C 949.6875 370.015625 946.117188 372.011719 944.285156 374.175781 C 943.867188 374.675781 943.5 375.152344 943.160156 375.636719 C 942.375 376.757812 941.804688 377.726562 941.472656 378.34375 C 941.40625 378.453125 941.367188 378.535156 941.355469 378.558594 C 940.609375 379.964844 935.585938 385.335938 931.382812 384.734375 C 927.160156 384.128906 924.9375 377.636719 923.148438 372.417969 C 922.496094 370.519531 921.640625 368 921.035156 367.214844 C 920.988281 367.320312 920.941406 367.4375 920.910156 367.527344 C 920.625 368.25 920.242188 369.234375 919.203125 369.785156 C 918.09375 370.375 916.511719 370.289062 914.632812 369.542969 C 910.976562 368.085938 906.285156 364.125 904.78125 359.660156 C 903.457031 355.734375 904.433594 350.683594 907.597656 345.050781 C 914.117188 333.441406 930.257812 319.535156 948.484375 315.417969 C 959.988281 312.820312 972.808594 314.09375 977.027344 314.515625 C 986.101562 315.417969 993.238281 317.605469 996.289062 318.542969 C 998.574219 319.242188 999.164062 319.511719 999.621094 319.746094 C 1002.925781 321.46875 1004.15625 323.523438 1005.859375 326.367188 C 1007.085938 328.417969 1008.613281 330.96875 1011.460938 334.21875 C 1015.453125 338.789062 1018.425781 340.605469 1021.042969 342.203125 C 1023.285156 343.570312 1025.390625 344.863281 1027.601562 347.554688 C 1035.5 357.191406 1033.511719 370.71875 1032.0625 380.597656 L 1032.046875 380.667969 C 1029.492188 398.066406 1021.140625 408.941406 1011.472656 421.53125 C 1003.253906 432.238281 998.152344 435.261719 993.03125 436.507812 C 991.210938 436.949219 989.507812 437.128906 987.871094 437.128906 " fill-opacity="1" fill-rule="nonzero"/><path fill="#ffffff" d="M 943.84375 377.441406 C 938.703125 371.8125 941.136719 362.40625 943.40625 353.621094 C 945.753906 344.523438 948.121094 335.351562 956.414062 326.710938 C 959.175781 323.835938 968.972656 313.660156 982.671875 313.476562 C 990.183594 313.378906 997.355469 316.332031 997.230469 317.890625 C 997.105469 319.34375 990.691406 318.527344 982.226562 321.640625 C 980.449219 322.289062 971.910156 325.570312 964.578125 333.769531 C 962.578125 336.011719 955.882812 343.972656 953.769531 356.046875 C 951.40625 369.589844 956.511719 378.550781 952.667969 380.753906 C 950.292969 382.113281 946.128906 379.945312 943.84375 377.441406 " fill-opacity="1" fill-rule="nonzero"/><path fill="#000000" d="M 944.40625 376.929688 C 946.585938 379.3125 950.355469 381.195312 952.289062 380.089844 C 953.71875 379.269531 953.519531 376.972656 953.003906 372.640625 C 952.507812 368.464844 951.824219 362.742188 953.023438 355.917969 C 954.976562 344.71875 960.746094 336.917969 964.015625 333.261719 C 970.910156 325.546875 978.863281 322.0625 981.964844 320.925781 C 986.605469 319.21875 990.671875 318.667969 993.363281 318.304688 C 994.558594 318.144531 995.890625 317.964844 996.382812 317.753906 C 996.042969 317.351562 994.785156 316.488281 992.179688 315.65625 C 990.453125 315.101562 986.925781 314.179688 982.675781 314.238281 C 973.789062 314.355469 965.140625 318.730469 956.964844 327.238281 C 948.8125 335.734375 946.4375 344.921875 944.136719 353.8125 C 941.882812 362.558594 939.542969 371.605469 944.40625 376.929688 M 950.949219 381.925781 C 948.402344 381.925781 945.289062 380.15625 943.28125 377.957031 C 937.867188 372.023438 940.414062 362.144531 942.664062 353.429688 C 945.011719 344.355469 947.433594 334.96875 955.871094 326.183594 C 957.234375 324.761719 960.4375 321.425781 965.027344 318.445312 C 970.761719 314.71875 976.6875 312.792969 982.660156 312.714844 C 982.777344 312.714844 982.898438 312.714844 983.015625 312.714844 C 989.1875 312.714844 995.679688 314.769531 997.449219 316.664062 C 997.839844 317.085938 998.023438 317.519531 997.988281 317.949219 C 997.882812 319.234375 996.347656 319.4375 993.5625 319.816406 C 990.941406 320.171875 986.96875 320.703125 982.488281 322.355469 C 979.496094 323.453125 971.816406 326.816406 965.148438 334.277344 C 961.988281 337.808594 956.410156 345.351562 954.519531 356.175781 C 953.367188 362.785156 954.03125 368.378906 954.515625 372.460938 C 955.042969 376.867188 955.421875 380.054688 953.046875 381.410156 C 952.429688 381.765625 951.714844 381.925781 950.949219 381.925781 " fill-opacity="1" fill-rule="nonzero"/><path fill="#ffffff" d="M 931.496094 383.839844 C 931.496094 395.777344 938.601562 405.457031 947.371094 405.457031 C 956.144531 405.457031 963.257812 395.777344 963.257812 383.839844 C 963.257812 371.902344 956.144531 362.222656 947.371094 362.222656 C 938.601562 362.222656 931.496094 371.902344 931.496094 383.839844 " fill-opacity="1" fill-rule="nonzero"/><path fill="#000000" d="M 947.371094 362.984375 C 939.039062 362.984375 932.25 372.339844 932.25 383.839844 C 932.25 395.335938 939.039062 404.691406 947.371094 404.691406 C 955.710938 404.691406 962.492188 395.335938 962.492188 383.839844 C 962.492188 372.339844 955.710938 362.984375 947.371094 362.984375 M 947.371094 406.21875 C 938.199219 406.21875 930.730469 396.175781 930.730469 383.839844 C 930.730469 371.5 938.199219 361.460938 947.371094 361.460938 C 956.550781 361.460938 964.019531 371.5 964.019531 383.839844 C 964.019531 396.175781 956.550781 406.21875 947.371094 406.21875 " fill-opacity="1" fill-rule="nonzero"/><path fill="#ffffff" d="M 934 383.839844 C 934 393.21875 938.109375 400.824219 943.183594 400.824219 C 948.257812 400.824219 952.371094 393.21875 952.371094 383.839844 C 952.371094 374.457031 948.257812 366.855469 943.183594 366.855469 C 938.109375 366.855469 934 374.457031 934 383.839844 " fill-opacity="1" fill-rule="nonzero"/><path fill="#000000" d="M 943.183594 367.617188 C 941.023438 367.617188 938.949219 369.242188 937.355469 372.191406 C 935.683594 375.289062 934.757812 379.425781 934.757812 383.839844 C 934.757812 388.25 935.683594 392.386719 937.355469 395.484375 C 938.949219 398.433594 941.023438 400.0625 943.183594 400.0625 C 945.347656 400.0625 947.414062 398.433594 949.007812 395.484375 C 950.683594 392.386719 951.609375 388.25 951.609375 383.839844 C 951.609375 379.425781 950.683594 375.289062 949.007812 372.191406 C 947.414062 369.242188 945.347656 367.617188 943.183594 367.617188 M 943.183594 401.582031 C 940.4375 401.582031 937.890625 399.675781 936.019531 396.210938 C 934.222656 392.894531 933.234375 388.5 933.234375 383.839844 C 933.234375 379.175781 934.222656 374.785156 936.019531 371.46875 C 937.890625 368 940.4375 366.09375 943.183594 366.09375 C 945.929688 366.09375 948.472656 368 950.34375 371.46875 C 952.140625 374.785156 953.128906 379.175781 953.128906 383.839844 C 953.128906 388.5 952.140625 392.894531 950.34375 396.210938 C 948.472656 399.675781 945.929688 401.582031 943.183594 401.582031 " fill-opacity="1" fill-rule="nonzero"/><path fill="#000000" d="M 975.070312 482.945312 C 972.53125 482.945312 970.027344 482.5625 967.582031 481.796875 C 957.328125 478.605469 949.710938 469.121094 948.164062 457.636719 C 948.09375 457.117188 948.460938 456.636719 948.984375 456.566406 C 949.511719 456.496094 949.984375 456.863281 950.054688 457.382812 C 951.5 468.136719 958.601562 477.007812 968.144531 479.984375 C 979.34375 483.46875 989.070312 477.257812 991.789062 475.269531 C 1001.519531 468.144531 1003.234375 457.445312 1003.53125 454.332031 C 1003.578125 453.808594 1004.046875 453.421875 1004.566406 453.472656 C 1005.09375 453.523438 1005.472656 453.988281 1005.425781 454.511719 C 1005.113281 457.824219 1003.285156 469.214844 992.910156 476.804688 C 991.40625 477.90625 988.261719 479.964844 984.105469 481.382812 C 981.054688 482.421875 978.039062 482.945312 975.070312 482.945312 " fill-opacity="1" fill-rule="nonzero"/><path fill="#37959d" d="M 509.5625 639.6875 C 483.179688 608.910156 479.144531 585.730469 480.808594 569.808594 C 482.296875 555.570312 488.042969 550.03125 495.28125 514.023438 C 498.589844 497.5625 498.535156 493.011719 502.515625 485.082031 C 512.425781 465.347656 543.644531 453.289062 543.644531 453.289062 C 543.644531 453.289062 553.023438 499.632812 509.5625 639.6875 " fill-opacity="1" fill-rule="nonzero"/><path fill="#000000" d="M 542.886719 454.625 C 540.429688 455.652344 534.179688 458.421875 527.261719 462.617188 C 519.125 467.550781 508.378906 475.527344 503.367188 485.511719 C 500.476562 491.265625 499.773438 495.117188 498.238281 503.554688 C 497.691406 506.550781 497.070312 509.949219 496.214844 514.214844 C 492.246094 533.953125 488.695312 544.648438 486.101562 552.460938 C 483.964844 558.902344 482.417969 563.554688 481.753906 569.910156 C 479.578125 590.753906 488.800781 613.570312 509.164062 637.746094 C 531.15625 566.5625 539.125 520.363281 541.929688 494.082031 C 544.464844 470.378906 543.359375 458.207031 542.886719 454.625 M 509.558594 640.636719 C 509.285156 640.636719 509.019531 640.519531 508.839844 640.304688 C 496.796875 626.257812 488.363281 612.523438 483.769531 599.496094 C 480.179688 589.296875 478.863281 579.277344 479.863281 569.710938 C 480.546875 563.152344 482.117188 558.417969 484.296875 551.863281 C 486.871094 544.097656 490.398438 533.46875 494.347656 513.839844 C 495.203125 509.589844 495.816406 506.203125 496.363281 503.214844 C 497.886719 494.855469 498.652344 490.660156 501.664062 484.65625 C 506.882812 474.257812 517.945312 466.035156 526.300781 460.972656 C 535.3125 455.507812 543.222656 452.429688 543.300781 452.402344 C 543.5625 452.300781 543.855469 452.316406 544.101562 452.453125 C 544.347656 452.589844 544.523438 452.824219 544.578125 453.097656 C 544.675781 453.578125 546.917969 465.160156 543.847656 494.066406 C 542.054688 510.992188 538.789062 530.375 534.152344 551.679688 C 528.359375 578.292969 520.390625 607.996094 510.472656 639.96875 C 510.367188 640.300781 510.09375 640.550781 509.753906 640.617188 C 509.6875 640.628906 509.625 640.636719 509.558594 640.636719 " fill-opacity="1" fill-rule="nonzero"/><path fill="#ffffff" d="M 680.933594 476.136719 C 689.996094 462.941406 699.085938 449.9375 695.023438 443.195312 C 694.578125 442.453125 690.792969 436.664062 690.261719 431.960938 C 690.226562 431.660156 690.152344 430.890625 689.882812 429.867188 C 689.714844 429.238281 688.574219 425.15625 686.648438 424.15625 C 683.105469 422.324219 677.722656 431.308594 673.886719 429.867188 C 670.230469 428.496094 672.535156 419.363281 665.890625 413.496094 C 664.769531 412.503906 663.867188 411.707031 663.035156 411.96875 C 660.511719 412.777344 661.761719 421.988281 662.652344 442.246094 C 663.390625 459.011719 662.945312 462.253906 661.128906 466.042969 C 658.542969 471.441406 655.558594 472.964844 655.417969 477.65625 C 655.234375 483.878906 660.195312 491.085938 665.507812 491.558594 C 666.871094 491.679688 670.351562 491.542969 680.933594 476.136719 " fill-opacity="1" fill-rule="nonzero"/><path fill="#000000" d="M 663.378906 412.871094 C 663.359375 412.871094 663.339844 412.871094 663.324219 412.878906 C 663.207031 412.917969 662.613281 413.285156 662.511719 416.867188 C 662.429688 419.816406 662.667969 424.144531 662.992188 430.140625 C 663.183594 433.652344 663.402344 437.628906 663.605469 442.203125 C 664.34375 458.949219 663.921875 462.425781 661.988281 466.453125 C 660.972656 468.574219 659.90625 470.105469 658.964844 471.449219 C 657.503906 473.546875 656.449219 475.0625 656.371094 477.6875 C 656.195312 483.554688 660.9375 490.195312 665.59375 490.609375 C 666.003906 490.644531 666.976562 490.730469 669.15625 488.933594 C 671.949219 486.636719 675.648438 482.148438 680.148438 475.597656 L 680.621094 474.910156 C 689.105469 462.558594 697.882812 449.789062 694.207031 443.6875 C 694.175781 443.636719 694.132812 443.5625 694.070312 443.460938 C 690.566406 437.828125 689.550781 434.15625 689.316406 432.070312 L 689.308594 432 C 689.273438 431.679688 689.199219 431 688.960938 430.113281 C 688.394531 427.984375 687.320312 425.578125 686.207031 425 C 684.976562 424.367188 682.914062 426.035156 680.921875 427.648438 C 678.484375 429.625 675.964844 431.664062 673.550781 430.757812 C 671.453125 429.972656 670.925781 427.511719 670.316406 424.660156 C 669.613281 421.371094 668.734375 417.277344 665.261719 414.207031 C 664.648438 413.671875 663.746094 412.871094 663.378906 412.871094 M 665.832031 492.523438 C 665.6875 492.523438 665.550781 492.515625 665.425781 492.503906 C 662.644531 492.257812 659.804688 490.367188 657.625 487.316406 C 655.523438 484.367188 654.371094 480.839844 654.464844 477.628906 C 654.558594 474.4375 655.875 472.546875 657.40625 470.363281 C 658.304688 469.074219 659.320312 467.617188 660.273438 465.632812 C 661.9375 462.15625 662.453125 459.410156 661.703125 442.285156 C 661.5 437.722656 661.285156 433.75 661.089844 430.242188 C 660.363281 416.902344 660.089844 411.910156 662.742188 411.0625 C 664.089844 410.636719 665.269531 411.679688 666.519531 412.78125 C 670.46875 416.265625 671.453125 420.886719 672.179688 424.261719 C 672.6875 426.664062 673.09375 428.554688 674.21875 428.976562 C 675.617188 429.5 677.796875 427.730469 679.722656 426.171875 C 682.191406 424.171875 684.746094 422.101562 687.082031 423.3125 C 689.214844 424.414062 690.394531 428.09375 690.800781 429.625 C 691.074219 430.648438 691.164062 431.449219 691.203125 431.792969 L 691.207031 431.855469 C 691.421875 433.75 692.371094 437.125 695.6875 442.457031 C 695.753906 442.566406 695.804688 442.648438 695.839844 442.707031 C 700.144531 449.855469 691.425781 462.550781 682.191406 475.988281 L 681.714844 476.675781 C 677.113281 483.375 673.296875 487.992188 670.367188 490.402344 C 668.210938 492.179688 666.820312 492.523438 665.832031 492.523438 " fill-opacity="1" fill-rule="nonzero"/><path fill="#37959d" d="M 636.515625 650.730469 L 504.246094 650.730469 C 504.007812 609.144531 502.011719 604.597656 501.945312 557.246094 C 501.863281 497.648438 504.828125 483.332031 513.949219 471.992188 C 525.265625 457.921875 540.316406 453.886719 542.109375 453.507812 C 548.441406 452.15625 558.617188 453.355469 578.96875 455.742188 C 584.8125 456.433594 587.648438 456.894531 590.597656 457.507812 C 592.464844 457.902344 600.878906 459.707031 614.03125 465.007812 C 621.195312 467.894531 624.777344 469.339844 626.121094 470.335938 C 637.113281 478.484375 631.726562 502.792969 630.507812 552.003906 C 630.109375 568.175781 629.957031 605.605469 635.816406 646.082031 C 636.050781 647.6875 636.285156 649.234375 636.515625 650.730469 " fill-opacity="1" fill-rule="nonzero"/><path fill="#000000" d="M 505.191406 649.777344 L 635.40625 649.777344 C 635.222656 648.601562 635.046875 647.40625 634.875 646.222656 C 629.191406 606.96875 629.101562 570.324219 629.558594 551.976562 C 629.878906 539.046875 630.480469 527.964844 631.007812 518.183594 C 632.453125 491.503906 633.25 476.804688 625.554688 471.101562 C 624.308594 470.175781 620.53125 468.65625 613.675781 465.890625 C 601.632812 461.042969 593.386719 459.066406 590.398438 458.441406 C 587.667969 457.871094 584.902344 457.398438 578.859375 456.691406 C 558.636719 454.3125 548.488281 453.121094 542.308594 454.4375 C 542.148438 454.472656 526.460938 457.953125 514.691406 472.589844 C 510.53125 477.757812 507.367188 483.835938 505.4375 496.664062 C 503.617188 508.785156 502.859375 526.898438 502.898438 557.242188 C 502.933594 582.296875 503.515625 595.5 504.078125 608.269531 C 504.566406 619.332031 505.070312 630.761719 505.191406 649.777344 M 636.515625 651.679688 L 504.246094 651.679688 C 503.722656 651.679688 503.296875 651.257812 503.292969 650.734375 C 503.179688 631.1875 502.671875 619.582031 502.175781 608.355469 C 501.613281 595.566406 501.03125 582.339844 500.996094 557.246094 C 500.910156 496.898438 503.96875 482.882812 513.207031 471.394531 C 525.398438 456.234375 541.746094 452.609375 541.910156 452.578125 C 548.398438 451.191406 558.652344 452.398438 579.082031 454.800781 C 585.195312 455.519531 588.003906 455.996094 590.789062 456.578125 C 594.5625 457.363281 602.640625 459.394531 614.386719 464.128906 C 621.84375 467.132812 625.246094 468.5 626.6875 469.574219 C 635.207031 475.886719 634.390625 490.945312 632.90625 518.289062 C 632.378906 528.054688 631.777344 539.121094 631.460938 552.023438 C 631.007812 570.3125 631.09375 606.835938 636.761719 645.945312 C 636.984375 647.5 637.21875 649.058594 637.457031 650.582031 C 637.5 650.855469 637.421875 651.136719 637.242188 651.347656 C 637.0625 651.558594 636.796875 651.679688 636.515625 651.679688 " fill-opacity="1" fill-rule="nonzero"/><path fill="#37959d" d="M 595.949219 506.203125 C 596.074219 499.976562 596.660156 473.449219 610.570312 468.40625 C 617.585938 465.863281 625.234375 470.113281 627.316406 471.375 C 627.316406 471.375 627.527344 471.5 627.722656 471.625 C 635.839844 476.777344 639.082031 493.761719 639.421875 495.554688 C 641.894531 508.503906 644.683594 521.394531 646.847656 534.398438 L 639.421875 495.554688 C 644.984375 486.222656 648.847656 478.359375 651.417969 472.707031 C 654.007812 467.007812 658.65625 456.144531 658.65625 456.144531 C 658.65625 456.144531 682.265625 481.464844 682.265625 481.464844 C 682.265625 481.464844 679.15625 493.128906 678.265625 496.507812 C 674.960938 509.074219 672.382812 518.875 670.457031 530.777344 C 668.246094 544.5 669.230469 546.609375 666.460938 556.675781 C 663.769531 566.460938 661.863281 573.046875 656.179688 576.664062 C 647.953125 581.902344 636.84375 577.726562 633.519531 576.472656 C 608.777344 567.171875 595.394531 533.683594 595.949219 506.203125 " fill-opacity="1" fill-rule="nonzero"/><path fill="#000000" d="M 596.898438 506.222656 C 596.621094 520.125 599.976562 535.253906 606.101562 547.734375 C 610.886719 557.476562 619.585938 570.214844 633.855469 575.582031 C 643.136719 579.074219 650.476562 579.167969 655.667969 575.859375 C 660.902344 572.527344 662.742188 566.601562 665.546875 556.417969 C 667.164062 550.53125 667.484375 547.363281 667.929688 542.984375 C 668.234375 539.980469 668.613281 536.238281 669.519531 530.628906 C 671.449219 518.675781 674.050781 508.785156 677.347656 496.265625 C 677.816406 494.476562 678.875 490.5 679.679688 487.476562 L 681.210938 481.730469 C 679.347656 479.730469 670.625 470.375 664.410156 463.710938 C 661.417969 460.507812 659.816406 458.785156 658.953125 457.859375 C 658.894531 457.996094 658.832031 458.144531 658.761719 458.308594 C 658.289062 459.414062 657.625 460.953125 656.878906 462.667969 C 655.527344 465.796875 653.628906 470.144531 652.285156 473.101562 C 648.863281 480.636719 644.871094 488.25 640.425781 495.730469 C 640.4375 495.800781 640.453125 495.878906 640.472656 495.964844 C 641.273438 500.152344 642.117188 504.394531 642.9375 508.503906 C 644.617188 516.917969 646.355469 525.625 647.789062 534.238281 C 647.8125 534.390625 647.800781 534.542969 647.757812 534.679688 C 647.71875 534.816406 647.644531 534.9375 647.546875 535.042969 C 647.476562 535.121094 647.394531 535.1875 647.296875 535.238281 C 647.1875 535.296875 647.0625 535.332031 646.929688 535.34375 C 646.917969 535.347656 646.902344 535.347656 646.894531 535.347656 C 646.835938 535.351562 646.785156 535.347656 646.730469 535.339844 C 646.46875 535.308594 646.234375 535.167969 646.082031 534.960938 C 646.078125 534.960938 646.078125 534.960938 646.078125 534.960938 C 646.078125 534.960938 646.078125 534.960938 646.078125 534.957031 C 646.078125 534.957031 646.078125 534.957031 646.078125 534.953125 C 646.050781 534.917969 646.027344 534.878906 646.003906 534.839844 C 646.003906 534.835938 646.003906 534.835938 646.003906 534.835938 C 646.003906 534.832031 646.003906 534.832031 646.003906 534.832031 C 645.960938 534.753906 645.929688 534.667969 645.914062 534.578125 C 645.914062 534.574219 645.914062 534.574219 645.914062 534.574219 C 645.90625 534.527344 644.054688 524.839844 642.203125 515.15625 C 640.304688 505.25 639.375 500.371094 638.917969 497.960938 C 638.773438 497.21875 638.628906 496.472656 638.488281 495.734375 C 637.902344 492.667969 634.605469 477.125 627.210938 472.429688 C 627.023438 472.3125 626.828125 472.191406 626.824219 472.191406 C 624.136719 470.558594 617.203125 467.015625 610.894531 469.300781 C 605.324219 471.320312 601.332031 477.300781 599.015625 487.078125 C 597.125 495.085938 596.960938 503.175781 596.898438 506.222656 M 646.523438 580.1875 C 645.355469 580.1875 644.148438 580.109375 642.890625 579.945312 C 638.558594 579.386719 634.929688 578.023438 633.183594 577.363281 C 618.332031 571.78125 609.332031 558.625 604.394531 548.574219 C 598.136719 535.832031 594.710938 520.378906 594.996094 506.183594 C 595.4375 484.339844 600.710938 470.964844 610.246094 467.507812 C 617.324219 464.945312 624.886719 468.789062 627.808594 470.558594 C 627.808594 470.558594 628.027344 470.691406 628.230469 470.820312 C 635 475.117188 638.46875 486.898438 639.847656 492.957031 C 643.835938 486.113281 647.429688 479.179688 650.550781 472.3125 C 653.136719 466.628906 657.738281 455.867188 657.777344 455.777344 C 657.867188 455.5625 658.035156 455.378906 658.257812 455.277344 C 658.628906 455.105469 659.070312 455.195312 659.351562 455.496094 C 659.371094 455.519531 662.15625 458.5 665.800781 462.414062 L 682.511719 480.335938 C 683.179688 481.050781 683.21875 481.089844 683.21875 481.464844 C 683.21875 481.554688 683.203125 481.640625 683.183594 481.722656 C 683.113281 481.980469 680.09375 493.304688 679.1875 496.75 C 675.90625 509.21875 673.3125 519.070312 671.402344 530.929688 C 670.503906 536.488281 670.125 540.195312 669.824219 543.179688 C 669.371094 547.648438 669.039062 550.878906 667.378906 556.925781 C 664.71875 566.59375 662.796875 573.578125 656.691406 577.464844 C 653.84375 579.28125 650.4375 580.1875 646.523438 580.1875 " fill-opacity="1" fill-rule="nonzero"/><path fill="#ffffff" d="M 526.046875 401.484375 C 534.167969 417.234375 547.683594 423.570312 558.914062 428.835938 C 568.355469 433.261719 581.480469 439.414062 592.445312 433.90625 C 599.066406 430.582031 603.402344 423.753906 604.796875 421.558594 C 610.382812 412.757812 609.101562 406.808594 615.605469 402.367188 C 618.230469 400.574219 621.730469 399.292969 621.78125 396.851562 C 621.816406 395.378906 620.558594 394.851562 619.355469 392.882812 C 617.414062 389.703125 617.746094 386.265625 618.25 381.632812 C 618.8125 376.546875 619.867188 373.980469 620.679688 370.601562 C 622.351562 363.664062 622.21875 356.5625 621.34375 352.519531 C 619.101562 342.183594 608.683594 336.351562 601.707031 332.449219 C 595.105469 328.75 575.882812 317.992188 554.058594 326.050781 C 538.03125 331.96875 529.796875 344.644531 526.710938 350.3125 C 518.054688 366.21875 517.945312 385.777344 526.046875 401.484375 " fill-opacity="1" fill-rule="nonzero"/><path fill="#000000" d="M 570.367188 324.097656 C 565.3125 324.097656 559.925781 324.898438 554.390625 326.945312 C 539.28125 332.523438 531.085938 344.265625 527.546875 350.769531 C 519.125 366.234375 518.875 385.503906 526.894531 401.050781 C 534.867188 416.511719 548.425781 422.867188 559.320312 427.972656 C 568.664062 432.355469 581.464844 438.355469 592.015625 433.054688 C 598.40625 429.851562 602.613281 423.222656 603.992188 421.046875 C 606.238281 417.511719 607.351562 414.433594 608.332031 411.714844 C 609.757812 407.773438 610.988281 404.367188 615.066406 401.582031 C 615.734375 401.128906 616.445312 400.710938 617.132812 400.304688 C 619.019531 399.195312 620.804688 398.148438 620.832031 396.835938 C 620.839844 396.308594 620.585938 395.988281 619.957031 395.257812 C 619.550781 394.785156 619.039062 394.195312 618.542969 393.378906 C 616.390625 389.855469 616.816406 386 617.308594 381.53125 C 617.71875 377.789062 618.386719 375.390625 619.039062 373.070312 C 619.289062 372.164062 619.53125 371.3125 619.753906 370.382812 C 621.382812 363.613281 621.257812 356.636719 620.414062 352.71875 C 618.261719 342.800781 608.019531 337.070312 601.242188 333.277344 C 596.578125 330.667969 584.847656 324.097656 570.367188 324.097656 M 582.777344 437.050781 C 574.191406 437.050781 565.4375 432.945312 558.511719 429.699219 C 547.355469 424.46875 533.472656 417.960938 525.203125 401.921875 C 516.898438 385.824219 517.15625 365.871094 525.871094 349.859375 C 529.539062 343.121094 538.035156 330.949219 553.730469 325.15625 C 563.234375 321.648438 573.359375 321.230469 583.828125 323.921875 C 592.308594 326.09375 598.726562 329.683594 602.175781 331.617188 C 609.25 335.574219 619.941406 341.5625 622.273438 352.316406 C 623.164062 356.445312 623.304688 363.765625 621.605469 370.828125 C 621.371094 371.789062 621.117188 372.703125 620.871094 373.582031 C 620.242188 375.828125 619.59375 378.152344 619.199219 381.738281 C 618.675781 386.5 618.445312 389.5625 620.167969 392.386719 C 620.585938 393.070312 621.019531 393.574219 621.402344 394.015625 C 622.101562 394.828125 622.761719 395.597656 622.734375 396.871094 C 622.683594 399.25 620.351562 400.621094 618.097656 401.945312 C 617.4375 402.335938 616.753906 402.734375 616.144531 403.152344 C 612.570312 405.59375 611.542969 408.429688 610.125 412.363281 C 609.109375 415.171875 607.957031 418.351562 605.601562 422.066406 C 604.148438 424.355469 599.730469 431.316406 592.871094 434.757812 C 589.621094 436.390625 586.210938 437.050781 582.777344 437.050781 " fill-opacity="1" fill-rule="nonzero"/><path fill="#ffffff" d="M 543.644531 453.285156 C 544.578125 439.703125 545.515625 426.121094 546.453125 412.539062 C 546.867188 405.652344 552.785156 400.410156 559.667969 400.824219 L 573.660156 401.667969 C 580.546875 402.085938 585.789062 408.003906 585.375 414.886719 C 584.605469 428.636719 583.832031 442.390625 583.0625 456.144531 C 572.601562 464.675781 559.90625 466.839844 551.261719 461.664062 C 549.34375 460.519531 546.15625 458.132812 543.644531 453.285156 " fill-opacity="1" fill-rule="nonzero"/><path fill="#000000" d="M 544.613281 453.082031 C 546.421875 456.484375 548.824219 459.097656 551.75 460.847656 C 559.957031 465.757812 572.125 463.671875 582.132812 455.667969 L 584.421875 414.832031 C 584.609375 411.753906 583.585938 408.789062 581.542969 406.484375 C 579.5 404.175781 576.679688 402.804688 573.605469 402.621094 L 559.609375 401.773438 C 553.253906 401.390625 547.785156 406.246094 547.398438 412.59375 Z M 561.894531 465.402344 C 557.789062 465.402344 554.007812 464.417969 550.773438 462.480469 C 547.472656 460.507812 544.789062 457.5625 542.800781 453.726562 C 542.71875 453.570312 542.683594 453.394531 542.695312 453.222656 L 545.5 412.46875 C 545.945312 405.082031 552.328125 399.425781 559.722656 399.875 L 573.71875 400.71875 C 577.300781 400.9375 580.585938 402.535156 582.96875 405.21875 C 585.347656 407.910156 586.539062 411.359375 586.324219 414.941406 L 584.011719 456.195312 C 583.996094 456.464844 583.867188 456.710938 583.664062 456.882812 C 578.414062 461.164062 572.53125 463.96875 566.644531 464.984375 C 565.023438 465.261719 563.433594 465.402344 561.894531 465.402344 " fill-opacity="1" fill-rule="nonzero"/><path fill="#002345" d="M 634.136719 359.355469 C 639.476562 393.738281 622.453125 425.460938 616.574219 424.539062 C 610.871094 423.644531 604.394531 390.265625 599.304688 378.113281 C 599.039062 377.480469 598 375.628906 596.257812 373.5625 C 594.183594 371.105469 590.300781 369.015625 586.925781 369.644531 C 581.78125 370.609375 578.664062 377.726562 579.183594 383.4375 C 579.671875 388.734375 583.425781 394.269531 587.890625 395.050781 C 590.96875 395.589844 592.808594 393.59375 594.371094 394.65625 C 597.269531 396.632812 594.214844 405.757812 593.9375 406.59375 C 589.699219 419.269531 577.328125 430.230469 562.699219 434.207031 C 557.613281 435.589844 552.867188 437.003906 547.011719 435.582031 C 539.550781 433.769531 531.753906 428.570312 529.101562 420.949219 C 527.921875 417.570312 528.683594 416.421875 528.222656 412.542969 C 526.480469 397.894531 513.445312 395.957031 508.714844 380.53125 C 507.964844 378.089844 504.914062 368.152344 509.5625 359.996094 C 511.976562 355.757812 514.097656 356.148438 518.890625 350.089844 C 523.050781 344.835938 521.730469 344.183594 528.03125 333.910156 C 532.488281 326.644531 535.675781 322.839844 540.636719 320.589844 C 541.027344 320.414062 541.734375 320.085938 543.8125 319.449219 C 547.132812 318.433594 554.085938 316.339844 562.886719 315.460938 C 575.328125 314.222656 576.78125 316.898438 591.121094 316.34375 C 603.085938 315.882812 602.976562 314.042969 607.242188 314.867188 C 622.4375 317.804688 631.523438 342.5625 634.136719 359.355469 " fill-opacity="1" fill-rule="nonzero"/><path fill="#000000" d="M 569 316.082031 C 567.285156 316.082031 565.335938 316.175781 562.980469 316.410156 C 554.097656 317.292969 547.082031 319.445312 544.089844 320.363281 C 542.109375 320.96875 541.421875 321.28125 541.054688 321.449219 L 541.03125 321.457031 C 536.082031 323.703125 532.929688 327.738281 528.84375 334.40625 C 525.816406 339.34375 524.59375 341.980469 523.609375 344.09375 C 522.585938 346.296875 521.847656 347.890625 519.636719 350.683594 C 517.222656 353.734375 515.445312 355.207031 514.019531 356.394531 C 512.574219 357.59375 511.53125 358.457031 510.386719 360.464844 C 508.363281 364.023438 506.585938 370.34375 509.621094 380.253906 C 511.804688 387.359375 515.796875 391.515625 519.660156 395.53125 C 524.0625 400.105469 528.214844 404.421875 529.167969 412.429688 C 529.351562 413.992188 529.347656 415.121094 529.34375 416.117188 C 529.335938 417.628906 529.332031 418.722656 530 420.640625 C 532.761719 428.570312 541.011719 433.148438 547.238281 434.65625 C 552.636719 435.964844 557.125 434.742188 561.875 433.445312 L 562.449219 433.289062 C 576.851562 429.375 588.859375 418.777344 593.035156 406.292969 C 594.863281 400.828125 595.191406 396.371094 593.832031 395.445312 C 593.449219 395.183594 592.976562 395.28125 591.914062 395.585938 C 590.820312 395.898438 589.457031 396.289062 587.726562 395.988281 C 582.488281 395.070312 578.722656 388.804688 578.238281 383.527344 C 577.675781 377.375 581.03125 369.78125 586.75 368.707031 C 590.527344 368.003906 594.757812 370.308594 596.984375 372.949219 C 598.71875 375 599.847656 376.945312 600.183594 377.746094 C 602.007812 382.105469 603.976562 389.039062 606.058594 396.382812 C 607.925781 402.964844 609.859375 409.773438 611.777344 414.992188 C 614.527344 422.492188 616.152344 423.507812 616.71875 423.597656 C 616.933594 423.628906 617.746094 423.617188 619.335938 422.027344 C 626.660156 414.714844 637.554688 387.566406 633.195312 359.5 C 631.710938 349.949219 628.566406 340.054688 624.5625 332.355469 C 621.09375 325.675781 615.238281 317.382812 607.0625 315.804688 C 605.207031 315.445312 604.304688 315.632812 602.507812 316.007812 C 600.503906 316.421875 597.46875 317.050781 591.15625 317.296875 C 584.234375 317.5625 580.222656 317.078125 576.683594 316.652344 C 574.210938 316.355469 571.945312 316.082031 569 316.082031 M 551.949219 437.128906 C 550.308594 437.128906 548.605469 436.949219 546.789062 436.507812 C 540.097656 434.882812 531.214844 429.917969 528.199219 421.265625 C 527.425781 419.039062 527.433594 417.683594 527.4375 416.109375 C 527.445312 415.164062 527.449219 414.101562 527.277344 412.65625 C 526.398438 405.28125 522.640625 401.375 518.289062 396.851562 C 514.273438 392.671875 510.113281 388.355469 507.800781 380.808594 C 504.5625 370.253906 506.523438 363.40625 508.734375 359.523438 C 510.046875 357.214844 511.324219 356.15625 512.804688 354.929688 C 514.234375 353.742188 515.855469 352.398438 518.144531 349.5 C 520.214844 346.886719 520.878906 345.457031 521.882812 343.292969 C 522.832031 341.246094 524.132812 338.445312 527.222656 333.410156 C 531.503906 326.421875 534.847656 322.171875 540.242188 319.722656 L 540.265625 319.714844 C 540.675781 319.53125 541.433594 319.183594 543.53125 318.542969 C 546.582031 317.605469 553.71875 315.417969 562.789062 314.515625 C 569.398438 313.855469 573.046875 314.296875 576.910156 314.765625 C 580.382812 315.179688 584.316406 315.65625 591.082031 315.394531 C 597.238281 315.15625 600.175781 314.542969 602.121094 314.140625 C 604.035156 313.742188 605.191406 313.503906 607.425781 313.933594 C 614.488281 315.296875 621 321.367188 626.253906 331.476562 C 630.34375 339.351562 633.5625 349.460938 635.074219 359.210938 C 637.621094 375.589844 635.015625 390.148438 632.382812 399.472656 C 629.460938 409.816406 624.867188 419.199219 620.679688 423.378906 C 619.089844 424.964844 617.65625 425.671875 616.425781 425.476562 C 612.429688 424.851562 609.152344 414.261719 604.226562 396.898438 C 602.160156 389.617188 600.207031 382.738281 598.425781 378.484375 C 598.238281 378.035156 597.300781 376.277344 595.53125 374.175781 C 593.707031 372.011719 590.128906 370.015625 587.101562 370.582031 C 582.523438 371.4375 579.644531 378.027344 580.136719 383.351562 C 580.609375 388.515625 584.234375 393.445312 588.054688 394.113281 C 589.351562 394.339844 590.386719 394.042969 591.386719 393.753906 C 592.546875 393.425781 593.742188 393.078125 594.90625 393.871094 C 598.058594 396.019531 595.914062 403.695312 594.839844 406.894531 C 592.707031 413.277344 588.558594 419.324219 582.84375 424.378906 C 577.144531 429.421875 570.261719 433.140625 562.949219 435.128906 L 562.375 435.28125 C 558.925781 436.222656 555.609375 437.128906 551.949219 437.128906 " fill-opacity="1" fill-rule="nonzero"/><path fill="#ffffff" d="M 595.976562 377.441406 C 601.113281 371.8125 598.683594 362.40625 596.414062 353.621094 C 594.066406 344.523438 591.695312 335.351562 583.402344 326.710938 C 580.636719 323.835938 570.84375 313.660156 557.148438 313.476562 C 549.632812 313.378906 542.460938 316.332031 542.59375 317.890625 C 542.710938 319.34375 549.128906 318.527344 557.589844 321.640625 C 559.367188 322.289062 567.910156 325.570312 575.238281 333.769531 C 577.242188 336.011719 583.9375 343.972656 586.046875 356.046875 C 588.414062 369.589844 583.304688 378.550781 587.152344 380.753906 C 589.527344 382.113281 593.6875 379.945312 595.976562 377.441406 " fill-opacity="1" fill-rule="nonzero"/><path fill="#000000" d="M 595.976562 377.441406 Z M 543.433594 317.753906 C 543.925781 317.964844 545.261719 318.144531 546.457031 318.304688 C 549.148438 318.667969 553.214844 319.21875 557.855469 320.925781 C 560.953125 322.0625 568.910156 325.546875 575.804688 333.261719 C 579.070312 336.917969 584.839844 344.714844 586.796875 355.917969 C 587.992188 362.742188 587.3125 368.464844 586.8125 372.640625 C 586.300781 376.972656 586.097656 379.269531 587.527344 380.089844 C 589.460938 381.195312 593.234375 379.3125 595.410156 376.929688 C 600.273438 371.605469 597.9375 362.558594 595.675781 353.8125 C 593.382812 344.921875 591.011719 335.734375 582.851562 327.238281 C 574.679688 318.730469 566.03125 314.355469 557.140625 314.238281 C 552.902344 314.179688 549.367188 315.101562 547.644531 315.65625 C 545.035156 316.488281 543.773438 317.351562 543.433594 317.753906 M 588.867188 381.925781 C 588.101562 381.925781 587.390625 381.765625 586.773438 381.410156 C 584.398438 380.054688 584.777344 376.867188 585.300781 372.460938 C 585.785156 368.378906 586.453125 362.785156 585.296875 356.175781 C 583.40625 345.351562 577.828125 337.808594 574.671875 334.277344 C 568.003906 326.816406 560.320312 323.453125 557.328125 322.355469 C 552.847656 320.703125 548.878906 320.171875 546.253906 319.816406 C 543.46875 319.4375 541.9375 319.234375 541.832031 317.949219 C 541.796875 317.519531 541.976562 317.085938 542.371094 316.664062 C 544.175781 314.734375 550.882812 312.636719 557.160156 312.714844 C 563.128906 312.792969 569.058594 314.71875 574.789062 318.445312 C 579.382812 321.425781 582.585938 324.761719 583.949219 326.183594 C 592.382812 334.96875 594.808594 344.355469 597.152344 353.429688 C 599.402344 362.144531 601.953125 372.023438 596.535156 377.957031 C 594.527344 380.15625 591.417969 381.925781 588.867188 381.925781 " fill-opacity="1" fill-rule="nonzero"/><path fill="#ffffff" d="M 608.328125 383.839844 C 608.328125 395.777344 601.214844 405.457031 592.445312 405.457031 C 583.671875 405.457031 576.5625 395.777344 576.5625 383.839844 C 576.5625 371.902344 583.671875 362.222656 592.445312 362.222656 C 601.214844 362.222656 608.328125 371.902344 608.328125 383.839844 " fill-opacity="1" fill-rule="nonzero"/><path fill="#000000" d="M 592.445312 362.984375 C 584.105469 362.984375 577.324219 372.339844 577.324219 383.839844 C 577.324219 395.335938 584.105469 404.691406 592.445312 404.691406 C 600.78125 404.691406 607.566406 395.335938 607.566406 383.839844 C 607.566406 372.339844 600.78125 362.984375 592.445312 362.984375 M 592.445312 406.21875 C 583.265625 406.21875 575.800781 396.175781 575.800781 383.839844 C 575.800781 371.5 583.265625 361.460938 592.445312 361.460938 C 601.621094 361.460938 609.085938 371.5 609.085938 383.839844 C 609.085938 396.175781 601.621094 406.21875 592.445312 406.21875 " fill-opacity="1" fill-rule="nonzero"/><path fill="#ffffff" d="M 605.820312 383.839844 C 605.820312 393.21875 601.707031 400.824219 596.636719 400.824219 C 591.5625 400.824219 587.449219 393.21875 587.449219 383.839844 C 587.449219 374.457031 591.5625 366.855469 596.636719 366.855469 C 601.707031 366.855469 605.820312 374.457031 605.820312 383.839844 " fill-opacity="1" fill-rule="nonzero"/><path fill="#000000" d="M 596.632812 367.617188 C 594.476562 367.617188 592.40625 369.242188 590.8125 372.191406 C 589.132812 375.289062 588.210938 379.425781 588.210938 383.839844 C 588.210938 388.25 589.132812 392.386719 590.8125 395.484375 C 592.40625 398.433594 594.476562 400.0625 596.632812 400.0625 C 598.796875 400.0625 600.867188 398.433594 602.460938 395.484375 C 604.136719 392.386719 605.058594 388.25 605.058594 383.839844 C 605.058594 379.425781 604.136719 375.289062 602.460938 372.191406 C 600.867188 369.242188 598.796875 367.617188 596.632812 367.617188 M 596.632812 401.582031 C 593.886719 401.582031 591.34375 399.675781 589.472656 396.210938 C 587.675781 392.894531 586.6875 388.5 586.6875 383.839844 C 586.6875 379.175781 587.675781 374.785156 589.472656 371.46875 C 591.34375 368 593.886719 366.09375 596.632812 366.09375 C 599.382812 366.09375 601.925781 368 603.800781 371.46875 C 605.59375 374.785156 606.585938 379.175781 606.585938 383.839844 C 606.585938 388.5 605.59375 392.894531 603.800781 396.210938 C 601.925781 399.675781 599.382812 401.582031 596.632812 401.582031 " fill-opacity="1" fill-rule="nonzero"/><path fill="#ffffff" d="M 928.261719 410.910156 L 925.582031 407.9375 L 936.203125 395.84375 L 940.148438 400.238281 L 928.261719 410.910156 " fill-opacity="1" fill-rule="nonzero"/><path fill="#000000" d="M 926.855469 407.925781 L 928.332031 409.566406 L 938.804688 400.164062 L 936.210938 397.277344 Z M 928.261719 411.863281 C 928.242188 411.863281 928.226562 411.863281 928.207031 411.859375 C 927.953125 411.847656 927.722656 411.734375 927.550781 411.542969 L 924.878906 408.570312 C 924.558594 408.210938 924.550781 407.671875 924.875 407.308594 L 935.484375 395.21875 C 935.664062 395.011719 935.925781 394.894531 936.195312 394.894531 C 936.46875 394.894531 936.730469 395.007812 936.90625 395.207031 L 940.851562 399.601562 C 941.015625 399.789062 941.105469 400.035156 941.09375 400.289062 C 941.082031 400.539062 940.964844 400.777344 940.78125 400.945312 L 928.894531 411.617188 C 928.714844 411.773438 928.492188 411.863281 928.253906 411.863281 " fill-opacity="1" fill-rule="nonzero"/><path fill="#002345" d="M 483.59375 381.308594 C 484.5 375.484375 490.378906 371.078125 495.09375 369.355469 C 504.226562 366.019531 513.21875 371.207031 517.78125 376.027344 C 520.8125 379.226562 525.984375 386.589844 523.539062 391.621094 C 520.980469 396.898438 512.085938 395.378906 510.257812 400.875 C 509.320312 403.699219 511.375 404.980469 511.554688 409.382812 C 511.835938 416.503906 506.792969 422.089844 505.171875 423.882812 C 496.859375 433.082031 482.230469 435.183594 480.433594 432.046875 C 478.625 428.898438 490.941406 422.578125 489.410156 414.222656 C 488.097656 407.050781 477.667969 404.34375 478.683594 399.40625 C 479.226562 396.746094 482.347656 397.074219 484.035156 393.351562 C 486 389.003906 482.839844 386.160156 483.59375 381.308594 " fill-opacity="1" fill-rule="nonzero"/><path fill="#000000" d="M 483.59375 381.308594 L 483.597656 381.308594 Z M 501.046875 369.253906 C 499.214844 369.253906 497.324219 369.554688 495.417969 370.25 C 490.75 371.957031 485.355469 376.191406 484.535156 381.457031 C 484.230469 383.425781 484.644531 385.078125 485.039062 386.675781 C 485.574219 388.8125 486.128906 391.027344 484.902344 393.742188 C 483.921875 395.90625 482.503906 396.863281 481.363281 397.628906 C 480.335938 398.328125 479.792969 398.730469 479.613281 399.597656 C 479.230469 401.476562 481.289062 403.183594 483.679688 405.15625 C 486.460938 407.464844 489.617188 410.078125 490.347656 414.050781 C 491.324219 419.390625 487.214844 423.890625 484.210938 427.179688 C 482.714844 428.820312 480.847656 430.859375 481.257812 431.570312 C 481.433594 431.875 482.097656 432.25 483.445312 432.398438 C 488.320312 432.917969 498.339844 430.027344 504.464844 423.246094 C 506.050781 421.488281 510.871094 416.152344 510.601562 409.417969 C 510.527344 407.550781 510.085938 406.289062 509.699219 405.175781 C 509.207031 403.757812 508.742188 402.417969 509.355469 400.574219 C 510.4375 397.3125 513.535156 396.234375 516.523438 395.191406 C 519.140625 394.28125 521.609375 393.421875 522.6875 391.207031 C 524.871094 386.699219 519.980469 379.734375 517.089844 376.679688 C 514.121094 373.546875 508 369.253906 501.046875 369.253906 M 484.59375 434.355469 C 484.109375 434.355469 483.65625 434.332031 483.246094 434.289062 C 481.390625 434.09375 480.167969 433.496094 479.605469 432.519531 C 478.503906 430.605469 480.402344 428.527344 482.804688 425.898438 C 485.6875 422.738281 489.28125 418.804688 488.472656 414.398438 C 487.871094 411.101562 484.996094 408.726562 482.464844 406.625 C 479.722656 404.355469 477.132812 402.210938 477.75 399.214844 C 478.089844 397.546875 479.214844 396.789062 480.300781 396.054688 C 481.335938 395.355469 482.40625 394.632812 483.167969 392.957031 C 484.121094 390.847656 483.691406 389.128906 483.195312 387.132812 C 482.769531 385.4375 482.289062 383.511719 482.65625 381.160156 C 483.597656 375.101562 489.414062 370.417969 494.765625 368.460938 C 499.058594 366.890625 503.804688 366.988281 508.480469 368.742188 C 512.132812 370.109375 515.777344 372.523438 518.472656 375.371094 C 521.914062 379.003906 527.035156 386.605469 524.398438 392.035156 C 522.976562 394.964844 519.882812 396.039062 517.152344 396.988281 C 514.359375 397.964844 511.953125 398.800781 511.164062 401.175781 C 510.753906 402.40625 511.050781 403.257812 511.5 404.550781 C 511.90625 405.730469 512.417969 407.195312 512.503906 409.34375 C 512.804688 416.855469 507.589844 422.625 505.878906 424.519531 C 499.585938 431.484375 490.039062 434.355469 484.59375 434.355469 " fill-opacity="1" fill-rule="nonzero"/><path fill="#ec5a31" d="M 501.28125 216.09375 L 512.125 211.722656 L 516.027344 221.40625 L 505.191406 225.777344 L 501.28125 216.09375 " fill-opacity="1" fill-rule="evenodd"/><path fill="#ec5a31" d="M 434.109375 491.152344 L 433.847656 504.386719 L 447.34375 490.898438 L 434.109375 491.152344 " fill-opacity="1" fill-rule="nonzero"/><path fill="#ec5a31" d="M 988.640625 234.238281 C 988.640625 237.761719 985.785156 240.613281 982.261719 240.613281 C 978.738281 240.613281 975.882812 237.761719 975.882812 234.238281 C 975.882812 230.714844 978.738281 227.855469 982.261719 227.855469 C 985.785156 227.855469 988.640625 230.714844 988.640625 234.238281 " fill-opacity="1" fill-rule="nonzero"/></svg>