<svg width="1067" height="441" viewBox="0 0 1067 441" fill="none" xmlns="http://www.w3.org/2000/svg">
<mask id="mask0_2128_33642" style="mask-type:alpha" maskUnits="userSpaceOnUse" x="-1" y="-1" width="1069" height="443">
<rect width="1067" height="441" fill="#00223D" stroke="#F6F6F6"/>
</mask>
<g mask="url(#mask0_2128_33642)">
<path d="M403.142 403.163C402.362 401.043 402.522 398.833 402.622 396.633C402.032 387.353 401.452 378.063 400.872 368.783C400.782 368.533 400.722 368.273 400.672 368.013C399.982 365.193 400.252 362.313 400.322 359.433C400.302 358.143 400.292 356.853 400.272 355.563C400.252 354.783 400.242 354.013 400.222 353.243C399.852 347.333 399.572 341.423 399.082 335.523C398.002 322.313 396.822 309.103 395.682 295.903C394.902 293.633 394.862 291.293 394.972 288.933C394.302 286.653 394.082 284.333 394.242 281.963C393.582 279.423 393.292 276.833 393.462 274.213C391.732 261.593 389.122 249.033 389.142 236.263C389.212 194.353 386.432 152.523 385.922 110.633C385.862 106.113 385.072 101.643 383.352 97.453C380.962 91.623 377.592 90.923 372.992 95.173C371.522 98.633 370.302 102.163 369.932 105.953C370.212 107.383 369.712 108.603 368.652 110.363V104.453C368.392 100.593 368.132 96.723 367.872 92.863C367.052 86.453 366.072 80.073 362.602 74.483C359.972 70.253 357.152 69.173 352.752 70.503C350.602 71.923 349.332 74.033 348.552 77.463C347.032 72.723 346.852 68.703 345.322 65.063C343.842 61.563 341.712 59.263 337.672 59.733C336.662 60.253 335.642 60.773 334.632 61.293C333.592 62.523 332.542 63.753 331.502 64.983C330.892 66.373 330.292 67.753 329.522 69.503C325.702 64.793 324.412 57.233 316.432 58.063C313.402 59.463 311.932 62.123 311.292 65.243C310.782 67.753 310.462 70.343 310.392 72.913C309.962 87.103 310.362 101.293 310.772 115.483C310.842 117.843 310.782 120.213 310.782 122.813C302.282 115.213 296.142 117.033 292.732 127.843C292.542 128.453 292.372 129.073 292.212 129.693C290.072 138.503 289.522 147.513 289.232 156.543C288.442 181.333 289.832 206.073 290.932 230.823C291.782 250.023 293.262 269.183 295.862 288.223C298.392 306.733 301.022 325.223 303.612 343.723C307.282 370.023 309.492 396.493 312.832 422.823C313.452 427.673 313.142 432.913 316.342 437.153C316.732 435.963 317.562 434.953 317.262 433.503C313.812 417.313 312.762 400.793 311.032 384.383C308.082 356.393 303.912 328.583 299.982 300.733C297.082 280.163 295.252 259.493 293.932 238.743C292.142 210.523 291.482 182.293 291.862 154.033C291.972 145.903 292.642 137.773 294.772 129.883C296.432 123.753 298.822 121.233 302.582 121.303C306.522 121.383 309.312 124.723 310.522 130.753C311.842 137.363 311.872 144.113 312.182 150.783C312.702 162.123 313.952 173.423 313.852 184.783C313.832 187.133 314.722 189.023 316.342 190.623C328.292 202.443 333.202 217.203 333.492 233.903C333.512 234.993 333.192 236.233 334.552 237.483C335.292 232.113 334.182 227.193 333.622 222.283C332.252 210.143 326.712 200.003 318.652 191.243C316.142 188.513 315.322 185.483 315.152 181.803C314.592 170.343 314.202 158.873 313.102 147.443C312.552 141.723 313.962 136.113 313.692 130.443C312.792 111.613 312.972 92.773 312.982 73.933C312.982 71.883 312.732 69.783 313.662 67.843C313.982 67.803 314.242 67.743 314.482 67.663C314.562 67.493 314.662 67.323 314.782 67.163C314.782 65.923 315.052 64.753 315.622 63.663C315.552 63.103 315.562 62.583 315.812 62.143C318.562 59.873 320.902 61.043 322.602 63.423C326.272 68.563 329.302 73.993 328.972 80.783C328.272 95.293 330.752 109.553 332.252 123.893C332.782 129.013 333.542 134.113 333.502 139.293C333.502 140.403 333.452 141.543 334.102 142.633C335.052 141.813 334.852 140.863 334.862 140.033C335.072 122.113 334.692 104.233 332.622 86.413C332.322 83.843 331.802 81.323 331.172 78.823C330.482 76.093 330.572 73.463 332.152 71.043C332.512 70.913 332.832 70.753 333.132 70.573C333.612 68.483 334.462 66.623 336.192 65.333C336.302 64.923 336.412 64.503 336.522 64.093C339.732 61.913 341.592 62.453 343.042 66.293C344.932 71.263 345.652 76.533 346.232 81.793C347.402 92.443 348.032 103.113 347.922 113.853C347.852 120.553 348.892 127.233 348.722 133.953C348.692 135.073 348.802 136.263 349.942 137.433C351.012 135.813 350.692 134.133 350.702 132.583C350.732 116.053 350.702 99.533 350.722 83.003C350.722 80.683 350.692 78.343 351.622 76.143C353.182 72.463 356.262 71.743 359.172 74.393C361.012 76.073 362.012 78.293 362.902 80.593C365.062 86.213 365.362 92.183 365.902 98.073C366.772 107.703 366.582 117.403 367.532 127.033C367.872 130.523 368.022 134.063 369.202 137.473C370.582 135.813 370.372 133.893 370.332 132.063C370.162 122.603 371.092 113.243 372.782 103.963C373.172 101.803 373.662 99.643 374.822 97.753C376.622 94.823 378.912 94.823 380.602 97.853C381.922 100.213 382.752 102.843 383.082 105.533C383.602 109.883 384.162 114.223 384.152 118.643C384.122 134.513 383.832 150.393 384.902 166.243C386.432 188.783 386.302 211.363 386.472 233.943C386.572 246.473 388.982 258.823 390.452 271.253C391.402 279.323 392.442 287.383 392.842 295.503C392.712 297.033 391.882 298.563 392.932 300.073C393.542 301.293 393.722 302.573 393.472 303.913C393.422 305.403 391.962 306.933 393.602 308.383C394.362 309.283 394.302 310.333 394.152 311.393C393.952 312.473 393.742 313.563 393.552 314.643C393.572 315.023 393.602 315.403 393.622 315.783C393.642 315.833 393.662 315.873 393.682 315.913C393.732 315.893 393.772 315.873 393.822 315.853C395.382 316.643 395.122 318.073 395.032 319.443C394.822 320.503 394.552 321.563 394.282 322.673C394.302 322.993 394.322 323.313 394.332 323.633C394.332 323.643 394.342 323.653 394.352 323.673C394.442 323.643 394.542 323.623 394.662 323.613C396.182 324.583 395.902 326.073 395.782 327.533C395.162 329.493 395.262 331.503 395.292 333.503C395.812 335.043 395.752 336.633 395.642 338.233C395.682 338.363 395.712 338.493 395.752 338.623C395.972 340.093 396.222 341.563 396.642 342.993C397.472 347.703 397.762 352.453 397.702 357.243C397.572 367.703 398.922 378.073 399.692 388.473C399.952 391.953 399.652 395.453 400.032 398.903C401.292 410.323 403.922 421.453 407.122 432.443C407.622 432.123 408.122 431.803 408.612 431.483C408.622 430.453 408.642 429.413 408.652 428.373C406.732 419.973 404.042 411.753 403.152 403.123" fill="#9A9A9A"/>
<path d="M399.662 388.503C398.892 378.103 397.532 367.733 397.672 357.273C397.732 352.483 397.442 347.733 396.612 343.023C396.192 341.593 395.942 340.123 395.722 338.653C395.682 338.523 395.652 338.393 395.612 338.263C395.612 338.363 395.602 338.463 395.592 338.553C395.612 339.823 395.632 341.093 395.652 342.363C396.672 356.203 397.252 370.083 397.852 383.933C398.512 399.063 401.202 413.753 404.292 428.433C404.632 430.063 404.712 432.203 407.102 432.473C403.902 421.483 401.272 410.353 400.012 398.933C399.632 395.483 399.922 391.983 399.672 388.503" fill="#9A9A9A"/>
<path d="M319.002 434.243C316.102 426.393 315.892 418.093 315.002 409.953C311.922 382.003 309.312 353.973 304.822 326.213C297.712 282.323 294.212 238.113 293.102 193.683C292.682 177.033 292.182 160.373 293.732 143.743C294.272 137.963 294.862 132.163 297.052 126.733C298.092 124.143 299.672 121.953 302.852 122.013C305.922 122.073 307.102 124.413 308.192 126.773C309.112 128.763 309.652 130.883 309.782 133.103C310.772 150.113 311.912 167.113 312.652 184.133C312.802 187.703 313.882 190.143 316.262 192.543C323.822 200.133 328.972 209.133 330.792 219.963C331.732 225.573 332.292 231.213 332.292 236.903C332.292 238.373 332.372 240.003 334.292 239.953C335.972 239.913 336.012 238.463 336.012 237.083C336.012 218.873 331.872 202.273 318.362 189.333C317.062 188.093 316.562 186.673 316.472 184.893C315.962 174.323 315.792 163.703 314.722 153.193C313.562 141.733 315.312 130.343 314.692 118.903C313.832 102.923 313.592 86.8928 314.172 70.8828C314.212 69.8028 313.982 68.6628 314.472 67.6528C314.232 67.7228 313.972 67.7928 313.652 67.8328C312.732 69.7728 312.972 71.8728 312.972 73.9228C312.972 92.7628 312.782 111.603 313.682 130.433C313.952 136.103 312.542 141.703 313.092 147.433C314.192 158.853 314.582 170.333 315.142 181.793C315.322 185.473 316.142 188.503 318.652 191.233C326.712 199.993 332.252 210.133 333.622 222.273C334.172 227.183 335.292 232.103 334.552 237.473C333.192 236.223 333.512 234.983 333.492 233.893C333.212 217.193 328.302 202.443 316.342 190.613C314.722 189.013 313.832 187.123 313.852 184.773C313.952 173.413 312.702 162.103 312.182 150.773C311.872 144.093 311.842 137.343 310.522 130.733C309.312 124.693 306.532 121.353 302.582 121.283C298.822 121.213 296.432 123.733 294.772 129.863C292.642 137.753 291.972 145.883 291.862 154.013C291.482 182.273 292.132 210.503 293.932 238.723C295.252 259.473 297.072 280.143 299.982 300.713C303.912 328.563 308.082 356.383 311.032 384.373C312.762 400.783 313.822 417.303 317.262 433.493C317.572 434.943 316.732 435.953 316.342 437.143C318.452 437.343 319.762 436.293 319.002 434.233" fill="#9A9A9A"/>
<path d="M394.102 319.963C394.152 320.883 394.202 321.793 394.252 322.713C394.522 321.603 394.792 320.543 395.002 319.473C395.082 318.103 395.352 316.673 393.792 315.883C393.732 315.903 393.702 315.923 393.652 315.943C394.232 317.233 394.272 318.583 394.112 319.963" fill="#9A9A9A"/>
<path d="M336.782 64.9032C339.722 62.8132 340.752 63.0631 342.012 66.8231C344.642 74.7031 345.402 82.9632 345.832 91.1931C346.602 105.753 346.912 120.333 347.562 134.893C347.652 136.843 347.082 140.093 350.092 139.983C352.962 139.883 352.032 136.763 352.022 134.953C351.972 119.343 351.752 103.723 351.642 88.1132C351.622 84.2532 351.422 80.3331 352.572 76.5831C353.682 72.9732 356.342 72.4231 358.672 75.3231C361.212 78.4831 362.472 82.3032 363.182 86.2432C364.962 96.0331 365.032 105.983 365.562 115.893C365.952 122.973 366.552 130.043 367.112 137.113C367.222 138.533 367.472 140.153 369.332 140.143C371.282 140.143 371.212 138.403 371.372 137.033C371.492 136.013 371.462 134.973 371.462 133.943C371.462 127.873 371.562 121.813 372.272 115.783C372.942 110.033 373.332 104.213 375.462 98.7532C375.872 97.6931 376.332 96.4132 377.632 96.3132C379.042 96.2132 379.382 97.6132 379.792 98.6231C381.022 101.603 381.792 104.693 382.152 107.933C383.122 116.823 382.492 125.723 382.672 134.623C383.332 167.263 385.692 199.843 385.342 232.513C385.282 238.043 385.662 243.623 386.362 249.103C388.352 264.953 390.442 280.793 391.772 296.723C391.852 297.993 391.922 299.263 392.002 300.543C392.782 301.763 392.682 303.113 392.562 304.473C392.632 305.713 392.702 306.953 392.772 308.193C393.452 309.193 393.432 310.303 393.312 311.443C393.382 312.523 393.442 313.603 393.512 314.683C393.712 313.603 393.912 312.513 394.112 311.433C394.262 310.363 394.332 309.323 393.562 308.423C391.932 306.973 393.392 305.443 393.432 303.953C393.682 302.613 393.502 301.333 392.892 300.113C391.842 298.603 392.672 297.063 392.802 295.533C392.402 287.413 391.362 279.353 390.412 271.283C388.942 258.863 386.522 246.513 386.432 233.973C386.252 211.393 386.382 188.813 384.862 166.273C383.792 150.423 384.072 134.543 384.112 118.673C384.122 114.263 383.572 109.913 383.042 105.563C382.722 102.873 381.882 100.243 380.562 97.8832C378.872 94.8532 376.582 94.8531 374.782 97.7831C373.622 99.6731 373.142 101.833 372.742 103.993C371.042 113.273 370.122 122.633 370.292 132.093C370.332 133.923 370.542 135.843 369.162 137.503C367.982 134.093 367.832 130.553 367.492 127.063C366.542 117.433 366.732 107.733 365.862 98.1031C365.332 92.2031 365.032 86.2332 362.862 80.6232C361.972 78.3232 360.972 76.1032 359.132 74.4232C356.222 71.7731 353.142 72.4931 351.582 76.1732C350.652 78.3631 350.682 80.7032 350.682 83.0332C350.672 99.5532 350.682 116.083 350.662 132.603C350.662 134.153 350.972 135.823 349.902 137.453C348.762 136.283 348.652 135.093 348.672 133.973C348.852 127.253 347.812 120.573 347.882 113.873C347.982 103.143 347.362 92.4632 346.182 81.8132C345.602 76.5532 344.882 71.2832 342.992 66.3132C341.542 62.4732 339.672 61.9232 336.472 64.1132C336.362 64.5232 336.252 64.9432 336.142 65.3532C336.342 65.2032 336.542 65.0532 336.762 64.9232" fill="#9A9A9A"/>
<path d="M394.822 327.743C394.892 329.483 394.972 331.223 395.052 332.963C395.132 333.153 395.202 333.343 395.262 333.533C395.232 331.533 395.132 329.523 395.752 327.563C395.872 326.113 396.152 324.613 394.632 323.643C394.502 323.643 394.402 323.673 394.322 323.703C394.992 324.983 395.032 326.343 394.822 327.743Z" fill="#9A9A9A"/>
<path d="M315.702 63.463C317.112 61.023 319.292 61.163 320.632 62.913C324.332 67.773 327.922 72.803 327.732 79.493C327.552 85.693 327.682 91.873 328.182 98.063C329.352 112.723 332.132 127.223 332.372 141.973C332.392 143.413 332.372 145.203 334.152 145.293C336.392 145.403 336.092 143.353 336.082 141.873C336.012 132.963 336.122 124.043 335.742 115.143C335.192 102.403 335.242 89.573 331.972 77.093C331.452 75.103 332.062 73.053 332.972 71.183C333.012 70.973 333.062 70.773 333.112 70.573C332.822 70.753 332.492 70.913 332.132 71.043C330.542 73.473 330.452 76.103 331.152 78.833C331.782 81.333 332.302 83.853 332.602 86.413C334.662 104.223 335.052 122.113 334.842 140.033C334.842 140.863 335.032 141.813 334.082 142.633C333.432 141.553 333.472 140.403 333.482 139.293C333.522 134.123 332.772 129.013 332.232 123.893C330.732 109.553 328.252 95.293 328.952 80.783C329.282 74.003 326.252 68.573 322.582 63.423C320.882 61.043 318.542 59.873 315.792 62.143C315.552 62.573 315.542 63.103 315.602 63.653C315.642 63.583 315.662 63.513 315.702 63.443V63.463Z" fill="#9A9A9A"/>
<path d="M147.808 412.617C147.307 357.327 148.497 301.901 145.877 246.652C145.553 239.836 145.668 232.393 144.008 225.723C143.058 221.924 140.898 218.333 139.071 214.92C135.595 208.396 131.879 201.987 128.142 195.61C124.656 189.67 120.669 183.867 117.527 177.74C113.999 170.871 112.6 162.751 112.193 155.11C111.828 148.304 111.765 139.933 114.928 133.681C117.694 128.221 121.514 133.649 122.694 137.104C124.499 142.407 124.906 148.169 125.334 153.711C125.574 156.832 125.157 161.289 126.524 164.191C127.464 166.185 129.833 167.396 131.587 168.596C134.844 170.819 138.257 172.813 141.587 174.932C149.29 179.838 156.92 185.453 159.352 194.712C160.02 197.248 163.945 196.173 163.277 193.626C159.331 178.575 144.186 172.583 132.62 164.369C130.418 162.803 130.272 163.325 130 160.914C129.76 158.795 129.645 156.665 129.489 154.546C129.103 149.432 128.685 144.265 127.526 139.255C126.66 135.518 125.334 131.04 122.057 128.681C119.426 126.791 115.136 126.677 112.798 129.077C108.947 133.033 108.466 141.603 108.143 146.718C107.652 154.578 108.425 162.678 110.46 170.287C112.297 177.145 115.784 182.813 119.406 188.835C123.456 195.589 127.443 202.374 131.305 209.231C135.877 217.342 140.146 224.429 140.992 233.74C143.267 258.927 142.964 284.469 143.194 309.74C143.518 344.029 143.434 378.328 143.747 412.617C143.768 415.237 147.839 415.237 147.818 412.617H147.808Z" fill="#9A9A9A"/>
<path d="M141.367 169.462C142.181 157.208 141.826 143.67 144.968 131.771C146.722 125.122 150.668 118.201 157.452 115.665C161.179 114.276 165.918 114.381 168.162 118.212C169.947 121.27 169.717 125.842 169.707 129.265C169.707 136.332 168.684 143.367 166.69 150.142C165.469 154.275 163.955 159.129 158.987 160.037C156.826 160.434 153.903 159.546 152.953 157.636C149.906 151.53 151.064 141.468 152.139 134.954C152.567 132.386 148.643 131.29 148.215 133.869C146.941 141.593 145.95 151.885 149.217 159.233C150.855 162.918 153.308 163.45 157.15 163.868C163.078 164.525 166.419 161.759 168.798 156.373C171.732 149.735 173.015 142.104 173.558 134.912C174.017 128.827 174.79 120.174 170.876 114.913C163.652 105.206 149.895 113.661 145.031 121.218C140.814 127.773 139.781 135.748 139.196 143.357C138.528 152.052 137.87 160.757 137.286 169.452C137.108 172.072 141.179 172.062 141.357 169.452L141.367 169.462Z" fill="#9A9A9A"/>
<path d="M169.56 114.13C170.688 107.512 177.587 104.84 183.474 107.23C188.746 109.381 191.898 114.485 193.589 119.683C196.856 129.735 197.159 142.762 195.645 153.189C194.873 158.492 193.13 163.763 189.299 167.667C185.906 171.143 177.619 175.224 174.174 169.734C171.397 165.308 169.675 155.882 170.928 150.862C171.564 148.315 167.64 147.24 167.003 149.776C165.855 154.379 167.118 159.88 168.193 164.379C169.091 168.157 170.041 172.813 173.683 174.9C186.71 182.353 197.733 165.485 199.497 154.891C200.937 146.248 200.436 137.021 199.424 128.357C198.651 121.75 197.19 114.934 192.952 109.6C189.153 104.83 183.234 101.364 176.982 102.293C171.293 103.139 166.606 107.314 165.636 113.024C165.197 115.581 169.122 116.687 169.56 114.109V114.13Z" fill="#9A9A9A"/>
<path d="M194.487 114.068C197.472 109.089 209.57 94.4337 213.828 105.112C216.563 111.959 216.897 120.017 217.252 127.282C217.68 136.009 217.534 144.797 216.72 153.492C216.365 157.292 216.229 161.686 214.956 165.319C211.438 175.266 200.937 164.912 198.39 159.954C197.19 157.626 193.683 159.682 194.873 162.01C199.789 171.602 216.125 180.141 219.246 164.713C221.709 152.532 221.928 139.651 221.323 127.282C220.926 119.224 221.051 106.636 215.624 99.9346C207.816 90.2794 194.612 105.937 190.958 112.022C189.612 114.277 193.13 116.322 194.476 114.078L194.487 114.068Z" fill="#9A9A9A"/>
<path d="M221.375 139.255C222.627 124.464 223.995 108.128 230.393 94.5171C231.594 91.9598 233.034 89.2772 235.164 87.3566C236.531 86.1144 240.477 84.1521 241.593 85.1333C243.754 87.033 242.627 94.2039 242.502 96.6256C241.656 112.481 238.535 128.284 235.706 143.879C233.942 153.607 231.427 163.398 230.717 173.283C229.245 193.689 229.318 214.273 228.974 234.721C228.473 265.18 228.139 295.627 227.784 326.086C227.46 353.496 227.283 380.917 226.521 408.327C226.448 410.947 230.519 410.947 230.592 408.327C232.199 350.479 232.084 292.58 233.045 234.721C233.389 213.709 232.992 192.384 234.934 171.435C236.093 158.92 239.568 145.747 241.729 133.117C244.151 118.994 247.668 103.682 246.614 89.2667C246.353 85.7491 245.81 81.8348 241.834 81.1459C235.926 80.1126 231.281 84.7471 228.515 89.3816C219.934 103.723 218.703 122.982 217.325 139.255C217.106 141.864 221.177 141.854 221.396 139.255H221.375Z" fill="#9A9A9A"/>
<path d="M871.598 73.1052C871.598 72.5952 871.598 72.0852 871.598 71.5752C871.488 72.2252 871.498 72.7152 871.598 73.1052Z" fill="#9A9A9A"/>
<path d="M897.618 207.055C898.738 199.875 900.598 192.915 905.038 187.035C907.398 183.905 910.168 181.095 914.338 181.205C917.118 181.285 917.918 180.055 918.508 177.535C921.478 164.895 924.968 152.385 927.498 139.625C927.788 138.175 927.828 135.995 929.478 135.855C931.248 135.705 932.628 137.345 933.458 139.005C934.018 140.135 934.438 141.395 934.668 142.645C935.288 146.065 935.738 149.515 936.308 152.945C940.098 175.475 940.298 198.105 938.458 220.845C936.408 246.305 934.658 271.795 932.798 297.275C931.158 319.785 929.568 342.305 926.668 364.695C926.788 366.295 926.618 367.845 926.018 369.345C925.408 375.105 924.818 380.875 924.168 386.635C923.418 393.295 922.288 399.925 922.238 406.645C922.228 408.215 921.778 410.485 924.218 410.455C926.498 410.425 925.778 408.345 925.858 406.885C926.008 404.185 926.178 401.475 926.478 398.785C928.778 378.145 931.618 357.565 933.338 336.875C936.948 293.285 940.348 249.665 943.048 205.995C944.388 184.335 941.948 162.965 938.228 141.705C937.548 137.805 935.708 134.715 932.258 132.785C929.218 131.075 926.628 131.925 925.078 135.135C923.898 137.585 923.528 140.285 922.988 142.935C921.668 149.505 920.218 156.035 918.218 162.415C917.768 162.385 917.318 162.345 916.858 162.315V92.2352C916.218 89.5852 916.248 86.8852 916.338 84.1852C915.678 77.3952 915.398 70.5252 913.158 64.0052C911.338 58.7352 908.008 56.8852 902.158 57.6852C898.398 58.2052 896.868 60.2052 896.498 65.9252C895.668 78.6752 895.008 91.4352 894.258 104.185C894.108 106.745 894.178 109.355 892.988 112.755C892.108 101.735 891.398 91.7152 890.488 81.7052C889.828 74.3952 889.288 67.0252 886.648 60.0952C885.578 57.1952 884.218 54.2652 880.568 54.0252C876.868 53.7752 873.978 55.3952 871.898 58.4952C869.648 61.8552 868.558 65.6752 867.908 69.6552C865.448 84.7152 865.098 99.9552 863.998 115.135C863.998 116.155 863.998 117.175 863.998 118.195V121.255C862.968 119.365 862.448 118.155 862.698 116.675C862.738 116.725 862.788 116.775 862.828 116.825C862.798 116.765 862.758 116.715 862.698 116.675C862.718 116.155 862.728 115.635 862.738 115.105C861.088 101.895 858.788 88.8052 855.708 75.8552C854.818 74.3752 854.358 72.7652 854.168 71.0452C853.308 69.2052 852.498 67.3352 851.558 65.5452C850.688 63.8752 849.408 62.4952 847.428 62.7252C845.548 62.9452 844.928 64.6452 844.418 66.2952C843.318 69.8752 842.638 73.5352 842.198 77.2452C840.258 93.7152 841.078 110.225 841.558 126.725C842.468 128.755 842.198 130.875 842.068 133.795C841.248 131.795 840.448 130.605 840.738 129.045C839.128 120.975 837.618 112.895 833.938 105.445C832.818 103.185 831.548 101.485 828.818 101.815C826.068 102.145 825.618 104.385 825.228 106.565C822.738 120.505 821.798 134.525 825.268 148.385C830.108 167.685 832.938 187.255 833.778 207.125C834.358 220.795 835.858 234.355 837.378 247.925C839.898 270.495 840.608 293.155 840.568 315.855C840.568 319.475 840.568 323.095 840.568 326.715C840.588 350.735 840.598 374.745 840.618 398.765C840.618 399.535 840.618 400.315 840.618 401.085C840.648 401.985 840.738 402.885 840.698 403.775C840.628 405.195 840.788 406.535 842.508 406.525C844.158 406.515 844.438 405.165 844.468 403.785C844.488 402.755 844.488 401.715 844.488 400.685C844.518 375.245 844.538 349.815 844.558 324.375C844.558 321.535 844.548 318.695 844.538 315.845C844.478 310.015 844.418 304.185 844.358 298.345C843.568 293.355 843.738 288.325 843.788 283.295C843.508 277.355 843.228 271.415 842.958 265.475C842.898 264.715 842.848 263.965 842.788 263.205C842.198 258.015 841.508 252.825 841.028 247.615C840.108 237.695 838.338 227.845 838.328 217.835C838.108 217.075 838.048 216.335 838.068 215.585C837.288 208.475 837.138 201.325 836.838 194.185C836.608 192.665 836.318 191.155 836.158 189.625C835.118 179.885 834.128 170.145 831.768 160.595C829.398 150.975 826.998 141.335 826.788 131.315C826.598 122.685 827.478 114.175 829.338 105.145C832.888 110.485 834.128 116.015 835.368 121.485C837.268 129.895 838.898 138.365 840.708 146.795C841.058 148.445 841.688 150.335 843.768 150.075C845.858 149.815 845.918 147.865 845.888 146.145C845.798 141.755 845.768 137.365 845.568 132.985C844.848 116.595 844.058 100.215 845.228 83.8152C845.618 78.3952 846.178 72.9752 847.968 67.5852C849.488 68.7252 849.648 70.2152 850.108 71.4752C854.388 83.2752 856.278 95.6452 857.998 108.015C859.378 117.975 860.238 128.005 861.418 138.005C861.588 139.435 861.558 141.475 863.698 141.405C865.858 141.335 865.528 139.395 865.688 137.895C866.188 133.145 866.698 128.405 867.208 123.665C867.118 121.515 867.088 119.375 867.788 117.305C867.598 117.085 867.608 116.885 867.838 116.695C867.858 116.185 867.888 115.665 867.908 115.155C868.268 103.755 868.918 92.3852 870.228 81.0552C870.318 77.8352 870.638 74.6452 871.568 71.5452C871.738 67.2152 872.738 63.1252 875.528 59.7752C878.298 56.4552 881.318 56.9452 883.028 60.8852C883.628 62.2852 884.158 63.7552 884.448 65.2552C886.978 78.2652 887.898 91.4352 888.338 104.665C889.368 108.615 889.108 112.645 889.128 116.665C889.878 118.785 889.608 121.005 889.688 123.175C889.988 131.425 890.198 139.685 890.458 147.945C890.508 149.365 890.428 151.095 892.388 151.035C893.978 150.995 894.108 149.525 894.228 148.165C896.078 127.485 898.138 106.815 898.978 86.0552C899.268 78.9652 899.788 71.8952 900.248 64.8152C900.338 63.4252 900.428 62.0052 902.198 61.4952C905.948 60.4152 909.048 62.0352 910.058 65.9152C911.288 70.6652 912.028 75.5252 912.308 80.4152C914.078 111.605 913.128 142.865 914.478 174.075C914.568 176.045 914.298 177.375 911.888 177.825C907.748 178.595 904.648 181.275 902.148 184.675C898.608 189.485 896.358 194.915 895.078 200.765C893.038 210.095 892.038 219.575 891.168 229.075C891.568 235.155 891.888 235.585 895.718 235.045C896.378 234.075 897.248 232.755 896.278 231.925C893.988 229.975 895.038 227.565 895.238 225.465C895.818 219.305 896.638 213.165 897.588 207.055" fill="#9A9A9A"/>
<path d="M863.518 119.325C863.548 119.385 863.518 118.875 863.448 118.265C863.428 118.265 863.398 118.265 863.378 118.255C863.398 118.765 863.428 119.155 863.508 119.325" fill="#656360"/>
<path d="M660.779 105.717C661.219 199.287 675.829 292.457 669.829 386.097C678.649 384.877 687.469 383.647 696.299 382.417C659.069 279.317 714.939 171.577 707.319 66.3168C706.049 48.7868 679.879 48.3368 680.369 66.3168C680.909 86.2068 686.309 105.407 686.809 125.277C687.189 140.407 709.739 144.617 713.279 128.957C716.499 114.687 722.289 101.407 726.569 87.4768C717.749 86.2468 708.929 85.0268 700.099 83.7968C699.959 97.2768 699.899 110.677 700.669 124.137C701.379 136.557 719.769 144.567 725.779 131.117C731.459 118.377 737.919 106.037 743.969 93.4868C735.599 91.1668 727.229 88.8368 718.859 86.5068C720.209 108.317 719.689 130.087 719.339 151.917C719.079 167.787 741.399 170.317 745.809 155.597C748.749 145.757 752.289 136.317 756.179 126.827L730.189 119.477C706.469 206.327 729.569 294.567 726.199 382.737C735.019 381.507 743.839 380.287 752.669 379.057C726.739 294.047 740.159 204.107 728.449 116.967C726.969 105.927 712.549 104.687 705.929 110.867C676.059 138.737 680.609 192.427 683.559 229.567C687.869 283.827 690.029 339.497 699.219 393.077C705.819 387.877 712.409 382.667 719.009 377.467C716.789 376.127 714.489 374.977 712.099 374.017C708.639 382.437 705.179 390.867 701.719 399.287C706.699 400.607 711.539 401.487 716.659 400.787C733.599 398.487 733.829 370.807 716.659 373.137C714.019 373.937 711.429 373.767 708.879 372.627C694.709 368.887 684.029 391.447 698.499 397.897C700.889 398.857 703.199 400.007 705.409 401.347C716.389 407.347 727.219 397.507 725.199 385.737C716.959 337.707 715.859 288.027 711.359 239.457C708.489 208.537 699.629 154.077 724.969 130.427C717.459 128.397 709.959 126.357 702.449 124.327C714.189 211.727 700.589 300.957 726.669 386.417C731.229 401.367 752.529 398.467 753.139 382.737C756.409 297.307 733.209 210.897 756.169 126.827C760.999 109.147 736.689 103.607 730.179 119.477C726.289 128.967 722.749 138.407 719.809 148.247C728.629 149.467 737.449 150.697 746.279 151.917C746.629 130.087 747.149 108.317 745.799 86.5068C745.019 73.8868 727.049 66.3368 720.689 79.5268C714.639 92.0768 708.189 104.417 702.499 117.157C710.869 119.487 719.239 121.807 727.609 124.137C726.839 110.677 726.899 97.2768 727.039 83.7968C727.209 67.8868 705.089 65.4568 700.569 80.1168C696.279 94.0468 690.499 107.327 687.279 121.597C696.099 122.817 704.919 124.047 713.749 125.277C713.249 105.387 707.849 86.1868 707.309 66.3168H680.369C688.199 174.447 631.899 283.387 670.309 389.767C675.569 404.347 695.749 402.097 696.779 386.087C702.779 292.457 688.159 199.287 687.729 105.707C687.649 87.9168 660.699 87.8868 660.779 105.707" fill="#F6921E"/>
<path d="M755.039 340.407C754.099 281.287 750.749 222.217 751.409 163.057C751.459 158.927 751.229 154.737 752.259 150.727C755.609 137.707 755.299 124.377 755.549 111.097C755.629 106.727 755.619 102.307 754.469 98.017C753.989 96.227 753.309 94.467 751.289 94.097C749.119 93.697 747.669 95.107 746.679 96.797C745.469 98.857 744.539 101.077 743.229 103.747C742.929 96.637 742.739 90.187 742.349 83.747C742.079 79.377 741.879 74.947 740.289 70.817C738.899 67.207 736.329 66.637 733.509 69.147C731.079 71.317 729.579 74.157 728.219 77.077C726.169 81.467 725.199 86.237 723.809 91.737C723.419 84.947 723.149 79.037 722.699 73.137C722.389 69.027 722.099 64.887 720.659 60.977C719.329 57.367 716.979 56.917 714.489 59.817C713.509 60.957 712.739 62.337 712.079 63.717C709.249 69.647 707.449 75.947 706.049 82.377C706.219 83.657 705.729 84.687 704.929 85.687C704.529 84.787 704.489 83.957 704.799 83.107C704.479 79.257 704.329 75.397 703.789 71.577C703.039 66.247 702.309 60.847 699.029 56.327C696.549 52.977 693.709 52.807 690.829 55.847C689.329 57.427 688.119 59.237 687.289 61.267C685.989 64.447 684.809 67.677 683.569 70.877C683.599 71.927 683.529 72.947 682.939 73.837C682.899 73.907 682.849 73.977 682.789 74.047C680.579 86.427 679.069 98.897 678.589 111.547C677.409 106.077 675.729 101.047 671.319 97.467C665.709 94.927 663.559 95.787 660.139 101.977C656.489 121.837 655.399 141.867 656.299 162.037C656.619 169.127 656.779 176.217 657.029 183.307C658.539 226.497 657.509 269.727 659.199 312.927C660.039 334.317 659.769 355.747 660.019 377.167C660.039 379.077 659.879 381.057 660.969 382.797C663.079 383.347 663.999 382.567 663.819 380.287C663.699 378.657 663.779 377.007 663.769 375.367C663.669 373.827 663.479 372.297 663.469 370.757C663.359 339.277 662.539 307.807 661.979 276.337C661.299 238.287 661.489 200.217 660.029 162.187C659.549 149.547 659.319 136.917 660.939 124.327C660.839 122.917 660.829 121.517 661.489 120.217C661.699 114.577 662.259 108.967 663.809 103.537C665.049 99.197 666.989 98.737 670.249 101.657C672.119 103.327 673.179 105.447 673.709 107.887C674.829 113.027 675.479 118.217 675.299 123.497C676.009 125.527 675.889 127.627 675.809 129.727C676.659 139.487 677.559 149.247 678.329 159.007C678.529 161.607 678.649 163.757 682.179 162.717C683.679 162.277 684.749 163.427 685.559 164.677C687.049 166.947 687.999 169.477 688.759 172.067C691.259 180.667 692.109 189.497 692.029 198.437C691.999 201.407 692.049 204.367 692.179 207.337C692.249 208.797 692.659 210.477 694.459 210.257C696.269 210.037 697.049 208.277 696.429 206.747C695.249 203.837 695.739 200.887 695.749 197.967C695.769 188.227 694.749 178.667 691.759 169.387C690.729 166.197 689.849 162.057 686.919 160.947C681.359 158.837 682.819 154.667 682.759 150.767C682.699 146.767 682.699 142.767 682.699 138.767C682.719 120.327 681.869 101.847 684.959 83.547C686.329 75.417 687.739 67.267 692.129 60.127C694.279 56.627 695.399 56.717 697.159 60.437C699.969 66.367 700.309 72.867 700.849 79.267C702.159 94.717 701.699 110.207 701.549 125.697C701.539 127.177 701.109 129.257 703.259 129.297C705.259 129.337 705.199 127.357 705.289 125.797C705.609 120.137 705.939 114.467 706.259 108.807C706.179 107.157 706.079 105.507 706.789 103.947C707.479 89.607 710.309 75.817 716.649 62.577C718.979 67.107 720.589 86.177 719.859 98.477C720.519 108.227 720.679 117.987 719.809 127.737C719.719 131.727 719.609 135.727 719.549 139.717C719.529 140.917 719.719 142.217 721.229 142.247C722.709 142.277 722.809 141.147 722.929 139.847C724.099 126.627 725.269 113.407 726.619 100.207C727.399 92.507 728.439 84.807 731.939 77.797C733.079 75.517 734.039 72.937 736.909 71.717C737.289 73.767 737.749 75.517 737.929 77.307C739.659 94.937 739.959 112.587 738.769 130.267C738.569 133.227 738.529 136.197 738.459 139.167C738.439 140.157 738.849 140.947 739.899 141.117C740.959 141.297 741.609 140.647 741.879 139.737C742.169 138.767 742.329 137.737 742.439 136.717C743.219 129.417 743.039 122.017 744.679 114.807C745.979 109.107 746.669 103.187 750.289 98.077C751.309 99.747 751.389 101.277 751.499 102.807C752.309 113.657 751.559 124.477 751.029 135.307C750.619 143.827 747.529 151.927 747.629 160.557C747.879 180.827 747.379 201.117 747.969 221.367C749.509 273.887 751.639 326.397 751.339 378.957C751.339 379.217 751.339 379.467 751.339 379.727C751.379 380.927 751.459 382.197 752.959 382.327C754.639 382.467 754.889 381.147 755.189 379.807C755.889 376.587 755.029 373.417 755.029 370.227C755.029 360.287 755.149 350.337 754.989 340.397" fill="#D9D9D9"/>
<path d="M705.119 84.267C705.349 83.707 705.769 83.087 706.039 82.397C705.619 82.637 705.209 82.887 704.789 83.137C704.989 83.537 705.099 83.937 705.119 84.277" fill="#D9D9D9"/>
<path d="M704.919 85.707C705.719 84.707 706.209 83.677 706.039 82.397C705.769 83.087 705.359 83.707 705.119 84.267C705.139 84.547 705.089 84.797 704.949 84.977C704.949 84.747 705.019 84.517 705.119 84.267C705.099 83.927 704.989 83.527 704.789 83.127C704.479 83.967 704.519 84.797 704.919 85.707Z" fill="#D9D9D9"/>
<path d="M705.119 84.2666C705.019 84.5066 704.949 84.7466 704.949 84.9766C705.089 84.8066 705.139 84.5566 705.119 84.2666Z" fill="#D9D9D9"/>
<path d="M516.137 394.629C515.657 341.659 516.797 288.559 514.287 235.629C513.977 229.099 514.087 221.969 512.497 215.579C511.587 211.939 509.517 208.499 507.767 205.229C504.437 198.979 500.877 192.839 497.297 186.729C493.957 181.039 490.137 175.479 487.127 169.609C483.747 163.029 482.407 155.249 482.017 147.929C481.667 141.409 481.607 133.389 484.637 127.399C487.287 122.169 490.947 127.369 492.077 130.679C493.807 135.759 494.197 141.279 494.607 146.589C494.837 149.579 494.437 153.849 495.747 156.629C496.647 158.539 498.917 159.699 500.597 160.849C503.717 162.979 506.987 164.889 510.177 166.919C517.557 171.619 524.867 176.999 527.197 185.869C527.837 188.299 531.597 187.269 530.957 184.829C527.177 170.409 512.667 164.669 501.587 156.799C499.477 155.299 499.337 155.799 499.077 153.489C498.847 151.459 498.737 149.419 498.587 147.389C498.217 142.489 497.817 137.539 496.707 132.739C495.877 129.159 494.607 124.869 491.467 122.609C488.947 120.799 484.837 120.689 482.597 122.989C478.907 126.779 478.447 134.989 478.137 139.899C477.667 147.429 478.407 155.189 480.357 162.479C482.117 169.049 485.457 174.479 488.927 180.249C492.807 186.719 496.627 193.219 500.327 199.789C504.707 207.559 508.797 214.349 509.607 223.269C511.787 247.399 511.497 271.869 511.717 296.079C512.027 328.929 511.947 361.789 512.247 394.639C512.267 397.149 516.167 397.149 516.147 394.639L516.137 394.629Z" fill="#9A9A9A"/>
<path d="M588.017 397.208C586.467 338.968 584.917 280.728 583.367 222.488C582.597 193.678 582.857 164.628 581.047 135.868C580.637 129.418 577.527 119.598 568.987 121.878C561.027 124.008 559.527 135.188 559.007 141.928C558.367 150.138 559.047 160.748 567.327 165.128C575.037 169.208 579.607 161.398 581.497 154.988C582.207 152.578 578.447 151.548 577.737 153.948C576.837 156.998 575.317 162.528 571.247 162.348C568.747 162.238 566.417 159.788 565.167 157.818C560.907 151.098 562.007 138.828 564.907 131.668C566.897 126.758 572.587 122.398 575.747 129.178C577.937 133.878 577.277 140.028 577.417 145.068C577.717 156.318 578.017 167.568 578.317 178.818C579.547 225.148 580.777 271.468 582.017 317.798C582.717 344.268 583.427 370.738 584.127 397.218C584.197 399.718 588.097 399.728 588.027 397.218L588.017 397.208Z" fill="#9A9A9A"/>
<path d="M567.847 122.569C566.177 118.729 564.197 114.509 560.097 112.799C556.257 111.209 551.187 111.929 548.127 114.779C544.597 118.049 543.617 123.229 542.717 127.739C541.817 132.249 541.207 136.049 541.437 140.479C541.907 149.539 543.487 159.269 546.857 167.729C547.607 169.629 548.557 172.249 550.627 173.069C553.507 174.209 557.957 172.239 559.987 170.209C565.977 164.209 563.337 153.909 562.797 146.489C562.617 143.999 558.717 143.979 558.897 146.489C559.347 152.539 561.807 161.189 557.957 166.579C557.027 167.879 553.847 170.239 552.107 169.489C551.467 169.209 550.897 167.339 550.667 166.809C549.167 163.299 548.297 159.449 547.497 155.729C545.727 147.499 544.477 139.059 546.117 130.729C546.967 126.399 547.507 119.379 551.767 116.889C558.337 113.059 562.277 119.479 564.497 124.559C565.497 126.859 568.857 124.869 567.867 122.589L567.847 122.569Z" fill="#9A9A9A"/>
<path d="M547.297 123.888C546.847 116.578 544.657 105.258 534.697 108.868C527.157 111.598 524.687 121.458 523.417 128.438C521.877 136.878 520.637 146.288 522.367 154.758C523.467 160.158 527.097 174.548 534.297 175.278C542.267 176.088 547.947 161.828 547.357 155.598C547.127 153.118 543.227 153.098 543.457 155.598C543.797 159.198 542.057 163.338 540.247 166.348C539.347 167.838 537.697 170.458 535.847 171.008C533.877 171.588 533.087 170.248 531.997 168.668C526.987 161.408 525.117 152.078 525.657 143.428C526.147 135.668 526.737 127.478 529.687 120.198C530.977 117.018 532.977 113.388 536.517 112.368C542.737 110.578 543.147 119.868 543.397 123.888C543.547 126.378 547.447 126.398 547.297 123.888Z" fill="#9A9A9A"/>
<path d="M526.327 134.979C525.657 118.939 525.607 102.869 524.787 86.8287C524.337 77.9587 523.747 69.0787 522.557 60.2687C521.857 55.0987 521.257 49.0187 518.647 44.3787C516.817 41.1287 513.747 39.9887 510.397 41.9987C506.497 44.3387 504.887 49.6087 503.837 53.7087C499.647 70.0487 500.357 87.9887 500.737 104.699C500.957 114.469 501.417 124.229 501.947 133.979C502.157 137.779 502.227 141.619 502.567 145.419C502.947 149.579 504.037 154.889 501.167 158.419C499.597 160.349 502.337 163.129 503.927 161.179C508.137 156.009 506.697 149.389 506.357 143.279C505.967 136.109 505.557 128.949 505.237 121.769C504.467 104.719 503.897 87.5287 505.257 70.4987C505.447 68.1487 508.597 40.7287 514.707 45.3887C515.957 46.3387 516.417 49.1587 516.807 50.5887C517.637 53.6287 518.157 56.7687 518.607 59.8787C519.777 68.0387 520.317 76.2887 520.777 84.5187C521.697 101.329 521.737 118.159 522.437 134.969C522.537 137.469 526.437 137.479 526.337 134.969L526.327 134.979Z" fill="#9A9A9A"/>
</g>
</svg>
