<svg width="100" height="93" viewBox="0 0 100 93" fill="none" xmlns="http://www.w3.org/2000/svg">
<path d="M20.4542 18.6396C18.1583 20.0811 16.4765 22.5238 13.9805 23.5649C14.7947 22.991 15.729 22.6306 16.7034 22.5104C14.0072 23.9787 7.82712 28.557 9.09516 31.9206C13.8336 30.0119 17.6912 25.0065 21.1483 21.4426C19.0927 23.7117 17.798 26.448 17.8247 29.5581C22.6432 26.8351 26.5141 22.1634 30.078 18.0256C29.8244 19.6273 26.0736 24.606 25.473 25.6338C24.0447 28.0631 22.8167 31.1731 20.5209 33.0285C25.1259 29.7583 28.3961 24.4459 31.6931 19.9477C31.0791 22.377 25.2727 28.3835 24.4852 29.2778C19.8535 34.5768 15.3686 40.4899 10.163 45.2684C12.005 43.3463 13.9004 41.4242 15.7958 39.5555C19.1194 36.2853 22.5631 33.1353 26.1137 30.1187C27.0747 27.7428 28.4362 26.7283 30.1848 27.0887C25.2994 34.8037 21.1216 43.1594 16.9303 51.088C18.799 45.0281 25.8734 37.9271 29.5974 33.8027C36.6184 26.0476 47.6704 12.4195 58.2953 9.00248C55.7058 13.6342 49.5792 18.3993 45.8952 21.7096C39.8486 27.062 33.5751 32.1342 27.0614 36.926C24.9791 38.4744 19.64 43.0126 16.6634 44.4275C21.9358 37.5 28.7966 32.2143 35.5239 26.7684C39.3013 23.7117 45.9219 16.9044 51.1943 15.1024C49.3789 16.7175 48.1776 20.3481 46.963 22.2168C44.24 25.9809 41.1834 29.4513 37.793 32.6281C36.218 34.1364 32.6007 36.619 31.2526 38.6612C40.8764 30.6259 51.7415 23.0043 62.8603 17.1713C61.6857 18.0523 60.7246 19.1468 59.9638 20.4282C55.5723 26.0476 51.3678 30.0119 45.2411 33.8694C39.6884 37.3665 33.6552 41.6245 27.662 44.4141C28.9167 42.3052 43.4392 32.6948 41.5571 33.9628C55.7859 24.299 71.1626 17.0512 86.0855 8.64209C75.1536 12.9 65.4498 22.4971 55.1319 28.1032C45.7083 33.2154 35.3103 37.7536 24.632 39.4488C28.2093 36.1519 35.337 33.816 39.7018 32.3744C44.3869 30.8261 51.0474 28.9307 56.1597 29.1843C50.2599 34.6302 42.9186 38.3943 36.0578 42.4253C30.0913 45.7756 24.2183 49.2994 18.452 52.9968C16.7168 54.3582 14.7947 55.1725 12.6724 55.4661C23.5509 49.82 37.3792 46.8701 49.3256 44.3474C47.4569 46.4964 42.5582 48.245 40.6628 49.0458C32.9478 52.2893 24.9124 53.7175 17.0505 56.3471C38.5005 48.9657 62.313 47.1104 84.8041 45.6822C86.179 50.3539 37.0856 55.3727 30.2381 55.1725C35.1768 54.4917 40.0888 54.0913 45.0809 53.8644C50.7004 53.5974 57.2542 54.7854 62.8202 54.1313C58.9227 54.8254 55.3454 55.6129 51.3411 55.9333C42.705 56.6274 33.4817 54.772 25.0058 56.8009C42.4648 58.5361 60.7113 59.4437 78.277 58.9766C72.1637 59.0033 66.0638 58.9766 59.9504 58.9766H81.9076C71.2694 58.9766 60.6312 58.8965 49.9929 59.07C59.5634 58.3092 69.8278 57.0545 78.9711 54.1046C79.0912 53.6508 78.9578 53.3038 78.5573 53.0902C81.4271 51.9823 84.5772 50.087 85.6584 47.0303C84.1634 46.2428 82.4015 46.71 80.7731 46.1894C82.1212 42.0115 87.9275 42.4253 89.8096 39.1151C87.0332 40.2229 84.1768 42.1851 82.1613 44.4008C84.7641 40.5433 91.171 35.4044 90.6772 30.399C89.6627 32.9084 86.5527 35.4711 83.9365 36.1118C85.5783 32.9751 89.3557 29.785 88.9953 26.0209C84.6173 26.1143 80.4794 29.171 76.3282 30.3856C77.5696 28.4769 78.9311 26.6349 79.9455 24.5793C78.4506 24.0588 77.2492 24.913 76.3282 27.1421C70.2817 31.3066 64.1951 35.4311 58.0951 39.5022C54.5312 41.9315 45.9085 46.3763 43.3991 50.5408C44.6538 49.3395 45.6416 47.9246 46.3623 46.2962C49.2989 41.9448 53.3032 38.7413 56.44 34.5902C57.7747 32.8283 58.9494 29.6915 60.8314 28.3434C61.6857 27.7294 62.9537 27.7561 63.808 27.2355C65.8635 25.9809 66.0504 24.8863 68.3996 24.4058C72.4574 23.5783 77.7431 21.3225 81.8676 21.496C82.2413 23.338 77.6897 27.4091 77.009 28.1565C71.4696 34.2298 64.9158 39.649 60.4176 46.5898C66.1572 39.7024 72.1904 33.3088 78.3304 26.8485C80.079 25.0065 81.2936 22.991 83.7763 21.7897C84.6039 23.9386 80.8799 28.9975 80.2258 30.3723C77.93 35.5512 75.7142 40.7702 73.6053 46.0292C72.7911 47.9647 71.4563 52.2359 69.6944 54.118C70.9891 51.7421 73.3116 49.3795 74.9134 47.324C76.8622 44.8279 80.4527 38.0606 83.9766 37.2597C83.4426 45.0949 78.3972 52.2493 76.9956 59.9777C77.3961 57.6952 78.6107 56.2403 80.2392 54.6519C81.7875 53.1302 84.1768 50.2872 85.8719 49.4863C93.2933 57.9755 68.0259 60.6584 65.3563 60.8586C58.3621 61.3792 51.3945 61.0588 44.4269 61.6728C42.4915 61.8463 40.6628 61.8997 38.7007 61.8864C35.0167 61.873 17.4109 63.9153 17.0905 59.9643" stroke="#F4923B" stroke-width="15.4869" stroke-linecap="round" stroke-linejoin="round"/>
<path d="M87.8019 16.0754C88.9765 31.5054 89.5905 46.9488 90.0977 62.4189C63.2018 63.0596 36.386 63.9138 9.47676 63.7537C9.87719 48.3637 10.4912 32.9203 10.3978 17.517C36.2525 15.9553 61.9071 14.7139 87.8019 16.0621M6.16649 67.3843C6.47349 67.6379 6.88728 67.798 7.39449 67.798C35.7053 68.0249 63.8959 67.0906 92.18 66.4232C93.2478 66.3965 94.2356 65.5156 94.2089 64.3944C93.675 47.6162 93.0343 30.8781 91.7128 14.1533C91.6194 13.0188 90.8586 12.1912 89.684 12.1245C62.4677 10.5628 35.5318 11.9376 8.36889 13.6061C7.28771 13.6728 6.34001 14.4737 6.34001 15.6349C6.50019 32.333 5.7794 49.0845 5.36562 65.7825C5.35227 66.5433 5.68597 67.0773 6.16649 67.3976" fill="black"/>
<path d="M2.60246 10.8161C33.3559 8.21333 64.2428 7.43916 95.0897 8.52033C97.6925 8.61376 97.6925 4.56938 95.0897 4.47595C64.2428 3.39478 33.3693 4.1556 2.60246 6.75842C0.0263296 6.98533 -0.000366271 11.0297 2.60246 10.8161Z" fill="black"/>
<path d="M97.7312 70.5472C81.607 69.8798 65.4962 71.0678 49.372 71.3614C33.5548 71.6551 17.7376 71.9487 1.94712 71.0144C-0.65571 70.8675 -0.642362 74.9119 1.94712 75.0587C15.7221 75.873 29.5104 75.7528 43.3121 75.5126C41.083 79.8773 38.8406 84.2554 36.6115 88.6201C35.4235 90.9293 38.9206 92.9848 40.1086 90.6623C42.7114 85.5901 45.3009 80.5046 47.9037 75.4325C48.3976 75.4325 48.8915 75.4191 49.3854 75.4058C50.8269 75.3791 52.2818 75.339 53.7234 75.299C55.5654 80.4112 57.4074 85.5101 59.2494 90.6223C60.1304 93.0515 64.0413 92.0104 63.147 89.5411C61.4251 84.7492 59.6899 79.9574 57.968 75.1655C71.2224 74.725 84.4768 74.031 97.7446 74.5782C100.347 74.685 100.347 70.6406 97.7446 70.5338" fill="black"/>
<path d="M27.2007 52.7558C32.4731 48.1509 37.5453 43.3457 42.4707 38.3803C44.5262 41.9441 46.5818 45.5213 48.6374 49.0852C49.3582 50.3265 50.8131 50.2732 51.8142 49.499C57.9141 44.7872 63.8673 39.8886 69.6869 34.8565C69.6869 34.9366 69.6869 35.03 69.6869 35.1101C69.7537 36.8987 69.8071 38.6739 69.8738 40.4625C69.9672 43.0654 74.0116 43.0787 73.9182 40.4625C73.8515 38.3803 73.7714 36.298 73.7046 34.2291C73.6379 32.4939 73.8515 30.5318 73.3709 28.8767C73.1841 28.236 72.6368 27.5953 71.9561 27.4618C70.1942 27.1148 68.539 27.8622 66.8172 28.2093C64.7482 28.6364 62.6393 28.7565 60.5303 28.89C57.9408 29.0502 57.9275 33.0946 60.5303 32.9344C62.3323 32.8143 64.1209 32.6941 65.9095 32.4539C66.0697 32.4272 66.2298 32.4005 66.39 32.3738C61.3445 36.7252 56.219 40.9564 50.9733 45.0542L44.633 34.069C43.9923 32.9477 42.3639 32.7208 41.4562 33.6552C35.9569 39.3013 30.2441 44.7205 24.3176 49.9128C22.3555 51.6346 25.2253 54.4911 27.174 52.7692" fill="black"/>
</svg>
