<svg width="20" height="14" viewBox="0 0 20 14" fill="none" xmlns="http://www.w3.org/2000/svg">
<g clip-path="url(#clip0_2097_4751)">
<path d="M1.23357 12.9313L0.727051 1.07595C0.727051 1.07595 16.6749 -0.447259 19.4938 0.536405C19.7948 2.88912 19.9122 3.67459 19.9122 3.67459L18.8001 13.2066L1.23357 12.9313Z" fill="#FD8F2B"/>
<path d="M19.046 12.454C19.0827 12.6118 19.0277 12.7954 19.002 12.9495C18.9763 13.1073 18.98 13.2652 18.9506 13.423C18.9323 13.4157 18.9102 13.4046 18.8955 13.3973C18.7891 13.3459 18.69 13.3276 18.5689 13.3276C18.4551 13.3276 18.3413 13.3129 18.2275 13.3202C18.0991 13.3276 17.9743 13.3459 17.8458 13.3386C17.5889 13.3202 17.3356 13.2872 17.0824 13.2432C16.8218 13.1991 16.5722 13.1294 16.3079 13.1184C16.0657 13.1073 15.8271 13.1257 15.5848 13.1294C15.3243 13.1294 15.06 13.1294 14.7994 13.1294C14.3112 13.1367 13.8341 13.2358 13.3459 13.2285C12.8577 13.2175 12.3696 13.1477 11.8851 13.1037C10.839 13.0082 9.79296 13.0853 8.7469 13.1477C8.1633 13.1844 7.57971 13.1918 6.99612 13.2138C6.73919 13.2248 6.48226 13.2432 6.229 13.2835C6.33178 13.3276 6.41619 13.4157 6.46758 13.5148C6.48226 13.5478 6.49327 13.5808 6.50061 13.6139C6.66211 13.5955 6.82728 13.5845 6.98878 13.5772C7.52833 13.5551 8.0642 13.5515 8.60375 13.5221C9.67918 13.4634 10.7546 13.3679 11.83 13.467C12.3255 13.5111 12.8174 13.5845 13.3129 13.5955C13.8231 13.6065 14.3222 13.5037 14.8324 13.4964C15.093 13.4964 15.3573 13.4964 15.6179 13.4964C15.8711 13.4927 16.1244 13.4707 16.3813 13.4927C16.6456 13.5148 16.9025 13.5882 17.1631 13.6285C17.42 13.6689 17.6843 13.713 17.9449 13.7093C18.0881 13.7093 18.2312 13.6799 18.3744 13.6909C18.4955 13.6983 18.6276 13.6763 18.7414 13.7313C18.8405 13.779 18.9359 13.8194 19.0497 13.79C19.1561 13.7643 19.2369 13.6873 19.2809 13.5882C19.3617 13.4083 19.336 13.1954 19.3654 13.0046C19.3947 12.81 19.4534 12.5972 19.4094 12.4026C19.358 12.1751 18.9983 12.2301 19.0497 12.4614L19.046 12.454Z" fill="black" stroke="black" stroke-width="0.1"/>
<path d="M7.46878 13.3275C7.23021 13.3055 6.98796 13.3128 6.74571 13.3055C6.48512 13.2945 6.22452 13.2761 5.96025 13.2688C5.47209 13.2541 4.99126 13.3275 4.50677 13.2945C4.01861 13.2614 3.53779 13.166 3.05329 13.0963C2.15405 12.9678 1.24746 12.9715 0.34087 12.9825C0.362892 13.1036 0.351881 13.2284 0.318848 13.3458C1.20708 13.3348 2.09532 13.3312 2.97989 13.456C3.47172 13.5257 3.95988 13.6248 4.45539 13.6578C4.96557 13.6945 5.46842 13.6138 5.9786 13.6358C6.15478 13.6431 6.32729 13.6505 6.50347 13.6615C6.51448 13.6615 6.52182 13.6505 6.53283 13.6505C6.56953 13.6431 6.60991 13.6431 6.65028 13.6395C6.71268 13.6248 6.77875 13.6138 6.84481 13.6064C6.91822 13.5991 6.99163 13.5918 7.06137 13.5734H7.06871C7.1568 13.533 7.24856 13.533 7.33665 13.544C7.36601 13.533 7.39537 13.522 7.42841 13.5184C7.52017 13.4706 7.60826 13.4229 7.70002 13.3789C7.70002 13.3789 7.70002 13.3789 7.70369 13.3789C7.62661 13.3642 7.54953 13.3458 7.47245 13.3385L7.46878 13.3275Z" fill="black" stroke="black" stroke-width="0.1"/>
<path d="M19.31 11.1916C19.343 10.9421 19.3467 10.6888 19.3687 10.4392C19.3907 10.1676 19.4201 9.896 19.4421 9.62439C19.4788 9.11787 19.4274 8.60769 19.4825 8.10485C19.5375 7.59833 19.6587 7.10283 19.7504 6.60366C19.9193 5.67505 19.9596 4.72809 19.989 3.78113C19.8642 3.79214 19.7431 3.77379 19.6256 3.72607C19.5963 4.65468 19.5596 5.58329 19.3944 6.49355C19.3026 7.00006 19.1815 7.5029 19.1228 8.01676C19.064 8.54529 19.1228 9.0775 19.0751 9.60604C19.0604 9.78956 19.042 9.9694 19.0273 10.1493C19.0273 10.1603 19.0347 10.1713 19.0384 10.1823C19.0457 10.2227 19.042 10.263 19.042 10.3034C19.053 10.3695 19.0604 10.4392 19.064 10.509C19.0677 10.586 19.0751 10.6631 19.0861 10.7402V10.7475C19.1228 10.843 19.1191 10.9384 19.1008 11.0301C19.1118 11.0632 19.1191 11.0962 19.1228 11.1256C19.1668 11.2247 19.2109 11.3201 19.2512 11.4229C19.2512 11.4229 19.2512 11.4229 19.2512 11.4265C19.2696 11.3458 19.2916 11.2687 19.3026 11.188L19.31 11.1916Z" fill="black" stroke="black" stroke-width="0.1"/>
<path d="M19.2808 11.0594C19.4937 10.964 19.3432 10.63 19.1303 10.7291C18.9174 10.8282 19.0679 11.1585 19.2808 11.0594Z" fill="black" stroke="black" stroke-width="0.1"/>
<path d="M19.9632 3.99013C19.9339 3.47994 19.7687 2.99545 19.721 2.49261C19.6769 2.01913 19.8715 1.49059 19.6843 1.03179C19.464 0.488575 18.7703 0.525279 18.2858 0.503257C17.739 0.477564 17.1921 0.448201 16.6488 0.418838C15.5808 0.360112 14.5127 0.308726 13.4409 0.297715C12.8757 0.294045 12.3141 0.297715 11.7489 0.319737C11.4736 0.330749 11.202 0.34176 10.923 0.316067C10.6551 0.290374 10.3871 0.25 10.1155 0.25C9.82558 0.25 9.52827 0.297715 9.24198 0.330749C8.95569 0.360112 8.66573 0.393145 8.37944 0.426179C7.82521 0.492246 7.27465 0.565653 6.72409 0.650072C6.15151 0.738162 5.57892 0.833592 5.01001 0.936363C4.46679 1.03546 3.93092 1.0428 3.37669 1.05014C3.12343 1.05382 2.85549 1.0428 2.6059 1.08685C2.49946 1.1052 2.40036 1.16026 2.29759 1.18962C2.16913 1.22632 2.01864 1.18962 1.8865 1.18962C1.60755 1.19329 1.33594 1.24468 1.05699 1.25936C0.939542 1.2667 0.82943 1.23366 0.711977 1.22632C0.594524 1.22265 0.473401 1.26303 0.3743 1.32542C-0.0588067 1.59336 0.0109309 2.19531 0.058646 2.62841C0.0880092 2.91837 0.135724 3.20833 0.165088 3.50196C0.179769 3.64144 0.19078 3.78458 0.194451 3.92406C0.194451 3.98278 0.198121 4.03417 0.223814 4.08923C0.245836 4.14061 0.28254 4.19567 0.293552 4.25072C0.322915 4.37552 0.315574 4.52233 0.319244 4.6508C0.319244 4.80128 0.319244 4.9481 0.319244 5.09858C0.315574 5.39221 0.337596 5.68584 0.352278 5.97948C0.377971 6.54839 0.392652 7.1173 0.396323 7.68621C0.399993 8.25879 0.396323 8.8277 0.381641 9.40028C0.3743 9.69391 0.363289 9.98754 0.348608 10.2812C0.337596 10.5381 0.300892 10.8024 0.341267 11.0593C0.355948 11.1621 0.330256 11.2502 0.341267 11.3529C0.352278 11.4557 0.392652 11.5585 0.381641 11.6649C0.352278 11.8961 0.715647 11.9328 0.74501 11.7016C0.756022 11.5988 0.74134 11.4961 0.719318 11.397C0.700966 11.2942 0.726659 11.2061 0.719318 11.0997C0.711977 11.0116 0.686284 10.9235 0.689955 10.8354C0.697295 10.6959 0.704636 10.5528 0.711977 10.4133C0.73767 9.87376 0.756022 9.33788 0.763362 8.79833C0.778044 7.74126 0.756022 6.68419 0.704636 5.62712C0.689955 5.32248 0.697295 5.01783 0.689955 4.71319C0.689955 4.55904 0.682614 4.40488 0.667932 4.25072C0.656921 4.12593 0.605535 4.02683 0.55415 3.91305C0.55782 3.94608 0.565161 3.97544 0.568831 4.00848C0.561491 3.5717 0.495423 3.14227 0.444038 2.70916C0.418345 2.49995 0.388982 2.2834 0.396323 2.07051C0.399993 1.94572 0.422015 1.80257 0.502764 1.6998C0.609206 1.56033 0.73767 1.59336 0.891826 1.61538C1.08636 1.64108 1.29924 1.6007 1.49377 1.57868C1.69931 1.55666 1.90486 1.53831 2.11407 1.55666C2.30493 1.57501 2.4444 1.51261 2.62425 1.45756C2.79309 1.40617 2.99496 1.41718 3.17114 1.40984C3.36567 1.4025 3.56021 1.4025 3.75474 1.4025C4.16949 1.39883 4.58058 1.38048 4.98799 1.30707C5.8175 1.15292 6.65068 1.01711 7.48753 0.903329C8.32438 0.789547 9.1649 0.690447 10.0054 0.613368C10.4092 0.576665 10.8203 0.686776 11.224 0.694117C11.6388 0.701458 12.0572 0.664754 12.4719 0.657413C14.0759 0.63172 15.6762 0.72715 17.2802 0.811569C17.6986 0.833592 18.1207 0.855614 18.5391 0.873966C18.7263 0.881307 18.9098 0.888648 19.0897 0.947374C19.1741 0.973066 19.2548 1.00243 19.3099 1.07217C19.3576 1.13823 19.387 1.21164 19.4016 1.29239C19.431 1.46857 19.4053 1.64475 19.3943 1.82093C19.3833 2.01546 19.3613 2.20999 19.3686 2.40452C19.3833 2.76055 19.4751 3.10923 19.5411 3.45792C19.5778 3.65245 19.6072 3.84698 19.6182 4.04151C19.6255 4.14061 19.7357 4.20668 19.8274 4.192C19.9339 4.17732 19.9852 4.08189 19.9779 3.98278L19.9632 3.99013Z" fill="black" stroke="black" stroke-width="0.1"/>
<path d="M19.365 13.1109C19.4017 12.7622 19.3577 12.4172 19.3687 12.0685C19.3687 11.9878 19.3613 11.9107 19.3577 11.83C19.3577 11.7492 19.365 11.6648 19.3723 11.584C19.3907 11.4079 19.409 11.228 19.387 11.0518C19.3577 10.8206 19.0016 10.8756 19.0273 11.1106C19.0457 11.2684 19.02 11.4262 19.0053 11.5804C18.9906 11.7419 19.009 11.9034 19.0053 12.0612C18.998 12.2337 19.0163 12.3989 19.02 12.5714C19.0273 12.7402 19.02 12.9054 19.0016 13.0742C18.9759 13.3091 19.3393 13.3421 19.365 13.1109Z" fill="black" stroke="black" stroke-width="0.1"/>
<path d="M0.642337 13.2325C0.679041 12.8838 0.634996 12.5388 0.646007 12.1901C0.646007 12.1094 0.638666 12.0323 0.634996 11.9515C0.634996 11.8708 0.642337 11.7864 0.649678 11.7056C0.66803 11.5294 0.686382 11.3496 0.664359 11.1734C0.634996 10.9422 0.278967 10.9972 0.30466 11.2321C0.323012 11.39 0.297319 11.5478 0.282638 11.7019C0.267956 11.8634 0.286308 12.0249 0.282638 12.1828C0.275297 12.3553 0.293649 12.5204 0.297319 12.693C0.30466 12.8618 0.297319 13.027 0.278967 13.1958C0.253275 13.4307 0.616644 13.4637 0.642337 13.2325Z" fill="black" stroke="black" stroke-width="0.1"/>
<path d="M0.0219424 1.99388C0.0880096 2.11867 0.0880096 2.23979 0.0990208 2.3756C0.110032 2.53342 0.146736 2.68391 0.176099 2.83807C0.242166 3.15739 0.231155 3.48038 0.231155 3.80705C0.231155 4.13738 0.231155 4.46772 0.256848 4.79438C0.289882 5.13573 0.326586 5.4734 0.36329 5.81108C0.399993 6.15243 0.429357 6.4901 0.451379 6.83145C0.473401 7.16912 0.466061 7.5068 0.484413 7.84447C0.491753 7.98762 0.510105 8.11975 0.546809 8.25556C0.587184 8.40604 0.557821 8.57488 0.535798 8.72904C0.491753 9.02634 0.429357 9.3163 0.46239 9.62094C0.480742 9.79712 0.502765 9.95495 0.495424 10.1311C0.488083 10.3036 0.506435 10.4761 0.495424 10.645C0.488083 10.8101 0.425686 10.9606 0.399994 11.1221C0.385312 11.2176 0.429357 11.4011 0.374301 11.4782C0.469731 11.4745 0.565161 11.4708 0.660592 11.4671C0.64591 11.4488 0.631229 11.4304 0.612877 11.4084C0.466061 11.2249 0.18711 11.4598 0.333926 11.6433C0.348608 11.6617 0.36329 11.68 0.381641 11.7021C0.455049 11.7938 0.601865 11.7828 0.667933 11.691C0.741341 11.5919 0.752352 11.4708 0.752352 11.3497C0.752352 11.1992 0.778044 11.0707 0.814748 10.9276C0.851452 10.7698 0.855123 10.6266 0.851452 10.4651C0.851452 10.2926 0.866134 10.1201 0.858793 9.94761C0.855123 9.79712 0.822089 9.65031 0.811078 9.49982C0.800067 9.353 0.822089 9.20252 0.844112 9.0557C0.891827 8.74005 0.965235 8.42807 0.873475 8.11608C0.8331 7.96927 0.8331 7.8041 0.82943 7.65362C0.822089 7.4701 0.82943 7.28658 0.822089 7.10306C0.811078 6.76171 0.781715 6.42036 0.748681 6.07902C0.682614 5.37797 0.583513 4.6806 0.583513 3.97589C0.583513 3.60885 0.609206 3.22713 0.543139 2.86376C0.510105 2.68024 0.46239 2.50406 0.447709 2.31687C0.433027 2.14803 0.422016 1.99388 0.341267 1.83972C0.231155 1.63418 -0.0991807 1.78466 0.0109313 1.99021H0.0219424V1.99388Z" fill="black" stroke="black" stroke-width="0.1"/>
<path d="M0.580457 1.95331C3.414 3.30034 5.99429 5.09883 8.76912 6.55965C9.25728 6.81657 9.80417 7.10286 10.3657 7.1359C10.9273 7.16893 11.4962 6.85695 11.9697 6.54864C12.5606 6.16692 13.1259 5.75216 13.7242 5.37778C14.4142 4.95202 15.1116 4.54093 15.7832 4.08581C17.2 3.12416 18.3929 1.83219 19.9381 1.06508C20.085 0.991668 19.9565 0.771445 19.8097 0.844853C18.5691 1.46148 17.5671 2.42312 16.4843 3.26731C15.262 4.21794 13.882 4.92632 12.6084 5.79988C12.0761 6.16324 11.5549 6.58901 10.9383 6.79822C10.274 7.02579 9.60964 6.70646 9.02237 6.40549C7.77077 5.76684 6.56688 5.01441 5.35932 4.29869C3.8361 3.3921 2.30921 2.49286 0.708921 1.73309C0.562105 1.66335 0.433642 1.88357 0.580457 1.95331Z" fill="black" stroke="black" stroke-width="0.1"/>
<path d="M0.286596 1.78838C1.03903 2.03797 1.6997 2.47107 2.36404 2.8895C3.02838 3.30792 3.68171 3.65294 4.36074 4.0053C5.74081 4.72102 7.11354 5.45143 8.49728 6.15981C9.00746 6.42041 9.55068 6.72872 10.1306 6.78745C10.7105 6.84618 11.2905 6.42408 11.8116 6.1745C13.177 5.5175 14.502 4.74672 15.7904 3.95024C17.1888 3.0877 18.5285 2.12239 19.6663 0.929512C19.7801 0.81206 19.6002 0.632211 19.4865 0.749663C17.5265 2.80508 14.9388 4.26589 12.443 5.57255C12.1163 5.74506 11.786 5.90656 11.4519 6.06438C11.1179 6.22221 10.7693 6.47547 10.4096 6.53052C9.76723 6.62962 9.06252 6.15981 8.51563 5.88087C7.19062 5.20918 5.88395 4.50447 4.56628 3.82178C3.81385 3.43272 3.0761 3.03631 2.36037 2.58486C1.72172 2.18111 1.07573 1.78104 0.352663 1.54247C0.198507 1.49108 0.128769 1.737 0.286596 1.78838Z" fill="black" stroke="black" stroke-width="0.1"/>
</g>
<defs>
<clipPath id="clip0_2097_4751">
<rect width="20" height="13.5878" fill="white" transform="translate(0 0.206055)"/>
</clipPath>
</defs>
</svg>
