<svg width="22" height="20" viewBox="0 0 22 20" fill="none" xmlns="http://www.w3.org/2000/svg">
<path d="M7.80327 5.79137C7.79318 3.80183 7.04175 1.313 4.87822 0.727993C3.21144 0.279147 1.60266 1.64081 1.12356 3.17143C0.878962 3.9506 1.01008 4.77517 1.40598 5.48121C1.59762 5.82415 1.86995 6.10657 2.03133 6.46968L1.83969 6.01832C2.03133 6.51507 2.15993 7.03956 2.34401 7.54136C2.57852 8.18941 2.84329 8.82738 3.13075 9.45274C3.66028 10.6051 4.32851 11.6793 5.15559 12.6426C5.86416 13.4671 6.63829 14.2362 7.48555 14.917C8.52949 15.7567 9.62386 16.5914 10.7838 17.2672C11.505 17.6883 12.2867 18.0489 13.1011 18.243C13.9156 18.4372 14.7377 18.5028 15.5572 18.6137L15.0554 18.5456C15.3555 18.5885 15.653 18.6364 15.9506 18.6969C16.9163 18.8961 18.041 18.417 18.278 17.3756C18.4923 16.43 17.993 15.2625 16.9567 15.0482C16.2078 14.8918 15.4437 14.8162 14.6847 14.7153L15.1865 14.7834C14.5233 14.6926 13.8753 14.5691 13.2524 14.3194L13.7038 14.5111C12.7254 14.0925 11.853 13.4772 10.9931 12.8569C10.7863 12.7081 10.577 12.5568 10.3728 12.403C10.3173 12.3627 10.2618 12.3198 10.2064 12.2769C10.456 12.4711 10.5039 12.5064 10.3501 12.3879C10.2744 12.3274 10.1963 12.2668 10.1206 12.2063C9.78273 11.9315 9.4524 11.644 9.1372 11.3439C8.80687 11.0287 8.48914 10.6984 8.18151 10.358C8.01761 10.179 7.85622 9.9974 7.70241 9.8108C7.60406 9.68976 7.48051 9.43256 7.75284 9.88141C7.68476 9.76793 7.59398 9.66455 7.51833 9.55612C6.97366 8.76434 6.53995 7.90195 6.16423 7.01939L6.35587 7.47075C6.07093 6.78992 5.82382 6.09396 5.60696 5.38792C5.47584 4.96177 5.32454 4.53309 5.07742 4.1599C4.91856 3.92035 4.73196 3.70096 4.60588 3.44124L4.79753 3.8926C4.76222 3.80434 4.73448 3.72113 4.71935 3.62784L4.78744 4.12963C4.77987 4.05398 4.77987 3.9859 4.78239 3.91025L4.71431 4.41206C4.73196 4.29606 4.76222 4.19267 4.80509 4.08172L4.61345 4.53309C4.66136 4.4297 4.71683 4.33641 4.77483 4.23807C4.93117 3.96826 4.46467 4.57848 4.69918 4.3364C4.7597 4.27336 4.83283 4.21285 4.89082 4.14728C4.61849 4.34649 4.55797 4.3944 4.71431 4.29102C4.7597 4.26328 4.80509 4.23807 4.85552 4.21537L4.40416 4.40701C4.47476 4.37927 4.5378 4.35658 4.61093 4.34145L4.10913 4.40953C4.15452 4.40197 4.19738 4.39945 4.24277 4.40449L3.74098 4.3364C3.85697 4.35406 3.96288 4.38936 4.06878 4.43475L3.61742 4.24311C3.66785 4.26832 3.71576 4.29858 3.76871 4.32128C4.01835 4.43727 3.60733 4.21537 3.57707 4.16241C3.60229 4.21032 3.76619 4.37676 3.81662 4.40449C3.80654 4.39945 3.52916 3.99095 3.64516 4.19016C3.67541 4.24059 3.70819 4.2885 3.73845 4.34145C3.80401 4.45745 3.86201 4.57848 3.91244 4.69952L3.7208 4.24815C3.87714 4.63647 3.97296 5.04246 4.03096 5.45852L3.96288 4.95672C3.99818 5.22905 4.01835 5.50391 4.02087 5.78129C4.02592 6.76975 4.8883 7.71788 5.91207 7.67249C6.93584 7.6271 7.80831 6.84036 7.80327 5.78129V5.79137Z" fill="#F5943C"/>
<path d="M16.8682 16.9318C16.9035 16.899 16.9413 16.8688 16.9791 16.8385L16.5958 17.1335C16.7623 17.01 16.9388 16.9091 17.1279 16.8259L16.6765 17.0175C16.9035 16.9268 17.1355 16.8637 17.3775 16.8284L16.8757 16.8965C17.0623 16.8763 17.2464 16.8738 17.433 16.8965L16.9312 16.8284C17.085 16.8511 17.2313 16.8889 17.3775 16.9469L16.9262 16.7553C17.0497 16.8108 17.1607 16.8763 17.2666 16.957L16.8833 16.662C17.0649 16.8083 17.2237 16.9747 17.3674 17.1562L17.0724 16.773C17.1909 16.9318 17.2918 17.0957 17.3725 17.2747L17.1809 16.8234C17.2237 16.9293 17.2565 17.0327 17.2767 17.1462L17.2086 16.6443C17.2187 16.7276 17.2187 16.8057 17.2086 16.8915L17.2767 16.3897C17.2641 16.4502 17.2489 16.5031 17.2262 16.5611L17.4179 16.1098C17.3826 16.1829 17.3422 16.2485 17.2943 16.314L17.5894 15.9307C17.5314 16.0039 17.4683 16.0669 17.3977 16.1274L17.781 15.8324C17.6927 15.898 17.602 15.9534 17.5036 15.9988L17.955 15.8072C17.7835 15.8803 17.6045 15.9207 17.4204 15.9459L17.9222 15.8778C17.5692 15.9181 17.2162 15.8954 16.8682 15.85L17.37 15.9181C16.1747 15.7467 15.0526 15.2953 13.928 14.8717C13.4943 14.7078 12.8563 14.8364 12.4705 15.0633C12.0847 15.2902 11.7039 15.7416 11.6006 16.193C11.4896 16.6771 11.5148 17.2193 11.7922 17.6505C12.0696 18.0817 12.4377 18.3363 12.9219 18.5204C14.4121 19.0827 15.968 19.7056 17.5894 19.6829C18.8098 19.6652 20.0202 19.1836 20.6506 18.0817C21.581 16.4578 20.5018 14.675 19.1754 13.6916C18.5425 13.2225 17.6499 13.0385 16.8757 13.1141C15.8545 13.215 14.9694 13.5781 14.1953 14.2564C13.4211 14.9347 13.4766 16.2712 14.1953 16.9318C14.9921 17.6631 16.0739 17.6278 16.8707 16.9318H16.8682Z" fill="#F5943C"/>
<path d="M16.8608 19.6806C15.6201 19.6075 14.0391 19.025 12.622 18.1752C11.046 17.2271 9.57082 16.0898 8.14864 14.9173C5.15046 12.4461 3.28196 9.16047 1.74378 5.66048C1.59501 5.32259 1.45884 4.97461 1.36806 4.61906C1.07304 3.45408 1.29242 2.46057 2.23045 1.61079C4.18217 -0.161895 4.87813 -0.166939 6.50456 1.83017C7.02401 2.46813 7.47537 3.18175 7.83344 3.92058C8.22429 4.72749 8.08308 5.54701 7.47789 6.2455C7.29634 6.45479 7.08957 6.64391 6.89036 6.83555C5.97502 7.71055 6.04311 8.80493 6.63064 9.59671C7.2333 10.4061 7.84101 11.2584 8.61514 11.8863C9.75742 12.8143 11.046 13.5657 12.279 14.3802C12.8867 14.7811 13.4995 14.7181 14.0895 14.3197C14.4728 14.0625 14.8637 13.8153 15.2419 13.5506C16.0967 12.9555 16.9742 12.9883 17.8568 13.4648C18.6687 13.9036 19.4555 14.3575 20.0607 15.1064C20.7012 15.8982 20.9634 16.7278 20.5776 17.6734C20.1363 18.7627 19.4051 19.5545 18.1518 19.6806C17.877 19.7083 17.5971 19.6856 16.8582 19.6856L16.8608 19.6806Z" stroke="black" stroke-width="0.50432" stroke-miterlimit="10"/>
</svg>
