<svg width="105" height="86" viewBox="0 0 105 86" fill="none" xmlns="http://www.w3.org/2000/svg">
<path d="M16.5059 28.9732C13.4986 25.9659 16.9997 19.5922 21.2862 20.4899C22.0941 20.6582 21.6565 19.6259 21.3535 21.5784C21.1515 22.88 20.6466 24.1593 20.0743 25.3263C18.739 28.053 16.7079 30.1065 14.1607 31.7224C10.1659 34.2583 9.32432 39.7119 12.6795 43.1792C17.1455 47.8024 23.5192 48.5766 29.4328 46.4558C32.5187 45.3561 35.0659 43.5495 37.5009 41.4063C39.734 39.4426 41.8323 36.5138 44.6601 35.3805L35.6831 30.286C40.1379 42.3713 15.4175 51.438 28.1199 63.5345C30.353 65.6553 34.2468 66.4857 36.9623 64.6791C46.7922 58.081 55.253 50.0803 62.2214 40.4973C67.7647 32.8669 73.0163 18.3467 84.1141 17.8866C81.7689 14.812 79.4236 11.7261 77.0784 8.65153C74.9014 21.6345 60.4709 27.0768 51.2694 34.5164C40.7327 43.0333 34.8976 55.6235 35.021 69.1676C35.0771 74.9465 41.1142 77.9201 45.9954 75.4627C62.9059 66.9794 68.2921 48.4083 78.8401 34.1349C79.9959 32.5639 81.2527 31.0827 82.6105 29.6913C83.2613 29.0293 83.9233 28.3784 84.6191 27.7613C86.8297 25.8088 87.1214 26.7962 83.5755 24.3164C79.7939 21.6794 80.557 22.6332 78.4474 25.5058C77.6058 26.6504 76.7642 27.7837 75.9114 28.9171C73.7905 31.756 71.6585 34.5725 69.504 37.3778C61.2564 48.1053 52.6945 58.5972 43.9195 68.8982C39.6779 73.8805 43.5604 83.8786 51.0114 81.0845C74.8678 72.1412 90.5215 52.044 103.37 30.9256C108.262 22.88 95.6496 15.5414 90.7683 23.5645C80.1306 41.0696 67.0802 59.551 47.1288 67.0243L54.2206 79.2105C64.9482 66.6091 75.3054 53.7047 85.3036 40.5086C89.3544 35.156 96.1658 28.7263 95.47 21.4213C94.7743 14.1163 87.2224 9.52678 80.3774 12.8931C59.8201 23.0147 58.8887 52.6836 38.6231 62.85L49.5975 69.1451C49.4628 54.9391 58.1369 46.9608 69.1225 39.5884C78.986 32.9679 89.0402 24.9335 91.1274 12.5004C91.868 8.07925 89.2422 3.05214 84.0917 3.26534C70.772 3.81518 62.2887 13.2971 55.6233 23.8675C48.5876 35.0214 40.6317 44.638 29.5787 52.0552L38.4211 53.1998C41.5518 56.1846 38.3538 56.4764 40.9459 54.4565C42.0904 53.5588 42.9769 52.2011 43.8746 51.0677C45.771 48.6776 47.3981 46.2202 48.6549 43.4485C51.1123 37.995 51.8305 32.0814 49.7321 26.3923C48.4866 23.0147 44.6713 19.7381 40.7551 21.2978C36.3339 23.0708 33.0461 25.5395 29.5899 28.7824C28.5351 29.7699 24.3047 34.2247 22.9694 32.8445L21.4882 44.3013C28.7596 39.6782 34.2804 32.5415 35.6382 23.8787C36.996 15.2159 32.3504 6.50828 22.7898 5.91355C5.47542 4.83632 -6.8792 26.2464 6.19358 39.2967C12.8478 45.9396 23.1714 35.6273 16.5059 28.9844V28.9732Z" fill="#F78F31"/>
<path d="M19.9237 31.7004C29.3047 31.7004 29.3271 17.1128 19.9237 17.1128C10.5202 17.1128 10.5202 31.7004 19.9237 31.7004Z" fill="#F78F31"/>
<path d="M53.125 35.6826C49.68 23.9452 41.0958 10.7939 29.2573 6.17079C19.4499 2.32191 4.52562 5.46385 0.867481 16.4943C-2.36425 26.2455 4.00944 36.4681 10.4953 43.3467C17.6882 50.9771 25.3747 58.1474 32.9603 65.3739C39.6931 71.7812 47.0206 77.9304 53.1474 84.9437C53.7758 85.6731 54.8643 85.4935 55.5151 84.9437C64.2452 77.6611 72.3694 69.6043 80.2243 61.3904C87.765 53.5131 95.6087 45.344 101.477 36.0865C106.606 28.0073 105.764 17.2461 100.512 9.30151C93.5889 -1.17911 80.4712 -2.25634 69.9681 3.34304C63.6281 6.73185 59.1283 12.1966 55.2794 18.1326C51.7672 23.5524 50.8583 29.3763 49.882 35.6714C49.5566 37.781 52.7883 38.6899 53.1137 36.5578C54.0788 30.3076 54.954 24.6297 58.5224 19.2884C63.2578 12.1966 69.1153 6.00247 77.6771 3.88166C86.2389 1.76085 94.6549 5.00378 98.7956 12.9933C101.691 18.5815 102.925 26.5148 99.8504 32.2489C94.711 41.843 86.2614 50.1579 78.8441 57.9679C70.6863 66.5521 62.2366 74.9793 53.1362 82.5648H55.5039C42.9024 68.1119 27.3946 56.0827 14.0974 42.2582C5.34477 33.1578 -3.77813 14.8785 13.3792 9.09952C31.12 3.12984 45.4496 21.4541 49.882 36.5578C50.488 38.6225 53.7309 37.7473 53.1137 35.6714L53.125 35.6826Z" fill="black"/>
</svg>
