<svg width="72" height="90" viewBox="0 0 72 90" fill="none" xmlns="http://www.w3.org/2000/svg">
<path d="M11.7741 15.9124C11.427 18.6354 10.7863 21.2916 9.86533 23.8944C7.64959 33.3046 7.82311 42.5947 7.9032 52.1784C7.95659 59.6932 9.98546 70.3046 6.87541 77.4724C10.1056 75.0298 7.96994 60.8144 7.94324 57.0903C7.91655 54.0737 7.67628 51.3641 8.37037 48.4143C8.8509 46.3187 10.3859 45.985 9.90537 43.4356C9.59837 50.323 6.35485 56.8367 6.08789 63.8577C13.5627 66.7675 18.3946 41.1531 18.9018 37.8829C20.3968 28.2858 19.3823 18.5953 19.4758 8.9449C19.4758 21.1581 19.8896 33.4114 19.5692 45.6113C19.3557 53.66 16.7662 62.3093 17.5537 70.3046C17.3401 61.7621 18.4347 53.4864 19.0353 44.9706C19.5559 37.4958 19.716 30.021 19.5025 22.5329C19.5025 21.6386 20.29 14.1238 19.0753 12.3619C17.6071 13.8969 16.9263 15.8057 17.0465 18.0881C15.5115 26.2036 14.8174 34.8262 14.0699 43.0485C13.3224 51.1906 13.6828 59.3595 13.6828 67.5283C13.7095 64.4316 13.2957 61.1614 13.576 58.0914C13.7896 55.7689 15.5248 53.086 15.2712 50.8703C11.9209 54.1939 13.6695 62.2025 13.6828 66.4071C13.7095 71.4659 14.19 76.9785 13.5226 81.9439C12.655 81.7437 11.694 82.024 11.2936 81.9706C17.22 83.4923 27.3377 82.0774 32.6768 81.6236C41.4463 80.8627 50.8966 80.0886 59.4526 77.7794C56.1023 75.5103 46.3583 77.419 42.4074 77.419H37.9225C28.9394 77.419 17.9274 75.5236 9.25133 77.8461C17.4069 82.3043 31.5689 79.3411 40.6321 79.3411C44.463 79.3411 48.2938 79.3411 52.1246 79.3411C54.941 79.3411 68.2755 81.2365 65.2856 75.6838C61.3079 74.4692 61.2546 81.2632 60.2268 83.5857C63.6305 74.9096 62.4025 61.1748 60.6005 52.4053C58.6918 43.1419 55.0078 28.446 48.3205 21.2649C47.7599 33.3179 48.8144 45.6246 48.761 57.7177C49.3349 51.511 47.573 45.3309 46.9056 39.2043C46.2249 33.2245 46.038 27.2314 46.3584 21.2382C46.4117 17.928 47.5597 11.3608 44.9168 8.39764C42.1137 15.779 42.047 26.2703 40.2183 33.972C37.0015 47.5333 33.0105 61.0813 30.8481 74.8696C31.7291 60.1603 29.6068 45.9449 27.5379 31.4626C26.9773 27.4983 25.0418 13.4298 28.7392 12.095C28.9394 13.6834 28.6324 15.205 27.8315 16.6599C26.3499 25.029 23.6403 33.051 22.0252 41.34C20.9307 46.9594 22.0119 52.2318 21.1843 57.7444C22.0386 56.0092 23.1064 54.3941 24.3611 52.9125C28.539 46.8259 30.4477 41.2866 31.6891 33.9853C32.9304 26.6841 32.9438 19.7166 32.9438 12.3619C33.0906 32.6372 35.8402 52.779 34.719 73.081C40.3785 61.7888 39.8046 46.7592 40.6188 34.4392C41.0192 28.2858 42.4875 22.1859 42.6076 16.0326C42.6743 12.3085 42.6076 9.91929 44.5697 6.68912C43.5153 28.1791 45.8111 49.8558 44.4229 71.3191C44.77 63.6041 48.5207 56.3028 48.494 48.4677C48.4673 42.2743 49.5218 35.8006 50.6564 29.8075C51.2303 26.8042 53.5395 23.1736 54.1134 19.85C54.7808 15.9525 52.4717 11.7079 56.0889 8.78473C55.4883 21.8789 55.9955 35.0932 55.9955 48.2141C55.9955 56.3562 54.327 67.0344 56.3025 74.6694C59.9732 64.0712 61.8285 52.7924 61.8285 41.5802C61.8285 35.3468 61.7751 31.1823 64.2044 25.4828C65.4191 22.6264 66.4736 19.0625 65.6994 15.8324C65.3256 14.2707 64.2445 13.6166 63.6305 12.1484C62.7762 10.1195 64.111 9.49216 62.3224 7.69021C58.8653 4.19309 47.0391 6.32873 42.2072 6.32873C38.0159 6.32873 33.5444 5.83487 29.5134 6.75586C28.3254 7.03617 27.2175 8.0506 25.5891 8.29086C24.4278 8.46438 23.093 8.22412 21.9051 8.25081C28.0851 8.25081 34.2785 8.30421 40.4586 8.15738C34.3052 9.99937 27.5779 10.0928 21.5447 12.0683C16.8329 13.6166 13.9898 18.5553 12.9086 23.5874C12.001 27.7653 12.8819 32.5705 12.7618 36.8418C12.6417 41.34 13.4292 50.8169 10.2791 53.9002C8.26359 49.6556 9.82529 41.8338 9.85198 37.0286C9.85198 35.4269 10.3192 32.8374 9.94542 31.3024C9.37146 28.9132 7.08898 28.5261 7.92989 25.5629" stroke="#F4923B" stroke-width="11.0621" stroke-linecap="round" stroke-linejoin="round"/>
<path d="M0.157652 84.7438C0.0241734 84.9841 0.0375212 85.1042 0.0909126 85.1042C0.117608 85.0108 0.144304 84.9173 0.184348 84.8239C0.184348 84.7972 0.184348 84.7705 0.157652 84.7305" fill="black"/>
<path d="M63.9284 77.8176C63.875 79.2191 63.8483 80.6473 63.7015 82.0488C63.4479 84.5315 63.2477 83.3969 60.8317 83.2635C55.9331 82.9698 50.8475 83.437 45.9088 83.3035C41.4106 83.17 36.9257 83.13 32.4275 83.17C23.1107 83.2635 13.8073 83.5438 4.49046 83.5838C4.59724 81.6617 4.35698 79.5394 4.38368 78.3515C4.49046 72.6119 4.51715 66.859 4.5305 61.1195C4.57055 47.398 5.33137 33.7432 5.37142 20.0217C8.30794 20.5422 11.1644 21.3031 13.9808 22.3709C15.6893 23.0116 18.4523 24.4932 20.2543 23.2652C22.1764 21.9571 22.2031 18.1129 22.4967 16.0841C23.044 12.3467 22.6435 8.4091 23.2842 4.69842C25.4866 4.36472 28.3164 4.79185 30.2918 4.76516C41.3439 4.61833 52.3825 4.27129 63.4346 4.07107C63.4746 4.51155 63.6348 5.1389 63.6615 5.36581C63.835 7.10102 63.875 8.83623 63.9284 10.5714C64.0753 15.2165 64.0619 19.8748 64.0352 24.5199C63.9952 30.0459 63.7816 35.5718 63.835 41.0978C63.9284 49.0931 64.0753 57.0885 64.0753 65.0838C64.0753 69.3284 64.0752 73.5863 63.9151 77.8309M15.9029 10.2111C16.8906 9.38349 17.9584 8.16884 19.0797 7.08767C19.053 8.03536 19.0396 8.98306 19.0129 9.9441C18.9729 11.3456 18.8661 12.7471 18.7059 14.1353C18.6659 14.4423 18.3188 18.6735 17.8383 19.1274C17.2377 19.688 13.1666 17.7392 12.1121 17.4055C10.7239 16.9784 9.32238 16.6313 7.92086 16.351C10.6305 14.3622 13.3267 12.36 15.9162 10.1977M63.261 3.20347C63.3278 3.2969 63.4079 3.37699 63.4879 3.47042C63.4879 3.51047 63.4879 3.56386 63.4612 3.61725C63.1009 3.40368 63.1543 3.24351 63.261 3.21682M68.0796 24.5199C68.1197 18.9805 68.1463 13.4279 67.866 7.90189C67.7726 6.05989 68.0663 1.89539 66.2243 0.467172C65.9439 0.213565 65.5836 0.0400433 65.1164 0.0133478C64.9963 0 64.8895 0 64.7827 0C51.4615 0.24026 38.127 0.694085 24.8059 0.787519C22.47 0.800867 20.7348 0.400434 18.9595 1.90873C16.5302 3.95094 14.3545 6.30015 11.8852 8.32902C9.34908 10.4113 6.7062 12.36 4.04998 14.2821C2.36815 15.4834 1.51389 15.8705 1.32702 17.9528C0.806453 24.0127 1.16685 30.2861 1.11345 36.3727C1.06006 41.8053 0.459409 47.1711 0.486105 52.6303C0.499453 57.7559 0.472757 62.8814 0.432713 68.0069C0.406018 71.8111 0.379322 75.6152 0.299235 79.4193C0.272539 80.7407 0.245844 82.0755 0.192452 83.3969C0.179104 83.7306 0.0055823 84.4114 0.125713 84.7184C0.125713 84.7317 0.125713 84.7584 0.139061 84.7718C0.219148 84.6383 0.352626 84.4514 0.566192 84.2379C0.379322 84.4247 0.245844 84.6383 0.152409 84.8652C0.179104 85.0521 0.112365 85.1588 0.0589737 85.1455C-0.234679 86.3335 0.592888 87.6949 1.99441 87.6949C11.8852 87.6949 21.7626 87.3746 31.64 87.2678C41.1036 87.161 50.634 87.9886 60.0842 87.4013C64.4757 87.1343 67.1453 87.4013 67.6658 82.8897C68.093 79.139 68.0529 75.3215 68.093 71.5575C68.2531 55.9005 67.9595 40.2302 68.0663 24.5599" fill="black"/>
<path d="M19.2942 43.7687C21.2964 43.1413 21.8971 40.9389 22.7647 39.2037C23.8458 37.0147 24.9003 34.799 25.9281 32.5832C27.0093 30.234 23.5255 28.1785 22.431 30.541C21.2697 33.0371 20.2019 35.8801 18.827 38.4029C18.7203 38.2294 18.6268 38.0425 18.52 37.8823C17.1319 35.6799 13.6347 37.7088 15.0229 39.9245C15.7303 41.0457 16.3577 42.3271 17.3321 43.2615C17.8393 43.7553 18.6135 43.9956 19.2942 43.782" fill="black"/>
<path d="M32.6134 40.4322C38.5532 40.2453 44.4663 39.8849 50.3794 39.351C52.9555 39.1241 52.9822 35.0664 50.3794 35.3066C44.4663 35.8272 38.5398 36.1876 32.6134 36.3878C30.0106 36.4679 29.9972 40.5256 32.6134 40.4322Z" fill="black"/>
<path d="M18.0592 58.6372C19.127 59.2111 20.355 58.7973 21.0357 57.8363C21.6764 56.942 22.1036 55.7807 22.5974 54.7797C23.2248 53.5116 23.8655 52.2569 24.4928 50.9889C25.6541 48.6664 22.157 46.6108 20.9957 48.9467C20.2749 50.3882 19.6209 51.99 18.8734 53.4983C18.7666 53.3514 18.6598 53.2046 18.553 53.0711C17.8589 52.2169 16.404 52.3637 15.6966 53.0711C14.8423 53.9121 15.0159 55.0867 15.6966 55.9276C16.3773 56.7818 17.0848 58.0899 18.0725 58.6238" fill="black"/>
<path d="M49.5611 56.982C52.1372 57.289 52.1239 53.2313 49.5611 52.9376C44.0217 52.2836 38.469 52.0167 32.8896 52.1501C30.2868 52.2035 30.2868 56.2479 32.8896 56.1945C38.469 56.0744 44.0084 56.328 49.5611 56.982Z" fill="black"/>
<path d="M23.8621 63.6293C23.0211 64.9908 22.1936 66.3522 21.3527 67.7137C20.9656 68.3544 20.5785 68.9818 20.178 69.6224C20.138 69.6758 20.1113 69.7426 20.0713 69.796C19.8977 69.4756 19.7509 69.1553 19.6041 68.875C18.4562 66.5391 14.9724 68.5813 16.107 70.9172C17.1214 72.9994 19.6575 76.5499 22.1268 74.0139C23.1813 72.9327 23.8754 71.3176 24.6629 70.0362C25.5572 68.5813 26.4382 67.1264 27.3325 65.6849C28.694 63.4558 25.1968 61.4269 23.8354 63.6426" fill="black"/>
<path d="M50.6639 67.7247C45.0444 68.6056 39.4784 66.7903 33.8456 67.8181C31.2828 68.2853 32.3773 72.1828 34.9268 71.7157C40.5062 70.6879 46.1256 72.5032 51.745 71.6222C54.3078 71.2218 53.2267 67.3243 50.6639 67.7247" fill="black"/>
</svg>
