<svg width="334" height="75" viewBox="0 0 334 75" fill="none" xmlns="http://www.w3.org/2000/svg">
<path d="M206.205 29.9693C206.768 32.8139 208.054 36.4831 210.734 37.9916C213.759 39.692 216.362 37.6976 218.901 36.1379L212.646 32.5518C212.78 34.4887 212.908 36.4255 213.042 38.3624C213.266 41.6736 216.355 43.3164 219.297 41.9485C220.621 41.3348 221.67 40.5486 222.77 39.5961C220.455 38.2473 218.14 36.8986 215.825 35.5562C215.262 37.02 215.057 38.4008 214.993 39.9605C214.808 44.3073 220.589 45.3045 222.738 42.0572C224.887 38.8099 226.032 35.4795 226.454 31.7464C226.761 29.0232 226.032 23.4236 229.652 22.8035L224.535 19.9014C225.06 22.8035 225.54 25.712 225.917 28.6333C226.205 30.8706 226.736 33.4403 225.578 35.4986C223.762 38.7395 226.755 42.4151 230.272 41.6033C236.962 40.05 243.562 38.1706 250.067 35.9589L245.372 29.8542C243.614 32.3025 241.676 34.5973 239.552 36.7388C237.634 38.6756 235.625 40.2545 235.286 43.1247C234.621 48.7691 238.676 55.1039 241.305 59.8278L246.991 54.145C243.876 52.0228 240.755 49.9069 237.64 47.7847C234.916 45.9309 231.871 43.3101 228.309 44.2114C225.603 44.8953 223.857 47.4715 221.593 48.9353C218.85 50.706 215.837 51.9589 212.812 53.167L217.507 59.2717C220.052 54.829 222.61 50.38 224.689 45.6944C226.326 41.9932 227.132 36.6045 230.311 33.9134L223.212 30.9729C223.333 37.883 223.448 44.7867 223.57 51.6968C223.627 54.9632 228.315 57.6161 230.669 54.6372C232.581 52.2145 234.218 49.7407 235.472 46.9153L227.727 44.8186L227.74 45.9437C226.767 51.2685 233.777 53.0903 235.76 48.1554C236.789 45.5857 237.64 42.9904 238.331 40.3121L231.385 42.1467L232.824 43.5849C236.61 47.3756 242.488 41.501 238.702 37.7104L237.263 36.2721C235.082 34.0859 231.097 35.064 230.317 38.1067C229.626 40.7851 228.776 43.3804 227.746 45.9501L235.766 48.1618C235.984 46.9792 236.124 46.0268 236.054 44.825C235.843 41.1175 230.119 38.6564 228.309 42.7284C227.362 44.8634 226.256 46.9345 224.804 48.7691L231.903 51.7096C231.782 44.7995 231.667 37.8958 231.545 30.9857C231.481 27.1822 227.138 25.7695 224.446 28.0452C220.692 31.2286 219.771 36.0867 217.98 40.4399C215.882 45.5282 213.081 50.3224 210.343 55.0847C208.693 57.9612 211.507 62.5957 215.038 61.1894C219.86 59.2653 224.683 57.322 228.718 53.9852C230.164 52.7899 229.818 52.368 231.372 53.5569C232.364 54.3176 233.457 54.976 234.487 55.6792C237.256 57.5649 240.032 59.4443 242.801 61.33C246.389 63.7655 250.406 59.0799 248.487 55.6472C247.368 53.64 246.21 51.6265 245.276 49.517C244.803 48.4495 244.381 47.3564 244.049 46.2313C243.825 45.4962 243.639 44.7611 243.492 44.0068C243.102 44.8122 243.115 44.9657 243.537 44.4671C246.492 40.9129 249.824 37.8574 252.555 34.0604C254.653 31.1391 251.167 26.8307 247.86 27.9557C241.356 30.1675 234.762 32.0532 228.066 33.6001L232.76 39.7048C236.393 33.2422 233.784 24.5486 232.556 17.7024C232.133 15.3437 229.486 14.4488 227.439 14.8003C223.007 15.561 219.975 19.4859 219.003 23.692C217.839 28.7484 218.555 33.338 215.55 37.8766L223.295 39.9733C223.288 39.1934 223.467 38.4647 223.832 37.7743C225.45 33.5618 219.707 31.2925 216.886 33.7344C216.355 34.201 215.761 34.5526 215.095 34.7891L221.35 38.3752C221.216 36.4383 221.088 34.5014 220.954 32.5646C220.749 29.541 217.545 27.227 214.699 28.9785C213.963 29.4259 212.697 30.4423 212 30.5574L215.204 30.9793C214.616 30.6916 214.328 28.3648 214.213 27.7831C213.177 22.5414 205.163 24.7596 206.193 29.9949L206.205 29.9693Z" fill="#F78F31"/>
<path d="M222.328 31.9004C223.377 25.3164 225.699 19.1797 229.28 13.5545H227.63C229.984 17.0831 230.956 21.5705 232.043 25.6168C232.452 27.1254 232.881 31.7982 234.646 32.5141C236.303 33.1917 240.172 31.0758 241.726 30.6092C246.062 29.3052 250.738 27.8477 255.311 28.0842L254.358 27.1254C254.684 30.1809 250.635 33.7223 248.723 35.6463C246.44 37.9476 243.856 40.5429 240.856 41.898C240.492 42.0642 240.294 42.6076 240.415 42.9783C242.654 49.6519 245.218 56.1976 248.103 62.6283L249.183 61.222C245.269 59.8796 241.771 57.4186 238.484 54.9575C236.296 53.3147 234.115 50.7897 231.704 49.4793C228.692 47.8429 225.347 51.7933 223.038 53.3658C218.382 56.5364 213.489 59.3299 208.43 61.8101L209.837 62.8904C211.264 58.55 212.952 54.3119 214.967 50.2144C216.016 48.0794 218.267 45.5608 217.57 43.0422C216.77 40.1593 213.784 37.4745 211.801 35.3906C208.584 32.0219 205.226 28.5509 204.791 23.6735L203.583 24.594C209.492 26.9528 215.255 29.5864 220.921 32.4758C222.015 33.0319 222.987 31.3827 221.887 30.8265C216.073 27.8605 210.151 25.1693 204.094 22.7467C203.544 22.5293 202.834 23.0918 202.885 23.6671C203.512 30.737 209.102 34.7514 213.285 39.8589C215.088 42.0578 215.984 43.3683 214.909 46.1553C214.225 47.926 213.112 49.6135 212.313 51.3459C210.65 54.9383 209.23 58.6267 207.989 62.3854C207.708 63.2356 208.693 63.8045 209.396 63.4657C214.116 61.1517 218.695 58.5692 223.07 55.6479C224.522 54.6826 228.833 50.5532 230.431 50.892C230.962 51.0007 231.775 52.0171 232.184 52.3558C237.147 56.5045 242.481 60.9407 248.678 63.063C249.548 63.3634 250.066 62.3534 249.759 61.6567C246.945 55.3794 244.457 48.9871 242.27 42.4669L241.829 43.5472C245.372 41.9428 248.518 38.6955 251.128 35.9084C253.123 33.7798 256.622 30.3599 256.276 27.119C256.219 26.582 255.886 26.1921 255.323 26.1602C251.575 25.962 247.776 26.9208 244.188 27.8989C241.215 28.7043 238.132 30.2001 235.081 30.6539C235.791 30.5453 235.414 31.2356 235.331 30.1681C235.286 29.5736 234.921 28.8513 234.755 28.276C234.25 26.4989 233.796 24.7027 233.297 22.9192C232.312 19.4099 231.327 15.6384 229.28 12.5701C228.877 11.9628 228.027 11.9436 227.63 12.5701C223.959 18.3296 221.561 24.6324 220.486 31.3763C220.294 32.578 222.136 33.0958 222.328 31.8813V31.9004Z" fill="black"/>
<path d="M277.672 52.5534C280.331 53.7132 284.079 54.7499 286.848 53.4097C289.97 51.8954 289.816 48.6208 289.982 45.6466L283.468 48.7377C285.136 49.7319 286.801 50.7312 288.469 51.7254C291.318 53.4296 294.43 51.8299 294.984 48.6343C295.234 47.1973 295.186 45.8878 295.031 44.4414C292.602 45.5734 290.173 46.7053 287.75 47.8409C288.632 49.1377 289.65 50.093 290.895 51.0349C294.361 53.6658 298.478 49.4871 297.035 45.871C295.592 42.2549 293.508 39.4159 290.681 36.9406C288.618 35.1358 283.6 32.5415 285.155 29.2157L279.852 31.762C282.536 32.9862 285.2 34.2508 287.816 35.6067C289.819 36.6461 292.234 37.6755 293.265 39.7996C294.892 43.139 299.62 42.7772 300.959 39.426C303.498 33.0473 305.718 26.5562 307.61 19.9543L299.915 20.328C300.924 23.1681 301.705 26.0679 302.254 29.0324C302.752 31.7122 302.904 34.2615 305.069 36.1764C309.329 39.941 316.847 40.2237 322.229 40.7589L320.801 32.8501C317.281 34.1974 313.762 35.5536 310.241 36.901C307.164 38.0811 303.274 39.0863 301.983 42.5253C301.002 45.1367 302.123 48.0392 302.035 50.7329C301.925 53.9954 301.237 57.1832 300.505 60.3561L308.199 59.9824C306 55.3591 303.802 50.7217 301.137 46.3432C299.029 42.8885 295.06 39.1541 294.661 35.0096L288.196 39.1621C293.944 43.0025 299.683 46.8444 305.432 50.6848C308.149 52.5001 313.003 50.1634 311.897 46.5324C310.997 43.5808 309.897 40.8258 308.29 38.1855L302.15 43.3495L303.082 43.9805C306.903 47.8149 312.398 43.0981 309.474 38.6563C307.949 36.3456 306.301 34.1673 304.494 32.0729L302.04 38.8221L304.043 38.4606C309.318 37.5132 307.842 29.3374 302.567 30.2849L300.565 30.6463C297.524 31.1905 296.056 35.0198 298.111 37.3955C299.918 39.4898 301.566 41.6681 303.091 43.9788L309.482 38.6547C308.635 37.8018 307.932 37.1432 306.904 36.5157C303.737 34.575 298.45 37.8717 300.764 41.6797C301.979 43.6743 303.05 45.7638 303.73 48.0019L310.195 43.8495C304.447 40.0091 298.707 36.1671 292.959 32.3267C289.797 30.2105 286.159 32.9707 286.494 36.4792C286.969 41.3769 290.436 44.9033 292.992 48.8559C295.978 53.4797 298.32 58.5135 300.673 63.4766C302.096 66.4717 307.509 66.8036 308.367 63.1029C309.536 58.0462 310.689 52.9786 310.249 47.7623C310.091 45.8939 309.547 45.9369 311.41 45.3387C312.601 44.9585 313.766 44.4359 314.931 43.9914C318.06 42.7928 321.188 41.5853 324.317 40.3866C328.365 38.8293 326.805 32.8597 322.889 32.4778C320.601 32.2523 318.286 32.0547 316.02 31.6185C314.873 31.3984 313.734 31.1218 312.62 30.7533C311.888 30.518 311.178 30.2511 310.474 29.9418C310.913 30.7214 311.047 30.7983 310.878 30.1674C309.642 25.7147 309.031 21.2364 307.468 16.829C306.264 13.4408 300.735 13.8462 299.774 17.2027C297.882 23.8045 295.671 30.294 293.124 36.6743L300.818 36.3006C297.579 29.6328 288.946 26.8183 282.619 23.9229C280.44 22.9245 278.194 24.5883 277.316 26.4692C275.413 30.5422 276.91 35.2694 279.812 38.466C283.304 42.3048 287.484 44.3337 289.5 49.3898L295.64 44.2258C294.995 43.7864 294.499 43.2239 294.139 42.5309C291.6 38.8003 286.46 42.2221 286.858 45.9303C286.939 46.6323 286.888 47.3211 286.703 48.0022L293.218 44.9111C291.549 43.9169 289.885 42.9175 288.216 41.9234C285.615 40.3674 281.886 41.6789 281.702 45.0145C281.65 45.8736 281.763 47.4929 281.46 48.1309L283.634 45.7405C283.062 46.0596 280.986 44.9692 280.442 44.732C275.544 42.5939 272.796 50.4388 277.686 52.5785L277.672 52.5534Z" fill="#F78F31"/>
<path d="M288.454 40.4153C283.641 35.7998 279.922 30.3944 277.342 24.2461L276.401 25.6009C280.643 25.6804 284.885 27.4409 288.831 28.8554C290.304 29.3795 294.389 31.6921 295.984 30.6509C297.485 29.6772 297.953 25.2936 298.456 23.7514C299.858 19.4474 301.326 14.7776 304.129 11.1577L302.797 11.3934C305.494 12.8678 306.096 18.2113 306.586 20.8786C307.175 24.0655 307.835 27.6669 307.238 30.9025C307.166 31.2966 307.5 31.7692 307.874 31.8809C314.635 33.8482 321.477 35.4747 328.407 36.7731L327.868 35.0837C324.532 37.5322 320.514 39.0014 316.617 40.2974C314.019 41.1566 310.701 41.5076 308.248 42.7402C305.186 44.2805 306.524 49.2795 306.5 52.072C306.45 57.7029 305.956 63.313 305.109 68.8811L306.799 68.3418C304.045 64.6958 301.525 60.8929 299.307 56.9023C298.15 54.8237 297.365 51.5391 294.897 50.6754C292.072 49.688 288.162 50.6095 285.319 51.0492C280.715 51.7698 275.948 52.5476 271.691 50.1237L271.759 51.641C277.067 48.1337 282.518 44.9039 288.125 41.8986C289.205 41.3177 288.404 39.5791 287.32 40.1653C281.567 43.2476 275.977 46.5759 270.532 50.1675C270.04 50.4952 270.097 51.3989 270.599 51.6849C276.767 55.2016 283.254 52.9008 289.837 52.3787C292.673 52.1516 294.26 52.1636 295.938 54.6351C297.003 56.2066 297.755 58.0826 298.723 59.7268C300.727 63.1406 302.948 66.4095 305.33 69.5715C305.868 70.2874 306.897 69.803 307.02 69.0322C307.81 63.8372 308.3 58.6046 308.394 53.3469C308.428 51.6045 307.493 45.7104 308.684 44.5907C309.076 44.2168 310.374 44.1294 310.886 43.9865C317.126 42.277 323.814 40.4268 329.093 36.5483C329.836 36.0054 329.301 35.0042 328.553 34.859C321.789 33.5903 315.117 31.9882 308.511 30.0664L309.147 31.0447C309.85 27.2205 308.975 22.7852 308.173 19.0535C307.562 16.2013 306.747 11.3787 303.886 9.81432C303.412 9.55541 302.902 9.60614 302.555 10.05C300.254 13.0144 298.876 16.6805 297.633 20.1842C296.599 23.0854 296.07 26.4694 294.703 29.2332C295.019 28.5883 295.371 29.2918 294.446 28.7513C293.932 28.4491 293.131 28.3366 292.563 28.1451C290.814 27.5467 289.079 26.8953 287.329 26.288C283.883 25.0956 280.222 23.7539 276.533 23.6848C275.804 23.6693 275.303 24.3568 275.592 25.0396C278.231 31.338 282.043 36.9012 286.973 41.6288C287.851 42.4716 289.327 41.2544 288.439 40.4043L288.454 40.4153Z" fill="black"/>
<path d="M121.216 52.1108C120.654 49.2662 119.368 45.597 116.688 44.0884C113.663 42.3881 111.06 44.3825 108.521 45.9422L114.776 49.5283C114.642 47.5914 114.514 45.6545 114.379 43.7177C114.156 40.4065 111.066 38.7636 108.124 40.1316C106.801 40.7453 105.752 41.5315 104.652 42.484C106.967 43.8327 109.282 45.1815 111.597 46.5239C112.16 45.0601 112.365 43.6793 112.429 42.1196C112.614 37.7728 106.833 36.7756 104.684 40.0229C102.535 43.2702 101.39 46.6006 100.968 50.3337C100.661 53.0568 101.39 58.6565 97.7699 59.2766L102.886 62.1787C102.362 59.2766 101.882 56.3681 101.505 53.4468C101.217 51.2095 100.686 48.6398 101.844 46.5814C103.66 43.3405 100.667 39.665 97.1496 40.4768C90.4597 42.0301 83.8594 43.9094 77.3551 46.1212L82.0495 52.2258C83.8083 49.7776 85.7461 47.4828 87.8695 45.3413C89.7882 43.4045 91.7964 41.8256 92.1354 38.9554C92.8005 33.311 88.7457 26.9762 86.1171 22.2523L80.4314 27.9351C83.546 30.0573 86.6671 32.1732 89.7818 34.2954C92.5063 36.1492 95.5507 38.77 99.113 37.8687C101.818 37.1847 103.564 34.6086 105.828 33.1448C108.572 31.3741 111.585 30.1212 114.61 28.9131L109.915 22.8084C107.37 27.2511 104.812 31.7001 102.733 36.3857C101.096 40.0868 100.29 45.4756 97.1112 48.1667L104.21 51.1072C104.089 44.1971 103.974 37.2934 103.852 30.3833C103.795 27.1168 99.1066 24.464 96.753 27.4428C94.8407 29.8655 93.2035 32.3394 91.9499 35.1648L99.695 37.2614L99.6822 36.1364C100.654 30.8116 93.6448 28.9898 91.6621 33.9247C90.6324 36.4944 89.7818 39.0896 89.0911 41.768L96.0367 39.9334L94.5977 38.4952C90.8115 34.7045 84.9339 40.5791 88.7201 44.3697L90.1591 45.808C92.34 47.9941 96.3245 47.0161 97.1048 43.9734C97.7955 41.295 98.6461 38.6997 99.6758 36.13L91.6557 33.9183C91.4383 35.1008 91.2976 36.0533 91.3679 37.255C91.579 40.9626 97.3031 43.4236 99.113 39.3517C100.06 37.2167 101.166 35.1456 102.618 33.311L95.5187 30.3705C95.6402 37.2806 95.7553 44.1843 95.8768 51.0944C95.9408 54.8978 100.283 56.3105 102.976 54.0349C106.73 50.8515 107.651 45.9933 109.442 41.6402C111.54 36.5519 114.341 31.7577 117.078 26.9954C118.728 24.1188 115.914 19.4844 112.384 20.8907C107.562 22.8148 102.739 24.7581 98.7037 28.0949C97.2583 29.2902 97.6037 29.7121 96.0495 28.5231C95.0582 27.7625 93.9645 27.1041 92.9348 26.4009C90.1655 24.5152 87.3898 22.6358 84.6205 20.7501C81.0325 18.3146 77.0161 23.0002 78.9348 26.4329C80.054 28.44 81.2116 30.4536 82.1454 32.5631C82.6187 33.6306 83.0408 34.7237 83.3733 35.8487C83.5972 36.5839 83.7827 37.319 83.9298 38.0733C84.3199 37.2678 84.3071 37.1144 83.885 37.613C80.9302 41.1671 77.5981 44.2227 74.8671 48.0197C72.7694 50.941 76.255 55.2494 79.5615 54.1244C86.0659 51.9126 92.6598 50.0269 99.3561 48.4799L94.6617 42.3753C91.0289 48.8379 93.6384 57.5315 94.8663 64.3776C95.2884 66.7364 97.9362 67.6313 99.9828 67.2797C104.415 66.5191 107.447 62.5942 108.419 58.388C109.583 53.3317 108.866 48.742 111.872 44.2035L104.127 42.1068C104.134 42.8867 103.955 43.6154 103.59 44.3058C101.972 48.5183 107.715 50.7876 110.536 48.3457C111.066 47.8791 111.661 47.5275 112.326 47.291L106.071 43.7049C106.206 45.6418 106.334 47.5786 106.468 49.5155C106.673 52.5391 109.877 54.8531 112.723 53.1016C113.458 52.6541 114.725 51.6378 115.422 51.5227L112.218 51.1008C112.806 51.3885 113.094 53.7153 113.209 54.297C114.245 59.5387 122.259 57.3205 121.229 52.0852L121.216 52.1108Z" fill="#F78F31"/>
<path d="M105.093 50.1796C104.044 56.7637 101.722 62.9003 98.1406 68.5256L99.7907 68.5256C97.4371 64.997 96.465 60.5096 95.3777 56.4633C94.9684 54.9547 94.5399 50.2819 92.7747 49.566C91.1182 48.8884 87.2489 51.0042 85.6947 51.4709C81.3585 52.7749 76.6833 54.2324 72.1104 53.9958L73.0633 54.9547C72.7372 51.8992 76.7856 48.3578 78.6979 46.4337C80.9811 44.1325 83.565 41.5372 86.5645 40.1821C86.9291 40.0159 87.1273 39.4725 87.0058 39.1018C84.7674 32.4282 82.2027 25.8825 79.3183 19.4518L78.2374 20.8581C82.1515 22.2005 85.65 24.6615 88.9373 27.1226C91.1246 28.7654 93.3055 31.2904 95.7167 32.6008C98.729 34.2372 102.074 30.2868 104.383 28.7142C109.039 25.5437 113.931 22.7502 118.99 20.27L117.583 19.1897C116.157 23.5301 114.469 27.7682 112.454 31.8657C111.405 34.0007 109.154 36.5193 109.851 39.0378C110.651 41.9208 113.637 44.6055 115.62 46.6894C118.837 50.0582 122.195 53.5292 122.63 58.4065L123.838 57.486C117.929 55.1273 112.166 52.4936 106.5 49.6043C105.406 49.0482 104.434 50.6974 105.534 51.2535C111.348 54.2196 117.27 56.9107 123.327 59.3334C123.877 59.5508 124.587 58.9882 124.535 58.4129C123.909 51.343 118.319 47.3287 114.136 42.2212C112.333 40.0222 111.437 38.7118 112.512 35.9248C113.196 34.1541 114.309 32.4665 115.108 30.7342C116.771 27.1417 118.191 23.4534 119.432 19.6947C119.713 18.8445 118.728 18.2756 118.025 18.6144C113.305 20.9284 108.725 23.5109 104.351 26.4322C102.899 27.3974 98.5883 31.5269 96.9894 31.1881C96.4586 31.0794 95.6463 30.063 95.237 29.7242C90.274 25.5756 84.94 21.1394 78.7427 19.0171C77.8728 18.7167 77.3548 19.7267 77.6618 20.4234C80.4759 26.7007 82.9638 33.093 85.1511 39.6131L85.5924 38.5328C82.0492 40.1373 78.9025 43.3846 76.2931 46.1717C74.2977 48.3003 70.7993 51.7202 71.1446 54.9611C71.2022 55.498 71.5348 55.888 72.0976 55.9199C75.8454 56.1181 79.6444 55.1592 83.2324 54.1812C86.2064 53.3758 89.2891 51.88 92.3398 51.4261C91.6299 51.5348 92.0072 50.8444 92.0904 51.912C92.1351 52.5064 92.4997 53.2288 92.666 53.8041C93.1712 55.5811 93.6253 57.3774 94.1242 59.1608C95.1091 62.6702 96.094 66.4417 98.1406 69.51C98.5436 70.1173 99.3942 70.1364 99.7907 69.51C103.462 63.7505 105.86 57.4477 106.935 50.7038C107.127 49.502 105.285 48.9843 105.093 50.1988L105.093 50.1796Z" fill="black"/>
<path d="M139.398 48.47C141.788 50.1132 145.272 51.842 148.244 51.0513C151.598 50.1567 152.067 46.9123 152.795 44.0237L145.812 45.823C147.262 47.1155 148.707 48.4125 150.156 49.705C152.63 51.9188 155.989 50.9384 157.139 47.9057C157.657 46.5424 157.859 45.2475 157.981 43.798C155.381 44.4487 152.781 45.0993 150.186 45.7546C150.806 47.1952 151.625 48.3263 152.669 49.4873C155.573 52.7279 160.408 49.406 159.677 45.5818C158.946 41.7576 157.439 38.5748 155.132 35.6083C153.449 33.4449 149.015 29.946 151.172 26.9754L145.482 28.4697C147.886 30.1807 150.261 31.9276 152.572 33.7551C154.342 35.1556 156.517 36.6243 157.127 38.9055C158.092 42.493 162.802 43.0345 164.752 39.9981C168.455 34.2168 171.866 28.2646 174.976 22.1415L167.35 21.0489C167.802 24.0288 168.019 27.024 167.995 30.0388C167.976 32.7643 167.641 35.2962 169.404 37.5871C172.872 42.0912 180.201 43.795 185.383 45.3412L185.482 37.3052C181.769 37.9603 178.057 38.6244 174.345 39.2796C171.1 39.8545 167.089 40.1036 165.17 43.2353C163.711 45.6132 164.262 48.6757 163.664 51.3038C162.937 54.4863 161.657 57.4856 160.336 60.4619L167.961 61.5545C166.679 56.598 165.401 51.628 163.615 46.8235C162.201 43.0316 159.012 38.6122 159.407 34.4673L152.271 37.318C157.186 42.179 162.093 47.0399 167.008 51.9008C169.332 54.1986 174.541 52.825 174.144 49.0502C173.82 45.9814 173.263 43.0679 172.186 40.1707L165.177 44.0762L165.973 44.8725C168.997 49.3622 175.287 45.7734 173.258 40.8574C172.2 38.2994 170.995 35.8481 169.618 33.449L165.929 39.6102L167.964 39.6352C173.322 39.7055 173.424 31.3983 168.066 31.328L166.031 31.303C162.942 31.2606 160.774 34.7418 162.341 37.4642C163.718 39.8634 164.923 42.3146 165.982 44.8726L173.267 40.8575C172.597 39.8593 172.032 39.0794 171.142 38.2684C168.4 35.7621 162.584 37.9961 164.133 42.1738C164.948 44.3627 165.603 46.6173 165.846 48.9438L172.981 46.0931C168.066 41.2321 163.16 36.3713 158.244 31.5103C155.541 28.8327 151.446 30.8528 151.109 34.361C150.646 39.2599 153.381 43.3799 155.142 47.7456C157.196 52.8517 158.54 58.2385 159.909 63.5577C160.738 66.7683 165.99 68.1211 167.534 64.6503C169.641 59.9071 171.735 55.1502 172.292 49.9451C172.491 48.0806 171.949 48.0197 173.892 47.7859C175.133 47.6384 176.376 47.3462 177.604 47.1308C180.904 46.5475 184.204 45.9551 187.504 45.3718C191.774 44.6105 191.374 38.4534 187.602 37.3358C185.399 36.6804 183.163 36.0472 181.021 35.1892C179.936 34.7555 178.87 34.2677 177.846 33.6946C177.172 33.3247 176.526 32.928 175.894 32.4909C176.177 33.3396 176.294 33.4405 176.247 32.789C175.879 28.1827 176.129 23.6699 175.43 19.046C174.89 15.4909 169.385 14.8402 167.805 17.9535C164.695 24.0766 161.293 30.0289 157.581 35.8101L165.207 36.9027C163.291 29.7415 155.349 25.3406 149.686 21.2977C147.736 19.9041 145.215 21.1117 143.996 22.7919C141.355 26.43 141.928 31.3553 144.171 35.0443C146.871 39.4758 150.591 42.2608 151.611 47.6074L158.619 43.7019C158.07 43.1482 157.689 42.5016 157.467 41.753C155.682 37.6085 149.986 39.9932 149.673 43.7096C149.619 44.4141 149.439 45.0809 149.129 45.7145L156.111 43.9152C154.662 42.6226 153.217 41.3256 151.767 40.0331C149.508 38.0119 145.598 38.5922 144.785 41.8324C144.571 42.6661 144.375 44.2774 143.956 44.8464L146.544 42.9118C145.922 43.1166 144.09 41.6521 143.602 41.3161C139.197 38.2877 135.012 45.4689 139.407 48.4973L139.398 48.47Z" fill="#F78F31"/>
<path d="M152.286 38.5975C148.436 33.1529 145.81 27.1402 144.443 20.614L143.262 21.7658C147.412 22.6485 151.243 25.1817 154.849 27.3189C156.196 28.1129 159.767 31.1583 161.531 30.4386C163.19 29.7674 164.481 25.5521 165.267 24.1333C167.46 20.1732 169.788 15.8668 173.226 12.8441L171.874 12.823C174.242 14.7823 173.819 20.1428 173.795 22.8547C173.769 26.0955 173.733 29.7566 172.533 32.8203C172.388 33.1937 172.626 33.721 172.972 33.9015C179.237 37.1156 185.646 40.0104 192.204 42.5997L191.995 40.8387C188.256 42.61 184.032 43.2905 179.96 43.8236C177.246 44.1746 173.921 43.8897 171.28 44.6348C167.98 45.5661 168.347 50.7284 167.793 53.4655C166.676 58.9847 165.126 64.3992 163.238 69.7056L165 69.4967C162.988 65.3946 161.235 61.1827 159.814 56.8437C159.073 54.5835 158.924 51.2095 156.666 49.8934C154.079 48.388 150.065 48.5512 147.19 48.4436C142.534 48.278 137.705 48.1374 133.986 44.95L133.764 46.4526C139.642 44.0159 145.606 41.8787 151.681 39.9914C152.852 39.626 152.396 37.7671 151.22 38.1369C144.986 40.0719 138.867 42.2796 132.839 44.7732C132.294 45.0016 132.179 45.8997 132.617 46.2758C138.006 50.8985 144.812 49.87 151.374 50.606C154.202 50.921 155.758 51.2339 156.936 53.9787C157.684 55.7237 158.067 57.7083 158.705 59.5062C160.025 63.2382 161.586 66.8691 163.324 70.4254C163.717 71.2303 164.819 70.95 165.086 70.2165C166.847 65.2657 168.321 60.2209 169.41 55.0765C169.775 53.3723 169.975 47.4078 171.356 46.5342C171.812 46.2415 173.103 46.402 173.633 46.3588C180.084 45.8639 187.001 45.3159 192.92 42.5091C193.752 42.117 193.418 41.0325 192.711 40.7481C186.311 38.2195 180.063 35.3808 173.942 32.2409L174.381 33.3221C175.796 29.7006 175.779 25.18 175.699 21.3638C175.64 18.4474 175.754 13.5577 173.242 11.4792C172.826 11.135 172.316 11.0881 171.89 11.4581C169.07 13.9323 167.02 17.2703 165.136 20.4747C163.57 23.1271 162.409 26.3494 160.543 28.8037C160.975 28.2304 161.187 28.9879 160.382 28.2818C159.934 27.8876 159.169 27.6251 158.648 27.3294C157.044 26.4101 155.464 25.4415 153.861 24.5132C150.704 22.6889 147.364 20.677 143.755 19.9094C143.042 19.756 142.42 20.3361 142.574 21.0612C143.971 27.7459 146.658 33.9312 150.601 39.508C151.304 40.5021 152.984 39.587 152.273 38.5837L152.286 38.5975Z" fill="black"/>
<path d="M15.4859 48.47C17.8764 50.1132 21.3603 51.842 24.3324 51.0513C27.6857 50.1567 28.1551 46.9123 28.8826 44.0237L21.9 45.823C23.3495 47.1155 24.7944 48.4125 26.2439 49.705C28.7178 51.9188 32.0767 50.9384 33.2265 47.9057C33.7453 46.5424 33.9466 45.2475 34.0684 43.798C31.4689 44.4487 28.8694 45.0993 26.2743 45.7546C26.8943 47.1952 27.7126 48.3263 28.7567 49.4873C31.6612 52.7279 36.4961 49.406 35.7651 45.5818C35.0342 41.7576 33.5265 38.5748 31.2201 35.6083C29.537 33.4449 25.1025 29.946 27.2601 26.9754L21.5702 28.4697C23.9734 30.1807 26.349 31.9276 28.6603 33.7551C30.4296 35.1556 32.6051 36.6243 33.2149 38.9055C34.1794 42.493 38.89 43.0345 40.8404 39.9981C44.5431 34.2168 47.9539 28.2646 51.0638 22.1415L43.4383 21.0489C43.8902 24.0288 44.1067 27.024 44.0833 30.0388C44.0634 32.7643 43.7293 35.2962 45.4922 37.5871C48.9601 42.0912 56.2887 43.795 61.4709 45.3412L61.5695 37.3052C57.8573 37.9603 54.145 38.6244 50.4329 39.2796C47.1875 39.8545 43.1773 40.1036 41.2574 43.2353C39.7991 45.6132 40.3494 48.6757 39.7518 51.3038C39.0253 54.4863 37.7447 57.4856 36.4238 60.4619L44.0493 61.5545C42.7668 56.598 41.4891 51.628 39.7028 46.8235C38.2885 43.0316 35.0999 38.6122 35.4945 34.4673L28.3588 37.318C33.2742 42.179 38.1805 47.0399 43.0959 51.9008C45.4195 54.1986 50.6284 52.825 50.2315 49.0502C49.9074 45.9814 49.3507 43.0679 48.2736 40.1707L41.2652 44.0762L42.0605 44.8725C45.0854 49.3622 51.3753 45.7734 49.3461 40.8574C48.2876 38.2994 47.0829 35.8481 45.7058 33.449L42.0165 39.6102L44.0514 39.6352C49.41 39.7055 49.512 31.3983 44.1534 31.328L42.1185 31.303C39.0299 31.2606 36.8615 34.7418 38.4292 37.4642C39.8063 39.8634 41.0109 42.3146 42.0695 44.8726L49.3552 40.8575C48.6845 39.8593 48.1197 39.0794 47.2296 38.2684C44.4879 35.7621 38.6714 37.9961 40.2212 42.1738C41.0355 44.3627 41.6908 46.6173 41.9336 48.9438L49.0693 46.0931C44.154 41.2321 39.2476 36.3713 34.3323 31.5103C31.6289 28.8327 27.5336 30.8528 27.1966 34.361C26.7339 39.2599 29.4694 43.3799 31.2294 47.7456C33.2834 52.8517 34.6284 58.2385 35.9968 63.5577C36.8258 66.7683 42.0782 68.1211 43.6223 64.6503C45.7293 59.9071 47.8229 55.1502 48.3798 49.9451C48.5791 48.0806 48.0371 48.0197 49.9802 47.7859C51.2213 47.6384 52.4641 47.3462 53.6924 47.1308C56.9921 46.5475 60.2919 45.9551 63.5916 45.3718C67.8614 44.6105 67.4621 38.4534 63.6903 37.3358C61.4867 36.6804 59.2512 36.0472 57.1089 35.1892C56.0242 34.7555 54.9583 34.2677 53.9342 33.6946C53.2603 33.3247 52.6139 32.928 51.9816 32.4909C52.2651 33.3396 52.3815 33.4405 52.3352 32.789C51.9666 28.1827 52.2165 23.6699 51.5179 19.046C50.9781 15.4909 45.4729 14.8402 43.8924 17.9535C40.7825 24.0766 37.3807 30.0289 33.6689 35.8101L41.2944 36.9027C39.3788 29.7415 31.4366 25.3406 25.7739 21.2977C23.8237 19.9041 21.3032 21.1117 20.0841 22.7919C17.4434 26.43 18.0161 31.3553 20.2594 35.0443C22.9593 39.4758 26.679 42.2608 27.6989 47.6074L34.7073 43.7019C34.1578 43.1482 33.7768 42.5016 33.5553 41.753C31.7699 37.6085 26.0737 39.9932 25.7612 43.7096C25.7073 44.4141 25.5273 45.0809 25.2165 45.7145L32.1991 43.9152C30.7496 42.6226 29.3046 41.3256 27.8551 40.0331C25.5959 38.0119 21.6857 38.5922 20.8725 41.8324C20.6588 42.6661 20.4626 44.2774 20.0441 44.8464L22.6322 42.9118C22.0101 43.1166 20.1783 41.6521 19.6894 41.3161C15.2852 38.2877 11.0995 45.4689 15.4946 48.4973L15.4859 48.47Z" fill="#F78F31"/>
<path d="M28.3738 38.5975C24.5239 33.1529 21.8977 27.1402 20.5305 20.614L19.3495 21.7658C23.4996 22.6485 27.3309 25.1817 30.9364 27.3189C32.2835 28.1129 35.8553 31.1583 37.6189 30.4386C39.278 29.7674 40.5689 25.5521 41.3552 24.1333C43.5476 20.1732 45.8754 15.8668 49.3136 12.8441L47.9616 12.823C50.33 14.7823 49.907 20.1428 49.8827 22.8547C49.8565 26.0955 49.8206 29.7566 48.6207 32.8203C48.4759 33.1937 48.7137 33.721 49.0597 33.9015C55.3249 37.1156 61.7343 40.0104 68.2922 42.5997L68.0831 40.8387C64.3437 42.61 60.1202 43.2905 56.0477 43.8236C53.3342 44.1746 50.009 43.8897 47.3676 44.6348C44.0681 45.5661 44.4344 50.7284 43.8807 53.4655C42.7637 58.9847 41.2138 64.3992 39.326 69.7056L41.0879 69.4967C39.0759 65.3946 37.323 61.1827 35.9019 56.8437C35.1607 54.5835 35.0122 51.2095 32.7534 49.8934C30.1668 48.388 26.1531 48.5512 23.278 48.4436C18.6216 48.278 13.793 48.1374 10.0737 44.95L9.85175 46.4526C15.7296 44.0159 21.6942 41.8787 27.7688 39.9914C28.9401 39.626 28.4835 37.7671 27.3076 38.1369C21.0741 40.0719 14.9549 42.2796 8.92711 44.7732C8.38158 45.0016 8.26653 45.8997 8.70514 46.2758C14.0938 50.8985 20.8996 49.87 27.4621 50.606C30.2895 50.921 31.846 51.2339 33.0244 53.9787C33.7718 55.7237 34.1545 57.7083 34.7928 59.5062C36.1128 63.2382 37.6739 66.8691 39.4122 70.4254C39.8048 71.2303 40.9073 70.95 41.1741 70.2165C42.9354 65.2657 44.4084 60.2209 45.4982 55.0765C45.8628 53.3723 46.0627 47.4078 47.4438 46.5342C47.8997 46.2415 49.1912 46.402 49.7209 46.3588C56.1719 45.8639 63.0894 45.3159 69.0079 42.5091C69.8404 42.117 69.5054 41.0325 68.7989 40.7481C62.3985 38.2195 56.1513 35.3808 50.0298 32.2409L50.4689 33.3221C51.8837 29.7006 51.8668 25.18 51.787 21.3638C51.7278 18.4474 51.8421 13.5577 49.3304 11.4792C48.914 11.135 48.4035 11.0881 47.9783 11.4581C45.1574 13.9323 43.1083 17.2703 41.2237 20.4747C39.658 23.1271 38.4968 26.3494 36.6304 28.8037C37.0626 28.2304 37.2749 28.9879 36.4695 28.2818C36.0221 27.8876 35.2564 27.6251 34.7354 27.3294C33.1321 26.4101 31.552 25.4415 29.9487 24.5132C26.7916 22.6889 23.4514 20.677 19.8426 19.9094C19.1299 19.756 18.5077 20.3361 18.6616 21.0612C20.0585 27.7459 22.746 33.9312 26.6892 39.508C27.3916 40.5021 29.0717 39.587 28.3604 38.5837L28.3738 38.5975Z" fill="black"/>
</svg>
