<svg width="137" height="136" viewBox="0 0 137 136" fill="none" xmlns="http://www.w3.org/2000/svg">
<path d="M61.6426 98.6197C62.1719 99.4988 62.6356 100.423 63.016 101.378L71.4416 93.6946C69.4396 92.6205 67.8709 91.3126 66.1985 89.7813C61.1501 85.1482 54.2059 90.2222 56.5955 96.4874C56.7871 97.0972 57.0489 97.6711 57.3676 98.2267C60.1259 103.594 67.9667 101.557 68.5199 95.8491C68.769 93.2971 70.2055 91.0094 70.8695 88.5541C71.7029 85.4805 71.979 82.1842 71.9747 79.0099C71.9671 72.3617 70.3719 66.2639 66.1798 61.0358L57.4848 69.035C61.0579 73.2309 59.7368 77.983 61.4227 82.7281C62.9497 87.0347 66.9664 89.1432 71.3753 89.3014C75.3438 89.4424 79.3699 88.4248 83.1076 87.2123C85.6784 86.3782 90.6967 83.113 93.1571 84.2393L90.9641 74.2649C87.1903 77.3886 84.6856 81.4096 84.0483 86.2861C83.6054 89.6239 86.6619 92.1041 89.6251 92.5072C94.299 93.1379 97.904 91.4734 100.792 87.8972L90.8247 81.553C89.3477 83.7619 87.5707 85.9038 87.3593 88.6798C87.2365 90.3146 88.1678 91.7176 88.1711 93.2101C88.1769 93.7384 87.5377 95.2512 87.489 95.6304C86.7459 101.679 92.0269 103.857 96.8285 104.887L95.9333 94.0136C88.4519 98.6885 80.7837 103.194 72.8758 107.125C68.4884 109.313 74.4716 108.507 74.1941 108.893C74.3936 108.614 72.0488 104.805 71.8553 104.428C69.9164 100.699 67.9821 96.9777 66.1308 93.203C64.2737 96.0722 62.4122 98.9325 60.5551 101.802C66.1626 102.052 70.8897 107.481 76.2484 109.122C79.089 109.997 82.9685 108.457 83.682 105.301C84.6931 100.786 83.1403 94.9432 81.3719 90.7053C81.0825 90.0129 80.4885 88.0602 79.8406 87.5963C76.4031 91.6761 75.9945 93.336 78.6188 92.5629C79.2046 92.5829 79.7948 92.6115 80.3766 92.6667C81.8017 92.9416 80.3683 92.7153 80.3152 92.2888C80.4796 93.621 80.0905 95.0606 79.7082 96.3196C77.5169 103.6 88.7577 107.231 90.962 99.9331C92.4187 95.1003 93.0917 88.678 89.5151 84.5614C86.4514 81.0334 80.6309 80.2393 76.2145 80.9926C71.5389 81.8017 67.2776 85.4415 68.4399 90.6107C68.8798 92.5651 70.1355 94.233 70.7505 96.0974C71.1421 97.2686 71.3851 98.5383 71.6626 99.746C71.8288 100.435 71.9969 103.692 72.4369 101.683L79.8706 97.8632C73.1423 95.7979 68.6921 90.3261 61.2082 89.9994C56.6755 89.7942 53.664 94.5737 55.6326 98.5981C58.1686 103.77 60.6362 109.131 63.5835 114.07C65.4362 117.179 67.8768 119.688 71.725 119.703C76.0619 119.721 80.5606 116.457 84.2063 114.484C90.0272 111.338 95.7315 108.008 101.346 104.503C105.198 102.091 105.932 94.7967 100.451 93.629C99.7181 93.4742 98.0367 92.7223 97.3576 93.016C98.2718 97.2502 99.0971 98.2317 99.8294 95.9738C99.9539 95.2899 100.087 94.6016 100.212 93.9178C100.349 92.3533 99.8301 91.2583 99.5716 89.7863C99.2825 88.7284 99.204 88.7909 99.3447 89.9693C99.8657 89.3031 100.342 88.6154 100.797 87.9059C105.115 81.4477 95.4937 75.7777 90.8292 81.5618C91.9309 80.8628 91.7429 80.583 90.2739 80.7182L95.8506 86.9392C96.0662 85.3342 97.8162 83.9368 98.9724 82.9774C102.737 79.8582 100.51 74.7052 96.7795 73.003C90.0268 69.9209 82.836 75.3982 76.3145 76.9013C74.7511 77.262 73.2596 77.3534 71.6807 77.5118C71.1075 77.4301 71.1839 77.5789 71.9147 77.967C72.6058 78.7519 72.7795 78.5298 72.4359 77.3229C72.6345 76.5678 72.2935 75.1935 72.1792 74.4111C71.4938 69.3731 69.4719 64.9002 66.1931 61.0401C61.2416 55.2171 52.7659 63.1479 57.4981 69.0393C64.0072 77.1608 57.5611 86.6717 56.7354 95.209C60.4558 94.4149 64.1674 93.6254 67.8878 92.8314C67.569 92.2758 67.3073 91.7018 67.1156 91.092L57.5125 97.798C59.8966 99.9819 62.2451 102.14 65.1019 103.671C70.2707 106.449 76.0143 101.494 73.5274 95.9874C73.1383 95.0363 72.6878 94.1167 72.154 93.2288C68.5009 86.5726 57.9805 91.946 61.6471 98.6284L61.6426 98.6197Z" fill="white"/>
<path d="M97.5444 51.9679C97.5607 50.2551 97.2637 48.0834 96.1218 46.7444C94.9799 45.4053 93.1593 45.201 91.4959 45.281C91.4651 45.2858 91.4344 45.2905 91.3948 45.2997C91.3728 45.2999 91.3463 45.2915 91.3156 45.2962C90.2818 45.3737 89.0293 45.5856 87.7801 45.6963C86.3789 44.0035 84.982 42.2975 83.6113 40.578C84.8819 40.0136 86.2283 39.9415 87.5728 40.4901C87.8382 40.5973 88.1844 40.4525 88.3403 40.2175C88.9764 39.2154 89.6213 38.2088 90.2574 37.2068C90.3743 37.025 90.4152 36.7383 90.2854 36.5505C89.9224 35.9733 88.9249 35.7554 88.3154 35.5816C87.0214 35.2173 85.6896 35.4258 84.4489 35.8974C83.3352 36.3148 82.3653 36.9903 81.6306 37.8437C80.9873 37.0011 80.3439 36.1585 79.7094 35.3114C79.2043 34.6302 78.2281 35.5303 78.7331 36.2116C79.4214 37.1417 80.1273 38.0629 80.8287 38.9753C80.2806 39.9764 79.9938 41.1199 80.0468 42.3213C78.556 45.6663 80.1949 50.5353 84.2719 50.9304C86.079 51.1086 87.7788 50.3457 89.4768 49.8162C90.8695 51.5355 92.2491 53.2725 93.6071 55.0318C93.3129 55.1055 93.014 55.1484 92.7101 55.1386C91.2966 55.1234 90.6843 54.298 89.6372 53.5743C89.1048 53.206 88.5853 53.2074 88.057 53.6007C87.118 54.2935 86.358 55.6359 85.6151 56.5379C85.4457 56.7467 85.4856 57.1689 85.6856 57.3428C87.7976 59.2126 90.7372 59.8714 93.3888 58.7854C94.112 58.4912 94.8248 58.0474 95.466 57.5076C95.9488 58.167 96.4274 58.8398 96.8972 59.517C97.3759 60.2118 98.5624 59.6131 98.0792 58.9096C97.5289 58.1188 96.9698 57.3324 96.4065 56.5594C97.4664 55.2621 98.0427 53.6267 97.5489 51.9767L97.5444 51.9679ZM96.0191 52.9842C95.7616 53.5815 95.3445 54.0836 94.8333 54.4458C93.5467 52.7606 92.225 51.0934 90.8859 49.4351C91.6328 49.2948 92.3984 49.2555 93.132 49.4983C94.3737 49.9117 95.5747 51.0211 96.2039 52.1809C96.1761 52.4498 96.1175 52.7234 96.0234 52.971L96.0191 52.9842ZM81.4144 42.5704C81.7259 42.0782 82.0779 41.6649 82.5053 41.2903C83.7019 42.8004 84.9203 44.2883 86.1343 45.7674C83.9239 45.7522 81.9664 45.1091 81.4144 42.5704ZM84.872 37.1299C85.8408 36.7538 86.9087 36.5702 87.9198 36.8364C88.1362 36.8912 88.3573 36.9769 88.5651 37.0582C88.6048 37.071 88.6669 37.1055 88.7377 37.1355C88.3353 37.774 87.9241 38.417 87.5217 39.0554C85.7632 38.4981 83.8955 38.8049 82.3124 39.7734C82.2774 39.7914 82.2469 39.8182 82.2163 39.845C82.1988 39.854 82.1813 39.863 82.1638 39.872C81.9847 39.9972 81.8275 40.1222 81.6662 40.2605C82.2096 38.8412 83.4208 37.6875 84.872 37.1299ZM83.0637 49.1827C81.4377 48.2585 80.6419 46.3653 80.7892 44.5629C81.5292 45.7875 82.7316 46.6195 84.2805 46.9414C85.322 47.1588 86.3697 47.1517 87.421 47.0652C87.4916 47.0732 87.5531 47.0637 87.6234 47.0497C88.9121 46.9298 90.1996 46.6998 91.4752 46.5977C92.7426 46.544 94.2707 46.5667 95.1455 47.6445C95.6008 48.2074 95.887 49.0012 96.0458 49.8271C95.3159 49.1176 94.4379 48.5505 93.5453 48.2566C92.3611 47.869 91.1474 48.0057 89.9665 48.3138C89.7657 48.0739 89.5692 47.8207 89.3684 47.5808C88.8283 46.9175 87.8521 47.8177 88.3921 48.4809C88.4591 48.5682 88.5304 48.6423 88.5974 48.7296C86.8691 49.3079 84.805 50.1804 83.0727 49.2002L83.0637 49.1827ZM92.7814 57.6033C90.8699 58.3422 88.7129 57.9786 87.0927 56.7857C87.4618 56.3194 87.8221 55.8575 88.218 55.4216C88.3834 55.2481 88.6861 54.7604 88.9768 54.766C89.0781 54.7693 89.5284 55.2794 89.5907 55.336C90.3946 55.9743 91.403 56.3858 92.4428 56.4492C93.2974 56.4969 94.1144 56.3206 94.8414 55.9691C94.8764 55.9511 94.9114 55.9331 94.9464 55.9151C95.1303 55.8206 95.301 55.7219 95.4626 55.6056C94.7725 56.5026 93.7765 57.2137 92.7856 57.5901L92.7814 57.6033Z" fill="black" stroke="#231F20" stroke-width="0.653539" stroke-miterlimit="10"/>
<path d="M104.145 27.1812C104.162 25.9439 103.947 24.3833 103.122 23.4238C102.297 22.4643 100.992 22.3159 99.8036 22.373C99.7816 22.3733 99.7508 22.378 99.7333 22.387C99.7157 22.396 99.698 22.383 99.676 22.3833C98.9326 22.4443 98.0361 22.5951 97.1344 22.6711C96.1302 21.4494 95.1261 20.2278 94.1395 18.9971C95.0463 18.5864 96.0188 18.5405 96.9874 18.9392C97.182 19.0163 97.4274 18.9123 97.54 18.7437C97.9987 18.021 98.4574 17.2983 98.9206 16.5843C99.0072 16.4513 99.0358 16.2485 98.9417 16.1086C98.6775 15.7021 97.9624 15.5383 97.5207 15.4111C96.5888 15.1484 95.6396 15.3042 94.745 15.6311C93.947 15.9305 93.2568 16.4181 92.7176 17.0272C92.253 16.4248 91.7972 15.8178 91.3414 15.2109C90.9794 14.7218 90.2821 15.3679 90.6441 15.857C91.1402 16.5207 91.6495 17.1887 92.1543 17.8479C91.7571 18.5612 91.5505 19.3868 91.5866 20.2538C90.5168 22.6519 91.6959 26.1523 94.6225 26.4413C95.9184 26.5723 97.1406 26.0216 98.3603 25.6382C99.3602 26.8731 100.356 28.1213 101.325 29.383C101.119 29.4337 100.904 29.4669 100.679 29.4606C99.6574 29.4543 99.2281 28.8559 98.4739 28.3359C98.0967 28.0759 97.7181 28.0713 97.3425 28.3528C96.6701 28.8534 96.1215 29.8104 95.5828 30.4636C95.4612 30.6146 95.4954 30.9181 95.6377 31.0442C97.1583 32.3878 99.2724 32.8619 101.175 32.0836C101.696 31.8709 102.208 31.5526 102.661 31.1646C103.006 31.6407 103.35 32.1167 103.69 32.6061C104.035 33.1042 104.888 32.6765 104.539 32.1696C104.145 31.5972 103.747 31.0381 103.336 30.4747C104.096 29.5417 104.51 28.3659 104.158 27.1855L104.145 27.1812ZM103.048 27.9111C102.868 28.3357 102.568 28.7001 102.197 28.9683C101.272 27.7502 100.325 26.5543 99.3612 25.3674C99.8973 25.269 100.447 25.2409 100.969 25.4156C101.861 25.7096 102.724 26.5057 103.178 27.346C103.158 27.5444 103.121 27.7297 103.053 27.9198L103.048 27.9111ZM92.5527 20.4324C92.7734 20.0865 93.0254 19.7799 93.3306 19.5124C94.1967 20.5947 95.0671 21.6637 95.9375 22.7328C94.3479 22.7196 92.9471 22.2552 92.544 20.4369L92.5527 20.4324ZM95.0366 16.5217C95.7293 16.2542 96.5027 16.1224 97.2181 16.3082C97.3726 16.3505 97.5362 16.4103 97.6865 16.4659C97.713 16.4744 97.7572 16.4959 97.806 16.5262C97.5117 16.9874 97.2262 17.444 96.9319 17.9052C95.6727 17.5008 94.3279 17.727 93.1909 18.4221C93.1646 18.4355 93.1384 18.4491 93.1211 18.4801C93.1124 18.4846 93.0948 18.4936 93.0861 18.4981C92.9637 18.5831 92.8371 18.6813 92.7325 18.7793C93.1263 17.7579 93.9977 16.9338 95.0411 16.5304L95.0366 16.5217ZM93.7411 25.1786C92.5715 24.5179 92.0061 23.1593 92.1063 21.8682C92.6355 22.7473 93.5051 23.3409 94.6216 23.5751C95.3762 23.7296 96.1246 23.7214 96.8812 23.6646C96.9297 23.6728 96.9825 23.6678 97.0308 23.6541C97.95 23.5691 98.8815 23.4003 99.7965 23.3285C100.703 23.2832 101.8 23.3063 102.429 24.0787C102.759 24.4845 102.964 25.0546 103.071 25.6521C102.546 25.1472 101.917 24.7403 101.271 24.5185C100.419 24.2374 99.5524 24.3395 98.7006 24.5558C98.5533 24.3769 98.4193 24.2023 98.272 24.0234C97.8837 23.5478 97.1864 24.1939 97.5747 24.6695C97.6282 24.7306 97.6685 24.7874 97.722 24.8484C96.4763 25.2673 95.0038 25.8911 93.7544 25.1829L93.7411 25.1786ZM100.725 31.23C99.3483 31.7604 97.8088 31.5 96.637 30.6413C96.8975 30.3082 97.158 29.9751 97.4494 29.6592C97.5713 29.5302 97.792 29.1844 97.9946 29.1909C98.0739 29.1945 98.3862 29.5653 98.435 29.5955C99.0169 30.0602 99.7422 30.3515 100.482 30.3918C101.099 30.429 101.674 30.2993 102.2 30.0514C102.226 30.0379 102.253 30.0244 102.279 30.0109C102.41 29.9434 102.528 29.8716 102.651 29.7866C102.151 30.4306 101.439 30.9403 100.729 31.2168L100.725 31.23Z" fill="black" stroke="#231F20" stroke-width="0.653539" stroke-miterlimit="10"/>
<path d="M78.722 21.6298C78.7288 20.6523 78.5611 19.4214 77.9142 18.6581C77.2674 17.8948 76.2226 17.7787 75.2809 17.8199C75.2634 17.8289 75.2413 17.8291 75.2281 17.8249C75.2193 17.8294 75.2061 17.8252 75.1841 17.8254C74.599 17.8715 73.8871 17.9938 73.1657 18.0546C72.3714 17.0904 71.577 16.1262 70.7957 15.1442C71.5141 14.8193 72.2885 14.7755 73.0493 15.0928C73.2041 15.1572 73.4012 15.067 73.4791 14.9384C73.8382 14.3665 74.2106 13.7988 74.5697 13.2269C74.639 13.1248 74.6548 12.9618 74.5875 12.8524C74.377 12.529 73.812 12.3987 73.4631 12.3013C72.7255 12.0937 71.9696 12.2166 71.2637 12.4798C70.6323 12.7157 70.0774 13.1005 69.6645 13.5894C69.2982 13.1135 68.9274 12.6289 68.5699 12.1486C68.2794 11.7555 67.726 12.2724 68.012 12.6567C68.4053 13.185 68.8074 13.7089 69.2094 14.2328C68.8943 14.8042 68.7298 15.4533 68.7638 16.1441C67.9176 18.0511 68.8507 20.8145 71.1691 21.0398C72.1961 21.1429 73.1687 20.7095 74.1295 20.4039C74.9196 21.3813 75.7055 22.3721 76.4739 23.3718C76.307 23.4133 76.1311 23.4373 75.9638 23.4347C75.1536 23.4305 74.8094 22.9544 74.2104 22.5427C73.9043 22.3348 73.6137 22.3292 73.308 22.5527C72.7708 22.9505 72.3434 23.7125 71.9175 24.2191C71.8219 24.3346 71.8467 24.5766 71.9534 24.6766C73.154 25.742 74.8312 26.1197 76.3389 25.4999C76.7509 25.3324 77.1532 25.0814 77.5152 24.7736C77.788 25.1536 78.0607 25.5336 78.3335 25.9136C78.602 26.3069 79.2807 25.9692 79.0077 25.5672C78.6989 25.1171 78.3814 24.6716 78.0551 24.2305C78.6589 23.4885 78.9921 22.5646 78.7087 21.6256L78.722 21.6298ZM77.8566 22.2074C77.7107 22.548 77.4717 22.8368 77.179 23.0426C76.4419 22.0821 75.6918 21.1394 74.9285 20.1925C75.3502 20.1086 75.7859 20.0949 76.2101 20.2311C76.9172 20.4655 77.6066 21.0962 77.9573 21.7572C77.937 21.9115 77.9034 22.0616 77.8566 22.2074ZM69.5402 16.2764C69.7176 15.9971 69.9176 15.7615 70.1617 15.5475C70.8448 16.4029 71.5367 17.2538 72.224 18.0959C70.9691 18.0878 69.8512 17.7215 69.5402 16.2764ZM71.5049 13.1859C72.0572 12.9685 72.6593 12.8694 73.2333 13.0171C73.3613 13.051 73.4851 13.098 73.6089 13.145C73.6354 13.1536 73.6665 13.1708 73.7107 13.1924C73.477 13.556 73.2433 13.9196 73.0183 14.2787C72.0154 13.964 70.9518 14.1342 70.0509 14.6857C70.0334 14.6947 70.0071 14.7083 69.9941 14.726C69.9854 14.7305 69.9766 14.735 69.9678 14.7395C69.8718 14.811 69.7757 14.8825 69.6841 14.9628C70.001 14.158 70.6806 13.4988 71.5136 13.1814L71.5049 13.1859ZM70.48 20.0436C69.5584 19.521 69.1018 18.4386 69.1874 17.4206C69.6089 18.1116 70.2966 18.5883 71.1748 18.7679C71.766 18.8847 72.3649 18.8868 72.9587 18.8362C72.9939 18.8403 73.0379 18.8398 73.073 18.8218C73.8031 18.7564 74.5325 18.6251 75.2626 18.5598C75.9887 18.5297 76.8475 18.5422 77.3518 19.1574C77.6151 19.4759 77.7697 19.9277 77.8586 20.4022C77.4403 19.9974 76.9436 19.6771 76.4354 19.5066C75.7682 19.285 75.0691 19.3676 74.4017 19.5335C74.2857 19.3939 74.1696 19.2543 74.0624 19.1102C73.7588 18.7349 73.2009 19.243 73.5045 19.6183C73.5402 19.6663 73.5847 19.7098 73.6205 19.7579C72.6379 20.0857 71.4679 20.5874 70.4798 20.0216L70.48 20.0436ZM76.0101 24.8387C74.9185 25.2558 73.6967 25.0536 72.7734 24.377C72.9819 24.1149 73.1857 23.8441 73.4164 23.6038C73.5078 23.5015 73.6897 23.2309 73.8483 23.2379C73.9056 23.2417 74.1641 23.5294 74.1909 23.56C74.644 23.9248 75.2277 24.1561 75.8092 24.1893C76.2895 24.2192 76.7595 24.1216 77.1755 23.9188C77.193 23.9098 77.2193 23.8963 77.2368 23.8873C77.3419 23.8333 77.4382 23.7838 77.5343 23.7123C77.1437 24.2229 76.5757 24.6255 76.0146 24.8474L76.0101 24.8387Z" fill="black" stroke="#231F20" stroke-width="0.653539" stroke-miterlimit="10"/>
<path d="M105.382 101.223C105.507 101.745 105.451 102.261 105.333 102.764C105.097 103.771 104.592 104.639 103.838 105.348C103.503 105.664 103.14 105.95 102.774 106.227C101.665 107.062 100.475 107.762 99.2669 108.427C96.5451 109.937 93.7738 111.35 90.917 112.597C87.5913 114.051 84.3377 115.646 81.0888 117.271C79.3287 118.154 77.5003 118.839 75.6222 119.405C74.2531 119.821 72.8404 119.872 71.426 119.769C70.4565 119.691 69.4826 119.605 68.5001 119.546C68.1256 119.528 67.7562 119.563 67.3778 119.58C67.0213 119.597 66.7193 119.764 66.4134 119.965C66.418 120.383 66.4356 120.784 66.4313 121.184C66.4358 121.99 66.1709 122.724 65.6715 123.346C65.4023 123.683 65.0975 123.995 64.7748 124.272C64.4783 124.535 64.133 124.767 63.7963 124.974C61.8285 126.184 59.8379 127.329 57.69 128.189C56.8923 128.511 56.1083 128.88 55.3153 129.232C53.8081 129.896 52.2416 130.38 50.6112 130.654C49.5301 130.833 48.4486 130.968 47.3432 130.95C46.6739 130.939 46.0171 130.868 45.3686 130.747C44.4819 130.594 43.7507 130.162 43.1576 129.481C42.6447 128.893 42.228 128.233 41.855 127.55C41.4955 126.893 41.1536 126.228 40.8116 125.563C39.3667 122.708 37.878 119.876 36.5339 116.98C35.7356 115.255 34.9459 113.524 34.165 111.789C33.3884 110.041 32.8532 108.224 32.4978 106.348C32.3103 105.316 32.4404 104.341 32.9542 103.424C33.3816 102.662 33.9201 101.987 34.5563 101.394C35.9161 100.142 37.401 99.0471 39.1188 98.3193C39.4913 98.161 39.8548 97.9853 40.2318 97.8359C42.0246 97.1248 43.7588 96.2778 45.5244 95.4922C46.2604 95.1583 46.9831 94.8201 47.683 94.4161C48.4881 93.9581 49.3741 93.6577 50.2841 93.5332C51.2336 93.3994 52.1851 93.4417 53.0108 94.0577C53.0818 94.1098 53.1571 94.1486 53.2324 94.1874C53.2589 94.1959 53.2897 94.1912 53.3735 94.2035C53.4303 94.1632 53.5308 94.1004 53.6004 94.0204C54.9282 92.6629 55.9634 91.1237 56.6703 89.3547C56.7176 89.2529 56.7517 89.1469 56.8032 89.0319C57.7638 87.1104 58.2957 85.044 58.8408 82.9819C59.3138 81.1671 59.7118 79.3356 59.907 77.4755C60.0741 75.8622 60.087 74.2506 59.8799 72.6415C59.8315 72.2458 59.7391 71.8506 59.6291 71.4643C59.1661 69.8096 58.4755 68.2719 57.3513 66.9459C56.6867 66.1695 56.3021 65.2272 56.0315 64.2484C55.9535 63.9674 55.9283 63.6816 55.9692 63.3949C56.1451 62.1866 56.6847 61.212 57.7831 60.6143C59.4593 59.6976 61.2568 59.4047 63.1317 59.7362C64.8609 60.0428 66.4445 60.7121 67.9165 61.6381C68.7988 62.1918 69.5639 62.9055 70.2463 63.6948C70.4113 63.8867 70.5766 64.1006 70.7111 64.3193C71.6174 65.8458 72.3175 67.4451 72.487 69.2395C72.6706 71.1043 72.8541 72.9691 72.8661 74.8445C72.8694 75.5401 72.9254 76.2307 72.9682 76.9171C72.9849 77.2295 73.006 77.5506 73.1413 77.8353C73.2623 78.0277 73.4306 78.1183 73.6422 78.1424C73.9861 78.187 74.3295 78.1876 74.672 78.1002C75.1988 77.9623 75.7346 77.8419 76.2659 77.7127C76.8938 77.5561 77.4587 77.2768 77.9605 76.875C78.5585 76.4017 79.2016 76.038 79.8851 75.731C80.989 75.2301 82.0885 74.7205 83.1927 74.2415C83.9024 73.9211 84.6301 73.6356 85.3356 73.3284C86.2294 72.9355 87.1412 72.5776 88.0712 72.2767C88.8872 72.0124 89.6985 71.7172 90.514 71.4088C91.4873 71.0414 92.4974 70.8101 93.5212 70.627C93.7716 70.5758 94.031 70.5421 94.2859 70.4997C96.1139 70.1801 97.843 70.4647 99.464 71.3362C100.784 72.0524 101.54 73.5234 101.402 75.0218C101.276 76.3705 100.81 77.5952 100.149 78.7648C99.994 79.0439 99.8428 79.3098 99.6614 79.6244C99.7816 79.7507 99.8397 79.8205 99.9062 79.8638C101.082 80.7093 101.739 81.9217 102.224 83.2327C102.637 84.3377 102.535 85.4527 101.939 86.4895C101.74 86.8352 101.502 87.168 101.276 87.5051C101.181 87.6426 101.086 87.7802 101.021 87.891C101.072 88.1414 101.24 88.2099 101.378 88.3053C102.918 89.4065 103.82 91.8093 103.406 93.7819C103.214 94.6998 102.924 95.5572 102.382 96.3337C102.265 96.4935 102.175 96.6617 102.093 96.8035C102.121 96.9881 102.231 97.031 102.329 97.0915C102.533 97.2081 102.732 97.316 102.927 97.4371C103.526 97.8048 104.007 98.2881 104.383 98.8916C104.84 99.6306 105.171 100.424 105.365 101.276L105.382 101.223ZM103.431 102.79C103.799 102.169 103.941 101.498 103.704 100.801C103.586 100.441 103.458 100.086 103.292 99.7621C102.828 98.8603 102.053 98.4286 101.066 98.3603C100.868 98.3405 100.661 98.3472 100.467 98.2921C99.791 98.097 99.471 97.4314 99.7588 96.7854C99.8489 96.573 99.9833 96.3822 100.109 96.1959C100.312 95.8811 100.534 95.5792 100.755 95.2774C101.236 94.5984 101.479 93.8429 101.558 93.0275C101.717 91.4848 100.953 90.1063 99.5585 89.4173C99.4079 89.3397 99.2398 89.2711 99.1022 89.1758C98.5833 88.8337 98.418 88.2103 98.7113 87.6611C98.8192 87.4618 98.9668 87.2753 99.1057 87.0933C99.3704 86.7469 99.6441 86.418 99.9089 86.0717C100.352 85.512 100.587 84.8711 100.605 84.1532C100.613 83.6952 100.626 83.224 100.542 82.7802C100.378 81.9235 99.9177 81.3078 98.9871 81.1552C98.793 81.1221 98.59 81.0715 98.4041 80.9899C97.7629 80.7329 97.4521 80.1067 97.6297 79.4399C97.7018 79.1926 97.8137 78.958 97.9388 78.7277C98.0725 78.4708 98.2371 78.2313 98.3708 77.9744C98.6293 77.4652 98.9098 76.9558 99.1241 76.4251C99.4585 75.6113 99.5636 74.7604 99.5098 73.8805C99.4665 73.1501 99.1394 72.643 98.519 72.2756C97.4644 71.6665 96.3319 71.5733 95.1715 71.7491C93.6594 71.9727 92.18 72.3677 90.7371 72.8768C90.088 73.0997 89.4166 73.3009 88.7537 73.4755C87.9152 73.6961 87.0947 73.9517 86.3062 74.3127C85.0752 74.8679 83.8444 75.4451 82.6314 76.0353C81.8344 76.4227 81.0153 76.8104 80.2723 77.3029C79.3326 77.9297 78.3387 78.4294 77.3228 78.9294C76.6749 79.2623 75.9905 79.4813 75.2969 79.6606C74.8754 79.7666 74.4584 79.8813 74.0366 79.9652C73.3995 80.0823 72.8428 79.9035 72.3451 79.4952C71.6075 78.8781 71.128 78.1174 71.0775 77.1361C71.0434 76.4453 70.9873 75.7546 70.9885 75.0678C70.9926 73.0512 70.8647 71.0362 70.6972 69.0304C70.6615 68.5949 70.6172 68.1639 70.4937 67.7514C70.3056 67.0623 70.0559 66.3826 69.815 65.6984C69.6513 65.2291 69.3958 64.8181 69.079 64.4386C68.4412 63.6928 67.7205 63.0227 66.8567 62.548C66.272 62.2286 65.683 61.9225 65.0813 61.6562C63.6965 61.0508 62.2659 60.6791 60.7297 60.7049C59.9285 60.7182 59.1996 60.8936 58.4901 61.2361C57.7106 61.6145 57.3522 62.2525 57.2204 63.0729C57.1505 63.5183 57.2519 63.9311 57.4894 64.3071C57.7089 64.648 57.9807 64.94 58.2875 65.214C59.4613 66.2489 60.2461 67.539 60.8212 68.9812C60.889 69.1345 60.9437 69.3056 60.9851 69.4724C61.2894 70.7107 61.4662 71.9591 61.4891 73.2312C61.5192 75.1637 61.4261 77.0932 61.2272 79.0106C60.9565 81.6069 60.346 84.1232 59.3953 86.5376C59.0441 87.4265 58.7149 88.3151 58.4388 89.2207C57.9207 90.9479 57.1061 92.5287 56.1189 94.0322C55.7726 94.5644 55.3907 95.0705 55.0266 95.5896C54.9486 95.6962 54.8663 95.816 54.7797 95.949C55.2099 96.6355 55.6397 97.2779 56.0782 97.9159C57.076 99.3622 58.0564 100.817 58.9056 102.362C59.1886 102.87 59.5021 103.351 59.8243 103.827C60.5579 104.867 61.1296 106.001 61.5742 107.189C61.9284 108.158 62.3528 109.113 62.8253 110.032C63.3382 111.031 63.7899 112.06 64.167 113.117C64.6896 114.586 65.2077 116.047 65.7303 117.516C65.7758 117.647 65.8432 117.779 65.9292 117.989C66.9774 117.617 67.9809 117.588 68.9811 117.66C69.8183 117.717 70.6469 117.801 71.4753 117.862C72.7842 117.975 74.0558 117.908 75.3196 117.524C77.1186 116.976 78.8367 116.27 80.5226 115.437C83.43 113.987 86.3506 112.542 89.33 111.232C91.5689 110.247 93.7896 109.206 95.9476 108.063C97.3437 107.313 98.7309 106.544 100.091 105.746C100.778 105.337 101.433 104.846 102.08 104.381C102.643 103.97 103.086 103.432 103.44 102.829L103.431 102.79ZM63.5651 122.779C64.3249 122.212 64.6556 121.455 64.491 120.51C64.463 120.37 64.4525 120.22 64.4246 120.08C64.2637 119.465 64.1423 118.841 63.9376 118.249C63.4006 116.666 62.846 115.091 62.2519 113.526C61.948 112.719 61.6046 111.922 61.2261 111.142C60.6362 109.951 60.0945 108.746 59.6229 107.506C59.3597 106.8 59.044 106.121 58.6232 105.496C57.8849 104.425 57.2167 103.319 56.5789 102.185C56.4619 101.958 56.3142 101.735 56.1709 101.521C55.1994 100.061 54.2233 98.5924 53.243 97.1371C53.0505 96.8487 52.845 96.578 52.635 96.2985C52.3757 95.9448 52.0599 95.6533 51.6437 95.4465C51.074 95.2855 50.5585 95.2516 50.0447 95.3718C49.4036 95.5242 48.7582 95.6898 48.1763 96.0221C47.73 96.2736 47.2569 96.4945 46.7839 96.7155C45.5929 97.3054 44.4061 97.8821 43.2193 98.4588C42.1551 98.9725 41.0999 99.5037 40.0222 99.9911C38.9621 100.47 37.9734 101.044 37.0745 101.772C36.6294 102.133 36.1666 102.482 35.735 102.87C35.3732 103.199 35.0337 103.551 34.7297 103.929C34.1519 104.635 33.9366 105.465 34.0874 106.362C34.1962 107.047 34.3314 107.719 34.5105 108.391C34.9555 110.011 35.6196 111.54 36.3583 113.042C36.7727 113.891 37.1917 114.75 37.6237 115.59C38.1231 116.562 38.6446 117.534 39.1528 118.501C39.6428 119.412 40.146 120.326 40.636 121.237C41.6204 123.066 42.5829 124.896 43.5849 126.716C43.8634 127.215 44.2076 127.691 44.5429 128.15C44.9139 128.656 45.4366 128.941 46.0674 129.049C47.0156 129.192 47.9671 129.235 48.9121 129.092C50.7976 128.798 52.6279 128.289 54.385 127.53C55.1255 127.205 55.8525 126.853 56.6022 126.568C58.702 125.743 60.6668 124.656 62.5867 123.481C62.9321 123.27 63.2554 123.038 63.5829 122.792L63.5651 122.779Z" fill="black" stroke="#231F20" stroke-width="0.653539" stroke-miterlimit="10"/>
<path d="M57.9534 117.119C58.0617 117.351 58.1394 117.61 58.1598 117.865C58.2052 118.384 58.2198 118.908 58.2034 119.414C58.1902 119.819 58.0448 120.204 57.8196 120.541C57.5166 121.007 57.1778 121.424 56.7814 121.816C56.2585 122.306 55.6676 122.621 54.9465 122.704L54.344 122.759C54.2649 122.777 54.1813 122.787 54.0933 122.788C52.3424 122.913 50.7781 122.001 50.0342 120.425C49.6555 119.623 49.6378 118.813 49.8839 117.978C50.0026 117.563 50.1212 117.148 50.2532 116.737C50.6665 115.495 51.4619 114.566 52.703 114.117C53.5975 113.79 54.5227 113.846 55.3862 114.298C56.5731 114.928 57.429 115.883 57.9709 117.11L57.9534 117.119ZM56.6665 119.783C57.0539 118.19 56.4422 117.021 55.2036 116.097C55.1326 116.045 55.0661 116.001 54.9951 115.949C54.6312 115.694 54.2248 115.57 53.7843 115.553C53.5597 115.547 53.3265 115.567 53.1197 115.574C52.5896 115.813 52.2361 116.094 51.8828 116.398C51.377 116.835 51.0879 117.371 50.9806 118.023C50.9142 118.39 50.8611 118.76 50.8072 119.064C50.8397 119.214 50.8627 119.302 50.8944 119.385C51.1781 120.346 51.8975 120.906 52.7516 121.297C52.9816 121.4 53.2593 121.424 53.5059 121.43C53.8493 121.43 54.1965 121.374 54.5352 121.343C55.0455 121.303 55.4702 121.095 55.854 120.765C56.181 120.476 56.4948 120.181 56.671 119.792L56.6665 119.783Z" fill="black" stroke="#231F20" stroke-width="0.653539" stroke-miterlimit="10"/>
<path d="M55.6722 118.512C55.7934 118.727 55.8354 118.938 55.604 119.112C55.547 119.13 55.4857 119.162 55.4371 119.153C55.2696 119.129 55.1017 119.082 54.9299 119.071C54.7053 119.064 54.4767 119.093 54.2918 119.1C53.9921 119.464 54.2531 119.972 53.8375 120.219C53.6357 120.278 53.4893 120.187 53.3996 120.034C53.3231 119.886 53.2421 119.728 53.2094 119.557C53.1632 119.359 53.1697 119.156 53.1505 119.011C52.9095 118.715 52.5133 118.719 52.3683 118.351C52.3183 118.21 52.3607 118.056 52.5528 117.913L53.2477 117.843C53.4551 117.493 53.3757 117.08 53.715 116.707L54.0537 116.677C54.1117 116.746 54.1872 116.807 54.21 116.873C54.2382 117.036 54.2489 117.207 54.2596 117.379L54.3144 117.959C54.7661 118.192 55.3241 118.093 55.681 118.508L55.6722 118.512Z" fill="black" stroke="#231F20" stroke-width="0.653539" stroke-miterlimit="10"/>
<path d="M35.3383 106.77C35.9181 109.427 37.4543 112.18 37.8002 114.791L40.3306 113.491C38.681 111.638 35.5927 105.09 38.8033 103.196L36.878 101.087C35.1214 103.483 31.8892 105.421 33.001 108.812C33.8027 111.234 35.9869 113.266 37.2657 115.431C39.1144 118.576 40.6394 121.91 42.3043 125.149L44.7073 123.472L43.2224 120.582L40.6833 121.887C43.3098 125.297 43.9823 130.762 48.803 131.527C50.1173 131.737 50.7842 129.934 49.9688 129.058C49.1667 128.186 48.3602 127.328 47.5493 126.461L46.3835 128.93C47.5397 128.768 48.668 128.874 49.7904 129.249C51.6445 129.691 52.4661 127.155 50.6927 126.439C48.1409 125.415 46.2885 123.921 44.6533 121.773L42.7762 124.021C44.0443 124.831 45.065 125.955 46.2768 126.849C47.3244 127.617 48.7692 126.487 48.5139 125.301C48.0358 123.078 46.8642 121.445 45.5409 119.623C43.3769 116.64 41.7442 113.528 39.9388 110.316L37.3121 111.666C39.0752 114.235 40.7022 116.841 42.7536 119.196C43.7035 120.291 45.621 119.305 45.284 117.896C44.1246 112.991 42.7806 106.52 39.7543 102.398C38.9945 101.371 37.1976 102.118 37.1933 103.315C37.1842 106.076 38.3433 107.771 39.1649 110.404L41.6953 109.104C37.6344 105.38 42.3549 103.064 45.3695 102.146L44.3923 99.3831C42.9874 100.138 41.4791 101.102 39.7965 101.037L41.1211 102.968C41.9493 101.026 44.5386 100.271 46.273 99.446C48.8001 98.2469 49.822 97.0909 51.6488 99.8488C54.1205 103.581 55.7867 108.138 57.7595 112.149C58.6242 113.896 61.0305 112.526 60.3862 110.799C59.4423 108.251 57.9114 105.983 57.472 103.276L55.2349 104.824C59.7509 107.495 60.2663 116.273 61.924 120.855C62.4871 122.403 65.237 121.444 64.6869 119.878C64.3608 119.05 64.0961 118.212 63.884 117.347C63.3708 115.529 60.4847 116.116 60.9937 117.947C62.3466 122.841 58.0928 124.363 54.1588 126.141C51.9246 127.156 51.1086 127.421 49.0251 125.735C47.5412 124.528 46.2113 122.522 45.8034 120.673L43.5663 122.221C47.0883 124.185 49.2165 127.12 53.0302 128.791C54.614 129.482 55.5997 127.049 54.2776 126.135C50.8703 123.791 48.2799 120.861 45.9137 117.506L43.7432 119.507C48.2676 124.132 54.483 128.387 60.8116 124.57C62.1368 123.768 61.5054 121.225 59.8344 121.807C58.1634 122.389 56.6905 122.969 54.8143 122.915L55.4088 125.709C60.998 121.918 62.6982 114.824 57.4146 109.625C56.4709 108.693 54.4054 109.434 54.8842 110.926C55.2945 112.198 59.5608 120.952 58.5131 121.369L60.1908 123.771C63.8728 119.909 60.5831 116.652 59.5153 112.464L56.9849 113.764L57.8838 114.63C58.8363 115.558 60.8843 114.826 60.4142 113.33C59.3502 109.881 57.3873 107.16 55.2336 104.304C53.8842 102.519 52.1468 98.2979 50.0736 97.1497C46.0515 94.9444 42.3258 101.629 39.4994 103.237C38.13 104.018 38.8184 106.542 40.4766 106C43.7931 104.915 47.0048 103.907 50.0411 102.169C51.2616 101.465 50.9706 99.4336 49.4466 99.3757C45.3241 99.2364 43.3305 102.895 40.1362 105.079C39.0482 105.826 39.0971 107.86 40.7307 107.873C44.5436 107.883 47.4779 106.076 51.0225 104.919C52.4921 104.44 52.6107 102.022 50.8053 101.998C46.6882 101.955 43.7282 105.414 40.8022 107.969C39.9082 108.749 40.435 110.592 41.7199 110.53C45.8168 110.339 49.3515 108.689 53.1081 107.19C54.7431 106.538 53.6828 104.216 52.1309 104.427C47.9589 104.988 44.8924 108.368 42.2044 111.343C41.3302 112.313 41.9734 114.34 43.5048 113.874C46.7565 112.9 53.9842 111.953 55.1811 108.316C55.4707 107.437 54.8077 106.405 53.8565 106.385C48.907 106.316 43.6723 110.711 40.723 114.34C39.7674 115.518 41.427 117.089 42.6484 116.45C45.3884 114.998 49.146 108.418 43.2847 108.707C36.0592 109.056 46.2101 120.021 47.6817 121.312C48.7132 122.221 50.5373 121.549 50.2121 120.012C49.7615 117.886 50.159 116.01 52.1687 114.601C53.1299 113.93 54.9127 112.704 56.1085 113.739L56.8958 111.286C55.9541 111.328 55.0499 111.184 54.1833 110.854L54.7349 113.349C55.8481 112.091 55.9661 112.019 56.3618 110.377C56.5932 109.405 55.8042 108.129 54.6545 108.476C50.2799 109.827 45.6069 111.266 42.0512 114.211C41.0259 115.059 41.7789 116.653 42.9689 116.772C44.9611 116.966 46.2925 116.326 48.1969 115.746L46.6487 113.509C45.9568 114.639 45.3962 115.702 44.9256 116.94C44.2453 118.717 47.0642 119.615 47.7358 117.842C48.086 116.865 48.547 115.953 49.1363 115.097C49.7504 114.095 48.8607 112.472 47.5882 112.86C46.2499 113.271 44.4347 113.96 43.1256 113.825L44.0433 116.386C47.1149 113.856 51.503 112.53 55.2545 111.366L53.5472 109.466L52.7383 111.165C52.0339 111.97 52.1411 113.298 53.2898 113.66C54.6991 114.098 56.0407 114.382 57.5045 114.172C58.5463 114.024 59.1321 112.45 58.2919 111.72C52.8018 106.96 46.146 115.029 47.3347 120.594L49.8652 119.294C48.5891 118.167 47.1985 117.034 46.1183 115.707C44.3954 113.582 44.2617 112.245 41.3027 113.81L43.228 115.92C45.3824 113.263 50.3178 109.277 53.7085 109.327L52.3839 107.396C52.0047 108.532 43.6155 110.751 42.9134 110.957L44.2138 113.487C46.5147 110.943 49.1565 107.771 52.7394 107.291L51.7622 104.528C48.5492 105.814 45.4054 107.385 41.8806 107.547L42.7983 110.108C44.6735 108.481 48.0768 104.894 50.6438 104.914L50.4266 101.993C47.2724 103.028 44.2861 104.905 40.8959 104.899L41.4904 107.693C43.3474 106.417 47.1756 102.236 49.2854 102.314L48.6909 99.5205C45.904 101.119 42.9165 102.09 39.8719 103.079L40.8491 105.842C43.0148 104.607 46.3979 99.1937 49.1336 100.533C49.9792 100.95 50.9316 103.471 51.5752 104.336C53.8457 107.397 56.3816 110.178 57.5324 113.903L60.0628 112.603L59.1638 111.737C58.1759 110.784 56.2514 111.54 56.6334 113.037C57.278 115.584 60.518 119.132 58.2027 121.561C57.0232 122.798 58.3329 124.571 59.8803 123.964C65.5308 121.736 58.9178 113.778 57.8006 110.29L55.2702 111.591C58.9914 115.257 58.1403 120.298 54.0936 123.042C52.9794 123.803 53.0761 125.779 54.6881 125.836C56.7889 125.896 58.4957 125.362 60.4736 124.666L59.4965 121.904C54.3312 125.012 49.5154 121.111 45.9485 117.466C44.5769 116.068 42.7089 117.946 43.778 119.467C46.2785 123.018 49.1437 126.117 52.7286 128.591L53.976 125.936C50.4454 124.386 48.4365 121.489 45.1937 119.68C44.1215 119.08 42.6693 119.937 42.9566 121.228C43.889 125.519 48.7396 131.77 53.6314 129.81C55.6039 129.017 57.4285 127.593 59.3197 126.621C60.6506 125.937 62.5207 125.441 63.6186 124.39C65.6532 122.447 64.579 119.668 63.9231 117.293L61.0327 117.893C61.2448 118.758 61.5227 119.601 61.8356 120.425L64.5985 119.448C62.6684 114.12 62.2998 105.477 56.871 102.279C55.7586 101.622 54.4262 102.561 54.6339 103.827C55.1295 106.837 56.7546 109.267 57.8118 112.1L60.4385 110.75C58.5875 106.997 56.8062 103.186 54.8588 99.4831C53.9189 97.6971 52.7515 95.2533 50.5065 94.8907C48.2615 94.5281 45.8952 96.3418 44.0473 97.2472C41.4986 98.4906 39.4959 99.3317 38.3632 102.017C37.9943 102.893 38.8024 103.905 39.6878 103.948C42.0047 104.041 43.7682 103.058 45.7902 101.974C47.1952 101.219 46.463 98.7175 44.8131 99.2112C39.0604 100.961 33.6705 105.657 39.5684 111.06C40.5291 111.939 42.5736 111.286 42.0988 109.759C41.4776 107.732 40.1768 105.567 40.1885 103.436L37.6274 104.354C40.3094 108.001 41.4204 114.104 42.4371 118.451L44.9675 117.151C43.099 115.001 41.5844 112.614 39.9823 110.272C38.9398 108.76 36.4034 109.919 37.3556 111.622C38.7298 114.059 39.9029 116.621 41.4565 118.955C43.0101 121.289 45.0733 123.129 45.6628 125.869L47.8999 124.321C46.6658 123.406 45.6984 122.32 44.3992 121.494C42.9183 120.55 41.5392 122.454 42.5221 123.742C44.4836 126.332 46.8313 128.014 49.8342 129.227L50.7364 126.416C49.3151 126.084 48.0535 125.869 46.584 125.96C45.3696 126.031 44.4648 127.415 45.4182 128.43C46.2291 129.297 47.0267 130.16 47.8376 131.027L49.0034 128.558C46.5821 128.175 44.3716 121.785 42.8975 119.864C42.0264 118.729 39.938 119.791 40.367 121.164C40.8783 122.805 41.5745 124.052 42.5674 125.446C43.5602 126.839 45.7128 125.213 44.9704 123.768C42.8915 119.723 41.0093 115.544 38.4884 111.737C37.1361 109.687 35.3656 108.438 37.0093 105.391C37.5183 104.443 38.7412 103.549 39.4048 102.644C40.2636 101.472 38.7306 99.8024 37.4795 100.534C32.2086 103.652 34.8116 111.689 38.1774 115.46C39.2028 116.616 40.8947 115.536 40.7078 114.16C40.3514 111.399 38.8487 108.884 38.2459 106.139C37.8335 104.281 34.9432 104.881 35.3556 106.739L35.3383 106.77Z" fill="#231F20"/>
<path d="M57.1486 115.009C58.8384 114.14 57.4885 111.513 55.7987 112.382C54.1088 113.25 55.4587 115.877 57.1486 115.009Z" fill="#231F20"/>
<path d="M49.7868 115.626C51.4767 114.758 50.1268 112.131 48.4369 113C46.7471 113.868 48.097 116.495 49.7868 115.626Z" fill="#231F20"/>
<path d="M55.1336 127.5C56.8234 126.631 55.4735 124.005 53.7837 124.873C52.0938 125.742 53.4437 128.368 55.1336 127.5Z" fill="#231F20"/>
</svg>
