<svg width="71" height="97" viewBox="0 0 71 97" fill="none" xmlns="http://www.w3.org/2000/svg">
<path d="M32.9193 20.7238C30.3832 20.8573 29.9427 19.696 27.6202 21.6048C25.5513 23.2999 23.3222 26.9038 23.2154 29.56C22.855 37.8891 31.5845 32.2429 33.9738 28.4255C35.2952 26.3032 36.0961 24.9818 33.9738 23.3266C30.5834 20.6838 25.2576 26.6636 23.5758 29.1196C17.0887 38.6098 27.9138 38.8768 33.9871 34.5121C36.3497 32.8169 41.8089 28.9727 38.7923 25.6625C36.9236 23.6069 30.1429 24.3277 28.4077 26.0095C26.3388 27.9983 26.499 32.5099 28.1941 34.7657C30.5567 37.8891 39.0192 38.3963 42.4363 37.4486C51.2192 35.0193 48.8299 25.1019 40.9146 23.7938C33.6267 22.5925 25.2042 27.0907 27.3132 35.0994C32.639 36.4475 52.941 28.0784 43.3039 21.6315C38.4853 18.4013 32.2252 24.2076 28.034 25.8894C31.9182 26.8104 39.0059 21.3245 37.6711 17.0265C34.7346 16.3324 29.916 17.507 27.2464 18.9352C24.0296 20.6704 22.548 26.1697 21.4134 29.6001C20.052 33.7112 16.0876 39.344 16.4881 43.8689C16.8752 48.0734 22.2677 48.1935 25.3377 47.6997C27.7003 47.3126 42.9302 41.2393 38.819 38.9168C36.0293 37.3418 26.7926 45.1502 27.9939 47.7264C29.4221 50.8097 37.9915 43.2415 40.5009 42.1737C37.8313 43.4551 33.9604 44.603 32.7458 47.4194C36.9503 46.2047 40.2205 42.8678 44.345 41.6798C40.5142 42.5875 39.2328 46.6185 35.9359 48.3537C38.3785 47.1925 40.4608 45.7242 42.5564 44.0424C42.3028 45.4039 41.2083 46.3515 39.9002 46.7653C44.6387 47.1391 49.6975 41.0525 51.2192 37.0748C52.3137 34.2184 52.1135 29.4132 50.4984 26.5835C48.95 23.9006 43.5308 22.459 40.621 21.8984C38.8457 21.5647 36.5098 20.6437 34.7613 20.6304C33.9337 20.6304 33.8002 21.5781 32.8258 21.7115C31.1841 21.9518 29.7291 22.0452 28.1141 22.4056C23.0419 23.5402 19.3312 24.4345 16.8485 29.3598C14.3791 34.2585 16.6216 37.1416 20.4524 40.5052C22.0808 41.9334 24.1898 42.0135 25.9784 43.0146C28.5011 44.4161 29.8359 46.2982 32.9326 45.5106C34.5477 45.0969 36.0694 44.0157 37.7378 43.5485C39.4731 43.068 42.0759 43.2549 41.582 40.9057" stroke="#F4923B" stroke-width="15.4869" stroke-linecap="round" stroke-linejoin="round"/>
<path d="M20.4349 66.8508C18.1124 74.0186 14.375 80.8793 14.6019 88.7145C17.485 83.2953 19.0734 77.4223 22.4238 72.27C23.5183 70.5882 25.7607 68.279 25.8675 66.1567C23.4649 68.5727 22.3437 71.4024 21.1157 74.5258C19.901 77.6492 17.5918 81.3732 17.445 84.8036C20.3815 82.4944 23.238 79.3443 25.4137 76.3411C26.7084 74.5525 27.1355 72.0565 29.2178 71.0153C27.4025 73.6448 26.1345 76.7816 24.6128 79.5713C23.5583 81.52 21.5962 83.7758 21.1957 85.8847C20.9421 85.9515 20.6752 86.0182 20.4216 86.0716" stroke="#F4923B" stroke-width="15.4869" stroke-linecap="round" stroke-linejoin="round"/>
<path d="M43.4917 70.6964C45.1201 74.8075 46.8687 79.3724 47.4694 83.8573C45.7208 79.7195 43.7587 75.6884 41.97 71.6174C40.7954 68.9345 40.2348 66.1314 40.742 63.2883C44.8665 66.8655 49.605 71.9244 50.219 77.1433C50.5794 71.6307 46.4683 68.3472 45.347 63.1816C45.5873 67.1725 45.2803 70.7231 46.3748 74.6206C46.882 76.4226 47.4827 79.7061 48.7374 81.0809C49.4315 78.3313 48.2836 73.5261 48.2969 70.4428C48.2969 67.9868 49.258 62.9279 47.6829 60.9258C51.14 61.8067 53.0888 70.5896 54.0765 73.6062C54.8374 75.942 55.1711 78.2112 56.5192 80.2267C56.0253 77.5705 53.4892 78.3313 52.061 76.6628C51.1667 75.6217 50.1256 72.1379 50.2057 70.7231" stroke="#F4923B" stroke-width="15.4869" stroke-linecap="round" stroke-linejoin="round"/>
<path d="M36.1787 51.1143C25.754 51.0342 15.7965 43.6529 16.5974 32.6143C17.9989 13.3401 47.7913 8.6684 52.5565 28.2896C54.3051 38.0202 47.1373 51.1944 36.1787 51.1143M17.2247 20.4812C11.5919 27.6222 10.7377 38.2871 16.2103 45.8019C21.4827 53.0364 34.1098 57.5079 42.5056 53.904C52.73 49.5259 58.3895 37.9534 56.4674 27.2218C52.0359 9.00209 28.0899 6.73297 17.2381 20.4812" fill="black"/>
<path d="M55.9331 54.5191C53.3703 56.6548 50.7141 56.588 47.6307 56.9484C46.0023 57.1486 44.9078 57.1887 43.7599 58.5101C42.4117 60.0585 41.8912 61.9272 40.0892 63.2085C34.3229 67.3063 28.0628 63.3287 24.3788 58.4968C23.7247 57.6425 22.6302 57.1486 21.6158 57.776C17.785 60.1252 12.8863 58.7637 10.7239 54.8128C9.80294 53.131 9.40251 51.1421 9.46925 49.2334C9.50929 47.8452 10.0966 46.4437 9.68281 45.0689C9.40251 44.1212 9.00207 43.8543 8.32133 43.2002C6.63951 41.5985 5.21129 40.4773 4.50385 38.1414C3.08898 33.4697 5.45155 28.9448 8.61499 25.6078C9.28238 24.9004 9.32242 24.0061 8.93534 23.1518C7.25351 19.5079 8.90864 10.8185 14.7416 13.408C15.7427 13.8484 16.904 13.7016 17.5047 12.6872C19.4 9.49707 20.9217 6.94764 25.1396 6.9076C26.1941 6.9076 27.0083 7.12117 27.9827 7.45486C28.7569 7.72182 30.2919 8.90977 29.9448 8.09555C30.372 9.08329 31.2129 9.29685 31.9871 9.05659C32.3741 9.01655 32.7746 8.84303 33.1216 8.49599C35.2973 6.42708 37.9535 4.17131 41.1303 4.06452C44.2938 3.95774 45.0813 5.6796 46.7364 7.89534C49.0456 10.992 52.0756 9.36359 55.4125 10.8318C58.1622 12.0465 60.1777 14.4091 60.8584 17.3723C61.4324 19.9083 59.8574 22.4311 60.458 24.7669C60.8051 26.1284 61.9263 26.5422 62.8873 27.303C65.4768 29.3719 66.6648 31.9747 65.9306 35.3384C64.9028 40.0368 59.8574 42.2392 58.9364 46.724C58.2823 49.8875 58.7895 52.1966 55.9865 54.5325M58.7228 80.2403C56.9876 79.3861 55.0521 78.6386 53.6106 79.3327C51.1546 80.5206 50.594 85.7262 49.8732 87.9553C49.8064 88.1689 49.7397 88.3825 49.673 88.596C49.4594 88.1289 49.2325 87.675 49.0189 87.2079C48.0445 85.1123 47.0835 83.0166 46.1625 80.8943C44.227 76.5029 42.4251 72.0715 40.7166 67.6C41.8111 67.0394 42.8789 66.2919 43.92 65.3308C45.5084 63.8492 46.2292 61.5 48.3515 60.9928C49.5795 60.6992 50.7808 60.5924 51.9688 60.4322C53.2769 64.1963 54.585 67.9604 55.9064 71.7111C56.8407 74.394 58.2289 77.3038 58.7361 80.227M15.2756 82.9633C13.7406 84.8319 12.0988 86.5405 10.3102 88.0888C13.7539 79.6263 17.1576 71.1505 20.5079 62.6613C21.0685 62.5011 21.6291 62.3009 22.2031 62.0473C24.7659 64.9304 27.9961 67.2396 31.4265 68.294C28.2096 75.4084 24.6057 82.3092 20.6147 89.0098C19.9607 87.2879 19.3066 85.5661 18.6526 83.8442C18.172 82.5762 16.33 81.6552 15.2756 82.9499M62.8072 49.9141C63.3278 44.5083 68.9205 41.3716 69.9617 35.7388C70.7092 31.7078 69.5078 27.2897 66.2376 24.6601C65.8505 24.3531 64.7293 23.9527 64.5558 23.5523C64.3289 23.0317 65.0764 21.2431 65.1164 20.5624C65.2899 18.1331 64.8228 15.6104 63.7416 13.4347C61.7661 9.45703 57.8819 6.73408 53.5038 6.06669C52.6095 5.93321 50.9677 6.26691 50.2603 5.75969C49.753 5.3993 49.3926 3.94439 48.9388 3.38379C47.6307 1.76871 45.6953 0.700883 43.6798 0.247058C39.1549 -0.767373 35.0437 1.4884 31.6801 4.34483C29.5311 3.17022 26.1274 2.72975 24.5123 2.83653C19.7204 3.11683 17.1843 5.63956 14.8751 9.24346C7.05329 7.37477 2.74194 16.6248 4.89094 23.6991C1.55398 27.5032 -0.661764 32.2951 0.17915 37.4473C0.55289 39.7431 1.46054 41.9455 2.92881 43.7608C3.54281 44.5083 4.35703 45.0422 4.97103 45.7496C6.0789 47.031 5.69181 46.07 5.47824 48.0588C4.74411 55.1865 9.66947 61.9272 15.9963 62.9149C11.9786 73.0859 7.8942 83.2436 3.75637 93.3612C3.06228 95.043 5.33142 96.4979 6.73294 95.6437C10.15 93.5481 13.2066 91.0921 15.943 88.2089C16.6904 90.1711 17.4379 92.1465 18.1854 94.1087C18.7994 95.7104 20.9084 96.1509 21.8827 94.5892C27.035 86.3402 31.5733 77.771 35.5109 68.8813C35.938 68.8813 36.3785 68.8413 36.8056 68.7879C38.4474 73.0592 40.1693 77.3038 41.9979 81.5083C43.0257 83.8576 44.0669 86.2068 45.148 88.5293C45.9089 90.1711 46.6029 92.4669 48.3382 93.4012C50.4071 94.5091 52.0355 93.4279 52.9165 91.5192C53.7173 89.7973 55.0521 86.5405 55.1189 84.6584C55.1723 82.9099 54.585 83.4438 56.2267 83.7775C57.5882 84.0578 59.0164 84.9387 60.2978 85.4593C61.646 86.0199 62.7271 84.6451 62.8606 83.5105C63.3411 79.5462 61.5525 75.7955 60.2711 72.1249C58.7895 67.8669 57.3079 63.609 55.8263 59.351C59.5637 57.5624 62.3534 54.1054 62.7672 49.9141" fill="black"/>
<path d="M40.3393 28.5037C39.5117 28.864 38.6842 29.1577 37.8433 29.438C37.1358 28.17 36.4017 26.9286 35.6275 25.6873C34.7199 24.2457 32.384 24.4459 31.9302 26.1678C31.503 27.7562 31.0759 29.3579 30.6621 30.9463C29.1004 31.0664 27.5387 31.0931 25.9637 31.0264C23.6545 30.9196 23.2674 34.3767 25.4298 35.004C26.7112 35.3778 27.8991 35.8583 29.0337 36.4856C28.2061 38.6747 27.1917 42.0383 28.7133 43.333C30.6621 44.9882 33.4785 42.2118 35.2938 40.3565C36.8822 41.2241 38.4973 41.9315 40.2859 42.412C41.6607 42.7724 43.3559 41.411 42.7686 39.9294C42.0879 38.1674 41.3404 36.4456 40.5529 34.7371C41.4472 33.6159 42.3148 32.4679 43.1157 31.2666C44.3837 29.398 42.0078 27.7829 40.3527 28.5037" fill="black"/>
</svg>
